<?xml version="1.0" encoding="utf-8"?>
<!-- Generator: Adobe Illustrator 25.2.3, SVG Export Plug-In . SVG Version: 6.00 Build 0)  -->
<svg version="1.1" id="Layer_1" xmlns="http://www.w3.org/2000/svg" xmlns:xlink="http://www.w3.org/1999/xlink" x="0px" y="0px"
	 viewBox="0 0 50 50" style="enable-background:new 0 0 50 50;" xml:space="preserve">
<style type="text/css">
	.st0{fill:#D4492A;}
	.st1{opacity:0.3;fill:#D4492A;enable-background:new    ;}
	.st2{opacity:0.6;fill:#D4492A;enable-background:new    ;}
</style>
<g>
	<path class="st0" d="M25.29,33.47c0,0.49-0.28,0.93-0.72,1.13c-0.17,0.08-0.35,0.12-0.53,0.12c-0.29,0-0.57-0.1-0.8-0.29
		l-6.86-5.68h-3.65c-0.69,0-1.25-0.56-1.25-1.25v-5c0-0.69,0.56-1.25,1.25-1.25h3.65l6.86-5.68c0.37-0.31,0.89-0.38,1.33-0.17
		c0.44,0.21,0.72,0.65,0.72,1.13L25.29,33.47L25.29,33.47z"/>
	<path class="st0" d="M34.1,35.7l-1.95-1.95c4.82-4.83,4.82-12.66,0-17.49l1.95-1.95c5.91,5.9,5.91,15.48,0.01,21.38
		C34.1,35.69,34.1,35.69,34.1,35.7z"/>
	<path class="st0" d="M30.21,31.8l-1.95-1.95c2.68-2.69,2.68-7.03,0-9.72l1.95-1.94C33.96,21.96,33.96,28.04,30.21,31.8z"/>
</g>
</svg>
