<?xml version="1.0" encoding="utf-8"?>
<!-- Generator: Adobe Illustrator 25.2.3, SVG Export Plug-In . SVG Version: 6.00 Build 0)  -->
<svg version="1.1" id="Layer_1" xmlns="http://www.w3.org/2000/svg" xmlns:xlink="http://www.w3.org/1999/xlink" x="0px" y="0px"
	 viewBox="0 0 50 50" style="enable-background:new 0 0 50 50;" xml:space="preserve">
<style type="text/css">
	.st0{fill:#D4492A;}
	.st1{opacity:0.3;fill:#D4492A;enable-background:new    ;}
	.st2{opacity:0.6;fill:#D4492A;enable-background:new    ;}
</style>
<g>
	<g>
		<g>
			<g>
				<polygon class="st0" points="25,19.4 25,22.98 27.56,21.43 				"/>
				<path class="st0" d="M25,11.36c-5.64,0-10.23,4.59-10.23,10.23v6.82c0,5.64,4.59,10.23,10.23,10.23s10.23-4.59,10.23-10.23
					v-6.82C35.23,15.95,30.64,11.36,25,11.36z M30.26,29.25l-5.68,4.59c-0.21,0.17-0.46,0.25-0.71,0.25c-0.17,0-0.33-0.04-0.49-0.11
					c-0.39-0.19-0.65-0.59-0.65-1.03v-5.21l-1.45,1.45c-0.22,0.22-0.51,0.33-0.8,0.33c-0.29,0-0.58-0.11-0.8-0.33
					c-0.44-0.44-0.44-1.16,0-1.61L22.26,25l-2.62-2.65c-0.44-0.45-0.44-1.17,0.01-1.61c0.45-0.44,1.17-0.44,1.61,0.01l1.46,1.48
					v-5.19c0-0.44,0.25-0.83,0.64-1.02c0.39-0.19,0.86-0.14,1.2,0.13l5.68,4.51c0.29,0.23,0.45,0.59,0.43,0.96
					c-0.02,0.37-0.23,0.71-0.54,0.9l-4.04,2.45l4.03,2.42c0.32,0.19,0.52,0.53,0.55,0.9C30.71,28.66,30.55,29.02,30.26,29.25z"/>
				<polygon class="st0" points="25,30.58 27.57,28.51 25,26.97 				"/>
			</g>
		</g>
	</g>
</g>
</svg>
