<?xml version="1.0" encoding="utf-8"?>
<!-- Generator: Adobe Illustrator 25.2.3, SVG Export Plug-In . SVG Version: 6.00 Build 0)  -->
<svg version="1.1" id="Layer_1" xmlns="http://www.w3.org/2000/svg" xmlns:xlink="http://www.w3.org/1999/xlink" x="0px" y="0px"
	 viewBox="0 0 50 50" style="enable-background:new 0 0 50 50;" xml:space="preserve">
<style type="text/css">
	.st0{fill:#D4492A;}
	.st1{opacity:0.3;fill:#D4492A;enable-background:new    ;}
	.st2{opacity:0.6;fill:#D4492A;enable-background:new    ;}
</style>
<g>
	<path class="st0" d="M35.2,16.07h-4.04l-2.33-2.55h-7.65l-2.33,2.55H14.8c-1.4,0-2.55,1.15-2.55,2.55v15.31
		c0,1.4,1.15,2.55,2.55,2.55H35.2c1.4,0,2.55-1.15,2.55-2.55V18.62C37.76,17.22,36.61,16.07,35.2,16.07z M35.2,33.93H14.8V18.62
		h5.17l2.33-2.55h5.41l2.33,2.55h5.17V33.93z M25,19.9c-3.52,0-6.38,2.86-6.38,6.38s2.86,6.38,6.38,6.38s6.38-2.86,6.38-6.38
		S28.52,19.9,25,19.9z M25,30.1c-2.1,0-3.83-1.72-3.83-3.83s1.72-3.83,3.83-3.83s3.83,1.72,3.83,3.83S27.1,30.1,25,30.1z"/>
</g>
</svg>
