<?xml version="1.0" encoding="utf-8"?>
<!-- Generator: Adobe Illustrator 25.2.3, SVG Export Plug-In . SVG Version: 6.00 Build 0)  -->
<svg version="1.1" id="Layer_1" xmlns="http://www.w3.org/2000/svg" xmlns:xlink="http://www.w3.org/1999/xlink" x="0px" y="0px"
	 viewBox="0 0 50 50" style="enable-background:new 0 0 50 50;" xml:space="preserve">
<style type="text/css">
	.st0{fill:#D4492A;}
	.st1{opacity:0.3;fill:#D4492A;enable-background:new    ;}
	.st2{opacity:0.6;fill:#D4492A;enable-background:new    ;}
</style>
<g>
	<path class="st0" d="M33.01,11.65H22.33l-8.01,8.01v16.02c0,1.47,1.2,2.67,2.67,2.67h16.02c1.47,0,2.67-1.2,2.67-2.67V14.32
		C35.68,12.85,34.48,11.65,33.01,11.65z M33.01,14.32v21.37H16.99V20.77l6.45-6.45H33.01z M18.32,31.68h2.67v2.67h-2.67V31.68z
		 M29.01,31.68h2.67v2.67h-2.67V31.68z M18.32,23.66h2.67v5.34h-2.67V23.66z M23.66,29.01h2.67v5.34h-2.67V29.01z M23.66,23.66h2.67
		v2.67h-2.67V23.66z M29.01,23.66h2.67v5.34h-2.67V23.66z"/>
</g>
</svg>
