<?xml version="1.0" encoding="utf-8"?>
<!-- Generator: Adobe Illustrator 25.2.3, SVG Export Plug-In . SVG Version: 6.00 Build 0)  -->
<svg version="1.1" id="Layer_1" xmlns="http://www.w3.org/2000/svg" xmlns:xlink="http://www.w3.org/1999/xlink" x="0px" y="0px"
	 viewBox="0 0 50 50" style="enable-background:new 0 0 50 50;" xml:space="preserve">
<style type="text/css">
	.st0{fill:#D4492A;}
	.st1{opacity:0.3;fill:#D4492A;enable-background:new    ;}
	.st2{opacity:0.6;fill:#D4492A;enable-background:new    ;}
</style>
<path class="st0" d="M32.73,20.49h-1.29v-2.58c0-3.55-2.89-6.44-6.44-6.44s-6.44,2.89-6.44,6.44v2.58h-1.29
	c-1.42,0-2.58,1.16-2.58,2.58v12.88c0,1.42,1.16,2.58,2.58,2.58h15.46c1.42,0,2.58-1.16,2.58-2.58V23.07
	C35.3,21.65,34.14,20.49,32.73,20.49z M21.14,17.92c0-2.14,1.73-3.86,3.86-3.86s3.86,1.73,3.86,3.86v2.58h-7.73V17.92z M32.73,35.95
	H17.27V23.07h15.46V35.95z M25,32.08c1.42,0,2.58-1.16,2.58-2.58s-1.16-2.58-2.58-2.58s-2.58,1.16-2.58,2.58S23.58,32.08,25,32.08z"
	/>
</svg>
