<?xml version="1.0" encoding="utf-8"?>
<!-- Generator: Adobe Illustrator 25.2.3, SVG Export Plug-In . SVG Version: 6.00 Build 0)  -->
<svg version="1.1" id="Layer_1" xmlns="http://www.w3.org/2000/svg" xmlns:xlink="http://www.w3.org/1999/xlink" x="0px" y="0px"
	 viewBox="0 0 50 50" style="enable-background:new 0 0 50 50;" xml:space="preserve">
<style type="text/css">
	.st0{fill:#D4492A;}
	.st1{opacity:0.3;fill:#D4492A;enable-background:new    ;}
	.st2{opacity:0.6;fill:#D4492A;enable-background:new    ;}
</style>
<g id="Outline_4_" transform="translate(10.153 7.744)">
	<g id="Group_173_1_">
		<path id="Path_2709_1_" class="st1" d="M24.69,14.85v12.9h-12.9L24.69,14.85 M27.49,8.12L5.1,30.55h22.39V8.12z"/>
		<path id="Path_2710_1_" class="st0" d="M21.89,13.73L5.1,30.55h16.79V13.73z M2.2,8.06l1.81,1.8c4.47-4.46,11.72-4.46,16.19,0
			l1.81-1.8C16.54,2.6,7.68,2.59,2.2,8.06C2.21,8.06,2.21,8.06,2.2,8.06z M9.4,15.26l2.7,2.7l2.7-2.7
			C13.3,13.77,10.89,13.77,9.4,15.26z M5.8,11.66l1.8,1.81c2.49-2.48,6.51-2.48,9,0l1.79-1.81C14.91,8.19,9.28,8.19,5.8,11.66z"/>
	</g>
</g>
</svg>
