<?xml version="1.0" encoding="utf-8"?>
<!-- Generator: Adobe Illustrator 25.2.3, SVG Export Plug-In . SVG Version: 6.00 Build 0)  -->
<svg version="1.1" id="Layer_1" xmlns="http://www.w3.org/2000/svg" xmlns:xlink="http://www.w3.org/1999/xlink" x="0px" y="0px"
	 viewBox="0 0 50 50" style="enable-background:new 0 0 50 50;" xml:space="preserve">
<style type="text/css">
	.st0{fill:#D4492A;}
	.st1{opacity:0.3;fill:#D4492A;enable-background:new    ;}
	.st2{opacity:0.6;fill:#D4492A;enable-background:new    ;}
</style>
<path class="st0" d="M26.32,18.4h-2.64v5.28H18.4v2.64h5.28v5.28h2.64v-5.28h5.28v-2.64h-5.28V18.4z M25,11.8
	c-7.27,0-13.2,5.93-13.2,13.2S17.73,38.2,25,38.2h10.56c1.45,0,2.64-1.19,2.64-2.64V25C38.2,17.73,32.27,11.8,25,11.8z M25,35.56
	c-5.82,0-10.56-4.74-10.56-10.56S19.18,14.44,25,14.44S35.56,19.18,35.56,25S30.82,35.56,25,35.56z"/>
</svg>
