<?xml version="1.0" encoding="utf-8"?>
<!-- Generator: Adobe Illustrator 25.2.3, SVG Export Plug-In . SVG Version: 6.00 Build 0)  -->
<svg version="1.1" id="Layer_1" xmlns="http://www.w3.org/2000/svg" xmlns:xlink="http://www.w3.org/1999/xlink" x="0px" y="0px"
	 viewBox="0 0 50 50" style="enable-background:new 0 0 50 50;" xml:space="preserve">
<style type="text/css">
	.st0{fill:#D4492A;}
	.st1{opacity:0.3;fill:#D4492A;enable-background:new    ;}
	.st2{opacity:0.6;fill:#D4492A;enable-background:new    ;}
</style>
<g>
	<path class="st0" d="M37.6,27.99c-1.39,0-2.52-1.13-2.52-2.52s1.13-2.52,2.52-2.52c0.6,0,1.1-0.49,1.1-1.1
		c0-0.16-0.04-0.31-0.1-0.44v-3.09c0-0.88-0.71-1.59-1.59-1.59H12.89c-0.88,0-1.59,0.71-1.59,1.59v3.53c0,0.55,0.45,1,1,1
		c1.44,0,2.62,1.17,2.62,2.62s-1.17,2.62-2.62,2.62c-0.55,0-1,0.45-1,1v2.59c0,0.88,0.71,1.59,1.59,1.59h24.13
		c0.88,0,1.59-0.71,1.59-1.59v-2.15c0.06-0.14,0.1-0.28,0.1-0.44C38.7,28.48,38.21,27.99,37.6,27.99z M36.6,31.26H22.29v-1.19
		c0-0.55-0.45-1-1-1s-1,0.45-1,1v1.19H13.3v-1.28c2.07-0.46,3.62-2.3,3.62-4.51c0-2.2-1.55-4.05-3.62-4.51v-2.23h6.99v1.19
		c0,0.55,0.45,1,1,1s1-0.45,1-1v-1.19H36.6v2.14c-2.12,0.46-3.71,2.35-3.71,4.6s1.59,4.14,3.71,4.6V31.26z"/>
	<path class="st0" d="M21.29,22.51c-0.55,0-1,0.45-1,1v2.98c0,0.55,0.45,1,1,1s1-0.45,1-1v-2.98
		C22.29,22.96,21.84,22.51,21.29,22.51z"/>
</g>
</svg>
