<?xml version="1.0" encoding="utf-8"?>
<!-- Generator: Adobe Illustrator 25.2.3, SVG Export Plug-In . SVG Version: 6.00 Build 0)  -->
<svg version="1.1" id="Layer_1" xmlns="http://www.w3.org/2000/svg" xmlns:xlink="http://www.w3.org/1999/xlink" x="0px" y="0px"
	 viewBox="0 0 50 50" style="enable-background:new 0 0 50 50;" xml:space="preserve">
<style type="text/css">
	.st0{fill:#D4492A;}
	.st1{opacity:0.3;fill:#D4492A;enable-background:new    ;}
	.st2{opacity:0.6;fill:#D4492A;enable-background:new    ;}
</style>
<g>
	<path class="st0" d="M35.64,12.36L12.36,35.64c0.13,0.48,0.38,0.92,0.72,1.28c0.35,0.34,0.79,0.6,1.28,0.72l23.3-23.29
		C37.39,13.38,36.62,12.61,35.64,12.36z M24.83,12.24L12.24,24.83v4.01l16.6-16.6H24.83z M15.08,12.24c-1.56,0-2.83,1.28-2.83,2.83
		v2.83l5.67-5.67H15.08z M34.92,37.76c0.78,0,1.49-0.31,2-0.84c0.52-0.51,0.84-1.22,0.84-2v-2.83l-5.67,5.67H34.92z M21.16,37.76
		h4.01l12.59-12.59v-4.01L21.16,37.76z"/>
</g>
</svg>
