<?xml version="1.0" encoding="utf-8"?>
<!-- Generator: Adobe Illustrator 25.2.3, SVG Export Plug-In . SVG Version: 6.00 Build 0)  -->
<svg version="1.1" id="Layer_1" xmlns="http://www.w3.org/2000/svg" xmlns:xlink="http://www.w3.org/1999/xlink" x="0px" y="0px"
	 viewBox="0 0 50 50" style="enable-background:new 0 0 50 50;" xml:space="preserve">
<style type="text/css">
	.st0{fill:#D4492A;}
	.st1{opacity:0.3;fill:#D4492A;enable-background:new    ;}
	.st2{opacity:0.6;fill:#D4492A;enable-background:new    ;}
</style>
<g>
	<g>
		<path class="st0" d="M21.62,23.68h-7.28c-0.99,0-1.79-0.8-1.79-1.79V14.6c0-0.99,0.8-1.79,1.79-1.79h7.28
			c0.99,0,1.79,0.8,1.79,1.79v7.28C23.41,22.87,22.61,23.68,21.62,23.68z M14.55,21.68h6.86v-6.86h-6.86V21.68z"/>
	</g>
	<g>
		<path class="st0" d="M35.08,23.68H27.8c-0.99,0-1.79-0.8-1.79-1.79V14.6c0-0.99,0.8-1.79,1.79-1.79h7.28
			c0.99,0,1.79,0.8,1.79,1.79v7.28C36.87,22.87,36.07,23.68,35.08,23.68z M28.01,21.68h6.86v-6.86h-6.86V21.68z"/>
	</g>
	<g>
		<path class="st0" d="M21.62,37.19h-7.28c-0.99,0-1.79-0.8-1.79-1.79v-7.28c0-0.99,0.8-1.79,1.79-1.79h7.28
			c0.99,0,1.79,0.8,1.79,1.79v7.28C23.41,36.39,22.61,37.19,21.62,37.19z M14.55,35.19h6.86v-6.86h-6.86V35.19z"/>
	</g>
	<g>
		<g>
			<rect x="27.8" y="26.32" class="st0" width="9.66" height="2"/>
		</g>
		<g>
			<rect x="26.01" y="30.17" class="st0" width="2" height="5.22"/>
		</g>
		<g>
			<path class="st0" d="M35.08,37.19h-4.33v-2h4.12V31.5h2v3.89C36.87,36.39,36.07,37.19,35.08,37.19z"/>
		</g>
		<g>
			<rect x="30.44" y="30.47" class="st0" width="2" height="2.06"/>
		</g>
	</g>
</g>
</svg>
