<?xml version="1.0" encoding="utf-8"?>
<!-- Generator: Adobe Illustrator 25.2.3, SVG Export Plug-In . SVG Version: 6.00 Build 0)  -->
<svg version="1.1" id="Layer_1" xmlns="http://www.w3.org/2000/svg" xmlns:xlink="http://www.w3.org/1999/xlink" x="0px" y="0px"
	 viewBox="0 0 50 50" style="enable-background:new 0 0 50 50;" xml:space="preserve">
<style type="text/css">
	.st0{fill:#D4492A;}
	.st1{opacity:0.3;fill:#D4492A;enable-background:new    ;}
	.st2{opacity:0.6;fill:#D4492A;enable-background:new    ;}
</style>
<g>
	<g id="Outline_3_" transform="translate(5.167 5.167)">
		<g id="Group_52_2_">
			<path id="Path_2342_2_" class="st0" d="M19.83,6.53c-7.34,0-13.3,5.95-13.3,13.3s5.95,13.3,13.3,13.3c7.34,0,13.3-5.95,13.3-13.3
				C33.13,12.49,27.18,6.54,19.83,6.53z M19.83,30.47c-5.88,0-10.64-4.76-10.64-10.64S13.96,9.19,19.83,9.19s10.64,4.76,10.64,10.64
				C30.46,25.71,25.71,30.46,19.83,30.47z"/>
			<path id="Path_2343_2_" class="st0" d="M12.52,27.15l9.99-4.64l4.64-9.99l-9.99,4.64L12.52,27.15z M19.83,18.37
				c0.81,0,1.46,0.66,1.46,1.46s-0.66,1.46-1.46,1.46s-1.46-0.66-1.46-1.46l0,0C18.37,19.03,19.02,18.37,19.83,18.37
				C19.83,18.37,19.83,18.37,19.83,18.37z"/>
		</g>
	</g>
</g>
</svg>
