<?xml version="1.0" encoding="utf-8"?>
<!-- Generator: Adobe Illustrator 25.2.3, SVG Export Plug-In . SVG Version: 6.00 Build 0)  -->
<svg version="1.1" id="Layer_1" xmlns="http://www.w3.org/2000/svg" xmlns:xlink="http://www.w3.org/1999/xlink" x="0px" y="0px"
	 viewBox="0 0 50 50" style="enable-background:new 0 0 50 50;" xml:space="preserve">
<style type="text/css">
	.st0{fill:#D4492A;}
	.st1{opacity:0.3;fill:#D4492A;enable-background:new    ;}
	.st2{opacity:0.6;fill:#D4492A;enable-background:new    ;}
</style>
<path class="st0" d="M35.73,18.29v13.42H14.27V18.29H35.73 M35.73,15.61H14.27c-1.48,0-2.67,1.21-2.67,2.68l-0.01,13.42
	c0,1.48,1.21,2.68,2.68,2.68h21.47c1.48,0,2.68-1.21,2.68-2.68V18.29C38.42,16.82,37.21,15.61,35.73,15.61z M23.66,19.63h2.68v2.68
	h-2.68V19.63z M23.66,23.66h2.68v2.68h-2.68V23.66z M19.63,19.63h2.68v2.68h-2.68V19.63z M19.63,23.66h2.68v2.68h-2.68V23.66z
	 M15.61,23.66h2.68v2.68h-2.68V23.66z M15.61,19.63h2.68v2.68h-2.68V19.63z M19.63,27.68h10.73v2.68H19.63V27.68z M27.68,23.66h2.68
	v2.68h-2.68V23.66z M27.68,19.63h2.68v2.68h-2.68V19.63z M31.71,23.66h2.68v2.68h-2.68V23.66z M31.71,19.63h2.68v2.68h-2.68V19.63z"
	/>
</svg>
