<?xml version="1.0" encoding="utf-8"?>
<!-- Generator: Adobe Illustrator 25.2.3, SVG Export Plug-In . SVG Version: 6.00 Build 0)  -->
<svg version="1.1" id="Layer_1" xmlns="http://www.w3.org/2000/svg" xmlns:xlink="http://www.w3.org/1999/xlink" x="0px" y="0px"
	 viewBox="0 0 50 50" style="enable-background:new 0 0 50 50;" xml:space="preserve">
<style type="text/css">
	.st0{fill:#D4492A;}
	.st1{opacity:0.3;fill:#D4492A;enable-background:new    ;}
	.st2{opacity:0.6;fill:#D4492A;enable-background:new    ;}
</style>
<g>
	<path class="st0" d="M17.06,19.66v2.91h7.82v-2.91H17.06z M17.06,19.66v2.91h7.82v-2.91H17.06z M35.68,14.32H14.32
		c-1.48,0-2.66,1.19-2.66,2.67l-0.01,16.02c0,1.48,1.19,2.67,2.67,2.67h21.36c1.48,0,2.67-1.19,2.67-2.67V16.99
		C38.35,15.51,37.16,14.32,35.68,14.32z M35.68,33.01H14.32V25h0.02v-5.34h-0.02v-2.67h21.36v2.67h-0.02V25h0.02V33.01z
		 M17.06,22.57h7.82v-2.91h-7.82V22.57z"/>
	<rect x="17.06" y="19.65" class="st0" width="7.82" height="2.92"/>
	<rect x="13.89" y="27.31" class="st0" width="22.18" height="2.93"/>
	<rect x="17.06" y="19.65" class="st0" width="7.82" height="2.92"/>
</g>
</svg>
