<?xml version="1.0" encoding="utf-8"?>
<!-- Generator: Adobe Illustrator 25.2.3, SVG Export Plug-In . SVG Version: 6.00 Build 0)  -->
<svg version="1.1" id="Layer_1" xmlns="http://www.w3.org/2000/svg" xmlns:xlink="http://www.w3.org/1999/xlink" x="0px" y="0px"
	 viewBox="0 0 50 50" style="enable-background:new 0 0 50 50;" xml:space="preserve">
<style type="text/css">
	.st0{fill:#D4492A;}
	.st1{opacity:0.3;fill:#D4492A;enable-background:new    ;}
	.st2{opacity:0.6;fill:#D4492A;enable-background:new    ;}
</style>
<g>
	<path class="st0" d="M38.42,20.97v-2.68h-2.68V15.6c0-1.48-1.21-2.68-2.68-2.68H14.26c-1.48,0-2.68,1.21-2.68,2.68V34.4
		c0,1.48,1.21,2.68,2.68,2.68h18.79c1.48,0,2.68-1.21,2.68-2.68v-2.68h2.68v-2.68h-2.68v-2.68h2.68v-2.68h-2.68v-2.68H38.42z
		 M33.05,34.4H14.26V15.6h18.79V34.4z M16.95,26.34h6.71v5.37h-6.71V26.34z M25,18.29h5.37v4.03H25V18.29z M16.95,18.29h6.71V25
		h-6.71V18.29z M25,23.66h5.37v8.05H25V23.66z"/>
</g>
</svg>
