<?xml version="1.0" encoding="utf-8"?>
<!-- Generator: Adobe Illustrator 25.2.3, SVG Export Plug-In . SVG Version: 6.00 Build 0)  -->
<svg version="1.1" id="Layer_1" xmlns="http://www.w3.org/2000/svg" xmlns:xlink="http://www.w3.org/1999/xlink" x="0px" y="0px"
	 viewBox="0 0 50 50" style="enable-background:new 0 0 50 50;" xml:space="preserve">
<style type="text/css">
	.st0{fill:#D4492A;}
	.st1{opacity:0.3;fill:#D4492A;enable-background:new    ;}
	.st2{opacity:0.6;fill:#D4492A;enable-background:new    ;}
</style>
<g>
	<g>
		<g>
			<g>
				<g>
					<path class="st0" d="M21.34,27.15l-2.03-2.03l2.03-2.03C22.46,24.21,22.46,26.03,21.34,27.15z"/>
					<path class="st0" d="M24.04,29.86l-1.35-1.35c1.87-1.87,1.87-4.9,0-6.76l1.35-1.35C26.66,23,26.66,27.24,24.04,29.86z"/>
					<path class="st0" d="M26.75,32.56l-1.35-1.35c3.36-3.36,3.36-8.81,0-12.18l1.35-1.35C30.86,21.79,30.86,28.45,26.75,32.56z"/>
				</g>
			</g>
		</g>
	</g>
	<g>
		<g>
			<g id="Outline_2_" transform="translate(5.167 5.167)">
				<g id="Group_52_1_">
					<path id="Path_2342_1_" class="st0" d="M19.83,6.53c-7.34,0-13.3,5.96-13.3,13.3c0,7.35,5.96,13.3,13.3,13.3
						c7.35,0,13.3-5.95,13.3-13.3C33.13,12.49,27.18,6.53,19.83,6.53z M19.83,30.47c-5.87,0-10.64-4.76-10.64-10.64
						S13.96,9.19,19.83,9.19c5.88,0,10.64,4.76,10.64,10.64C30.46,25.7,25.7,30.46,19.83,30.47z"/>
				</g>
			</g>
		</g>
	</g>
</g>
</svg>
