<?xml version="1.0" encoding="utf-8"?>
<!-- Generator: Adobe Illustrator 25.2.3, SVG Export Plug-In . SVG Version: 6.00 Build 0)  -->
<svg version="1.1" id="Layer_1" xmlns="http://www.w3.org/2000/svg" xmlns:xlink="http://www.w3.org/1999/xlink" x="0px" y="0px"
	 viewBox="0 0 50 50" style="enable-background:new 0 0 50 50;" xml:space="preserve">
<style type="text/css">
	.st0{fill:#D4492A;}
	.st1{opacity:0.3;fill:#D4492A;enable-background:new    ;}
	.st2{opacity:0.6;fill:#D4492A;enable-background:new    ;}
</style>
<g>
	<path class="st0" d="M18.01,31.97h13.99c0.58,0,1.05-0.47,1.05-1.05c0-0.58-0.47-1.05-1.05-1.05h-0.43
		c-0.45-2.82-2.69-5.06-5.51-5.51v-0.43c0-0.58-0.47-1.05-1.05-1.05c-0.58,0-1.05,0.47-1.05,1.05v0.43
		c-2.82,0.45-5.06,2.69-5.51,5.51h-0.43c-0.58,0-1.05,0.47-1.05,1.05C16.96,31.5,17.43,31.97,18.01,31.97z M25,26.38
		c2.15,0,3.95,1.49,4.42,3.5h-8.84C21.05,27.87,22.85,26.38,25,26.38z"/>
	<path class="st0" d="M33.81,13.08H16.19c-2.46,0-4.45,2-4.45,4.45v14.93c0,2.46,2,4.45,4.45,4.45h17.61c2.46,0,4.45-2,4.45-4.45
		V17.53C38.26,15.08,36.26,13.08,33.81,13.08z M35.71,32.47c0,1.05-0.86,1.91-1.91,1.91H16.19c-1.05,0-1.91-0.86-1.91-1.91V20.71
		h21.43V32.47z M35.71,18.16H14.29v-0.63c0-1.05,0.86-1.91,1.91-1.91h17.61c1.05,0,1.91,0.86,1.91,1.91V18.16z"/>
</g>
</svg>
