<?xml version="1.0" encoding="utf-8"?>
<!-- Generator: Adobe Illustrator 25.2.3, SVG Export Plug-In . SVG Version: 6.00 Build 0)  -->
<svg version="1.1" id="Layer_1" xmlns="http://www.w3.org/2000/svg" xmlns:xlink="http://www.w3.org/1999/xlink" x="0px" y="0px"
	 viewBox="0 0 50 50" style="enable-background:new 0 0 50 50;" xml:space="preserve">
<style type="text/css">
	.st0{fill:#D4492A;}
	.st1{opacity:0.3;fill:#D4492A;enable-background:new    ;}
	.st2{opacity:0.6;fill:#D4492A;enable-background:new    ;}
</style>
<path class="st0" d="M16.38,29.66c0,4.77,3.86,8.62,8.62,8.62s8.62-3.86,8.62-8.62v-4.93H16.38V29.66z M30.08,15.33l2.59-2.59
	l-1.01-1.02l-2.83,2.85c-1.16-0.58-2.44-0.92-3.82-0.92s-2.66,0.34-3.81,0.92l-2.85-2.85l-1.01,1.02l2.59,2.59
	c-2.14,1.56-3.55,4.08-3.55,6.94v1.23h17.25v-1.23C33.62,19.41,32.22,16.89,30.08,15.33z M21.3,21.03c-0.68,0-1.23-0.55-1.23-1.23
	c0-0.68,0.55-1.23,1.23-1.23c0.68,0,1.23,0.55,1.23,1.23C22.54,20.48,21.98,21.03,21.3,21.03z M28.7,21.03
	c-0.68,0-1.23-0.55-1.23-1.23c0-0.68,0.55-1.23,1.23-1.23c0.68,0,1.23,0.55,1.23,1.23C29.93,20.48,29.37,21.03,28.7,21.03z"/>
</svg>
