<?xml version="1.0" encoding="utf-8"?>
<!-- Generator: Adobe Illustrator 25.2.3, SVG Export Plug-In . SVG Version: 6.00 Build 0)  -->
<svg version="1.1" id="Layer_1" xmlns="http://www.w3.org/2000/svg" xmlns:xlink="http://www.w3.org/1999/xlink" x="0px" y="0px"
	 viewBox="0 0 50 50" style="enable-background:new 0 0 50 50;" xml:space="preserve">
<style type="text/css">
	.st0{fill:#D4492A;}
	.st1{opacity:0.3;fill:#D4492A;enable-background:new    ;}
	.st2{opacity:0.6;fill:#D4492A;enable-background:new    ;}
</style>
<path class="st0" d="M29.37,20.63h-8.73v8.73h8.73V20.63z M26.46,26.46h-2.91v-2.91h2.91V26.46z M38.1,23.54v-2.91h-2.91v-2.91
	c0-1.6-1.31-2.91-2.91-2.91h-2.91V11.9h-2.91v2.91h-2.91V11.9h-2.91v2.91h-2.91c-1.6,0-2.91,1.31-2.91,2.91v2.91H11.9v2.91h2.91
	v2.91H11.9v2.91h2.91v2.91c0,1.6,1.31,2.91,2.91,2.91h2.91v2.91h2.91v-2.91h2.91v2.91h2.91v-2.91h2.91c1.6,0,2.91-1.31,2.91-2.91
	v-2.91h2.91v-2.91h-2.91v-2.91H38.1z M32.28,32.28H17.72V17.72h14.55V32.28z"/>
</svg>
