<?xml version="1.0" encoding="utf-8"?>
<!-- Generator: Adobe Illustrator 25.2.3, SVG Export Plug-In . SVG Version: 6.00 Build 0)  -->
<svg version="1.1" id="Layer_1" xmlns="http://www.w3.org/2000/svg" xmlns:xlink="http://www.w3.org/1999/xlink" x="0px" y="0px"
	 viewBox="0 0 50 50" style="enable-background:new 0 0 50 50;" xml:space="preserve">
<style type="text/css">
	.st0{fill:#D4492A;}
	.st1{opacity:0.3;fill:#D4492A;enable-background:new    ;}
	.st2{opacity:0.6;fill:#D4492A;enable-background:new    ;}
</style>
<g>
	<g>
		<path class="st0" d="M13.96,20.06c-0.62,0-1.12-0.5-1.12-1.12v-5.01c0-0.62,0.5-1.12,1.12-1.12h4.94c0.62,0,1.12,0.5,1.12,1.12
			s-0.5,1.12-1.12,1.12h-3.82v3.88C15.09,19.56,14.59,20.06,13.96,20.06z"/>
	</g>
	<g>
		<path class="st0" d="M18.91,37.2h-4.94c-0.62,0-1.12-0.5-1.12-1.12v-5.01c0-0.62,0.5-1.12,1.12-1.12s1.12,0.5,1.12,1.12v3.88h3.82
			c0.62,0,1.12,0.5,1.12,1.12S19.53,37.2,18.91,37.2z"/>
	</g>
	<g>
		<path class="st0" d="M36.04,20.06c-0.62,0-1.12-0.5-1.12-1.12v-3.88h-3.82c-0.62,0-1.12-0.5-1.12-1.12s0.5-1.12,1.12-1.12h4.94
			c0.62,0,1.12,0.5,1.12,1.12v5.01C37.16,19.56,36.66,20.06,36.04,20.06z"/>
	</g>
	<g>
		<path class="st0" d="M36.04,37.2h-4.94c-0.62,0-1.12-0.5-1.12-1.12s0.5-1.12,1.12-1.12h3.82v-3.88c0-0.62,0.5-1.12,1.12-1.12
			s1.12,0.5,1.12,1.12v5.01C37.16,36.69,36.66,37.2,36.04,37.2z"/>
	</g>
	<g>
		<path class="st0" d="M36.04,25.96H13.96c-0.62,0-1.12-0.5-1.12-1.12s0.5-1.12,1.12-1.12h22.07c0.62,0,1.12,0.5,1.12,1.12
			S36.66,25.96,36.04,25.96z"/>
	</g>
</g>
</svg>
