<?xml version="1.0" encoding="utf-8"?>
<!-- Generator: Adobe Illustrator 25.2.3, SVG Export Plug-In . SVG Version: 6.00 Build 0)  -->
<svg version="1.1" id="Layer_1" xmlns="http://www.w3.org/2000/svg" xmlns:xlink="http://www.w3.org/1999/xlink" x="0px" y="0px"
	 viewBox="0 0 50 50" style="enable-background:new 0 0 50 50;" xml:space="preserve">
<style type="text/css">
	.st0{fill:#D4492A;}
	.st1{opacity:0.3;fill:#D4492A;enable-background:new    ;}
	.st2{opacity:0.6;fill:#D4492A;enable-background:new    ;}
</style>
<path class="st0" d="M32.17,22.21c-0.68-1.34-2.31-1.88-3.65-1.22c-0.62-1.22-2.04-1.8-3.34-1.35v-5.59c0-1.49-1.2-2.73-2.67-2.78
	c-1.54-0.04-2.82,1.19-2.82,2.74v14.06l-1.07-1.12c-1.03-1.08-2.75-1.15-3.84-0.17c-1.15,1.04-1.21,2.81-0.15,3.92l6.16,6.57
	c0.86,0.92,2.07,1.44,3.33,1.44h7.43c2.52,0,4.56-2.05,4.56-4.56v-9.49C36.12,22.64,33.99,21.31,32.17,22.21z M34.3,34.16
	c0,1.51-1.23,2.74-2.74,2.74h-7.43c-0.75,0-1.48-0.32-2-0.87c-0.02-0.02-6.15-6.56-6.17-6.58c-0.35-0.37-0.34-0.96,0.05-1.31
	c0.36-0.33,0.95-0.29,1.3,0.08l2.65,2.77c0.57,0.59,1.57,0.19,1.57-0.63V14.02c0-0.51,0.43-0.93,0.95-0.91
	c0.49,0.01,0.89,0.44,0.89,0.95c0,10.04-0.02,5.49-0.02,10.92c0,0.51,0.41,0.92,0.92,0.91c0.51,0.01,0.92-0.41,0.92-0.91v-2.91
	c0.08-0.42,0.45-0.74,0.9-0.74c0.5,0,0.91,0.41,0.91,0.91v2.74c0,0.5,0.41,0.91,0.91,0.91s0.91-0.41,0.91-0.91v-1.52
	c0-0.5,0.41-0.91,0.91-0.91s0.91,0.41,0.91,0.91v1.52c0,0.5,0.41,0.91,0.91,0.91s0.91-0.41,0.91-0.91v-0.3
	c0-0.5,0.41-0.91,0.91-0.91c0.5,0,0.91,0.41,0.91,0.91V34.16z"/>
</svg>
