<svg width="130" height="80" viewBox="0 0 130 80" fill="none" xmlns="http://www.w3.org/2000/svg">
<g clip-path="url(#clip0_134_12850)">
<path d="M82.9382 62.3102C81.0023 60.7229 78.9828 59.2473 76.8983 57.8694C76.3691 57.5203 75.8491 57.2875 75.1946 57.3759C74.3543 57.4923 73.5047 57.4085 72.6598 57.3853C69.1176 57.2875 65.6775 56.6824 62.3953 55.2952C52.4511 51.0917 51.5412 41.1486 54.2153 35.0785C56.0537 30.8983 59.3731 28.2869 63.5188 26.625C67.3488 25.0889 71.3506 24.7351 75.4313 24.8515C77.9847 24.9259 80.487 25.2518 82.9057 26.1223C83.3281 26.2759 83.486 26.4714 83.4767 26.9369C83.4442 29.3389 83.4535 31.7409 83.4442 34.1382C83.4396 34.3151 83.5138 34.5106 83.3606 34.7014C83.1842 34.6177 83.0171 34.5385 82.85 34.4547C80.1341 33.0862 77.279 32.36 74.2196 32.4624C71.6941 32.5508 69.3915 33.2491 67.6273 35.1297C65.4825 37.42 65.1204 40.2409 65.7379 43.1689C66.4899 46.7253 68.9829 48.578 72.3487 49.4485C72.7526 49.5509 73.0637 49.4718 73.4165 49.2716C77.6226 46.865 81.8426 44.4816 86.0486 42.0703C86.4897 41.8189 86.6846 41.8236 86.9353 42.3077C87.6085 43.6158 88.3466 44.8866 89.0569 46.1714C89.0894 46.1621 89.1266 46.1527 89.1637 46.1434V45.664C89.1637 39.0958 89.1684 32.5276 89.1544 25.964C89.1498 25.4706 89.2705 25.3356 89.7765 25.3402C93.3791 25.3635 96.9816 25.3635 100.584 25.3402C101.113 25.3356 101.243 25.4799 101.243 26.0059C101.22 31.6152 101.229 37.2245 101.229 42.8337V43.6577C101.448 43.3272 101.554 43.1689 101.652 43.0106C104.423 38.7559 107.413 34.6642 110.798 30.875C111.215 30.4049 111.257 30.0697 111.006 29.5111C106.721 20.0149 102.464 10.5001 98.1979 0.994629H96.0346C95.5564 1.25996 95.0178 1.14824 94.5118 1.17617C89.7579 1.46478 84.9994 1.72546 80.2455 1.99545C75.9095 2.23751 71.5781 2.47957 67.2467 2.72163C61.9403 3.01955 56.634 3.31747 51.3277 3.62005C46.0585 3.91797 40.7986 4.21589 35.534 4.50915C30.2277 4.80707 24.9214 5.10499 19.615 5.40291C14.6012 5.68221 9.59197 5.96152 4.58276 6.24547C3.40358 6.31064 2.22439 6.38512 0.994141 6.4596C1.08235 6.70631 1.1427 6.87855 1.20769 7.05078C6.89471 22.5612 12.5864 38.0717 18.2827 53.5775C18.7005 54.7179 19.0301 55.8957 19.5918 56.9803C19.5872 56.9803 19.5872 56.9849 19.5872 56.9849C19.6011 57.0873 19.5965 57.1991 19.629 57.2922C22.3587 64.7262 25.0931 72.1649 27.8136 79.6036C27.9529 79.9899 28.0736 80.0737 28.4775 79.9434C30.8498 79.1707 33.2314 78.4305 35.6083 77.6811C49.1179 73.4217 62.6228 69.1624 76.1323 64.9031C78.5 64.1583 80.8723 63.4181 83.2353 62.678C83.2074 62.4499 83.0496 62.3987 82.9382 62.3102ZM87.9288 14.5313C88.3791 10.3046 92.1535 8.31229 95.8024 8.56831C96.652 8.62883 97.483 8.77779 98.2769 9.08967C101.03 10.1649 102.52 12.39 102.52 15.4111C102.52 19.3586 99.6603 22.1469 95.5332 22.2354C94.0522 22.2679 92.6223 22.0398 91.3039 21.3183C88.783 19.9451 87.6178 17.464 87.9288 14.5313ZM50.3203 37.2431C50.0556 39.808 48.9182 41.8888 46.9684 43.5366C45.0186 45.1845 42.6927 46.0177 40.2554 46.5764C37.6974 47.1582 35.093 47.2513 32.4839 47.2234C31.4533 47.2141 31.3558 47.3211 31.3512 48.3499C31.3465 50.8543 31.3512 53.3633 31.3465 55.8724C31.3465 56.7708 31.328 56.7848 30.4088 56.7894C27.1219 56.7894 23.8397 56.7848 20.5528 56.7941C20.2603 56.7941 19.9539 56.7475 19.6893 56.9151C19.6847 56.9011 19.68 56.8872 19.6708 56.8732C19.8286 56.5427 19.7682 56.1796 19.7682 55.8305C19.7729 46.0783 19.7729 36.326 19.7729 26.5785C19.7729 25.559 19.7775 25.5451 20.8035 25.559C26.0773 25.6242 31.3512 25.4147 36.625 25.6801C39.3408 25.815 41.9685 26.3457 44.4615 27.4257C46.6156 28.3613 48.4215 29.7299 49.4707 31.9131C50.2831 33.5982 50.5152 35.3811 50.3203 37.2431Z" fill="url(#paint0_linear_134_12850)"/>
<path d="M127.967 30.9922C127.735 27.5149 128.269 24.0888 128.668 20.6487C128.784 19.6758 128.863 18.703 128.961 17.6602C128.766 17.7254 128.682 17.7394 128.613 17.7766C127.791 18.2142 126.955 18.6285 126.152 19.094C121.161 22.0033 116.863 25.7553 112.954 29.982C107.016 36.4059 102.155 43.5979 97.9213 51.2367C96.705 53.4339 95.5769 55.6823 94.4673 57.9958C94.4627 58.0051 94.458 58.0098 94.458 58.0191C94.4534 58.0098 94.4487 58.0051 94.4487 58.0005C94.3327 57.8236 94.2398 57.6932 94.1609 57.5536C91.6447 52.987 89.1192 48.4205 86.6215 43.84C86.3337 43.3093 86.148 43.1743 85.5631 43.5094C80.5863 46.3676 75.5818 49.1885 70.5958 52.0234C70.164 52.2702 69.6905 52.4517 69.3516 52.7915C79.8946 57.1765 87.9446 64.7595 95.4886 73.0408C95.5861 72.9011 95.679 72.7847 95.7533 72.6591C96.8953 70.7459 98.1581 68.9118 99.4765 67.115C103.125 62.1481 107.09 57.4512 111.338 52.9917C115.001 49.1467 118.817 45.4739 123.139 42.3643C125.242 40.8514 127.419 39.4549 129.996 38.8638V38.7381C128.752 36.3082 128.153 33.7014 127.967 30.9922Z" fill="url(#paint1_linear_134_12850)"/>
<path d="M118.876 47.103C116.615 49.114 114.471 51.1715 112.414 53.364C112.502 53.3919 112.549 53.4245 112.577 53.4105C115.158 52.6052 117.73 51.7952 120.306 50.9899C120.543 50.9201 120.543 50.813 120.459 50.6268C119.939 49.4724 119.42 48.318 118.876 47.103Z" fill="#08243B"/>
<path d="M35.9957 32.491C34.6308 32.1232 33.2381 32.1279 31.8407 32.1279C31.4368 32.1279 31.474 32.3746 31.474 32.6306V40.2043C31.474 40.4371 31.4322 40.6651 31.8082 40.6605C33.3077 40.6558 34.8165 40.6652 36.2557 40.1624C38.2473 39.4688 39.1247 38.1514 39.0458 35.9915C38.9808 34.2459 37.9038 33.0123 35.9957 32.491Z" fill="#0B2F4D"/>
</g>
<defs>
<linearGradient id="paint0_linear_134_12850" x1="56.0777" y1="0.994629" x2="56.0777" y2="80.0006" gradientUnits="userSpaceOnUse">
<stop stop-color="#08243B"/>
<stop offset="1" stop-color="#08243B"/>
</linearGradient>
<linearGradient id="paint1_linear_134_12850" x1="99.6738" y1="17.6602" x2="99.6738" y2="73.0408" gradientUnits="userSpaceOnUse">
<stop stop-color="#08243B"/>
<stop offset="1" stop-color="#08243B"/>
</linearGradient>
<clipPath id="clip0_134_12850">
<rect width="130" height="80" fill="white"/>
</clipPath>
</defs>
</svg>
