<?xml version="1.0" encoding="utf-8"?>
<!-- Generator: Adobe Illustrator 25.4.1, SVG Export Plug-In . SVG Version: 6.00 Build 0)  -->
<svg version="1.1" id="Layer_1" xmlns="http://www.w3.org/2000/svg" xmlns:xlink="http://www.w3.org/1999/xlink" x="0px" y="0px"
	 viewBox="0 0 100 100" style="enable-background:new 0 0 100 100;" xml:space="preserve">
<style type="text/css">
	.st0{fill:none;stroke:#231F20;stroke-width:7;stroke-linecap:round;stroke-linejoin:round;stroke-miterlimit:10;}
	.st1{fill:#231F20;}
	.st2{fill:#606060;}
	.st3{fill:#D4492A;}
</style>
<g>
	<path class="st3" d="M62.17,65.22c-1.35-1.11-2.76-2.14-4.21-3.1c-0.37-0.24-0.73-0.41-1.19-0.34c-0.59,0.08-1.18,0.02-1.77,0.01
		c-2.47-0.07-4.87-0.49-7.16-1.46c-6.94-2.93-7.57-9.87-5.71-14.1c1.28-2.92,3.6-4.74,6.49-5.9c2.67-1.07,5.46-1.32,8.31-1.24
		c1.78,0.05,3.53,0.28,5.21,0.89c0.29,0.11,0.4,0.24,0.4,0.57c-0.02,1.68-0.02,3.35-0.02,5.02c0,0.12,0.05,0.26-0.06,0.39
		c-0.12-0.06-0.24-0.11-0.36-0.17c-1.89-0.95-3.89-1.46-6.02-1.39c-1.76,0.06-3.37,0.55-4.6,1.86c-1.5,1.6-1.75,3.57-1.32,5.61
		c0.52,2.48,2.26,3.77,4.61,4.38c0.28,0.07,0.5,0.02,0.74-0.12c2.93-1.68,5.88-3.34,8.81-5.02c0.31-0.18,0.44-0.17,0.62,0.17
		c0.47,0.91,0.98,1.8,1.48,2.7c0.02-0.01,0.05-0.01,0.07-0.02V53.6c0-4.58,0-9.16-0.01-13.74c0-0.34,0.08-0.44,0.43-0.44
		c2.51,0.02,5.03,0.02,7.54,0c0.37,0,0.46,0.1,0.46,0.46c-0.02,3.91-0.01,7.83-0.01,11.74v0.57c0.15-0.23,0.23-0.34,0.3-0.45
		c1.93-2.97,4.02-5.82,6.38-8.47c0.29-0.33,0.32-0.56,0.15-0.95c-2.99-6.63-5.96-13.26-8.94-19.9h-1.51
		c-0.33,0.19-0.71,0.11-1.06,0.13c-3.32,0.2-6.64,0.38-9.95,0.57c-3.03,0.17-6.05,0.34-9.07,0.51c-3.7,0.21-7.4,0.42-11.11,0.63
		c-3.68,0.21-7.35,0.42-11.02,0.62c-3.7,0.21-7.4,0.42-11.11,0.62C14.49,25.71,11,25.91,7.5,26.1c-0.82,0.05-1.65,0.1-2.5,0.15
		c0.06,0.17,0.1,0.29,0.15,0.41c3.97,10.82,7.94,21.64,11.91,32.46c0.29,0.8,0.52,1.62,0.91,2.37c0,0,0,0,0,0
		c0.01,0.07,0.01,0.15,0.03,0.21c1.9,5.19,3.81,10.38,5.71,15.57c0.1,0.27,0.18,0.33,0.46,0.24c1.66-0.54,3.32-1.06,4.97-1.58
		C38.57,72.97,48,70,57.42,67.03c1.65-0.52,3.31-1.04,4.96-1.55C62.36,65.32,62.25,65.28,62.17,65.22z M65.65,31.88
		c0.31-2.95,2.95-4.34,5.49-4.16c0.59,0.04,1.17,0.15,1.73,0.36c1.92,0.75,2.96,2.3,2.96,4.41c0,2.75-2,4.7-4.87,4.76
		c-1.03,0.02-2.03-0.14-2.95-0.64C66.25,35.66,65.43,33.93,65.65,31.88z M39.41,47.73c-0.18,1.79-0.98,3.24-2.34,4.39
		c-1.36,1.15-2.98,1.73-4.68,2.12c-1.78,0.41-3.6,0.47-5.42,0.45c-0.72-0.01-0.79,0.07-0.79,0.79c0,1.75,0,3.5,0,5.25
		c0,0.63-0.01,0.64-0.65,0.64c-2.29,0-4.58,0-6.88,0c-0.2,0-0.42-0.03-0.6,0.08c0-0.01-0.01-0.02-0.01-0.03
		c0.11-0.23,0.07-0.48,0.07-0.73c0-6.8,0-13.61,0-20.41c0-0.71,0-0.72,0.72-0.71c3.68,0.05,7.36-0.1,11.04,0.08
		c1.89,0.09,3.73,0.46,5.47,1.22c1.5,0.65,2.76,1.61,3.49,3.13C39.39,45.19,39.55,46.43,39.41,47.73z"/>
	<path class="st3" d="M93.58,43.37c-0.16-2.43,0.21-4.82,0.49-7.22c0.08-0.68,0.14-1.36,0.2-2.09c-0.14,0.05-0.19,0.06-0.24,0.08
		c-0.57,0.31-1.16,0.59-1.72,0.92c-3.48,2.03-6.48,4.65-9.21,7.6c-4.14,4.48-7.53,9.5-10.49,14.83c-0.85,1.53-1.64,3.1-2.41,4.72
		c0,0.01-0.01,0.01-0.01,0.02c0-0.01-0.01-0.01-0.01-0.01C70.12,62.09,70.05,62,70,61.9c-1.76-3.19-3.52-6.37-5.26-9.57
		c-0.2-0.37-0.33-0.46-0.74-0.23c-3.47,1.99-6.96,3.96-10.44,5.94c-0.3,0.17-0.63,0.3-0.87,0.54c7.36,3.06,12.97,8.35,18.23,14.13
		c0.07-0.1,0.13-0.18,0.18-0.27c0.8-1.33,1.68-2.61,2.6-3.87c2.55-3.47,5.31-6.74,8.28-9.85c2.56-2.68,5.22-5.24,8.23-7.41
		c1.47-1.06,2.99-2.03,4.78-2.44v-0.09C94.13,47.08,93.71,45.26,93.58,43.37z"/>
	<path class="st3" d="M87.24,54.61c-1.58,1.4-3.07,2.84-4.51,4.37c0.06,0.02,0.09,0.04,0.11,0.03c1.8-0.56,3.6-1.13,5.39-1.69
		c0.17-0.05,0.17-0.12,0.11-0.25C87.98,56.26,87.62,55.46,87.24,54.61z"/>
	<path class="st3" d="M29.42,44.41c-0.95-0.26-1.92-0.25-2.9-0.25c-0.28,0-0.26,0.17-0.26,0.35v5.28c0,0.16-0.03,0.32,0.23,0.32
		c1.05,0,2.1,0,3.1-0.35c1.39-0.48,2-1.4,1.95-2.91C31.5,45.64,30.75,44.78,29.42,44.41z"/>
</g>
</svg>
