<?xml version="1.0" encoding="utf-8"?>
<!-- Generator: Adobe Illustrator 25.4.1, SVG Export Plug-In . SVG Version: 6.00 Build 0)  -->
<svg version="1.1" id="Layer_1" xmlns="http://www.w3.org/2000/svg" xmlns:xlink="http://www.w3.org/1999/xlink" x="0px" y="0px"
	 viewBox="0 0 100 100" style="enable-background:new 0 0 100 100;" xml:space="preserve">
<style type="text/css">
	.st0{fill:none;stroke:#231F20;stroke-width:7;stroke-linecap:round;stroke-linejoin:round;stroke-miterlimit:10;}
	.st1{fill:#231F20;}
	.st2{fill:#606060;}
	.st3{fill:#D4492A;}
</style>
<g>
	<path class="st3" d="M75.83,10H36.3c-4.22,0-7.65,3.43-7.65,7.65v0.98h-4.1c-4.43,0-8.03,3.61-8.03,8.04v55.3
		c0,4.43,3.61,8.03,8.03,8.03h40.33c4.43,0,8.04-3.6,8.04-8.03v-4.29h2.91c4.22,0,7.65-3.43,7.65-7.65V17.65
		C83.48,13.43,80.05,10,75.83,10z M67.57,71.38v6.3v4.29c0,1.48-1.2,2.68-2.68,2.68H24.55c-1.47,0-2.67-1.21-2.67-2.68v-55.3
		c0-1.48,1.2-2.68,2.67-2.68h4.1h6.3h14.88v15.76c0,1.48,1.2,2.67,2.67,2.67h15.07V71.38z M55.18,37.07v-9.11l8.78,9.11H55.18z
		 M77.18,70.03c0,0.75-0.6,1.35-1.35,1.35h-2.91V39.74c0-0.05-0.03-0.08-0.03-0.13c-0.01-0.27-0.06-0.53-0.16-0.78
		c-0.02-0.06-0.04-0.13-0.06-0.2c-0.13-0.27-0.28-0.52-0.49-0.75l-0.04-0.04c0-0.01-0.01-0.01-0.01-0.01l-17.7-18.39
		c-0.02-0.02-0.04-0.02-0.05-0.04c-0.01-0.01-0.03-0.02-0.04-0.03c-0.22-0.21-0.47-0.37-0.73-0.49c-0.08-0.04-0.17-0.06-0.25-0.1
		c-0.23-0.08-0.46-0.13-0.69-0.13c-0.06-0.01-0.13-0.04-0.19-0.04H34.95v-0.98c0-0.75,0.6-1.35,1.35-1.35h39.53
		c0.75,0,1.35,0.6,1.35,1.35V70.03z"/>
	<path class="st3" d="M31.8,59.64c0,1.48,1.21,2.68,2.68,2.68h20.48c1.48,0,2.68-1.2,2.68-2.68c0-1.48-1.21-2.67-2.68-2.67H34.48
		C33.01,56.97,31.8,58.17,31.8,59.64z"/>
	<path class="st3" d="M54.97,66.74H34.48c-1.47,0-2.68,1.2-2.68,2.67c0,1.48,1.21,2.68,2.68,2.68h20.48c1.48,0,2.68-1.2,2.68-2.68
		C57.65,67.94,56.44,66.74,54.97,66.74z"/>
</g>
</svg>
