<svg width="86" height="85" viewBox="0 0 86 85" fill="none" xmlns="http://www.w3.org/2000/svg">
<path d="M22.5 83C33.8218 83 43 73.8218 43 62.5C43 51.1782 33.8218 42 22.5 42C11.1782 42 2 51.1782 2 62.5C2 73.8218 11.1782 83 22.5 83Z" stroke="black" stroke-width="3" stroke-linecap="round" stroke-linejoin="round"/>
<path d="M23 41.9882V9.11631C23 7.22895 23.7496 5.41889 25.0838 4.08432C26.4181 2.74975 28.2277 2 30.1147 2H66.6621L84 19.6375V75.8837C84 77.7711 83.2504 79.5811 81.9162 80.9157C80.5819 82.2502 78.7723 83 76.8853 83H23.0274" stroke="black" stroke-width="3" stroke-linecap="round" stroke-linejoin="round"/>
<path d="M83 20H69.4991C68.5711 20 67.6811 19.6201 67.0249 18.9439C66.3687 18.2678 66 17.3507 66 16.3944V2" stroke="black" stroke-width="3" stroke-linecap="round" stroke-linejoin="round"/>
<path d="M35 32H72" stroke="black" stroke-width="3" stroke-linecap="round" stroke-linejoin="round"/>
<path d="M37 47H72" stroke="black" stroke-width="3" stroke-linecap="round" stroke-linejoin="round"/>
<path d="M43 62H72" stroke="black" stroke-width="3" stroke-linecap="round" stroke-linejoin="round"/>
<path d="M13 64.5983L19.0553 70L32 57" stroke="black" stroke-width="3" stroke-linecap="round" stroke-linejoin="round"/>
</svg>
