<svg width="86" height="97" viewBox="0 0 86 97" fill="none" xmlns="http://www.w3.org/2000/svg">
<path d="M22.1348 36.2185V17.5763C22.1341 16.9464 22.2576 16.3226 22.4982 15.7405C22.7388 15.1584 23.0917 14.6294 23.5369 14.1838C23.982 13.7383 24.5106 13.3848 25.0924 13.1436C25.6743 12.9024 26.2979 12.7783 26.9278 12.7783H59.2574" stroke="#08243B" stroke-width="3" stroke-linecap="round" stroke-linejoin="round"/>
<path d="M71.63 26.7505V90.5267C71.63 91.7979 71.125 93.017 70.2262 93.9159C69.3273 94.8147 68.1082 95.3197 66.837 95.3197H26.9278C25.6566 95.3197 24.4375 94.8147 23.5386 93.9159C22.6397 93.017 22.1348 91.7979 22.1348 90.5267V64.8444" stroke="#08243B" stroke-width="3" stroke-linecap="round" stroke-linejoin="round"/>
<path d="M71.6284 26.7452C78.4616 26.7452 84.001 21.2058 84.001 14.3726C84.001 7.53939 78.4616 2 71.6284 2C64.7952 2 59.2559 7.53939 59.2559 14.3726C59.2559 21.2058 64.7952 26.7452 71.6284 26.7452Z" stroke="#08243B" stroke-width="3" stroke-linecap="round" stroke-linejoin="round"/>
<path d="M43.5477 36.9541H5.33107C3.49136 36.9541 2 38.4455 2 40.2852V60.4041C2 62.2438 3.49136 63.7352 5.33107 63.7352H43.5477C45.3874 63.7352 46.8788 62.2438 46.8788 60.4041V40.2852C46.8788 38.4455 45.3874 36.9541 43.5477 36.9541Z" stroke="#08243B" stroke-width="3" stroke-linecap="round" stroke-linejoin="round"/>
<path d="M66.6426 15.3486L70.3367 18.8563L76.6162 9.43701" stroke="#08243B" stroke-width="3" stroke-linecap="round" stroke-linejoin="round"/>
<path d="M4.19336 29.1836H12.3224" stroke="#08243B" stroke-width="3" stroke-linecap="round" stroke-linejoin="round"/>
<path d="M7.33203 19.6763L13.2436 25.0237" stroke="#08243B" stroke-width="3" stroke-linecap="round" stroke-linejoin="round"/>
<path d="M17.2207 15.0303V22.6491" stroke="#08243B" stroke-width="3" stroke-linecap="round" stroke-linejoin="round"/>
<path d="M3.10938 44.7153H46.8844" stroke="#08243B" stroke-width="3" stroke-linecap="round" stroke-linejoin="round"/>
<path d="M3.10938 50.3472H46.8844" stroke="#08243B" stroke-width="3" stroke-linecap="round" stroke-linejoin="round"/>
<path d="M19.5469 57.4561H27.8574" stroke="#08243B" stroke-width="3" stroke-linecap="round" stroke-linejoin="round"/>
<path d="M10.0352 57.4561H15.4169" stroke="#08243B" stroke-width="3" stroke-linecap="round" stroke-linejoin="round"/>
<path d="M22.1348 84.2368H71.63" stroke="#08243B" stroke-width="3" stroke-linecap="round" stroke-linejoin="round"/>
<path d="M47.7793 90.3301H49.6484" stroke="#08243B" stroke-width="3" stroke-linecap="round" stroke-linejoin="round"/>
</svg>
