<?xml version="1.0" encoding="utf-8"?>
<!-- Generator: Adobe Illustrator 25.4.1, SVG Export Plug-In . SVG Version: 6.00 Build 0)  -->
<svg version="1.1" id="Layer_1" xmlns="http://www.w3.org/2000/svg" xmlns:xlink="http://www.w3.org/1999/xlink" x="0px" y="0px"
	 viewBox="0 0 100 100" style="enable-background:new 0 0 100 100;" xml:space="preserve">
<style type="text/css">
	.st0{fill:none;stroke:#231F20;stroke-width:7;stroke-linecap:round;stroke-linejoin:round;stroke-miterlimit:10;}
	.st1{fill:#231F20;}
	.st2{fill:#606060;}
	.st3{fill:#D4492A;}
</style>
<g>
	<path class="st3" d="M81.77,40.8H55.08V18.23c0-4.54-3.7-8.23-8.23-8.23H18.03c-4.54,0-8.24,3.69-8.24,8.23v54.72
		c0,4.54,3.7,8.23,8.24,8.23h2.09v0.38c0,4.65,3.79,8.43,8.43,8.43h53.23c4.66,0,8.44-3.78,8.44-8.43V49.24
		C90.21,44.59,86.43,40.8,81.77,40.8z M20.12,49.24v7.24v17.77h-2.09c-0.71,0-1.3-0.58-1.3-1.29V18.23c0-0.71,0.59-1.29,1.3-1.29
		h4.19v1.43c0,2.74,2.22,4.96,4.96,4.96h10.51c2.74,0,4.96-2.22,4.96-4.96v-1.43h4.2c0.71,0,1.29,0.58,1.29,1.29V40.8H28.55
		C23.91,40.8,20.12,44.59,20.12,49.24z M81.77,83.06H28.55c-0.81,0-1.48-0.66-1.48-1.49v-0.38v-6.94v-14.3h21.08h6.94h5.98
		c1.91,0,3.47-1.56,3.47-3.47c0-1.91-1.56-3.47-3.47-3.47h-5.98h-6.94H27.06v-3.77c0-0.81,0.68-1.49,1.48-1.49h19.59h6.94h26.69
		c0.83,0,1.49,0.67,1.49,1.49v6.63c-0.57-1.45-1.98-2.48-3.62-2.48h-6.31c-2.15,0-3.9,1.75-3.9,3.91c0,2.15,1.75,3.91,3.9,3.91h6.31
		c1.65,0,3.05-1.03,3.62-2.48v22.85C83.27,82.39,82.6,83.06,81.77,83.06z"/>
	<path class="st3" d="M41.44,68.65c-1.46,0-2.79,0.57-3.78,1.48c-0.99-0.92-2.31-1.48-3.77-1.48c-3.08,0-5.58,2.49-5.58,5.58
		c0,1.13,0.33,2.17,0.9,3.05c0.99,1.53,2.72,2.53,4.68,2.53c1.46,0,2.78-0.58,3.77-1.5c0.99,0.92,2.32,1.5,3.78,1.5
		c1.96,0,3.69-1,4.67-2.53c0.58-0.88,0.91-1.92,0.91-3.05C47.02,71.14,44.52,68.65,41.44,68.65z"/>
</g>
</svg>
