<svg width="73" height="85" viewBox="0 0 73 85" fill="none" xmlns="http://www.w3.org/2000/svg">
<path d="M2.80664 2V22.1705" stroke="#08243B" stroke-width="3" stroke-linecap="round" stroke-linejoin="round"/>
<path d="M16.5234 2V22.1705" stroke="#08243B" stroke-width="3" stroke-linecap="round" stroke-linejoin="round"/>
<path d="M2.80664 32.6592V52.8296" stroke="#08243B" stroke-width="3" stroke-linecap="round" stroke-linejoin="round"/>
<path d="M39.9199 32.6592V52.8296" stroke="#08243B" stroke-width="3" stroke-linecap="round" stroke-linejoin="round"/>
<path d="M39.9199 62.5115V83.4887" stroke="#08243B" stroke-width="3" stroke-linecap="round" stroke-linejoin="round"/>
<path d="M27.8184 62.5115V82.6819" stroke="#08243B" stroke-width="3" stroke-linecap="round" stroke-linejoin="round"/>
<path d="M9.26138 81.8749C13.2717 81.8749 16.5227 77.7208 16.5227 72.5965C16.5227 67.4722 13.2717 63.3181 9.26138 63.3181C5.25104 63.3181 2 67.4722 2 72.5965C2 77.7208 5.25104 81.8749 9.26138 81.8749Z" stroke="#08243B" stroke-width="3" stroke-linecap="round" stroke-linejoin="round"/>
<path d="M21.3629 52.0226C25.3733 52.0226 28.6243 47.8686 28.6243 42.7442C28.6243 37.6199 25.3733 33.4658 21.3629 33.4658C17.3526 33.4658 14.1016 37.6199 14.1016 42.7442C14.1016 47.8686 17.3526 52.0226 21.3629 52.0226Z" stroke="#08243B" stroke-width="3" stroke-linecap="round" stroke-linejoin="round"/>
<path d="M35.4831 21.3637C39.7163 21.3637 43.1479 17.2096 43.1479 12.0853C43.1479 6.96097 39.7163 2.80688 35.4831 2.80688C31.25 2.80688 27.8184 6.96097 27.8184 12.0853C27.8184 17.2096 31.25 21.3637 35.4831 21.3637Z" stroke="#08243B" stroke-width="3" stroke-linecap="round" stroke-linejoin="round"/>
<path d="M48.7949 12.4885H58.2928V24.5908H70.579" stroke="#08243B" stroke-width="3" stroke-linecap="round" stroke-linejoin="round"/>
<path d="M70.9838 27.0113C71.5188 27.0113 72.0318 26.7563 72.4101 26.3023C72.7884 25.8484 73.0009 25.2327 73.0009 24.5908C73.0015 24.2727 72.9498 23.9577 72.8487 23.6636C72.7475 23.3696 72.599 23.1024 72.4116 22.8775C72.2241 22.6526 72.0015 22.4744 71.7565 22.3531C71.5115 22.2317 71.2489 22.1696 70.9838 22.1704C70.4489 22.1704 69.9358 22.4253 69.5576 22.8793C69.1793 23.3332 68.9668 23.9488 68.9668 24.5908C68.9668 25.2327 69.1793 25.8484 69.5576 26.3023C69.9358 26.7563 70.4489 27.0113 70.9838 27.0113Z" fill="black"/>
<path d="M48.7949 43.1477H69.7722" stroke="#08243B" stroke-width="3" stroke-linecap="round" stroke-linejoin="round"/>
<path d="M69.772 44.7614C70.414 44.7614 71.0296 44.5492 71.4835 44.1714C71.9375 43.7936 72.1925 43.2812 72.1925 42.7469C72.1932 42.4819 72.1312 42.2193 72.0099 41.9743C71.8887 41.7294 71.7105 41.5067 71.4856 41.3191C71.2608 41.1315 70.9937 40.9827 70.6997 40.8811C70.4056 40.7796 70.0904 40.7273 69.772 40.7273C69.1295 40.7286 68.5139 40.9419 68.0601 41.3205C67.6064 41.6991 67.3516 42.2121 67.3516 42.7469C67.3516 43.2812 67.6066 43.7936 68.0605 44.1714C68.5144 44.5492 69.1301 44.7614 69.772 44.7614Z" fill="black"/>
<path d="M48.7949 73H58.2928V60.8977H70.579" stroke="#08243B" stroke-width="3" stroke-linecap="round" stroke-linejoin="round"/>
<path d="M70.9838 63.3183C71.5188 63.3183 72.0318 63.1058 72.4101 62.7276C72.7884 62.3493 73.0009 61.8362 73.0009 61.3013C73.0009 60.7663 72.7884 60.2533 72.4101 59.875C72.0318 59.4967 71.5188 59.2842 70.9838 59.2842C70.4489 59.2842 69.9358 59.4967 69.5576 59.875C69.1793 60.2533 68.9668 60.7663 68.9668 61.3013C68.9668 61.8362 69.1793 62.3493 69.5576 62.7276C69.9358 63.1058 70.4489 63.3183 70.9838 63.3183Z" fill="black"/>
</svg>
