<?xml version="1.0" encoding="utf-8"?>
<!-- Generator: Adobe Illustrator 25.4.1, SVG Export Plug-In . SVG Version: 6.00 Build 0)  -->
<svg version="1.1" id="Layer_1" xmlns="http://www.w3.org/2000/svg" xmlns:xlink="http://www.w3.org/1999/xlink" x="0px" y="0px"
	 viewBox="0 0 100 100" style="enable-background:new 0 0 100 100;" xml:space="preserve">
<style type="text/css">
	.st0{fill:none;stroke:#231F20;stroke-width:7;stroke-linecap:round;stroke-linejoin:round;stroke-miterlimit:10;}
	.st1{fill:#231F20;}
	.st2{fill:#606060;}
	.st3{fill:#D4492A;}
</style>
<g>
	<path class="st3" d="M71.85,55.35V36.67c0-4.19-3.41-7.6-7.6-7.6h-0.21v-5.02C64.05,16.3,57.74,10,50,10
		c-7.75,0-14.05,6.3-14.05,14.05v5.02h-0.21c-4.19,0-7.6,3.41-7.6,7.6v18.67c0,4.19,3.41,7.6,7.6,7.6h28.5
		C68.44,62.94,71.85,59.54,71.85,55.35z M42.21,24.05c0-4.3,3.49-7.79,7.79-7.79s7.79,3.49,7.79,7.79v5.02H42.21V24.05z M65.6,55.35
		L65.6,55.35c-0.01,0.74-0.61,1.34-1.35,1.34h-28.5c-0.74,0-1.34-0.6-1.34-1.34V36.67c0-0.74,0.6-1.34,1.34-1.34h3.33h21.84h3.33
		c0.74,0,1.34,0.6,1.34,1.34V55.35z"/>
	<path class="st3" d="M50,40.4c-1.56,0-2.84,1.27-2.84,2.84v5.54c0,1.56,1.27,2.84,2.84,2.84s2.84-1.27,2.84-2.84v-5.54
		C52.85,41.67,51.57,40.4,50,40.4z"/>
	<path class="st3" d="M30.94,72.35l-4.17,1.89v-4.13c0-1.73-1.4-3.13-3.13-3.13c-1.73,0-3.13,1.4-3.13,3.13v4.13l-4.17-1.89
		c-1.57-0.72-3.42-0.02-4.15,1.56c-0.72,1.57-0.02,3.42,1.56,4.15l5.17,2.35l-3.28,4.67c-0.99,1.41-0.64,3.37,0.77,4.36
		C16.96,89.82,17.58,90,18.2,90c0.98,0,1.96-0.46,2.57-1.33l2.87-4.1l2.88,4.1C27.12,89.54,28.1,90,29.08,90
		c0.62,0,1.24-0.19,1.79-0.56c1.41-0.99,1.76-2.94,0.77-4.36l-3.28-4.68l5.17-2.35c1.57-0.72,2.27-2.57,1.56-4.15
		C34.36,72.33,32.5,71.63,30.94,72.35z"/>
	<path class="st3" d="M57.3,72.35l-4.17,1.89v-4.13c0-1.73-1.4-3.13-3.13-3.13s-3.13,1.4-3.13,3.13v4.13l-4.17-1.89
		c-1.57-0.72-3.42-0.02-4.15,1.56c-0.72,1.57-0.02,3.42,1.56,4.15l5.17,2.35L42,85.07c-0.99,1.41-0.64,3.37,0.77,4.36
		c0.55,0.38,1.17,0.56,1.79,0.56c0.98,0,1.96-0.46,2.57-1.33l2.87-4.1l2.88,4.1c0.61,0.87,1.58,1.33,2.57,1.33
		c0.62,0,1.24-0.19,1.79-0.56c1.41-0.99,1.76-2.94,0.77-4.36l-3.28-4.68l5.17-2.35c1.57-0.72,2.27-2.57,1.56-4.15
		C60.72,72.33,58.86,71.63,57.3,72.35z"/>
	<path class="st3" d="M87.8,73.9c-0.72-1.57-2.57-2.27-4.15-1.56l-4.17,1.89v-4.13c0-1.73-1.4-3.13-3.13-3.13
		c-1.73,0-3.13,1.4-3.13,3.13v4.13l-4.17-1.89c-1.57-0.72-3.42-0.02-4.15,1.56c-0.72,1.57-0.02,3.42,1.56,4.15l5.17,2.35l-3.27,4.67
		c-0.99,1.41-0.64,3.37,0.77,4.36C69.68,89.82,70.3,90,70.92,90c0.98,0,1.96-0.46,2.57-1.33l2.87-4.1l2.88,4.1
		C79.84,89.54,80.81,90,81.8,90c0.62,0,1.24-0.19,1.79-0.56c1.41-0.99,1.76-2.94,0.77-4.36l-3.28-4.68l5.17-2.35
		C87.82,77.33,88.51,75.47,87.8,73.9z"/>
</g>
</svg>
