<?xml version="1.0" encoding="utf-8"?>
<!-- Generator: Adobe Illustrator 25.4.1, SVG Export Plug-In . SVG Version: 6.00 Build 0)  -->
<svg version="1.1" id="Layer_1" xmlns="http://www.w3.org/2000/svg" xmlns:xlink="http://www.w3.org/1999/xlink" x="0px" y="0px"
	 viewBox="0 0 100 100" style="enable-background:new 0 0 100 100;" xml:space="preserve">
<style type="text/css">
	.st0{fill:none;stroke:#231F20;stroke-width:7;stroke-linecap:round;stroke-linejoin:round;stroke-miterlimit:10;}
	.st1{fill:#231F20;}
	.st2{fill:#606060;}
	.st3{fill:#D4492A;}
</style>
<g>
	<path class="st3" d="M86.57,10H25.33c-3.95,0-7.16,3.21-7.16,7.16v3.11h-4.74c-3.94,0-7.16,3.21-7.16,7.16v40.88
		c0,3.95,3.22,7.16,7.16,7.16h13.42C28.24,83.71,35.42,90,44.05,90c8.63,0,15.81-6.29,17.21-14.51h13.42c3.94,0,7.16-3.21,7.16-7.16
		v-3.11h4.74c3.94,0,7.16-3.22,7.16-7.16V17.16C93.74,13.21,90.52,10,86.57,10z M55.23,75.49c-1.31,4.95-5.82,8.61-11.18,8.61
		c-5.35,0-9.86-3.67-11.18-8.61c-0.24-0.94-0.38-1.93-0.38-2.95c0-1.02,0.13-2.01,0.38-2.95c0.43-1.63,1.21-3.11,2.25-4.37
		c2.12-2.58,5.33-4.23,8.93-4.23s6.82,1.65,8.93,4.23c1.05,1.26,1.82,2.75,2.25,4.37c0.24,0.94,0.38,1.93,0.38,2.95
		C55.61,73.56,55.47,74.54,55.23,75.49z M75.94,59.31v5.9v3.11c0,0.7-0.57,1.26-1.26,1.26H61.26c-0.26-1.53-0.72-3-1.36-4.37
		c-1.06-2.28-2.59-4.28-4.47-5.9c-3.06-2.64-7.04-4.23-11.39-4.23c-4.34,0-8.32,1.59-11.38,4.23c-1.88,1.62-3.41,3.62-4.47,5.9
		c-0.63,1.37-1.1,2.84-1.36,4.37H13.43c-0.7,0-1.26-0.56-1.26-1.26V27.44c0-0.7,0.56-1.26,1.26-1.26h4.74h5.9h50.61
		c0.69,0,1.26,0.56,1.26,1.26V59.31z M87.84,58.05c0,0.69-0.57,1.26-1.26,1.26h-4.74V27.44c0-3.95-3.22-7.16-7.16-7.16H24.06v-3.11
		c0-0.7,0.56-1.26,1.26-1.26h61.25c0.69,0,1.26,0.56,1.26,1.26V58.05z"/>
	<path class="st3" d="M61.9,32.21H26.2c-0.84,0-1.61,0.35-2.14,0.94c-0.51,0.52-0.81,1.23-0.81,2.01s0.3,1.49,0.81,2.01
		c0.53,0.58,1.3,0.94,2.14,0.94H61.9c1.63,0,2.95-1.32,2.95-2.95C64.85,33.53,63.52,32.21,61.9,32.21z"/>
	<path class="st3" d="M61.9,41.86H26.2c-0.84,0-1.61,0.35-2.14,0.94c-0.51,0.52-0.81,1.24-0.81,2.01s0.3,1.49,0.81,2.01
		c0.53,0.58,1.3,0.94,2.14,0.94H61.9c1.63,0,2.95-1.32,2.95-2.95S63.52,41.86,61.9,41.86z"/>
	<path class="st3" d="M47.45,66.47l-3.12,3.12l-2.76,2.76l-0.93-0.92c-1.15-1.15-3.02-1.15-4.16,0c-1.11,1.11-1.15,2.89-0.11,4.05
		c0.03,0.04,0.07,0.08,0.11,0.12l3,3.01c0.58,0.57,1.33,0.86,2.09,0.86c0.75,0,1.51-0.29,2.08-0.86l3.13-3.13l4.85-4.85
		c0.31-0.31,0.54-0.67,0.67-1.05c0.4-1.05,0.17-2.28-0.67-3.12C50.48,65.31,48.61,65.31,47.45,66.47z"/>
</g>
</svg>
