<?xml version="1.0" encoding="utf-8"?>
<!-- Generator: Adobe Illustrator 25.4.1, SVG Export Plug-In . SVG Version: 6.00 Build 0)  -->
<svg version="1.1" id="Layer_1" xmlns="http://www.w3.org/2000/svg" xmlns:xlink="http://www.w3.org/1999/xlink" x="0px" y="0px"
	 viewBox="0 0 100 100" style="enable-background:new 0 0 100 100;" xml:space="preserve">
<style type="text/css">
	.st0{fill:none;stroke:#231F20;stroke-width:7;stroke-linecap:round;stroke-linejoin:round;stroke-miterlimit:10;}
	.st1{fill:#231F20;}
	.st2{fill:#606060;}
	.st3{fill:#D4492A;}
</style>
<g>
	<path class="st3" d="M85.2,16.36H31.32c-4.71,0-8.53,3.84-8.53,8.56v10.85c-5.55,1.54-9.64,6.66-9.64,12.71v3.72
		c-3.84,0.29-6.88,3.52-6.88,7.45v16.53c0,4.13,3.34,7.48,7.46,7.48h25.16c4.1,0,7.45-3.35,7.45-7.48v-9.87H85.2
		c4.7,0,8.54-3.85,8.54-8.56V24.92C93.74,20.19,89.9,16.36,85.2,16.36z M20.17,48.47c0-2.07,1.04-3.92,2.62-5.02
		c0.99-0.71,2.21-1.12,3.51-1.12c1.3,0,2.52,0.41,3.51,1.12c1.58,1.11,2.61,2.95,2.61,5.02v3.69h-2.61h-7.03h-2.62V48.47z
		 M39.3,66.29v9.87c0,0.24-0.19,0.43-0.42,0.43H13.72c-0.24,0-0.43-0.19-0.43-0.43V59.64c0-0.24,0.19-0.43,0.43-0.43h2.93h6.26h8.07
		h4.95h2.95c0.07,0,0.13,0.02,0.18,0.04c0.14,0.07,0.24,0.22,0.24,0.39V66.29z M86.71,28.73H52.29c-1.94,0-3.51,1.58-3.51,3.53
		c0,1.94,1.58,3.52,3.51,3.52h34.42v21.95c0,0.83-0.67,1.51-1.51,1.51H46.31c-0.18-3.76-3.14-6.79-6.86-7.06v-3.72
		c0-6.05-4.09-11.17-9.64-12.71V24.92c0-0.84,0.67-1.51,1.5-1.51H85.2c0.84,0,1.51,0.68,1.51,1.51V28.73z"/>
	<path class="st3" d="M26.3,62.94c-0.52,0-0.99,0.16-1.4,0.42c-0.67,0.44-1.11,1.21-1.11,2.08v4.9c0,1.39,1.12,2.52,2.51,2.52
		c1.38,0,2.51-1.13,2.51-2.52v-4.43v-0.47c0-0.69-0.28-1.32-0.73-1.77C27.62,63.22,26.99,62.94,26.3,62.94z"/>
	<path class="st3" d="M42.49,28.73h-5.67c-1.94,0-3.51,1.58-3.51,3.53c0,1.94,1.58,3.52,3.51,3.52h5.67c1.94,0,3.51-1.58,3.51-3.52
		C46,30.31,44.43,28.73,42.49,28.73z"/>
	<path class="st3" d="M69.66,52.58c1.32,0,2.5-0.51,3.39-1.35c0.9,0.83,2.08,1.35,3.39,1.35c2.77,0,5.02-2.26,5.02-5.03
		c0-2.78-2.25-5.04-5.02-5.04c-1.32,0-2.5,0.51-3.39,1.35c-0.89-0.83-2.08-1.35-3.39-1.35c-2.77,0-5.02,2.26-5.02,5.04
		C64.65,50.32,66.89,52.58,69.66,52.58z"/>
</g>
</svg>
