<svg width="93" height="74" viewBox="0 0 93 74" fill="none" xmlns="http://www.w3.org/2000/svg">
<path d="M50.5762 64.0231H5.79595C5.29746 64.0231 4.80385 63.925 4.3433 63.7342C3.88275 63.5435 3.46425 63.2637 3.11176 62.9113C2.75927 62.5588 2.4797 62.1403 2.28893 61.6798C2.09817 61.2192 2 60.7257 2 60.2272V5.79602C2 5.29753 2.09817 4.80385 2.28893 4.3433C2.4797 3.88275 2.75927 3.46432 3.11176 3.11183C3.46425 2.75934 3.88275 2.47977 4.3433 2.289C4.80385 2.09823 5.29746 2 5.79595 2H87.204C87.7025 2 88.1961 2.09823 88.6566 2.289C89.1172 2.47977 89.5357 2.75934 89.8882 3.11183C90.2407 3.46432 90.5202 3.88275 90.711 4.3433C90.9018 4.80385 91 5.29753 91 5.79602V60.2548C91 61.2616 90.6 62.2271 89.8882 62.939C89.1763 63.6509 88.2107 64.0509 87.204 64.0509H78.1525" stroke="#08243B" stroke-width="3" stroke-linecap="round" stroke-linejoin="round"/>
<path d="M2 19.2097H89.435" stroke="#08243B" stroke-width="3" stroke-linecap="round" stroke-linejoin="round"/>
<path d="M15.3184 41.1418H38.9821" stroke="#08243B" stroke-width="3" stroke-linecap="round" stroke-linejoin="round"/>
<path d="M16.4961 52.6687H31.7743" stroke="#08243B" stroke-width="3" stroke-linecap="round" stroke-linejoin="round"/>
<path d="M73.0357 48.667H55.693C52.867 48.667 50.5762 50.9579 50.5762 53.7838V67.053C50.5762 69.879 52.867 72.1698 55.693 72.1698H73.0357C75.8616 72.1698 78.1525 69.879 78.1525 67.053V53.7838C78.1525 50.9579 75.8616 48.667 73.0357 48.667Z" stroke="#08243B" stroke-width="3" stroke-linecap="round" stroke-linejoin="round"/>
<path d="M64.3652 54.6221V66.5317" stroke="#08243B" stroke-width="3" stroke-linecap="round" stroke-linejoin="round"/>
<path d="M56.002 47.8792C56.002 42.2574 59.748 37.6956 64.3598 37.6956C68.9716 37.6956 72.7175 42.2574 72.7175 47.8792" stroke="#08243B" stroke-width="3" stroke-linecap="round" stroke-linejoin="round"/>
</svg>
