<svg width="583" height="418" viewBox="0 0 583 418" fill="none" xmlns="http://www.w3.org/2000/svg">
<path fill-rule="evenodd" clip-rule="evenodd" d="M21.4729 360.763H92.3524L84.6527 381.324H12.9043L21.4729 360.763Z" fill="#08243B"/>
<path d="M112.731 381.053L38.6433 323.904C36.8224 322.499 34.2077 322.837 32.8034 324.658L16.2644 346.108C14.8601 347.929 15.1978 350.544 17.0187 351.949L91.1069 409.098C92.9278 410.503 95.5425 410.165 96.9468 408.344L113.486 386.894C114.89 385.073 114.552 382.458 112.731 381.053Z" fill="url(#paint0_radial)"/>
<path d="M38.2342 359.397C36.9953 359.27 35.7847 358.946 34.648 358.437C31.9074 357.221 29.726 355.017 28.539 352.263C27.3519 349.509 27.2466 346.409 28.2439 343.581C29.2412 340.753 31.2679 338.405 33.9196 337.006C36.5713 335.607 39.653 335.259 42.5499 336.032C45.4467 336.804 47.9457 338.641 49.5482 341.176C51.1507 343.71 51.7389 346.756 51.1955 349.705C50.6521 352.654 49.0169 355.29 46.6163 357.086C44.2157 358.883 41.2262 359.708 38.2442 359.397H38.2342Z" fill="#C2D5FF"/>
<path d="M63.1504 353.725L105.285 386.233" stroke="#08243B" stroke-width="2" stroke-miterlimit="10" stroke-linecap="round"/>
<path d="M59.4385 358.542L101.573 391.05" stroke="#08243B" stroke-width="2" stroke-miterlimit="10" stroke-linecap="round"/>
<path d="M55.7227 363.36L97.8576 395.868" stroke="#08243B" stroke-width="2" stroke-miterlimit="10" stroke-linecap="round"/>
<path d="M52.0049 368.178L94.1398 400.686" stroke="#08243B" stroke-width="2" stroke-miterlimit="10" stroke-linecap="round"/>
<path d="M67.9902 335.285L59.7495 375.051C58.9534 378.893 61.4216 382.652 65.2623 383.449L105.02 391.691C108.861 392.487 112.62 390.018 113.416 386.177L121.657 346.411C122.453 342.57 119.985 338.81 116.144 338.014L76.3859 329.771C72.5452 328.975 68.7863 331.444 67.9902 335.285Z" fill="url(#paint1_linear)"/>
<path d="M109.485 363.476L110.023 363.124C110.063 362.822 110.093 362.521 110.113 362.225L109.947 362.335L108.852 363.054L108.511 363.275L109.485 363.476Z" fill="url(#paint2_linear)"/>
<path d="M109.425 355.458L108.561 356.026L107.637 356.634L106.542 357.352L105.623 357.955L104.528 358.688L104.417 358.759C104.458 359.02 104.488 359.261 104.513 359.537L104.915 359.276L106.005 358.558L106.929 357.955L108.019 357.236L108.943 356.629L109.611 356.191C109.551 355.935 109.485 355.699 109.425 355.458Z" fill="url(#paint3_linear)"/>
<path d="M109.878 357.442C109.833 357.196 109.787 356.939 109.732 356.698L109.305 356.98L108.215 357.683L107.291 358.286L106.196 359.004L105.277 359.612L104.554 360.084C104.554 360.36 104.554 360.637 104.554 360.918L105.644 360.205L106.568 359.597L107.663 358.879L108.582 358.271L109.677 357.557L109.878 357.442Z" fill="url(#paint4_linear)"/>
<path d="M110.063 358.763C110.038 358.507 110.003 358.261 109.968 357.989L109.883 358.04L108.983 358.647L107.894 359.366L106.969 359.974L105.854 360.697L104.93 361.305L104.548 361.556C104.548 361.852 104.508 362.149 104.473 362.445L105.312 361.893L106.236 361.285L107.331 360.571L108.25 359.964L109.345 359.245L110.063 358.763Z" fill="url(#paint5_linear)"/>
<path d="M107.803 363.129L108.652 362.577L109.576 361.969L110.143 361.597C110.143 361.311 110.143 361.03 110.143 360.743L109.169 361.381L108.245 361.989L107.175 362.707L106.833 362.928L107.803 363.129Z" fill="url(#paint6_linear)"/>
<path d="M108.857 353.785C108.772 353.564 108.681 353.343 108.591 353.122L108.33 353.293L107.235 354.011L106.311 354.619L105.221 355.332L104.297 355.94L103.794 356.257C103.875 356.488 103.945 356.719 104.015 356.955L104.663 356.528L105.588 355.92L106.677 355.202L107.602 354.599L108.692 353.881L108.857 353.785Z" fill="url(#paint7_linear)"/>
<path d="M109.269 354.956C109.198 354.725 109.118 354.499 109.038 354.268L108.907 354.358L107.978 354.966L106.888 355.674L105.969 356.287L104.879 357.005L104.176 357.468C104.231 357.709 104.296 357.97 104.342 358.196L105.266 357.593L106.356 356.875L107.28 356.267L108.37 355.549L109.269 354.956Z" fill="url(#paint8_linear)"/>
<path d="M106.133 362.787L106.982 362.23L107.906 361.622L108.996 360.903L109.92 360.3L110.152 360.15C110.152 359.873 110.152 359.607 110.111 359.336L109.534 359.713L108.61 360.321L107.52 361.034L106.596 361.642L105.506 362.36L105.164 362.581L106.133 362.787Z" fill="url(#paint9_linear)"/>
<path d="M103.363 355.111C103.463 355.332 103.544 355.553 103.634 355.774L103.935 355.573L105.03 354.86L105.954 354.252L107.044 353.534L107.969 352.926L108.38 352.659C108.28 352.443 108.18 352.232 108.074 352.021L107.572 352.343L106.648 352.946L105.568 353.664L104.644 354.272L103.554 354.985L103.363 355.111Z" fill="url(#paint10_linear)"/>
<path d="M104.282 353.906L105.377 353.187L106.301 352.579L107.391 351.866L107.838 351.575C107.748 351.409 107.662 351.248 107.567 351.072L102.891 354.167C102.976 354.333 103.056 354.498 103.137 354.669L103.358 354.523L104.282 353.906Z" fill="url(#paint11_linear)"/>
<path d="M77.158 357.954C77.8665 354.551 79.8268 351.538 82.6508 349.511C85.4748 347.485 88.9566 346.593 92.4067 347.013V346.962L93.5318 347.198C96.7394 347.856 99.6069 349.638 101.618 352.222L106.304 349.148C103.487 345.354 99.3771 342.725 94.7523 341.758L94.5514 341.718C94.2651 341.657 93.9738 341.607 93.6825 341.562H93.4866L92.7231 341.461H92.4871L91.7538 341.401H91.5629C91.2967 341.401 91.0255 341.401 90.7392 341.376H90.6789C86.8924 341.371 83.1875 342.477 80.0228 344.557C76.8582 346.636 74.3726 349.598 72.8737 353.076V353.131C72.7682 353.377 72.6677 353.634 72.5723 353.875L72.507 354.056C72.4216 354.287 72.3413 354.518 72.271 354.744L72.1906 354.98C72.1152 355.221 72.0449 355.482 71.9796 355.713L71.9194 355.914C71.839 356.226 71.7637 356.542 71.6984 356.869C70.722 361.526 71.5001 366.38 73.8832 370.498L78.5643 367.424C76.9765 364.537 76.4775 361.177 77.158 357.954Z" fill="white"/>
<path d="M109.484 365.836L104.005 364.716C103.284 367.156 101.906 369.35 100.02 371.058C98.1345 372.765 95.815 373.92 93.3162 374.395C90.8174 374.871 88.236 374.649 85.8553 373.753C83.4745 372.857 81.3866 371.322 79.8208 369.317L75.1396 372.392C77.3204 375.314 80.2783 377.564 83.6759 378.885C87.0736 380.206 90.7741 380.546 94.3554 379.865C97.9367 379.184 101.255 377.51 103.93 375.034C106.606 372.558 108.533 369.38 109.49 365.861L109.484 365.836Z" fill="url(#paint12_linear)"/>
<path d="M47.931 415.174H118.811V360.763H47.931V415.174Z" fill="url(#paint13_linear)"/>
<path d="M47.931 385.609H118.811V360.762H47.931V385.609Z" fill="#08243B"/>
<path fill-rule="evenodd" clip-rule="evenodd" d="M118.812 360.763H47.9277L55.6325 381.324H127.376L118.812 360.763Z" fill="url(#paint14_linear)"/>
<path d="M21.4727 360.763V415.174H47.9269V360.763H21.4727ZM39.5542 369.996H29.8655C29.3993 369.996 28.9521 369.811 28.6224 369.481C28.2928 369.151 28.1076 368.704 28.1076 368.238C28.1076 367.772 28.2928 367.324 28.6224 366.995C28.9521 366.665 29.3993 366.48 29.8655 366.48H39.5391C40.0053 366.48 40.4525 366.665 40.7821 366.995C41.1118 367.324 41.297 367.772 41.297 368.238C41.297 368.704 41.1118 369.151 40.7821 369.481C40.4525 369.811 40.0053 369.996 39.5391 369.996H39.5542Z" fill="url(#paint15_linear)"/>
<g style="mix-blend-mode:multiply" opacity="0.5">
<g style="mix-blend-mode:multiply" opacity="0.5">
<path d="M21.4727 360.763V415.174H47.9269V360.763H21.4727ZM39.5542 369.996H29.8655C29.3993 369.996 28.9521 369.811 28.6224 369.481C28.2928 369.151 28.1076 368.704 28.1076 368.238C28.1076 367.772 28.2928 367.324 28.6224 366.995C28.9521 366.665 29.3993 366.48 29.8655 366.48H39.5391C40.0053 366.48 40.4525 366.665 40.7821 366.995C41.1118 367.324 41.297 367.772 41.297 368.238C41.297 368.704 41.1118 369.151 40.7821 369.481C40.4525 369.811 40.0053 369.996 39.5391 369.996H39.5542Z" fill="#08243B"/>
</g>
</g>
<path d="M245.472 415.144H432.058C443.345 415.144 452.495 405.992 452.495 394.702L452.495 20.441C452.495 9.15164 443.345 -0.000183105 432.058 -0.000183105H245.472C234.185 -0.000183105 225.035 9.15164 225.035 20.441L225.035 394.702C225.035 405.992 234.185 415.144 245.472 415.144Z" fill="#08243B"/>
<path d="M237.427 415.144H422.034C433.867 415.144 443.46 405.549 443.46 393.713L443.46 21.4307C443.46 9.59476 433.867 -0.000183105 422.034 -0.000183105H237.427C225.593 -0.000183105 216 9.59476 216 21.4307L216 393.713C216 405.549 225.593 415.144 237.427 415.144Z" fill="url(#paint16_linear)"/>
<path d="M435.661 26.8314C435.661 15.9251 425.912 7.07847 413.883 7.07847H389.121C388.851 7.06566 388.581 7.1064 388.327 7.19834C388.073 7.29028 387.84 7.4316 387.64 7.61418C387.441 7.79675 387.28 8.01697 387.166 8.26214C387.052 8.50731 386.988 8.7726 386.977 9.04272C386.977 16.6184 380.211 22.7573 371.863 22.7573H287.604C279.251 22.7372 272.486 16.5782 272.486 9.04272C272.458 8.50069 272.217 7.99162 271.815 7.62716C271.413 7.2627 270.883 7.07261 270.341 7.09857H245.599C233.575 7.09857 223.826 15.9452 223.826 26.8515V366.46H435.681L435.661 26.8314Z" fill="white"/>
<path d="M245.599 408.061H413.882C425.937 408.061 435.661 399.219 435.661 388.308V366.46H223.806V388.328C223.806 399.219 233.545 408.061 245.599 408.061Z" fill="#C2D5FF"/>
<path d="M425.521 33.6836H362.266" stroke="#08243B" stroke-width="5.65" stroke-miterlimit="10"/>
<path d="M358.844 11.2178H300.612C299.225 11.2178 298.101 12.3424 298.101 13.7296C298.101 15.1168 299.225 16.2414 300.612 16.2414H358.844C360.231 16.2414 361.356 15.1168 361.356 13.7296C361.356 12.3424 360.231 11.2178 358.844 11.2178Z" fill="white"/>
<path d="M425.519 39.5459H398.201" stroke="#08243B" stroke-width="5.65" stroke-miterlimit="10"/>
<path d="M254.167 32.749H234.815" stroke="#08243B" stroke-width="1.7" stroke-miterlimit="10"/>
<path d="M254.167 36.6826H234.815" stroke="#08243B" stroke-width="1.7" stroke-miterlimit="10"/>
<path d="M254.167 40.6162H234.815" stroke="#08243B" stroke-width="1.7" stroke-miterlimit="10"/>
<path d="M348.472 55.3711H238.215C236.337 55.3711 234.815 56.8938 234.815 58.7721V105.844C234.815 107.722 236.337 109.245 238.215 109.245H348.472C350.35 109.245 351.873 107.722 351.873 105.844V58.7721C351.873 56.8938 350.35 55.3711 348.472 55.3711Z" fill="#C2D5FF"/>
<path d="M233.756 283.331L233.34 357.946L332.591 358.501L333.007 283.886L233.756 283.331Z" fill="url(#paint17_linear)"/>
<path d="M233.544 357.944L268.466 311.757L289.782 340.894L304.428 325.461L332.796 358.497L233.544 357.944Z" fill="#FF4F5B"/>
<path d="M299.09 306.246C299.085 307.792 298.622 309.302 297.759 310.585C296.896 311.868 295.672 312.866 294.242 313.453C292.811 314.04 291.239 314.189 289.724 313.882C288.209 313.575 286.819 312.826 285.729 311.729C284.64 310.632 283.901 309.236 283.605 307.718C283.309 306.201 283.469 304.629 284.066 303.203C284.663 301.777 285.669 300.56 286.958 299.705C288.246 298.851 289.759 298.398 291.305 298.404C293.377 298.412 295.361 299.243 296.821 300.713C298.281 302.184 299.097 304.174 299.09 306.246Z" fill="#FF4F5B"/>
<path d="M233.544 357.944L268.466 311.757L289.782 340.894L304.428 325.461L332.796 358.497L233.544 357.944Z" fill="#D4492A"/>
<path d="M299.09 306.246C299.085 307.792 298.622 309.302 297.759 310.585C296.896 311.868 295.672 312.866 294.242 313.453C292.811 314.04 291.239 314.189 289.724 313.882C288.209 313.575 286.819 312.826 285.729 311.729C284.64 310.632 283.901 309.236 283.605 307.718C283.309 306.201 283.469 304.629 284.066 303.203C284.663 301.777 285.669 300.56 286.958 299.705C288.246 298.851 289.759 298.398 291.305 298.404C293.377 298.412 295.361 299.243 296.821 300.713C298.281 302.184 299.097 304.174 299.09 306.246Z" fill="#D4492A"/>
<path d="M425.213 193.225H340.833V358.497H425.213V193.225Z" fill="#FBB03B"/>
<path d="M233.75 193.225L233.725 198.248C233.725 198.281 233.73 198.314 233.743 198.344C233.755 198.374 233.773 198.402 233.796 198.426C233.818 198.449 233.846 198.468 233.876 198.48C233.906 198.493 233.939 198.499 233.971 198.499C234.038 198.498 234.101 198.471 234.148 198.424C234.194 198.378 234.221 198.314 234.223 198.248L234.248 193.225H233.745H233.75ZM233.946 203.021C233.88 203.021 233.816 203.047 233.769 203.094C233.722 203.141 233.695 203.205 233.695 203.272V203.96C233.695 205.372 233.67 208.195 233.67 208.195C233.671 208.261 233.698 208.324 233.745 208.371C233.792 208.418 233.855 208.445 233.921 208.446C233.988 208.446 234.052 208.42 234.099 208.373C234.146 208.326 234.172 208.262 234.172 208.195L234.202 203.171C234.202 203.105 234.176 203.041 234.129 202.994C234.082 202.947 234.018 202.92 233.951 202.92L233.946 203.021ZM233.891 213.068C233.824 213.068 233.761 213.094 233.713 213.142C233.666 213.189 233.64 213.253 233.64 213.319V214.917C233.64 216.384 233.64 218.343 233.64 218.343C233.64 218.409 233.666 218.473 233.713 218.52C233.761 218.568 233.824 218.594 233.891 218.594C233.958 218.594 234.021 218.568 234.069 218.52C234.116 218.473 234.142 218.409 234.142 218.343L234.172 213.319C234.172 213.253 234.146 213.189 234.099 213.142C234.052 213.094 233.988 213.068 233.921 213.068H233.891ZM233.836 223.115C233.769 223.115 233.705 223.142 233.658 223.189C233.611 223.236 233.585 223.3 233.585 223.366V225.783V225.823V228.335C233.585 228.401 233.611 228.465 233.658 228.512C233.705 228.56 233.769 228.586 233.836 228.586C233.902 228.586 233.966 228.56 234.013 228.512C234.06 228.465 234.087 228.401 234.087 228.335L234.117 223.311C234.117 223.245 234.091 223.181 234.043 223.134C233.996 223.086 233.933 223.06 233.866 223.06L233.836 223.115ZM233.781 233.163C233.748 233.162 233.715 233.168 233.685 233.18C233.654 233.192 233.627 233.21 233.603 233.233C233.58 233.256 233.561 233.283 233.549 233.313C233.536 233.344 233.529 233.376 233.529 233.409V236.554C233.529 237.523 233.529 238.337 233.529 238.337C233.529 238.404 233.556 238.467 233.603 238.515C233.65 238.562 233.714 238.588 233.781 238.588C233.847 238.588 233.911 238.562 233.958 238.515C234.005 238.467 234.032 238.404 234.032 238.337L234.062 233.313C234.062 233.247 234.035 233.183 233.988 233.136C233.941 233.089 233.877 233.062 233.811 233.062L233.781 233.163ZM233.72 243.21C233.655 243.211 233.592 243.237 233.546 243.283C233.499 243.329 233.472 243.391 233.469 243.456V247.445V247.49V247.515V247.56C233.469 248.063 233.469 248.434 233.469 248.434C233.469 248.501 233.496 248.565 233.543 248.612C233.59 248.659 233.654 248.686 233.72 248.686C233.787 248.686 233.851 248.659 233.898 248.612C233.945 248.565 233.971 248.501 233.971 248.434L233.996 243.411C233.997 243.378 233.991 243.345 233.979 243.315C233.967 243.285 233.949 243.257 233.926 243.233C233.903 243.21 233.876 243.191 233.846 243.179C233.816 243.166 233.783 243.16 233.75 243.16L233.72 243.21ZM233.665 253.257C233.6 253.258 233.537 253.285 233.491 253.33C233.444 253.376 233.416 253.438 233.414 253.503L233.389 258.391C233.389 258.457 233.415 258.52 233.461 258.567C233.507 258.614 233.569 258.641 233.635 258.642C233.701 258.642 233.765 258.616 233.812 258.569C233.86 258.522 233.886 258.458 233.886 258.391L233.911 253.368C233.911 253.302 233.885 253.239 233.839 253.192C233.793 253.145 233.731 253.118 233.665 253.116V253.257ZM233.61 263.304C233.543 263.304 233.479 263.331 233.432 263.378C233.385 263.425 233.359 263.489 233.359 263.556C233.359 263.556 233.359 267.479 233.333 267.816H234.077C234.143 267.816 234.207 267.789 234.254 267.742C234.302 267.695 234.328 267.631 234.328 267.564C234.328 267.498 234.302 267.434 234.254 267.387C234.207 267.34 234.143 267.313 234.077 267.313H233.841V263.53C233.841 263.464 233.814 263.4 233.767 263.353C233.72 263.306 233.656 263.279 233.59 263.279L233.61 263.304ZM239.099 267.369C239.033 267.369 238.969 267.395 238.922 267.442C238.875 267.489 238.848 267.553 238.848 267.62C238.848 267.686 238.875 267.75 238.922 267.797C238.969 267.844 239.033 267.871 239.099 267.871H242.309H244.127C244.193 267.871 244.256 267.845 244.303 267.799C244.35 267.753 244.377 267.69 244.378 267.625C244.378 267.558 244.352 267.493 244.305 267.445C244.258 267.397 244.194 267.37 244.127 267.369H239.105H239.099ZM249.145 267.424C249.078 267.424 249.014 267.45 248.967 267.497C248.92 267.544 248.894 267.608 248.894 267.675C248.894 267.742 248.92 267.805 248.967 267.853C249.014 267.9 249.078 267.926 249.145 267.926L254.167 267.956C254.234 267.955 254.297 267.928 254.344 267.881C254.39 267.834 254.417 267.771 254.419 267.705C254.419 267.638 254.392 267.575 254.345 267.527C254.298 267.48 254.234 267.454 254.167 267.454L249.145 267.424ZM259.19 267.479C259.123 267.479 259.06 267.506 259.012 267.553C258.965 267.6 258.939 267.664 258.939 267.73C258.939 267.797 258.965 267.861 259.012 267.908C259.06 267.955 259.123 267.981 259.19 267.981H261.626H261.822H264.213C264.279 267.981 264.343 267.955 264.39 267.908C264.437 267.861 264.464 267.797 264.464 267.73C264.464 267.664 264.437 267.6 264.39 267.553C264.343 267.506 264.279 267.479 264.213 267.479L259.19 267.449V267.479ZM269.235 267.534C269.169 267.534 269.105 267.561 269.058 267.608C269.011 267.655 268.984 267.719 268.984 267.785C268.984 267.818 268.989 267.851 269.001 267.881C269.014 267.912 269.032 267.939 269.054 267.963C269.077 267.986 269.105 268.005 269.135 268.017C269.165 268.03 269.198 268.037 269.23 268.037L274.253 268.067C274.319 268.066 274.382 268.039 274.429 267.992C274.476 267.945 274.503 267.882 274.504 267.816C274.504 267.749 274.478 267.685 274.431 267.638C274.383 267.591 274.32 267.564 274.253 267.564L269.23 267.534H269.235ZM279.281 267.59C279.214 267.59 279.15 267.616 279.103 267.663C279.056 267.71 279.029 267.774 279.029 267.841C279.029 267.873 279.035 267.906 279.047 267.936C279.059 267.967 279.077 267.995 279.1 268.018C279.123 268.041 279.15 268.06 279.18 268.073C279.21 268.085 279.243 268.092 279.276 268.092H281.084H281.139H284.303C284.369 268.091 284.433 268.064 284.479 268.017C284.526 267.97 284.553 267.907 284.554 267.841C284.554 267.774 284.528 267.71 284.481 267.663C284.434 267.616 284.37 267.59 284.303 267.59L279.281 267.559V267.59ZM289.326 267.65C289.293 267.649 289.261 267.655 289.23 267.667C289.2 267.679 289.172 267.697 289.149 267.72C289.125 267.743 289.107 267.77 289.094 267.801C289.081 267.831 289.075 267.863 289.075 267.896C289.074 267.929 289.08 267.962 289.092 267.993C289.104 268.023 289.122 268.051 289.145 268.075C289.168 268.099 289.195 268.118 289.225 268.131C289.255 268.144 289.288 268.152 289.321 268.152H290.3H294.354C294.42 268.152 294.484 268.126 294.531 268.079C294.578 268.032 294.605 267.968 294.605 267.901C294.605 267.834 294.578 267.771 294.531 267.723C294.484 267.676 294.42 267.65 294.354 267.65L289.331 267.625L289.326 267.65ZM299.371 267.705C299.338 267.704 299.306 267.71 299.275 267.722C299.245 267.734 299.217 267.752 299.194 267.775C299.171 267.798 299.152 267.826 299.139 267.856C299.127 267.886 299.12 267.919 299.12 267.951C299.119 267.984 299.125 268.017 299.137 268.048C299.149 268.079 299.167 268.107 299.19 268.13C299.213 268.154 299.24 268.173 299.27 268.186C299.301 268.2 299.333 268.207 299.366 268.207L304.354 268.233H304.394C304.459 268.231 304.522 268.205 304.568 268.159C304.615 268.114 304.642 268.052 304.645 267.986C304.644 267.92 304.617 267.856 304.57 267.808C304.524 267.761 304.46 267.733 304.394 267.73L299.371 267.705ZM309.416 267.76C309.35 267.76 309.286 267.787 309.239 267.834C309.192 267.881 309.165 267.945 309.165 268.012C309.165 268.078 309.192 268.142 309.239 268.189C309.286 268.236 309.35 268.263 309.416 268.263H312.043H312.104H314.444C314.509 268.261 314.572 268.235 314.619 268.19C314.665 268.144 314.693 268.082 314.695 268.017C314.694 267.95 314.667 267.886 314.621 267.839C314.574 267.791 314.511 267.763 314.444 267.76H309.421H309.416ZM319.462 267.816C319.395 267.816 319.331 267.842 319.284 267.889C319.237 267.936 319.211 268 319.211 268.067C319.211 268.133 319.237 268.197 319.284 268.244C319.331 268.292 319.395 268.318 319.462 268.318L324.484 268.348C324.55 268.347 324.613 268.32 324.659 268.273C324.705 268.226 324.73 268.163 324.73 268.097C324.731 268.064 324.725 268.032 324.713 268.001C324.701 267.971 324.683 267.943 324.66 267.92C324.637 267.896 324.61 267.878 324.58 267.865C324.55 267.852 324.517 267.846 324.484 267.846L319.462 267.816ZM332.355 266.203C332.322 266.202 332.29 266.208 332.259 266.22C332.229 266.232 332.201 266.25 332.178 266.273C332.154 266.296 332.136 266.324 332.123 266.354C332.11 266.384 332.104 266.416 332.104 266.449V267.886H329.522C329.456 267.887 329.393 267.914 329.346 267.961C329.299 268.008 329.272 268.071 329.271 268.137C329.271 268.204 329.297 268.268 329.345 268.315C329.392 268.362 329.455 268.388 329.522 268.388H332.42H332.606V267.886V266.449C332.606 266.383 332.58 266.319 332.532 266.272C332.485 266.224 332.421 266.198 332.355 266.198V266.203ZM332.395 256.156C332.362 256.155 332.33 256.161 332.299 256.173C332.269 256.185 332.241 256.203 332.218 256.226C332.194 256.249 332.176 256.276 332.163 256.307C332.15 256.337 332.144 256.369 332.144 256.402L332.114 261.426C332.114 261.493 332.14 261.557 332.187 261.605C332.234 261.653 332.298 261.68 332.365 261.682C332.432 261.682 332.495 261.655 332.542 261.608C332.59 261.561 332.616 261.497 332.616 261.431L332.646 256.407C332.646 256.34 332.62 256.276 332.573 256.229C332.526 256.182 332.462 256.156 332.395 256.156ZM332.45 246.108C332.418 246.108 332.385 246.114 332.355 246.126C332.324 246.138 332.296 246.156 332.273 246.179C332.25 246.202 332.231 246.229 332.218 246.259C332.206 246.289 332.199 246.322 332.199 246.355L332.169 251.378C332.169 251.445 332.195 251.51 332.242 251.558C332.289 251.606 332.353 251.633 332.42 251.634C332.487 251.634 332.551 251.608 332.598 251.561C332.645 251.514 332.671 251.45 332.671 251.383L332.701 246.36C332.701 246.293 332.675 246.229 332.628 246.182C332.581 246.135 332.517 246.108 332.45 246.108ZM332.506 236.061C332.473 236.061 332.44 236.066 332.41 236.078C332.379 236.091 332.352 236.109 332.328 236.131C332.305 236.154 332.286 236.182 332.274 236.212C332.261 236.242 332.254 236.275 332.254 236.307L332.224 241.331C332.225 241.398 332.252 241.461 332.299 241.509C332.346 241.557 332.409 241.585 332.475 241.587C332.542 241.587 332.606 241.561 332.653 241.514C332.7 241.467 332.727 241.403 332.727 241.336L332.757 236.312C332.757 236.246 332.73 236.182 332.683 236.135C332.636 236.088 332.572 236.061 332.506 236.061ZM332.561 226.014C332.495 226.014 332.432 226.04 332.385 226.086C332.338 226.132 332.311 226.194 332.31 226.26V231.284C332.309 231.317 332.315 231.349 332.327 231.38C332.339 231.411 332.357 231.439 332.38 231.463C332.403 231.487 332.43 231.506 332.46 231.519C332.49 231.532 332.523 231.539 332.556 231.54C332.622 231.539 332.685 231.512 332.732 231.465C332.779 231.418 332.806 231.355 332.807 231.289V226.265C332.807 226.198 332.78 226.135 332.733 226.087C332.686 226.04 332.622 226.014 332.556 226.014H332.561ZM332.616 215.967C332.55 215.967 332.487 215.992 332.44 216.038C332.393 216.084 332.366 216.147 332.365 216.213V221.236C332.364 221.269 332.37 221.302 332.382 221.333C332.394 221.364 332.412 221.392 332.435 221.416C332.458 221.439 332.485 221.458 332.515 221.472C332.545 221.485 332.578 221.492 332.611 221.493C332.677 221.491 332.74 221.464 332.787 221.418C332.834 221.371 332.861 221.308 332.862 221.241V216.218C332.863 216.185 332.857 216.153 332.845 216.122C332.833 216.092 332.815 216.064 332.792 216.04C332.769 216.017 332.742 215.999 332.711 215.986C332.681 215.973 332.649 215.967 332.616 215.967ZM332.671 205.919C332.606 205.921 332.544 205.947 332.497 205.993C332.45 206.038 332.423 206.1 332.42 206.166V211.189C332.419 211.223 332.425 211.256 332.438 211.287C332.45 211.318 332.469 211.346 332.492 211.37C332.515 211.394 332.543 211.413 332.574 211.426C332.605 211.439 332.638 211.445 332.671 211.445C332.738 211.445 332.802 211.419 332.849 211.372C332.896 211.325 332.922 211.261 332.922 211.194V208.18V208.15V207.979V207.894V207.843V207.818V207.793V206.171C332.923 206.138 332.917 206.105 332.905 206.075C332.893 206.044 332.875 206.017 332.852 205.993C332.829 205.97 332.802 205.951 332.772 205.939C332.741 205.926 332.709 205.919 332.676 205.919H332.671ZM332.732 195.872C332.699 195.871 332.666 195.877 332.636 195.889C332.605 195.901 332.578 195.919 332.554 195.942C332.531 195.965 332.512 195.993 332.5 196.023C332.487 196.053 332.48 196.085 332.48 196.118L332.45 201.142C332.45 201.175 332.456 201.208 332.468 201.24C332.48 201.271 332.499 201.299 332.522 201.323C332.545 201.347 332.573 201.366 332.604 201.378C332.635 201.391 332.668 201.398 332.701 201.398C332.768 201.398 332.832 201.372 332.879 201.324C332.926 201.277 332.953 201.214 332.953 201.147L332.983 196.123C332.983 196.057 332.956 195.993 332.909 195.946C332.862 195.899 332.798 195.872 332.732 195.872ZM325.293 193.732C325.227 193.733 325.164 193.76 325.117 193.807C325.07 193.854 325.043 193.917 325.042 193.983C325.042 194.05 325.068 194.114 325.115 194.161C325.163 194.208 325.226 194.234 325.293 194.234L330.316 194.265C330.382 194.265 330.446 194.238 330.493 194.191C330.54 194.144 330.567 194.08 330.567 194.013C330.567 193.947 330.54 193.883 330.493 193.836C330.446 193.789 330.382 193.762 330.316 193.762H327.026H326.986H325.293V193.732ZM315.248 193.677C315.181 193.677 315.117 193.703 315.07 193.75C315.023 193.797 314.997 193.861 314.997 193.928C314.997 193.995 315.023 194.058 315.07 194.106C315.117 194.153 315.181 194.179 315.248 194.179L320.27 194.209C320.337 194.209 320.401 194.183 320.448 194.136C320.495 194.089 320.522 194.025 320.522 193.958C320.522 193.891 320.495 193.828 320.448 193.78C320.401 193.733 320.337 193.707 320.27 193.707L315.248 193.677ZM305.202 193.621C305.136 193.621 305.072 193.648 305.025 193.695C304.978 193.742 304.951 193.806 304.951 193.873C304.951 193.939 304.978 194.003 305.025 194.05C305.072 194.097 305.136 194.124 305.202 194.124L310.225 194.154C310.292 194.154 310.356 194.128 310.403 194.08C310.45 194.033 310.476 193.969 310.476 193.903C310.477 193.87 310.471 193.837 310.459 193.807C310.447 193.777 310.429 193.749 310.406 193.725C310.383 193.702 310.356 193.683 310.325 193.671C310.295 193.658 310.263 193.652 310.23 193.652L305.207 193.621H305.202ZM295.157 193.566C295.091 193.566 295.027 193.593 294.98 193.64C294.933 193.687 294.906 193.751 294.906 193.817C294.906 193.884 294.933 193.948 294.98 193.995C295.027 194.042 295.091 194.069 295.157 194.069L300.18 194.094C300.213 194.094 300.245 194.088 300.276 194.076C300.306 194.064 300.334 194.046 300.357 194.023C300.38 194 300.399 193.973 300.412 193.943C300.424 193.913 300.431 193.88 300.431 193.848C300.431 193.78 300.405 193.716 300.358 193.668C300.311 193.62 300.247 193.593 300.18 193.591L295.157 193.566ZM285.112 193.511C285.045 193.511 284.981 193.537 284.934 193.585C284.887 193.632 284.861 193.696 284.861 193.762C284.861 193.829 284.887 193.893 284.934 193.94C284.981 193.987 285.045 194.013 285.112 194.013L290.135 194.038C290.167 194.039 290.2 194.033 290.23 194.021C290.261 194.009 290.288 193.991 290.312 193.968C290.335 193.945 290.354 193.918 290.366 193.888C290.379 193.857 290.386 193.825 290.386 193.792C290.386 193.726 290.36 193.662 290.314 193.615C290.268 193.567 290.206 193.539 290.14 193.536L285.534 193.511H285.112ZM275.067 193.456C275.001 193.456 274.938 193.481 274.891 193.527C274.844 193.573 274.817 193.636 274.815 193.702C274.815 193.769 274.842 193.833 274.889 193.881C274.936 193.929 275 193.957 275.067 193.958L280.089 193.983C280.156 193.983 280.22 193.957 280.267 193.91C280.314 193.863 280.34 193.799 280.34 193.732C280.34 193.665 280.314 193.601 280.267 193.554C280.22 193.507 280.156 193.481 280.089 193.481H278.015H277.99H275.062L275.067 193.456ZM265.021 193.395C264.955 193.397 264.892 193.424 264.845 193.47C264.798 193.517 264.771 193.58 264.77 193.647C264.77 193.713 264.797 193.777 264.844 193.824C264.891 193.871 264.955 193.898 265.021 193.898L270.044 193.928C270.111 193.928 270.174 193.901 270.222 193.854C270.269 193.807 270.295 193.743 270.295 193.677C270.295 193.61 270.269 193.546 270.222 193.499C270.174 193.452 270.111 193.426 270.044 193.426H267.653H267.472H265.021V193.395ZM254.976 193.34C254.91 193.341 254.847 193.368 254.8 193.415C254.753 193.462 254.726 193.525 254.725 193.591C254.725 193.658 254.751 193.722 254.798 193.769C254.846 193.816 254.909 193.843 254.976 193.843L259.999 193.873C260.065 193.873 260.129 193.846 260.176 193.799C260.223 193.752 260.25 193.688 260.25 193.621C260.25 193.555 260.223 193.491 260.176 193.444C260.129 193.397 260.065 193.37 259.999 193.37H257.02H256.94H254.971L254.976 193.34ZM244.931 193.285C244.864 193.285 244.8 193.311 244.753 193.358C244.706 193.406 244.68 193.469 244.68 193.536C244.68 193.603 244.706 193.667 244.753 193.714C244.8 193.761 244.864 193.787 244.931 193.787L249.953 193.817C250.02 193.817 250.084 193.791 250.131 193.744C250.178 193.697 250.205 193.633 250.205 193.566C250.205 193.5 250.178 193.436 250.131 193.389C250.084 193.341 250.02 193.315 249.953 193.315H249.732L244.931 193.285ZM234.886 193.23C234.819 193.231 234.756 193.258 234.709 193.305C234.663 193.351 234.636 193.415 234.634 193.481C234.634 193.547 234.661 193.611 234.708 193.658C234.755 193.706 234.819 193.732 234.886 193.732L239.908 193.762C239.975 193.762 240.039 193.736 240.086 193.689C240.133 193.641 240.159 193.578 240.159 193.511C240.16 193.478 240.154 193.446 240.142 193.415C240.13 193.385 240.112 193.357 240.089 193.334C240.066 193.31 240.039 193.292 240.009 193.279C239.978 193.266 239.946 193.26 239.913 193.26L234.891 193.23H234.886Z" fill="#08243B"/>
<path d="M245.142 201.885L244.822 259.31L321.21 259.736L321.531 202.312L245.142 201.885Z" fill="#08243B"/>
<path d="M249.633 205.297L249.351 255.944L316.718 256.321L317.001 205.673L249.633 205.297Z" fill="white"/>
<path d="M267.196 226.175H263.213V225.14H272.38V226.175H268.397V236.478H267.196V226.175Z" fill="#08243B"/>
<path d="M282.511 235.438V236.478H274.475V225.14H282.265V226.175H275.695V230.193H281.557V231.198H275.695V235.408L282.511 235.438Z" fill="#08243B"/>
<path d="M292.504 236.478L288.843 231.489L285.201 236.478H283.825L288.135 230.645L284.117 225.119H285.493L288.908 229.751L292.308 225.119H293.604L289.586 230.59L293.911 236.457L292.504 236.478Z" fill="#08243B"/>
<path d="M297.949 226.175H293.966V225.14H303.127V226.175H299.144V236.478H297.949V226.175Z" fill="#08243B"/>
<path d="M248.195 68.9492H338.497" stroke="#08243B" stroke-width="2" stroke-miterlimit="10" stroke-linecap="round"/>
<path d="M248.195 75.6309H338.497" stroke="#08243B" stroke-width="2" stroke-miterlimit="10" stroke-linecap="round"/>
<path d="M248.195 82.3076H338.497" stroke="#08243B" stroke-width="2" stroke-miterlimit="10" stroke-linecap="round"/>
<path d="M248.195 88.9883H338.497" stroke="#08243B" stroke-width="2" stroke-miterlimit="10" stroke-linecap="round"/>
<path d="M248.195 95.6709H338.497" stroke="#08243B" stroke-width="2" stroke-miterlimit="10" stroke-linecap="round"/>
<path d="M133.03 274.115H47.2635C46.4468 274.115 45.6594 273.81 45.0569 273.258C44.4544 272.707 44.0804 271.949 44.0088 271.136L39.2825 217.94C39.2259 217.313 39.3007 216.681 39.5024 216.085C39.7041 215.489 40.028 214.941 40.4536 214.477C40.8791 214.013 41.3969 213.643 41.9736 213.391C42.5504 213.139 43.1734 213.01 43.8029 213.012L127.987 212.856C128.804 212.854 129.592 213.158 130.196 213.707C130.8 214.257 131.177 215.012 131.252 215.825L136.305 270.543C136.348 270.998 136.295 271.456 136.149 271.889C136.004 272.322 135.769 272.72 135.461 273.056C135.152 273.393 134.776 273.661 134.358 273.843C133.939 274.026 133.487 274.118 133.03 274.115Z" fill="#08243B"/>
<path d="M129.249 215.825C129.173 215.012 128.797 214.257 128.192 213.707C127.588 213.158 126.801 212.854 125.984 212.856L41.7995 213.002C41.17 213 40.5469 213.129 39.9702 213.381C39.3934 213.633 38.8757 214.003 38.4502 214.467C38.0246 214.931 37.7007 215.479 37.499 216.075C37.2973 216.671 37.2224 217.303 37.2791 217.93L37.4398 219.774L42.0054 271.126C42.0782 271.94 42.4532 272.697 43.0566 273.249C43.6599 273.8 44.4478 274.105 45.2651 274.105H131.047C131.502 274.105 131.952 274.009 132.368 273.826C132.784 273.642 133.157 273.374 133.464 273.038C133.77 272.701 134.004 272.305 134.149 271.874C134.294 271.443 134.348 270.986 134.306 270.533L129.249 215.825Z" fill="url(#paint18_linear)"/>
<g style="mix-blend-mode:overlay" opacity="0.3">
<path d="M45.245 217.975C45.1416 216.959 45.355 215.936 45.8558 215.045C46.3566 214.155 47.1205 213.441 48.0426 213.002H41.7995C41.17 212.999 40.5469 213.128 39.9702 213.381C39.3934 213.633 38.8757 214.003 38.4502 214.467C38.0246 214.931 37.7007 215.478 37.499 216.075C37.2973 216.671 37.2224 217.303 37.2791 217.93L37.4398 219.774L42.0054 271.125C42.0782 271.94 42.4532 272.697 43.0566 273.248C43.6599 273.8 44.4478 274.105 45.2651 274.105H49.8257L45.4107 219.975L45.245 217.975Z" fill="white"/>
</g>
<path d="M83.6231 227.46C83.6236 226.802 83.8062 226.157 84.1505 225.596C83.976 225.568 83.7998 225.553 83.6231 225.551C81.4081 225.551 79.605 227.636 79.605 230.208C79.605 232.78 81.3981 234.86 83.6231 234.86C85.597 234.86 87.2344 233.202 87.5659 231.022C87.4453 231.022 87.3198 231.022 87.1992 231.022C86.2538 231.02 85.3472 230.645 84.6773 229.978C84.0074 229.311 83.6284 228.405 83.6231 227.46Z" fill="url(#paint19_linear)"/>
<path d="M80.3542 230.208C80.3542 227.802 81.9263 225.822 83.9403 225.576C83.8349 225.576 83.7344 225.576 83.6289 225.576C81.414 225.576 79.6108 227.661 79.6108 230.233C79.6108 232.805 81.4039 234.885 83.6289 234.885C83.7544 234.893 83.8802 234.893 84.0056 234.885C81.9564 234.629 80.3542 232.639 80.3542 230.208Z" fill="#08243B"/>
<g style="mix-blend-mode:multiply" opacity="0.5">
<path d="M92.8655 240.12L96.2759 274.115H76.2808L92.8655 240.12Z" fill="#08243B"/>
</g>
<path d="M109.032 286.287H83.7284L92.8646 240.13H78.3843L62.3521 288.407H110.384V287.649C110.386 287.47 110.352 287.293 110.285 287.128C110.218 286.962 110.119 286.812 109.993 286.685C109.867 286.558 109.718 286.458 109.553 286.39C109.388 286.321 109.211 286.286 109.032 286.287Z" fill="#08243B"/>
<path d="M90.9066 240.12H76.4263L60.394 288.402H79.8919H81.3485L90.9066 240.12Z" fill="url(#paint20_linear)"/>
<g style="mix-blend-mode:overlay" opacity="0.3">
<path d="M77.471 240.12H76.4263L60.394 288.402H79.8919H70.8713L77.471 240.12Z" fill="white"/>
</g>
<path d="M547.891 394.481L549.021 376.979L532.517 378.028L534.4 392.848C534.4 392.848 535.294 401.891 541.432 402.333C547.569 402.775 547.891 394.481 547.891 394.481Z" fill="url(#paint21_linear)"/>
<path d="M534.401 392.849C534.401 392.849 531 405.744 513.557 408.226C513.132 408.284 512.737 408.474 512.426 408.769C512.116 409.064 511.905 409.448 511.824 409.869L510.819 415.184H549.047L547.917 394.456C547.917 394.456 546.822 394.205 544.732 395.154C542.844 396.009 540.046 398.093 538.203 397.666C534.265 396.837 534.401 392.849 534.401 392.849Z" fill="url(#paint22_linear)"/>
<path d="M511.234 412.853L548.904 412.873L549.02 415.209L510.792 415.189L511.234 412.853Z" fill="#08243B"/>
<path d="M522.652 405.041L524.5 407.965" stroke="#C2D5FF" stroke-width="4" stroke-miterlimit="10" stroke-linecap="round"/>
<path d="M525.043 403.584L526.892 406.503" stroke="#C2D5FF" stroke-width="4" stroke-miterlimit="10" stroke-linecap="round"/>
<path d="M527.348 401.986L529.202 404.91" stroke="#C2D5FF" stroke-width="4" stroke-miterlimit="10" stroke-linecap="round"/>
<path d="M529.572 400.304L531.426 403.227" stroke="#C2D5FF" stroke-width="4" stroke-miterlimit="10" stroke-linecap="round"/>
<g style="mix-blend-mode:multiply" opacity="0.5">
<path d="M547.927 395.114L547.891 394.481L547.922 394.064V393.637L547.952 393.21V392.783L547.982 392.351V391.924L548.012 391.497V391.065L548.042 390.638L548.067 390.211L548.097 389.784V389.352L548.127 388.925L548.153 388.498L548.183 388.071V387.639L548.213 387.212V386.785L548.243 386.353V385.926L548.273 385.499V385.072L548.303 384.64V384.213L548.333 383.786V383.359L548.364 382.927L548.389 382.5L548.745 376.974L532.241 378.024L533.376 387.066L533.426 387.473L533.476 387.88L533.527 388.282L533.582 388.689L533.632 389.091L533.682 389.498L533.733 389.899L533.783 390.306L533.833 390.708L533.883 391.115L533.933 391.517L533.984 391.924L534.034 392.326L534.084 392.733V392.843C533.452 394.813 532.487 396.66 531.231 398.304C530.895 398.766 530.518 399.238 530.101 399.716C529.947 399.51 529.72 399.372 529.467 399.329C529.213 399.286 528.953 399.342 528.74 399.484C528.527 399.627 528.376 399.846 528.319 400.097C528.262 400.347 528.303 400.61 528.434 400.831L528.675 401.208C528.489 401.389 528.298 401.564 528.102 401.74L527.906 401.439C527.764 401.214 527.538 401.054 527.278 400.996C527.018 400.937 526.745 400.985 526.52 401.127C526.295 401.27 526.136 401.496 526.077 401.756C526.019 402.016 526.066 402.289 526.209 402.514L526.535 403.016L525.887 403.483L525.601 403.026C525.458 402.801 525.232 402.642 524.972 402.583C524.712 402.525 524.44 402.572 524.215 402.715C523.989 402.857 523.83 403.084 523.772 403.344C523.713 403.604 523.761 403.876 523.903 404.101L524.195 404.558C523.969 404.689 523.743 404.82 523.506 404.945L523.215 404.478C523.073 404.253 522.846 404.094 522.586 404.035C522.326 403.977 522.054 404.024 521.829 404.167C521.604 404.309 521.444 404.535 521.386 404.795C521.328 405.055 521.375 405.328 521.517 405.553L521.698 405.839L521.558 405.9C521.256 406.035 520.94 406.166 520.623 406.292C520.307 406.417 520.026 406.518 519.719 406.628L518.825 406.935L517.951 407.201C517.675 407.281 517.384 407.357 517.098 407.432L516.249 407.648C515.982 407.708 515.701 407.764 515.425 407.819C515.149 407.874 514.883 407.934 514.601 407.985L513.793 408.115C513.612 408.145 513.431 408.18 513.245 408.206C513.155 408.22 513.066 408.241 512.979 408.266C512.512 408.395 512.107 408.685 511.834 409.085C511.726 409.24 511.64 409.409 511.578 409.587C511.551 409.668 511.529 409.75 511.512 409.833L511.085 412.094L510.628 414.53L510.508 415.148H520.473L547.927 395.114Z" fill="#08243B"/>
</g>
<path d="M503.662 211.856C503.662 211.856 475.389 301.277 475.535 311.556C475.68 321.834 500.04 371.081 500.04 371.081L524.912 358.371L503.968 312.108L520.653 281.575L543.571 211.856H503.662Z" fill="url(#paint23_linear)"/>
<g style="mix-blend-mode:multiply" opacity="0.5">
<path d="M511.929 297.514L518.695 231.514L527.258 261.429L520.638 281.574L511.929 297.514Z" fill="#08243B"/>
</g>
<path d="M543.555 211.856C543.555 211.856 560.557 234.789 556.885 262.309C553.214 289.828 551.36 318.398 550.446 338.844C549.532 359.29 549.944 390.216 549.944 390.216C549.944 390.216 533.806 394.29 523.203 390.879L520.366 269.945C520.366 269.945 515.343 262.439 515.343 260.214C515.343 257.989 513.51 211.856 513.51 211.856H543.555Z" fill="url(#paint24_linear)"/>
<path d="M549.894 384.977L525.615 386.152" stroke="#08243B" stroke-width="1.5" stroke-miterlimit="10" stroke-linecap="round"/>
<path d="M520.547 277.711L520.366 269.945C520.366 269.945 515.344 262.44 515.344 260.214C515.344 258.707 514.535 237.884 513.993 224.044" stroke="#08243B" stroke-width="1.5" stroke-miterlimit="10"/>
<g style="mix-blend-mode:multiply" opacity="0.5">
<path d="M499.768 241.556C501.128 241.737 502.506 241.406 503.635 240.627C504.764 239.848 505.563 238.677 505.876 237.341L509.537 221.587H549.251C547.62 218.195 545.715 214.94 543.556 211.856H503.661C503.661 211.856 499.643 224.521 494.67 240.868L499.768 241.556Z" fill="#08243B"/>
</g>
<path d="M532.497 375.331L524.897 358.371L509.538 366.223L523.406 386.092C523.406 386.092 526.861 389.432 531.623 386.554C536.384 383.675 532.497 375.331 532.497 375.331Z" fill="url(#paint25_linear)"/>
<path d="M521.146 382.852C521.146 382.852 526.907 394.878 515.219 408.07C514.933 408.389 514.754 408.789 514.708 409.215C514.662 409.64 514.751 410.069 514.963 410.441L517.64 415.144L546.771 390.397L532.487 375.326C532.487 375.326 531.482 375.829 530.508 377.923C529.624 379.797 528.845 383.198 527.168 384.082C523.642 385.956 521.146 382.852 521.146 382.852Z" fill="url(#paint26_linear)"/>
<path d="M516.464 413.073L545.174 388.693L546.781 390.396L517.64 415.143L516.464 413.073Z" fill="#08243B"/>
<path d="M520.1 399.73L523.405 400.76" stroke="#C2D5FF" stroke-width="4" stroke-miterlimit="10" stroke-linecap="round"/>
<path d="M520.979 397.073L524.284 398.098" stroke="#C2D5FF" stroke-width="4" stroke-miterlimit="10" stroke-linecap="round"/>
<path d="M521.707 394.36L525.007 395.385" stroke="#C2D5FF" stroke-width="4" stroke-miterlimit="10" stroke-linecap="round"/>
<path d="M522.31 391.638L525.614 392.668" stroke="#C2D5FF" stroke-width="4" stroke-miterlimit="10" stroke-linecap="round"/>
<path d="M535.465 226.731C535.465 226.731 537.63 244.093 551.537 249.072" stroke="#08243B" stroke-width="1.5" stroke-miterlimit="10"/>
<path d="M522.632 353.362L499.628 365.314" stroke="#08243B" stroke-width="1.5" stroke-miterlimit="10" stroke-linecap="round"/>
<path d="M551.909 145.51C551.909 145.51 559.574 147.278 561.342 151.408C563.11 155.537 572.156 195.575 568.715 206.321C565.275 217.067 547.982 202.222 547.982 202.222L543.557 211.857H503.662L490.307 175.184C490.307 175.184 496.484 150.066 499.925 147.906C503.365 145.746 509.066 144.224 509.066 144.224C509.066 144.224 532.602 140.692 551.909 145.51Z" fill="url(#paint27_radial)"/>
<g style="mix-blend-mode:multiply" opacity="0.5">
<path d="M493.802 162.449C491.838 168.98 490.286 175.194 490.286 175.194L503.641 211.867H510.864L515.49 173.034C515.7 171.272 515.229 169.496 514.174 168.07C513.12 166.643 511.56 165.673 509.814 165.358L493.802 162.449Z" fill="#08243B"/>
</g>
<path d="M570.593 164.976L569.307 163.203V163.162C569.215 163.042 569.096 162.944 568.96 162.876C568.825 162.809 568.675 162.772 568.524 162.771H528.875C528.67 162.771 528.47 162.835 528.302 162.952C528.134 163.07 528.006 163.236 527.936 163.429L508.624 216.096C508.572 216.236 508.553 216.385 508.567 216.533C508.582 216.681 508.631 216.824 508.709 216.95V216.981L508.759 217.051L510.025 218.799L511.532 217.443H549.126C549.33 217.441 549.529 217.377 549.696 217.26C549.863 217.142 549.99 216.976 550.06 216.785L568.343 166.935L570.593 164.976Z" fill="#08243B"/>
<path d="M529.222 165.178L509.909 217.851C509.855 218.002 509.837 218.164 509.858 218.324C509.879 218.483 509.938 218.635 510.03 218.767C510.122 218.899 510.245 219.007 510.387 219.082C510.53 219.157 510.688 219.196 510.849 219.197H550.472C550.677 219.196 550.877 219.133 551.045 219.015C551.213 218.898 551.341 218.731 551.412 218.539L570.724 165.871C570.778 165.72 570.796 165.558 570.775 165.398C570.754 165.239 570.695 165.086 570.603 164.954C570.511 164.823 570.388 164.715 570.246 164.64C570.104 164.565 569.945 164.526 569.784 164.525H530.186C529.977 164.52 529.772 164.58 529.599 164.697C529.427 164.814 529.294 164.982 529.222 165.178Z" fill="#C2D5FF"/>
<g style="mix-blend-mode:multiply" opacity="0.5">
<path d="M517.488 197.183C517.488 197.183 522.134 200.554 523.952 200.599C525.77 200.644 533.776 199.715 534.464 200.011C535.152 200.308 552.4 215.77 552.4 215.77L554.048 211.274C554.048 211.274 540.115 197.258 534.173 195.389C528.231 193.521 517.794 196.349 517.794 196.349L517.488 197.183Z" fill="#08243B"/>
</g>
<path d="M563.31 197.047C563.31 197.047 569.598 200.649 569.207 206.592C568.815 212.535 562.978 214.388 558.066 213.213C553.154 212.037 537.499 198.534 534.284 198.795C531.07 199.056 523.772 200.202 522.657 200.106C521.542 200.011 514.621 193.651 514.666 192.701C514.711 191.752 515.67 190.506 515.67 190.506C515.71 189.647 515.994 188.818 516.489 188.115C516.506 187.103 516.876 186.13 517.534 185.362C517.534 185.362 518.538 182.85 519.543 182.674C520.547 182.498 522.702 183.031 522.702 183.031C522.702 183.031 522.295 182.217 522.591 181.76C522.888 181.303 530.06 181.986 531.336 182.413C532.612 182.84 534.776 186.703 536.675 187.527C538.573 188.351 563.31 197.047 563.31 197.047Z" fill="url(#paint28_linear)"/>
<path d="M522.672 183.051L527.021 184.408C525.718 183.444 524.168 182.87 522.551 182.755L522.672 183.051Z" fill="#754C24"/>
<path d="M568.686 167.6C568.977 166.973 568.805 166.276 568.301 166.042C567.798 165.809 567.154 166.127 566.864 166.754C566.573 167.381 566.745 168.078 567.249 168.312C567.752 168.545 568.396 168.226 568.686 167.6Z" fill="#08243B"/>
<path d="M511.798 97.2573C511.798 97.2573 513.124 100.774 510.251 103.286C507.378 105.798 508.096 111.931 516.811 110.228C525.525 108.525 517.514 92.5452 511.798 97.2573Z" fill="url(#paint29_linear)"/>
<path d="M539.62 121.833C539.62 121.833 539.383 138.728 541.885 140.792C544.386 142.857 551.93 145.509 551.93 145.509C551.93 145.509 543.392 157.893 528.936 157.893C514.481 157.893 509.087 144.233 509.087 144.233L517.932 141.159C518.774 140.867 519.502 140.316 520.013 139.585C520.523 138.855 520.79 137.981 520.775 137.09L520.634 129.439L539.62 121.833Z" fill="url(#paint30_radial)"/>
<path d="M520.733 136.075C520.733 136.075 530.19 134.895 533.139 124.476L520.612 129.439L520.733 136.075Z" fill="#754C24"/>
<path d="M514.566 93.7755C514.566 93.7755 506.027 127.851 516.007 132.111C525.987 136.371 538.674 125.294 541.361 118.808C544.049 112.323 545.294 83.2259 514.566 93.7755Z" fill="url(#paint31_radial)"/>
<path d="M533.138 115.136C533.138 115.136 528.864 115.925 529.653 107.521C529.653 107.521 518.744 107.179 518.99 101.492C519.236 95.8054 518.487 94.2381 516.383 94.5646C514.774 95.7321 513.683 97.4796 513.339 99.4375C513.339 99.4375 507.312 92.8415 512.701 89.1089C512.701 89.1089 513.46 78.9159 522.285 77.1175C528.025 75.9419 531.667 82.3722 534.957 81.8849C538.246 81.3976 541.687 78.5392 545.374 79.4736C549.06 80.408 548.96 84.241 548.96 84.241C548.96 84.241 555.248 83.5528 557.905 88.5161C560.562 93.4795 556.82 98.061 556.82 98.061C556.82 98.061 559.477 99.1914 559.573 101.156C559.668 103.12 556.725 102.828 557.117 108.43C557.508 114.031 555.153 127.058 548.322 122.632C548.322 122.632 547.93 125.646 545.032 125.877C542.134 126.108 540.738 122.702 540.738 122.702C540.738 122.702 536.217 124.058 536.132 118.507C536.047 112.956 533.138 115.136 533.138 115.136Z" fill="url(#paint32_linear)"/>
<path d="M539.582 116.673C541.53 113.743 541.564 110.341 539.659 109.073C537.753 107.806 534.629 109.153 532.681 112.082C530.733 115.011 530.699 118.413 532.604 119.681C534.51 120.949 537.634 119.602 539.582 116.673Z" fill="url(#paint33_radial)"/>
<path d="M536.334 112.876L534.023 116.418C534.023 116.418 536.61 116.699 536.334 112.876Z" fill="#754C24"/>
<path d="M515.876 107.375C515.876 107.375 514.962 106.752 514.043 108.751C513.124 110.751 510.025 116.714 510.241 117.498C510.457 118.281 514.47 119.824 515.288 118.839C516.107 117.854 516.73 108.51 515.876 107.375Z" fill="#D19161"/>
<path d="M512.877 122.461C512.877 122.461 515.388 124.395 517.694 122.346" stroke="black" stroke-miterlimit="10" stroke-linecap="round"/>
<path d="M522.271 105.676L522.266 105.675C521.765 105.59 521.291 105.927 521.206 106.428L521.066 107.255C520.981 107.756 521.318 108.23 521.819 108.315L521.824 108.316C522.324 108.401 522.799 108.063 522.883 107.563L523.023 106.736C523.108 106.235 522.771 105.761 522.271 105.676Z" fill="black"/>
<path d="M514.285 105.053C514.351 104.661 514.088 104.291 513.697 104.224C513.306 104.158 512.935 104.422 512.869 104.813L512.662 106.036C512.596 106.427 512.859 106.798 513.25 106.864C513.641 106.931 514.012 106.667 514.078 106.276L514.285 105.053Z" fill="black"/>
<path d="M512.692 102.984C512.926 102.828 513.197 102.737 513.478 102.721C513.759 102.706 514.039 102.765 514.289 102.894C515.254 103.321 515.369 103.567 515.796 103.552C516.223 103.537 516.389 102.844 516.298 102.728C516.208 102.612 514.731 101.437 513.285 101.904C512.17 102.246 512.692 102.984 512.692 102.984Z" fill="black"/>
<path d="M490.306 175.194C490.306 175.194 480.316 214.379 497.524 231.57L503.661 211.857L490.306 175.194Z" fill="#08243B"/>
<path d="M414.463 71.0289C414.463 71.0289 410.445 89.948 414.072 104.868C414.629 107.164 420.837 106.215 420.837 106.215L421.676 113.092L446.171 113.594L443.489 99.8345C443.489 99.8345 437.673 66.3871 414.463 71.0289Z" fill="url(#paint34_linear)"/>
<path d="M416.784 86.0596C416.784 86.0596 418.21 84.3415 420.264 85.1403C422.319 85.9391 422.238 90.9275 421.018 92.9018C421.018 92.9018 425.97 99.7792 428.949 101.417C431.927 103.055 443.74 101.141 443.74 101.141C443.74 101.141 452.434 77.1276 452.49 75.7813C452.545 74.4349 449.305 71.26 449.305 71.26C449.305 71.26 449.973 66.8995 449.195 65.8344C448.416 64.7694 438.12 60.0773 430.571 59.1229C423.022 58.1684 412.761 59.3489 412.55 59.6855C412.339 60.0221 413.122 67.3466 414.182 69.6424C413.828 70.4578 413.745 71.3656 413.947 72.2314C414.149 73.0973 414.624 73.8752 415.302 74.45C415.302 74.45 416.477 79.5188 416.643 80.4231C416.643 80.413 415.332 85.9039 416.784 86.0596Z" fill="url(#paint35_linear)"/>
<path d="M414.357 105.395C417.873 107.008 420.575 103.974 420.575 103.974L420.851 106.214C420.851 106.214 415.668 107.003 414.357 105.395Z" fill="#B77E49"/>
<path d="M421.017 92.9023C420.79 93.3351 420.417 93.6736 419.965 93.8575C419.513 94.0415 419.01 94.059 418.545 93.9071C418.545 93.9071 419.851 94.9671 421.629 93.7262L421.017 92.9023Z" fill="#B77E49"/>
<g style="mix-blend-mode:multiply" opacity="0.5">
<path d="M444.995 76.2033C444.422 74.3345 435.708 74.6209 433.202 74.7414C438.004 74.3697 449.33 71.25 449.33 71.25C449.33 71.25 452.574 74.44 452.514 75.7713C452.454 77.1025 443.764 101.131 443.764 101.131C443.764 101.131 431.951 103.04 428.973 101.407C425.994 99.7742 421.042 92.8919 421.042 92.8919C436.075 98.6891 445.638 78.3685 444.995 76.2033Z" fill="#08243B"/>
</g>
<path d="M419.38 87.6924C419.38 87.6924 419.445 90.4805 418.079 90.5458L419.38 87.6924Z" fill="#B77E49"/>
<path d="M449.974 117.553L448.076 111.062C448.076 111.062 442.927 107.596 431.41 108.324C419.893 109.053 418.547 112.027 418.547 112.027L419.05 118.291L449.974 117.553Z" fill="url(#paint36_linear)"/>
<path d="M472.908 128.846C472.908 128.846 476.765 131.769 482.134 164.514L461.16 162.363C461.16 162.363 460.994 125.018 472.908 128.846Z" fill="url(#paint37_linear)"/>
<g style="mix-blend-mode:multiply" opacity="0.5">
<path d="M472.596 157.32L471.647 138.29L469.417 164.745L472.596 157.32Z" fill="#08243B"/>
</g>
<path d="M412.9 226.664L495.28 239.773C498.68 240.314 501.875 237.996 502.415 234.596L512.685 170.035C513.226 166.635 510.908 163.44 507.509 162.899L425.129 149.79C421.729 149.249 418.535 151.567 417.994 154.967L407.724 219.528C407.183 222.928 409.501 226.123 412.9 226.664Z" fill="#5786ED"/>
<path d="M496.957 230.232L504.924 180.149C505.229 178.231 503.922 176.428 502.004 176.123L434.098 165.317C432.18 165.012 430.379 166.32 430.073 168.238L422.107 218.321C421.802 220.239 423.109 222.042 425.026 222.347L492.932 233.153C494.85 233.458 496.652 232.15 496.957 230.232Z" fill="white"/>
<path d="M449.647 178.063C448.801 177.928 448.005 178.505 447.871 179.352C447.736 180.198 448.313 180.994 449.16 181.129L493.604 188.201C494.45 188.336 495.245 187.759 495.38 186.912C495.515 186.065 494.938 185.27 494.091 185.135L449.647 178.063Z" fill="#08243B"/>
<path d="M448.335 184.093C447.488 183.958 446.693 184.535 446.558 185.382C446.424 186.229 447.001 187.024 447.847 187.159L492.291 194.231C493.138 194.366 493.933 193.789 494.068 192.942C494.202 192.096 493.625 191.3 492.779 191.165L448.335 184.093Z" fill="#08243B"/>
<path d="M447.031 190.118C446.185 189.984 445.389 190.561 445.255 191.407C445.12 192.254 445.697 193.05 446.543 193.184L490.987 200.257C491.834 200.391 492.629 199.814 492.764 198.968C492.899 198.121 492.322 197.325 491.475 197.191L447.031 190.118Z" fill="#08243B"/>
<path d="M445.721 196.148C444.875 196.013 444.079 196.59 443.945 197.437C443.81 198.283 444.387 199.079 445.233 199.214L489.677 206.286C490.524 206.421 491.319 205.844 491.454 204.997C491.589 204.15 491.012 203.355 490.165 203.22L445.721 196.148Z" fill="#08243B"/>
<g style="mix-blend-mode:multiply" opacity="0.5">
<path d="M472.621 157.319L467.955 214.93C467.955 214.93 472.476 226.987 472.978 236.2L442.485 231.348L470.225 156.942L472.621 157.319Z" fill="#08243B"/>
</g>
<g style="mix-blend-mode:multiply" opacity="0.5">
<path d="M449.974 117.552L449.205 114.919C449.205 114.919 430.004 110.901 419.069 118.28L449.974 117.552Z" fill="#08243B"/>
</g>
<path d="M397.744 119.411C397.744 119.411 418.899 113.202 436.759 114.388C454.62 115.573 471.918 126.877 472.922 128.856C473.927 130.835 463.379 212.505 463.379 212.505C463.379 212.505 433.851 218.031 405.494 213.454L397.744 119.411Z" fill="url(#paint38_linear)"/>
<g style="mix-blend-mode:multiply" opacity="0.5">
<path d="M400.364 151.382L401.464 164.745L405.281 147.479L400.364 151.382Z" fill="#08243B"/>
</g>
<path d="M376.809 132.372L366.423 138.541L340.601 122.074C340.601 122.074 335.282 112.594 334.102 111.705L332.927 110.821C332.927 110.821 326.111 105.707 325.353 105.978C324.594 106.249 324.398 108.379 325.624 109.876C326.849 111.373 329.054 113.935 329.054 113.935C329.054 113.935 322.259 108.299 321.37 107.405C320.481 106.51 312.253 99.2413 311.611 99.3668C310.968 99.4924 309.602 100.557 310.491 101.944C311.38 103.33 317.562 109.801 317.562 109.801C317.562 109.801 316.598 122.26 318.647 124.601C320.697 126.942 328.281 130.408 328.281 130.408C328.281 130.408 357.849 163.378 363.56 165.674C369.27 167.97 390.682 154.406 390.682 154.406L376.809 132.372Z" fill="url(#paint39_linear)"/>
<path d="M397.743 119.411C397.743 119.411 384.353 126.796 370.711 135.773L383.77 159.706C383.77 159.706 407.326 149.618 410.842 142.907C414.358 136.195 407.829 117.904 397.743 119.411Z" fill="url(#paint40_linear)"/>
<path d="M442.408 388.292C442.408 388.292 440.108 403.323 422.057 406.437C421.582 406.55 421.154 406.809 420.833 407.178C420.512 407.546 420.315 408.006 420.269 408.492L419.234 415.143H458.787L457.607 389.216L442.408 388.292Z" fill="url(#paint41_linear)"/>
<g style="mix-blend-mode:multiply" opacity="0.5">
<path d="M440.118 394.386C440.756 392.653 442.408 388.292 442.408 388.292L457.607 389.216L457.944 397.48C449.269 398.465 442.097 396.295 440.118 394.386Z" fill="#08243B"/>
</g>
<path d="M419.686 412.22H458.662L458.787 415.143H419.234L419.686 412.22Z" fill="#08243B"/>
<g style="mix-blend-mode:multiply" opacity="0.5">
<path d="M430.157 403.851C430.157 403.851 432.809 410.517 432.809 415.144H421.539L428.786 404.489L430.157 403.851Z" fill="#08243B"/>
</g>
<path d="M425.734 390.216C425.734 390.216 411.193 394.476 410.751 397.425C410.309 400.374 397.09 406.417 395.126 408.09C394.121 408.919 393.689 410.667 393.483 412.219H429.561C429.204 402.479 425.734 390.216 425.734 390.216Z" fill="url(#paint42_linear)"/>
<path d="M393.308 415.143H429.567C429.607 414.204 429.602 413.224 429.567 412.22H393.484C393.353 413.189 393.294 414.166 393.308 415.143Z" fill="#08243B"/>
<g style="mix-blend-mode:multiply" opacity="0.5">
<path d="M410.753 397.425C410.576 398.025 410.227 398.56 409.748 398.962C415.618 401.193 421.974 401.834 428.171 400.821C427.071 394.923 425.74 390.216 425.74 390.216C425.74 390.216 411.195 394.476 410.753 397.425Z" fill="#08243B"/>
</g>
<path d="M405.458 213.444C405.458 213.444 383.861 286.161 384.293 302.94C384.725 319.719 405.458 397.385 405.458 397.385C405.458 397.385 421.174 398.952 429.899 390.673C429.899 390.673 420.28 326.466 415.333 313.485L427.216 283.333L437.729 394.004C437.729 394.004 451.822 396.691 460.547 393.783C460.547 393.783 463.455 335.83 462.556 324.195C461.657 312.561 464.565 260.897 464.565 260.897C464.565 260.897 476.865 245.575 463.334 212.515C463.344 212.5 424.64 216.579 405.458 213.444Z" fill="url(#paint43_linear)"/>
<g style="mix-blend-mode:multiply" opacity="0.5">
<path d="M427.216 283.333L433.364 264.881C433.364 264.881 440.898 260.968 442.495 256.607L437.056 269.97L429.893 311.536L427.216 283.333Z" fill="#08243B"/>
</g>
<path d="M406.412 218.141C406.412 218.141 400.48 230.112 406.412 239.843C406.412 239.843 390.636 289.019 391.254 304.984C391.871 320.949 409.651 394.229 409.651 394.229" stroke="#08243B" stroke-width="1.5" stroke-miterlimit="10"/>
<path d="M170.044 100.251C170.044 100.251 173.344 108.319 173.118 109.414C172.892 110.509 169.356 110.675 169.356 110.675C169.356 110.675 167.995 100.251 170.044 100.251Z" fill="#FF5833"/>
<path d="M166.543 85.5126C166.543 85.5126 171.852 86.3013 170.31 93.7363C168.768 101.171 157.407 124.044 167.723 129.203C167.723 129.203 158.979 134.066 149.642 123.552C140.305 113.037 149.838 83.056 166.543 85.5126Z" fill="url(#paint44_linear)"/>
<g style="mix-blend-mode:multiply" opacity="0.5">
<path d="M166.543 85.5126C166.543 85.5126 171.852 86.3013 170.31 93.7363C168.768 101.171 157.407 124.044 167.723 129.203C167.723 129.203 158.979 134.066 149.642 123.552C140.305 113.037 149.838 83.056 166.543 85.5126Z" fill="#08243B"/>
</g>
<path d="M167.527 88.1998C167.527 88.1998 169.948 91.6711 170.606 104.908C171.264 118.146 168.642 123.059 162.544 122.335C159.52 127.097 157.907 132.619 157.893 138.26C157.893 138.26 147.808 135.311 143.026 127.776C143.026 127.776 134.769 79.4185 167.527 88.1998Z" fill="url(#paint45_linear)"/>
<path d="M154.555 128.168C149.577 122.205 151.39 110.902 151.39 110.902C148.573 110.344 145.057 111.675 142.119 113.81C142.022 118.483 142.326 123.155 143.028 127.776C143.138 127.957 143.259 128.133 143.379 128.303C149.743 129.966 154.555 128.168 154.555 128.168Z" fill="#B77E49"/>
<path d="M154.458 103.206C154.458 103.206 164.422 99.3476 168.285 89.873C172.147 80.3984 158.707 77.2587 152.885 78.5347C147.064 79.8107 138.144 83.7442 135.1 92.6863C132.057 101.628 123.799 118.834 123.799 118.834C123.799 118.834 138.365 131.313 153.493 126.5C153.488 126.5 147.968 109.299 154.458 103.206Z" fill="url(#paint46_linear)"/>
<path d="M155.401 110.8C157.556 109.387 157.655 105.726 155.621 102.624C153.588 99.5221 150.192 98.1529 148.037 99.5661C145.882 100.979 145.784 104.64 147.817 107.742C149.851 110.844 153.246 112.213 155.401 110.8Z" fill="url(#paint47_linear)"/>
<path d="M151.9 103.794L155.276 107.105C155.276 107.105 150.72 106.843 151.9 103.794Z" fill="#B77E49"/>
<path d="M225.309 376.643L231.597 395.386C231.597 395.386 223.003 408.729 212.863 394.205L201.2 374.548L225.309 376.643Z" fill="url(#paint48_linear)"/>
<path d="M225.309 376.643L205.726 382.174L201.2 374.548L225.309 376.643Z" fill="#B77E49"/>
<path d="M256.284 408.738C256.099 408.148 255.761 407.618 255.304 407.202C254.847 406.786 254.287 406.5 253.682 406.372C239.277 403.408 230.784 392.954 230.784 392.954C226.364 400.414 220.658 398.48 218.101 395.968C216.585 394.485 214.57 393.621 212.451 393.547L212.335 411.486H257.152L256.284 408.738Z" fill="url(#paint49_linear)"/>
<path d="M258.326 415.174L257.156 411.486H212.354L212.329 415.174H258.326Z" fill="#08243B"/>
<path d="M236.338 398.174L234.495 400.982" stroke="#08243B" stroke-width="4" stroke-miterlimit="10" stroke-linecap="round"/>
<path d="M239.151 399.882L237.313 402.69" stroke="#08243B" stroke-width="4" stroke-miterlimit="10" stroke-linecap="round"/>
<path d="M241.963 401.595L240.125 404.403" stroke="#08243B" stroke-width="4" stroke-miterlimit="10" stroke-linecap="round"/>
<path d="M173.274 392.955L175.283 375.372H155.931L156.574 393.703C156.574 393.703 156.719 401.6 164.971 401.6C173.224 401.6 173.274 392.955 173.274 392.955Z" fill="url(#paint50_linear)"/>
<path d="M174.258 384.43L156.292 385.585L155.931 375.367H175.288L174.258 384.43Z" fill="#B77E49"/>
<path d="M196.463 408.738C196.305 408.162 195.995 407.638 195.566 407.222C195.136 406.806 194.603 406.512 194.022 406.372C180.501 403.398 173.274 392.954 173.274 392.954C169.994 399.053 163.002 398.48 160.601 395.968C158.201 393.456 156.553 393.693 156.553 393.693L155.202 411.481H197.282L196.463 408.738Z" fill="url(#paint51_linear)"/>
<path d="M198.382 415.174L197.287 411.486H155.222L155.202 415.174H198.382Z" fill="#08243B"/>
<path d="M177.745 398.174L176.012 400.982" stroke="#08243B" stroke-width="4" stroke-miterlimit="10" stroke-linecap="round"/>
<path d="M180.381 399.882L178.653 402.69" stroke="#08243B" stroke-width="4" stroke-miterlimit="10" stroke-linecap="round"/>
<path d="M183.022 401.595L181.294 404.403" stroke="#08243B" stroke-width="4" stroke-miterlimit="10" stroke-linecap="round"/>
<path d="M137.282 239.392C137.282 239.392 144.313 276.009 144.73 297.234C145.147 318.459 141.978 379.622 141.978 379.622L176.373 381.335L181.873 300.58C181.873 300.58 165.604 219.694 137.282 239.392Z" fill="url(#paint52_linear)"/>
<g style="mix-blend-mode:multiply" opacity="0.5">
<path d="M137.282 239.392C137.282 239.392 144.313 276.009 144.73 297.234C145.147 318.459 141.978 379.622 141.978 379.622L176.373 381.335L181.873 300.58C181.873 300.58 165.604 219.694 137.282 239.392Z" fill="#08243B"/>
</g>
<path d="M138.571 189.392C138.571 189.392 122.499 232.344 142.368 243.943L190.455 381.315L225.307 376.633L170.344 189.392H138.571Z" fill="url(#paint53_linear)"/>
<g style="mix-blend-mode:multiply" opacity="0.5">
<path d="M153.73 189.392C153.73 189.392 166.442 206.577 175.388 206.577L170.365 189.392H153.73Z" fill="#08243B"/>
</g>
<path d="M171.72 202.479C171.72 202.479 173.88 218.594 163.332 217.419" stroke="#08243B" stroke-width="1.5" stroke-miterlimit="10" stroke-linecap="round"/>
<path d="M165.401 217.414L210.369 373.187" stroke="#08243B" stroke-width="1.5" stroke-miterlimit="10" stroke-linecap="round"/>
<path d="M210.902 104.064L177.191 189.531C176.515 191.245 177.356 193.182 179.069 193.858L194.357 199.89C196.07 200.566 198.007 199.725 198.683 198.011L232.394 112.545C233.07 110.831 232.229 108.894 230.516 108.218L215.228 102.185C213.515 101.509 211.578 102.35 210.902 104.064Z" fill="url(#paint54_linear)"/>
<path d="M224.736 112.269L194.138 189.834" stroke="#08243B" stroke-width="2" stroke-miterlimit="10" stroke-linecap="round"/>
<path d="M220.747 110.771L190.149 188.342" stroke="#08243B" stroke-width="2" stroke-miterlimit="10" stroke-linecap="round"/>
<path d="M216.759 109.274L186.161 186.844" stroke="#08243B" stroke-width="2" stroke-miterlimit="10" stroke-linecap="round"/>
<g style="mix-blend-mode:multiply" opacity="0.5">
<path d="M213.911 159.446L187.673 197.264L183.444 195.4L224.524 132.544L213.911 159.446Z" fill="#08243B"/>
</g>
<g style="mix-blend-mode:multiply" opacity="0.5">
<path d="M204.64 132.333C204.64 132.333 204.605 134.428 201.793 137.834C199.798 140.144 197.569 142.242 195.143 144.093L195.785 142.431L204.64 132.333Z" fill="#08243B"/>
</g>
<path d="M171.018 154.904L190.521 141.044C190.521 141.044 194.389 132.594 195.338 131.499C196.287 130.404 202.134 126.319 202.134 126.319L199.622 132.699C199.622 132.699 203.434 129.921 203.987 130.057C204.539 130.193 205.233 132.282 203.761 134.513C202.289 136.743 195.79 142.415 195.79 142.415L190.3 156.331L170.712 174.808L171.018 154.904Z" fill="url(#paint55_linear)"/>
<path d="M174.223 152.628C174.223 152.628 176.699 154.637 176.634 160.038C176.569 165.438 176.247 169.583 176.247 169.583L170.722 174.807L171.039 154.889L174.223 152.628Z" fill="#B77E49"/>
<path d="M143.027 127.776C143.027 127.776 172.66 145.359 175.337 157.361C176.713 163.555 170.229 189.401 170.229 189.401H138.587C138.587 189.401 129.676 155.1 132.494 145.47C135.312 135.839 143.027 127.776 143.027 127.776Z" fill="url(#paint56_radial)"/>
<g style="mix-blend-mode:multiply" opacity="0.5">
<path d="M138.341 156.773C139.312 165.152 141.669 173.311 145.318 180.916H148.593L153.731 189.391H170.346C170.346 189.391 153.901 151.955 138.341 156.773Z" fill="#08243B"/>
</g>
<path d="M224.503 132.544C224.503 132.544 212.514 139.577 210.841 140.999C209.169 142.42 203.604 152.151 203.604 152.151L174.648 178.887C173.614 177.104 170.871 171.854 167.878 166.027C167.878 166.027 161.82 172.904 150.168 177.375C158.089 187.483 167.335 196.796 169.108 197.625C172.187 199.067 178.018 199.856 183.453 195.4C188.887 190.944 209.887 162.52 211.856 159.817C213.825 157.115 219.812 155.592 221.289 152.784C222.765 149.976 222.519 140.351 222.715 139.617C222.911 138.884 223.89 138.045 224.533 137.01C225.176 135.975 224.503 132.544 224.503 132.544Z" fill="url(#paint57_linear)"/>
<path d="M167.898 166.026C163.086 156.687 157.632 145.931 157.632 145.931C151.77 137.642 136.376 144.49 138.34 156.777C139.174 161.997 144.302 169.904 150.158 177.374C161.821 172.903 167.898 166.026 167.898 166.026Z" fill="url(#paint58_radial)"/>
<path d="M167.898 166.027C161.213 149.976 156.346 135.885 142.097 143.897C130.379 150.483 146.954 178.495 146.954 178.495C148.069 178.144 149.134 177.767 150.158 177.375C161.821 172.904 167.898 166.027 167.898 166.027Z" fill="url(#paint59_radial)"/>
<path d="M169.058 168.292L167.898 166.041C167.898 166.041 161.82 172.903 150.168 177.374C151.022 178.459 151.891 179.54 152.765 180.6C160.876 177.781 167.365 170.351 169.058 168.292Z" fill="#B77E49"/>
<path d="M109.086 295.069L85.5253 409.287C85.3838 409.93 85.3869 410.596 85.5344 411.237C85.6819 411.879 85.9701 412.48 86.3783 412.996C86.7864 413.512 87.3041 413.932 87.8941 414.223C88.4841 414.515 89.1315 414.672 89.7895 414.682C90.6999 414.676 91.5855 414.384 92.3222 413.849C93.059 413.314 93.6099 412.562 93.898 411.698L133.994 295.069" stroke="#08243B" stroke-width="2" stroke-miterlimit="10" stroke-linecap="round"/>
<path d="M279.062 295.069L302.623 409.287C302.765 409.93 302.762 410.596 302.614 411.237C302.467 411.879 302.178 412.48 301.77 412.996C301.362 413.512 300.844 413.932 300.254 414.223C299.664 414.515 299.017 414.672 298.359 414.682V414.682C297.449 414.676 296.563 414.384 295.826 413.849C295.09 413.314 294.539 412.562 294.251 411.698L254.135 295.069" stroke="#08243B" stroke-width="2" stroke-miterlimit="10" stroke-linecap="round"/>
<path d="M43.7166 295.069L20.1554 409.287C20.0149 409.93 20.0186 410.596 20.1665 411.237C20.3144 411.878 20.6028 412.478 21.0107 412.994C21.4186 413.51 21.936 413.929 22.5255 414.221C23.115 414.513 23.7619 414.671 24.4197 414.682V414.682C25.331 414.677 26.2176 414.386 26.9554 413.851C27.6931 413.316 28.2448 412.563 28.5332 411.698L68.6289 295.069" stroke="#08243B" stroke-width="2" stroke-miterlimit="10" stroke-linecap="round"/>
<path d="M213.698 295.069L237.259 409.287C237.4 409.93 237.396 410.596 237.248 411.237C237.1 411.878 236.812 412.478 236.404 412.994C235.996 413.51 235.479 413.929 234.889 414.221C234.3 414.513 233.653 414.671 232.995 414.682V414.682C232.084 414.675 231.198 414.384 230.461 413.849C229.723 413.314 229.171 412.562 228.882 411.698L188.791 295.069" stroke="#08243B" stroke-width="2" stroke-miterlimit="10" stroke-linecap="round"/>
<path d="M30.437 296.742H227.646V287.177H30.437V296.742Z" fill="#C2D5FF"/>
<path d="M298.224 287.182H227.646V296.747H298.224V287.182Z" fill="#08243B"/>
<path d="M581 415.209H2" stroke="#08243B" stroke-width="4" stroke-miterlimit="10" stroke-linecap="round"/>
<defs>
<radialGradient id="paint0_radial" cx="0" cy="0" r="1" gradientUnits="userSpaceOnUse" gradientTransform="translate(4.57105 284.66) scale(163.055 163.088)">
<stop offset="0.17" stop-color="#FF8D33"/>
<stop offset="1" stop-color="#FF5833"/>
</radialGradient>
<linearGradient id="paint1_linear" x1="116.454" y1="324.2" x2="67.8971" y2="392.995" gradientUnits="userSpaceOnUse">
<stop offset="0.11" stop-color="#154A6D"/>
<stop offset="1" stop-color="#08243B"/>
</linearGradient>
<linearGradient id="paint2_linear" x1="142.83" y1="356.251" x2="10.1877" y2="382.746" gradientUnits="userSpaceOnUse">
<stop offset="0.1" stop-color="#FF8D33"/>
<stop offset="1" stop-color="#FF5833"/>
</linearGradient>
<linearGradient id="paint3_linear" x1="1541.38" y1="3131.27" x2="365.572" y2="3766.94" gradientUnits="userSpaceOnUse">
<stop offset="0.1" stop-color="#FF8D33"/>
<stop offset="1" stop-color="#FF5833"/>
</linearGradient>
<linearGradient id="paint4_linear" x1="1583.19" y1="3238.56" x2="372.879" y2="3886.92" gradientUnits="userSpaceOnUse">
<stop offset="0.1" stop-color="#FF8D33"/>
<stop offset="1" stop-color="#FF5833"/>
</linearGradient>
<linearGradient id="paint5_linear" x1="1663.02" y1="3412.37" x2="389.001" y2="4091.01" gradientUnits="userSpaceOnUse">
<stop offset="0.1" stop-color="#FF8D33"/>
<stop offset="1" stop-color="#FF5833"/>
</linearGradient>
<linearGradient id="paint6_linear" x1="1034.9" y1="2005.29" x2="315.936" y2="2428.78" gradientUnits="userSpaceOnUse">
<stop offset="0.1" stop-color="#FF8D33"/>
<stop offset="1" stop-color="#FF5833"/>
</linearGradient>
<linearGradient id="paint7_linear" x1="1494.66" y1="2943.63" x2="367.847" y2="3575.58" gradientUnits="userSpaceOnUse">
<stop offset="0.1" stop-color="#FF8D33"/>
<stop offset="1" stop-color="#FF5833"/>
</linearGradient>
<linearGradient id="paint8_linear" x1="1508.26" y1="3018.27" x2="364.656" y2="3647.75" gradientUnits="userSpaceOnUse">
<stop offset="0.1" stop-color="#FF8D33"/>
<stop offset="1" stop-color="#FF5833"/>
</linearGradient>
<linearGradient id="paint9_linear" x1="1499.61" y1="2731.4" x2="439.554" y2="3381.85" gradientUnits="userSpaceOnUse">
<stop offset="0.1" stop-color="#FF8D33"/>
<stop offset="1" stop-color="#FF5833"/>
</linearGradient>
<linearGradient id="paint10_linear" x1="1477.09" y1="2879.9" x2="366.929" y2="3510.23" gradientUnits="userSpaceOnUse">
<stop offset="0.1" stop-color="#FF8D33"/>
<stop offset="1" stop-color="#FF5833"/>
</linearGradient>
<linearGradient id="paint11_linear" x1="1453.11" y1="2766.76" x2="373.8" y2="3397.09" gradientUnits="userSpaceOnUse">
<stop offset="0.1" stop-color="#FF8D33"/>
<stop offset="1" stop-color="#FF5833"/>
</linearGradient>
<linearGradient id="paint12_linear" x1="9923.59" y1="11271.6" x2="4596.1" y2="16287.6" gradientUnits="userSpaceOnUse">
<stop offset="0.1" stop-color="#FF8D33"/>
<stop offset="1" stop-color="#FF5833"/>
</linearGradient>
<linearGradient id="paint13_linear" x1="157.304" y1="351.966" x2="28.1018" y2="414.852" gradientUnits="userSpaceOnUse">
<stop offset="0.1" stop-color="#5786ED"/>
<stop offset="1" stop-color="#2950AF"/>
</linearGradient>
<linearGradient id="paint14_linear" x1="23849" y1="14275.9" x2="18279.3" y2="24753.1" gradientUnits="userSpaceOnUse">
<stop offset="0.1" stop-color="#5786ED"/>
<stop offset="1" stop-color="#2950AF"/>
</linearGradient>
<linearGradient id="paint15_linear" x1="7763.04" y1="36407.6" x2="-207.408" y2="38294.2" gradientUnits="userSpaceOnUse">
<stop offset="0.1" stop-color="#5786ED"/>
<stop offset="1" stop-color="#2950AF"/>
</linearGradient>
<linearGradient id="paint16_linear" x1="472.808" y1="-59.656" x2="217.629" y2="416.744" gradientUnits="userSpaceOnUse">
<stop offset="0.25" stop-color="#5786ED"/>
<stop offset="1" stop-color="#2950AF"/>
</linearGradient>
<linearGradient id="paint17_linear" x1="231.447" y1="261.907" x2="336.424" y2="381.605" gradientUnits="userSpaceOnUse">
<stop stop-color="#FF8D33"/>
<stop offset="1" stop-color="#FF5833"/>
</linearGradient>
<linearGradient id="paint18_linear" x1="48.5047" y1="202.231" x2="126.614" y2="288.974" gradientUnits="userSpaceOnUse">
<stop offset="0.12" stop-color="#517FE5"/>
<stop offset="0.22" stop-color="#4C79DA"/>
<stop offset="0.4" stop-color="#406ABD"/>
<stop offset="0.64" stop-color="#2C508E"/>
<stop offset="0.92" stop-color="#102E4D"/>
<stop offset="1" stop-color="#08243B"/>
</linearGradient>
<linearGradient id="paint19_linear" x1="67.0534" y1="215.574" x2="103.223" y2="248.396" gradientUnits="userSpaceOnUse">
<stop offset="0.34" stop-color="#517FE5"/>
<stop offset="0.42" stop-color="#4C79DA"/>
<stop offset="0.55" stop-color="#406ABD"/>
<stop offset="0.73" stop-color="#2C508E"/>
<stop offset="0.94" stop-color="#102E4D"/>
<stop offset="1" stop-color="#08243B"/>
</linearGradient>
<linearGradient id="paint20_linear" x1="1983.9" y1="21047.8" x2="9083.08" y2="26031.1" gradientUnits="userSpaceOnUse">
<stop offset="0.12" stop-color="#517FE5"/>
<stop offset="0.22" stop-color="#4C79DA"/>
<stop offset="0.4" stop-color="#406ABD"/>
<stop offset="0.64" stop-color="#2C508E"/>
<stop offset="0.92" stop-color="#102E4D"/>
<stop offset="1" stop-color="#08243B"/>
</linearGradient>
<linearGradient id="paint21_linear" x1="549.106" y1="409.662" x2="541.374" y2="384.304" gradientUnits="userSpaceOnUse">
<stop stop-color="#B77E49"/>
<stop offset="1" stop-color="#754C24"/>
</linearGradient>
<linearGradient id="paint22_linear" x1="14320" y1="41208.5" x2="17384.9" y2="41990.2" gradientUnits="userSpaceOnUse">
<stop offset="0.1" stop-color="#5786ED"/>
<stop offset="1" stop-color="#2950AF"/>
</linearGradient>
<linearGradient id="paint23_linear" x1="58071.8" y1="129195" x2="99962.7" y2="104444" gradientUnits="userSpaceOnUse">
<stop offset="0.1" stop-color="#FF8D33"/>
<stop offset="1" stop-color="#FF5833"/>
</linearGradient>
<linearGradient id="paint24_linear" x1="39334.1" y1="151276" x2="72087.8" y2="140255" gradientUnits="userSpaceOnUse">
<stop offset="0.1" stop-color="#FF8D33"/>
<stop offset="1" stop-color="#FF5833"/>
</linearGradient>
<linearGradient id="paint25_linear" x1="27360.3" y1="23988.7" x2="25094.3" y2="21843.9" gradientUnits="userSpaceOnUse">
<stop stop-color="#B77E49"/>
<stop offset="1" stop-color="#754C24"/>
</linearGradient>
<linearGradient id="paint26_linear" x1="29048" y1="35543.4" x2="31998.4" y2="34998.4" gradientUnits="userSpaceOnUse">
<stop offset="0.1" stop-color="#5786ED"/>
<stop offset="1" stop-color="#2950AF"/>
</linearGradient>
<radialGradient id="paint27_radial" cx="0" cy="0" r="1" gradientUnits="userSpaceOnUse" gradientTransform="translate(76993.6 17601.7) scale(17401 15137.4)">
<stop offset="0.1" stop-color="#5786ED"/>
<stop offset="1" stop-color="#2950AF"/>
</radialGradient>
<linearGradient id="paint28_linear" x1="53881.2" y1="11316.9" x2="60571.1" y2="16603.8" gradientUnits="userSpaceOnUse">
<stop stop-color="#B77E49"/>
<stop offset="1" stop-color="#754C24"/>
</linearGradient>
<linearGradient id="paint29_linear" x1="497.152" y1="91.0883" x2="553.891" y2="134.06" gradientUnits="userSpaceOnUse">
<stop offset="0.11" stop-color="#4D4D4D"/>
<stop offset="1"/>
</linearGradient>
<radialGradient id="paint30_radial" cx="0" cy="0" r="1" gradientUnits="userSpaceOnUse" gradientTransform="translate(43512 7737.28) scale(5333.54 4489.07)">
<stop stop-color="#B77E49"/>
<stop offset="1" stop-color="#754C24"/>
</radialGradient>
<radialGradient id="paint31_radial" cx="0" cy="0" r="1" gradientUnits="userSpaceOnUse" gradientTransform="translate(32093.7 8869.93) scale(3917.1 5174.62)">
<stop stop-color="#B77E49"/>
<stop offset="1" stop-color="#754C24"/>
</radialGradient>
<linearGradient id="paint32_linear" x1="50179.9" y1="7430.3" x2="55711.3" y2="11637.6" gradientUnits="userSpaceOnUse">
<stop offset="0.11" stop-color="#4D4D4D"/>
<stop offset="1"/>
</linearGradient>
<radialGradient id="paint33_radial" cx="0" cy="0" r="1" gradientUnits="userSpaceOnUse" gradientTransform="translate(13314.7 1860.8) scale(1585.68 1031.9)">
<stop stop-color="#B77E49"/>
<stop offset="1" stop-color="#754C24"/>
</radialGradient>
<linearGradient id="paint34_linear" x1="399.054" y1="66.9096" x2="451.747" y2="119.421" gradientUnits="userSpaceOnUse">
<stop offset="0.36" stop-color="#FDC080"/>
<stop offset="0.5" stop-color="#F3B778"/>
<stop offset="0.75" stop-color="#D99E64"/>
<stop offset="1" stop-color="#B77E49"/>
</linearGradient>
<linearGradient id="paint35_linear" x1="-33087.9" y1="3838.14" x2="-28147.9" y2="7842.76" gradientUnits="userSpaceOnUse">
<stop offset="0.11" stop-color="#154A6D"/>
<stop offset="1" stop-color="#08243B"/>
</linearGradient>
<linearGradient id="paint36_linear" x1="-27955" y1="1236.69" x2="-26211.1" y2="5635.93" gradientUnits="userSpaceOnUse">
<stop offset="0.1" stop-color="#FF8D33"/>
<stop offset="1" stop-color="#FF5833"/>
</linearGradient>
<linearGradient id="paint37_linear" x1="-18647.1" y1="4324.94" x2="-11635.6" y2="7631.39" gradientUnits="userSpaceOnUse">
<stop offset="0.1" stop-color="#FF8D33"/>
<stop offset="1" stop-color="#FF5833"/>
</linearGradient>
<linearGradient id="paint38_linear" x1="-71258.9" y1="17740.1" x2="-48688.1" y2="31324.9" gradientUnits="userSpaceOnUse">
<stop offset="0.1" stop-color="#FF8D33"/>
<stop offset="1" stop-color="#FF5833"/>
</linearGradient>
<linearGradient id="paint39_linear" x1="-74553.3" y1="29753" x2="-60294.9" y2="40860.5" gradientUnits="userSpaceOnUse">
<stop offset="0.36" stop-color="#FDC080"/>
<stop offset="0.5" stop-color="#F3B778"/>
<stop offset="0.75" stop-color="#D99E64"/>
<stop offset="1" stop-color="#B77E49"/>
</linearGradient>
<linearGradient id="paint40_linear" x1="-38936.5" y1="7455.21" x2="-28919.7" y2="15692.6" gradientUnits="userSpaceOnUse">
<stop offset="0.1" stop-color="#FF8D33"/>
<stop offset="1" stop-color="#FF5833"/>
</linearGradient>
<linearGradient id="paint41_linear" x1="-31698.9" y1="21326.4" x2="-28430.4" y2="22921.8" gradientUnits="userSpaceOnUse">
<stop offset="0.1" stop-color="#FF8D33"/>
<stop offset="1" stop-color="#FF5833"/>
</linearGradient>
<linearGradient id="paint42_linear" x1="28068.3" y1="17402.7" x2="30667.1" y2="19740.8" gradientUnits="userSpaceOnUse">
<stop offset="0.1" stop-color="#FF8D33"/>
<stop offset="1" stop-color="#FF5833"/>
</linearGradient>
<linearGradient id="paint43_linear" x1="-99060" y1="144588" x2="-49516.8" y2="134658" gradientUnits="userSpaceOnUse">
<stop offset="0.1" stop-color="#5786ED"/>
<stop offset="1" stop-color="#2950AF"/>
</linearGradient>
<linearGradient id="paint44_linear" x1="7251.23" y1="9736.5" x2="8457.63" y2="9736.5" gradientUnits="userSpaceOnUse">
<stop offset="0.11" stop-color="#154A6D"/>
<stop offset="1" stop-color="#08243B"/>
</linearGradient>
<linearGradient id="paint45_linear" x1="187.637" y1="91.3647" x2="138.696" y2="124.778" gradientUnits="userSpaceOnUse">
<stop stop-color="#FDC080"/>
<stop offset="0.23" stop-color="#F3B778"/>
<stop offset="0.61" stop-color="#D99E64"/>
<stop offset="1" stop-color="#B77E49"/>
</linearGradient>
<linearGradient id="paint46_linear" x1="11167.9" y1="10188.2" x2="15230.6" y2="10188.2" gradientUnits="userSpaceOnUse">
<stop offset="0.11" stop-color="#154A6D"/>
<stop offset="1" stop-color="#08243B"/>
</linearGradient>
<linearGradient id="paint47_linear" x1="3522.27" y1="2346.4" x2="2433.95" y2="2862.54" gradientUnits="userSpaceOnUse">
<stop stop-color="#FDC080"/>
<stop offset="0.23" stop-color="#F3B778"/>
<stop offset="0.61" stop-color="#D99E64"/>
<stop offset="1" stop-color="#B77E49"/>
</linearGradient>
<linearGradient id="paint48_linear" x1="252.295" y1="410.422" x2="198.636" y2="371.313" gradientUnits="userSpaceOnUse">
<stop stop-color="#FDC080"/>
<stop offset="0.28" stop-color="#EEB274"/>
<stop offset="0.82" stop-color="#C68C55"/>
<stop offset="1" stop-color="#B77E49"/>
</linearGradient>
<linearGradient id="paint49_linear" x1="24140.2" y1="14746.3" x2="20809.8" y2="17895.6" gradientUnits="userSpaceOnUse">
<stop offset="0.1" stop-color="#FF8D33"/>
<stop offset="1" stop-color="#FF5833"/>
</linearGradient>
<linearGradient id="paint50_linear" x1="7073.58" y1="22249.9" x2="5912.7" y2="20273.9" gradientUnits="userSpaceOnUse">
<stop stop-color="#FDC080"/>
<stop offset="0.28" stop-color="#EEB274"/>
<stop offset="0.82" stop-color="#C68C55"/>
<stop offset="1" stop-color="#B77E49"/>
</linearGradient>
<linearGradient id="paint51_linear" x1="17544.6" y1="14784.3" x2="14431.5" y2="17549.8" gradientUnits="userSpaceOnUse">
<stop offset="0.1" stop-color="#FF8D33"/>
<stop offset="1" stop-color="#FF5833"/>
</linearGradient>
<linearGradient id="paint52_linear" x1="17081.9" y1="119932" x2="-10910.9" y2="97402.4" gradientUnits="userSpaceOnUse">
<stop offset="0.1" stop-color="#FF8D33"/>
<stop offset="1" stop-color="#FF5833"/>
</linearGradient>
<linearGradient id="paint53_linear" x1="43367.3" y1="163641" x2="-8237.61" y2="98265.4" gradientUnits="userSpaceOnUse">
<stop offset="0.1" stop-color="#FF8D33"/>
<stop offset="1" stop-color="#FF5833"/>
</linearGradient>
<linearGradient id="paint54_linear" x1="48772.7" y1="4131.3" x2="47648.7" y2="11126.1" gradientUnits="userSpaceOnUse">
<stop offset="0.1" stop-color="#FF8D33"/>
<stop offset="1" stop-color="#FF5833"/>
</linearGradient>
<linearGradient id="paint55_linear" x1="210.336" y1="141.531" x2="160.961" y2="160.207" gradientUnits="userSpaceOnUse">
<stop stop-color="#FDC080"/>
<stop offset="0.22" stop-color="#F8BB7C"/>
<stop offset="0.48" stop-color="#E9AE71"/>
<stop offset="0.76" stop-color="#D2975E"/>
<stop offset="1" stop-color="#B77E49"/>
</linearGradient>
<radialGradient id="paint56_radial" cx="0" cy="0" r="1" gradientUnits="userSpaceOnUse" gradientTransform="translate(15222.6 18032.9) scale(4293.62 6070.68)">
<stop offset="0.1" stop-color="#5786ED"/>
<stop offset="1" stop-color="#2950AF"/>
</radialGradient>
<linearGradient id="paint57_linear" x1="34969.8" y1="20241.1" x2="22125.5" y2="25719.2" gradientUnits="userSpaceOnUse">
<stop stop-color="#FDC080"/>
<stop offset="0.22" stop-color="#F8BB7C"/>
<stop offset="0.48" stop-color="#E9AE71"/>
<stop offset="0.76" stop-color="#D2975E"/>
<stop offset="1" stop-color="#B77E49"/>
</linearGradient>
<radialGradient id="paint58_radial" cx="0" cy="0" r="1" gradientUnits="userSpaceOnUse" gradientTransform="translate(13908.5 10547.6) scale(3397.85 4009.12)">
<stop offset="0.1" stop-color="#5786ED"/>
<stop offset="1" stop-color="#2950AF"/>
</radialGradient>
<radialGradient id="paint59_radial" cx="0" cy="0" r="1" gradientUnits="userSpaceOnUse" gradientTransform="translate(10522.1 10867) scale(2954.52 3636.41)">
<stop offset="0.1" stop-color="#5786ED"/>
<stop offset="1" stop-color="#2950AF"/>
</radialGradient>
</defs>
</svg>
