<svg width="420" height="323" viewBox="0 0 420 323" fill="none" xmlns="http://www.w3.org/2000/svg">
<path d="M103.829 277.934H303.393C309.303 277.934 314.044 273.192 314.044 267.282V67.7181C314.044 61.8081 309.303 57.0664 303.393 57.0664H103.829C97.919 57.0664 93.1772 61.8081 93.1772 67.7181V267.282C93.1772 273.123 97.919 277.934 103.829 277.934Z" fill="#9AA0A6"/>
<path d="M209.727 277.934H409.291C415.201 277.934 419.943 273.192 419.943 267.282V67.7181C419.943 61.8081 415.201 57.0664 409.291 57.0664H209.727C203.817 57.0664 199.076 61.8081 199.076 67.7181V267.282C199.076 273.123 203.817 277.934 209.727 277.934Z" fill="#08243B"/>
<path d="M199.076 232.922V264.121C199.076 271.68 205.261 277.865 212.82 277.865" stroke="#08243B" stroke-width="2.5823" stroke-miterlimit="10" stroke-linecap="round"/>
<path d="M199.076 114.173V221.858" stroke="#08243B" stroke-width="2.5823" stroke-miterlimit="10" stroke-linecap="round"/>
<path d="M216.806 252.163V82.8362C216.806 78.4381 220.379 74.7959 224.846 74.7959H394.173C398.571 74.7959 402.213 78.3694 402.213 82.8362V252.163C402.213 256.561 398.64 260.203 394.173 260.203H224.846C220.379 260.203 216.806 256.561 216.806 252.163Z" fill="white"/>
<path d="M391.768 74.8652H388.194C393.898 74.8652 398.571 79.4695 398.571 85.242V249.896C398.571 255.6 393.967 260.273 388.194 260.273H391.768C397.472 260.273 402.145 255.669 402.145 249.896V85.1733C402.145 79.4695 397.54 74.8652 391.768 74.8652Z" fill="#08243B"/>
<path d="M316.999 196.363C332.94 196.363 345.862 183.441 345.862 167.5C345.862 151.56 332.94 138.638 316.999 138.638C301.059 138.638 288.137 151.56 288.137 167.5C288.137 183.441 301.059 196.363 316.999 196.363Z" fill="url(#paint0_linear)"/>
<path d="M320.573 190.865C333.477 190.865 343.938 180.404 343.938 167.5C343.938 154.596 333.477 144.135 320.573 144.135C307.669 144.135 297.208 154.596 297.208 167.5C297.208 180.404 307.669 190.865 320.573 190.865Z" fill="white"/>
<path d="M317.961 132.041V118.709" stroke="#9AA0A6" stroke-width="2.5823" stroke-miterlimit="10" stroke-linecap="round"/>
<path d="M300.231 136.782L293.565 125.237" stroke="#9AA0A6" stroke-width="2.5823" stroke-miterlimit="10" stroke-linecap="round"/>
<path d="M287.243 149.77L275.767 143.104" stroke="#9AA0A6" stroke-width="2.5823" stroke-miterlimit="10" stroke-linecap="round"/>
<path d="M282.501 167.5H269.169" stroke="#9AA0A6" stroke-width="2.5823" stroke-miterlimit="10" stroke-linecap="round"/>
<path d="M287.243 185.23L275.767 191.896" stroke="#9AA0A6" stroke-width="2.5823" stroke-miterlimit="10" stroke-linecap="round"/>
<path d="M300.231 198.219L293.565 209.764" stroke="#9AA0A6" stroke-width="2.5823" stroke-miterlimit="10" stroke-linecap="round"/>
<path d="M317.961 203.029V216.292" stroke="#9AA0A6" stroke-width="2.5823" stroke-miterlimit="10" stroke-linecap="round"/>
<path d="M335.759 198.219L342.356 209.764" stroke="#9AA0A6" stroke-width="2.5823" stroke-miterlimit="10" stroke-linecap="round"/>
<path d="M348.748 185.23L360.224 191.896" stroke="#9AA0A6" stroke-width="2.5823" stroke-miterlimit="10" stroke-linecap="round"/>
<path d="M353.489 167.5H366.752" stroke="#9AA0A6" stroke-width="2.5823" stroke-miterlimit="10" stroke-linecap="round"/>
<path d="M348.748 149.77L360.224 143.104" stroke="#9AA0A6" stroke-width="2.5823" stroke-miterlimit="10" stroke-linecap="round"/>
<path d="M335.759 136.782L342.356 125.237" stroke="#9AA0A6" stroke-width="2.5823" stroke-miterlimit="10" stroke-linecap="round"/>
<path d="M323.872 158.497L322.498 154.718L323.254 152.725H321.811L321.742 152.931V152.999L321.604 153.343C321.536 153.618 321.398 153.893 321.261 154.236L321.055 154.718C320.917 154.992 320.848 155.336 320.711 155.68L320.505 156.367C320.367 156.71 320.23 157.054 320.161 157.329L319.749 158.497C315.626 159.459 312.602 163.101 312.602 167.5C312.602 172.585 316.725 176.708 321.811 176.708C326.896 176.708 331.019 172.585 331.019 167.5C331.019 163.101 327.927 159.459 323.872 158.497Z" fill="#08243B"/>
<path d="M325.315 158.497L323.253 152.725L321.192 158.497C317.069 159.459 314.045 163.101 314.045 167.5C314.045 172.585 318.168 176.708 323.253 176.708C328.339 176.708 332.462 172.585 332.462 167.5C332.462 163.101 329.37 159.459 325.315 158.497Z" fill="url(#paint1_linear)"/>
<path d="M351.704 30.2652H97.9193C89.6041 30.2652 82.8008 23.4619 82.8008 15.1468C82.8008 6.83163 89.6041 0.0283203 97.9193 0.0283203H351.635C359.95 0.0283203 366.753 6.83163 366.753 15.1468C366.753 23.4619 359.95 30.2652 351.704 30.2652Z" fill="white"/>
<path d="M145.336 16.5214C145.336 19.4764 142.931 21.8129 140.044 21.8129C137.089 21.8129 134.753 19.4077 134.753 16.5214C134.753 13.5664 137.158 11.23 140.044 11.23C142.931 11.1612 145.336 13.5664 145.336 16.5214Z" fill="#606060"/>
<path d="M163.547 16.5214C163.547 19.4764 161.142 21.8129 158.255 21.8129C155.3 21.8129 152.964 19.4077 152.964 16.5214C152.964 13.5664 155.369 11.23 158.255 11.23C161.142 11.1612 163.547 13.5664 163.547 16.5214Z" fill="#606060"/>
<path d="M181.758 16.5214C181.758 19.4764 179.353 21.8129 176.466 21.8129C173.511 21.8129 171.175 19.4077 171.175 16.5214C171.175 13.5664 173.58 11.23 176.466 11.23C179.353 11.1612 181.758 13.5664 181.758 16.5214Z" fill="#606060"/>
<path d="M199.968 16.5214C199.968 19.4764 197.563 21.8129 194.677 21.8129C191.722 21.8129 189.385 19.4077 189.385 16.5214C189.385 13.5664 191.79 11.23 194.677 11.23C197.632 11.1612 199.968 13.5664 199.968 16.5214Z" fill="#606060"/>
<path d="M218.18 16.5214C218.18 19.4764 215.774 21.8129 212.888 21.8129C209.933 21.8129 207.597 19.4077 207.597 16.5214C207.597 13.5664 210.002 11.23 212.888 11.23C215.843 11.1612 218.18 13.5664 218.18 16.5214Z" fill="#606060"/>
<path d="M236.459 16.5214C236.459 19.4764 234.054 21.8129 231.167 21.8129C228.212 21.8129 225.876 19.4077 225.876 16.5214C225.876 13.5664 228.281 11.23 231.167 11.23C234.054 11.1612 236.459 13.5664 236.459 16.5214Z" fill="#606060"/>
<path d="M254.669 16.5214C254.669 19.4764 252.264 21.8129 249.378 21.8129C246.423 21.8129 244.086 19.4077 244.086 16.5214C244.086 13.5664 246.492 11.23 249.378 11.23C252.264 11.1612 254.669 13.5664 254.669 16.5214Z" fill="#606060"/>
<path d="M272.881 16.5214C272.881 19.4764 270.476 21.8129 267.589 21.8129C264.634 21.8129 262.298 19.4077 262.298 16.5214C262.298 13.5664 264.703 11.23 267.589 11.23C270.476 11.1612 272.881 13.5664 272.881 16.5214Z" fill="#606060"/>
<path d="M291.092 16.5214C291.092 19.4764 288.687 21.8129 285.8 21.8129C282.845 21.8129 280.509 19.4077 280.509 16.5214C280.509 13.5664 282.914 11.23 285.8 11.23C288.687 11.1612 291.092 13.5664 291.092 16.5214Z" fill="#606060"/>
<path d="M110.496 12.3977V11.573C110.496 8.27447 107.815 5.66309 104.586 5.66309C101.287 5.66309 98.6756 8.34319 98.6756 11.573V12.3977H97.7822V23.1181C97.7822 24.9735 111.526 24.9735 111.526 23.1181V12.3977H110.496ZM100.737 11.573C100.737 9.51143 101.974 7.65598 104.586 7.65598C107.128 7.65598 108.434 9.37399 108.434 11.573V12.3977H100.737V11.573ZM105.616 17.7579V20.8503C105.616 21.4001 105.135 21.8124 104.586 21.8124C104.036 21.8124 103.623 21.4001 103.623 20.8503V17.7579C103.074 17.4143 102.661 16.8645 102.661 16.1773C102.661 15.1465 103.555 14.2531 104.586 14.2531C105.616 14.2531 106.51 15.1465 106.51 16.1773C106.441 16.9332 106.029 17.483 105.616 17.7579Z" fill="url(#paint2_linear)"/>
<path d="M90.4284 70.4668C69.5374 92.8009 36.208 111.149 0.610859 118.983C0.610859 121.389 0.542139 134.583 0.267257 195.332C-0.0763448 276.422 77.0967 316.074 89.054 322.19C100.668 316.829 178.872 277.247 179.215 196.156C179.49 135.339 179.559 122.145 179.559 119.808C143.962 111.63 111.113 93.0071 90.4284 70.4668Z" fill="url(#paint3_linear)"/>
<path d="M90.3595 85.3103C90.2908 85.2416 90.2221 85.1729 90.1534 85.1729C69.6747 103.934 41.3619 118.64 10.2316 126.68L9.95669 195.4C9.81925 226.874 22.3264 255.325 47.0657 279.926C63.3524 296.144 80.4638 306.178 89.1225 310.713C89.4661 310.507 89.8785 310.301 90.2908 310.095C99.2932 305.422 115.717 295.663 131.454 280.339C156.469 255.874 169.182 227.562 169.319 196.088L169.594 127.367C138.739 119.121 110.632 104.14 90.3595 85.3103Z" fill="url(#paint4_linear)"/>
<path d="M54.1436 184.337V237.595C54.1436 243.505 126.506 243.505 126.506 237.595V184.337H54.1436ZM94.0014 212.65V227.768C94.0014 229.761 92.3521 231.479 90.3592 231.479C88.2976 231.479 86.6483 229.83 86.6483 227.768V212.65C83.5559 211.275 81.3568 208.114 81.3568 204.541C81.3568 199.593 85.3426 195.607 90.2905 195.607C95.2383 195.607 99.2241 199.593 99.2241 204.541C99.2928 208.114 97.1625 211.207 94.0014 212.65Z" fill="#F1EFEC"/>
<path d="M120.252 180.557H112.899V176.984C112.899 164.545 102.797 154.444 90.3587 154.444C77.9203 154.444 67.8184 164.545 67.8184 176.984V180.557H60.4653V176.984C60.4653 160.491 73.8658 147.159 90.29 147.159C106.783 147.159 120.115 160.56 120.115 176.984V180.557H120.252Z" fill="#F1EFEC"/>
<g opacity="0.4">
<g opacity="0.4">
<path opacity="0.4" d="M90.3604 85.3105V310.164C99.3627 305.491 115.787 295.732 131.524 280.408C156.538 255.943 169.251 227.63 169.389 196.157L169.664 127.436C138.74 119.121 110.633 104.14 90.3604 85.3105Z" fill="white"/>
</g>
</g>
<defs>
<linearGradient id="paint0_linear" x1="363.999" y1="127.661" x2="284.143" y2="195.365" gradientUnits="userSpaceOnUse">
<stop stop-color="#9AA0A6"/>
</linearGradient>
<linearGradient id="paint1_linear" x1="328.12" y1="145.309" x2="317.183" y2="194.786" gradientUnits="userSpaceOnUse">
<stop offset="0.2368" stop-color="#143A59"/>
</linearGradient>
<linearGradient id="paint2_linear" x1="96.7514" y1="-1.02575" x2="111.631" y2="34.6491" gradientUnits="userSpaceOnUse">
<stop offset="0.1041" stop-color="#5786ED"/>
<stop offset="1" stop-color="#2950AF"/>
</linearGradient>
<linearGradient id="paint3_linear" x1="185.082" y1="354.976" x2="43.906" y2="84.7253" gradientUnits="userSpaceOnUse">
<stop offset="0.927083" stop-color="#08243B"/>
<stop offset="1" stop-color="#2950AF"/>
</linearGradient>
<linearGradient id="paint4_linear" x1="35.8404" y1="63.7396" x2="148.781" y2="295.268" gradientUnits="userSpaceOnUse">
<stop offset="0.0705705" stop-color="#D4492A"/>
</linearGradient>
</defs>
</svg>
