<svg width="252" height="258" viewBox="0 0 252 258" fill="none" xmlns="http://www.w3.org/2000/svg">
<path d="M231.942 185.731C231.942 157.255 231.883 128.78 231.988 100.31C232 98.7641 231.713 97.231 231.146 95.8002C230.579 94.3695 229.742 93.0698 228.684 91.9767C227.627 90.8837 226.369 90.0191 224.985 89.4334C223.601 88.8478 222.118 88.5527 220.623 88.5653C211.359 88.7419 202.096 88.6129 192.832 88.6129" stroke="white" stroke-width="5" stroke-linecap="round" stroke-linejoin="round"/>
<path d="M60.8608 88.6197C51.246 88.6197 41.6311 88.7624 32.023 88.5654C30.4502 88.5517 28.8908 88.855 27.4386 89.457C25.9864 90.059 24.6713 90.9472 23.5726 92.0683C22.4738 93.1895 21.614 94.5204 21.0447 95.981C20.4755 97.4415 20.2086 99.0017 20.2602 100.568C20.3215 128.953 20.2602 157.346 20.2602 185.731" stroke="white" stroke-width="5" stroke-linecap="round" stroke-linejoin="round"/>
<path d="M143.482 56.6592C143.482 50.679 143.361 44.6989 143.522 38.7254C143.636 34.2234 140.053 29.2759 135.166 28.4187C129.177 27.3995 123.06 27.3995 117.071 28.4187C112.184 29.2557 108.601 34.2234 108.722 38.7254C108.876 44.6989 108.762 50.679 108.762 56.6592" stroke="white" stroke-width="5" stroke-linecap="round" stroke-linejoin="round"/>
<path d="M39.1055 23.3032C39.1055 28.4085 39.1055 33.5139 39.1055 38.6192C39.1055 41.5365 39.6781 42.1491 42.3043 42.1564C49.9395 42.1564 57.5747 42.1564 65.2099 42.1564" stroke="white" stroke-width="5" stroke-linecap="round" stroke-linejoin="round"/>
<path d="M213.136 23.3032C213.136 28.4085 213.136 33.5139 213.136 38.6192C213.136 41.5365 212.57 42.1491 209.943 42.1564C202.308 42.1564 194.666 42.1564 187.031 42.1564" stroke="white" stroke-width="5" stroke-linecap="round" stroke-linejoin="round"/>
<path d="M230.541 66.811H211.688" stroke="white" stroke-width="5" stroke-linecap="round" stroke-linejoin="round"/>
<path d="M39.11 66.811H21.707" stroke="white" stroke-width="5" stroke-linecap="round" stroke-linejoin="round"/>
<path d="M126.121 79.8628V92.915" stroke="white" stroke-width="5" stroke-linecap="round" stroke-linejoin="round"/>
<path d="M5.18081 214.763C3.30777 214.936 2.88701 216.152 2.88701 217.763C2.88701 227.011 2.77844 236.272 2.94131 245.52C3.02954 250.131 7.60355 255.069 13.3109 255.269C13.7316 255.269 14.1524 255.269 14.5799 255.269C88.9089 255.269 163.245 255.294 237.587 255.343C244.258 255.343 249.68 249.589 249.382 243.756C248.947 235.357 249.239 226.924 249.28 218.505C249.28 215.351 248.662 214.736 245.459 214.736C218.029 214.763 190.598 214.763 163.168 214.736C159.774 214.736 159.367 215.13 159.354 218.484C159.354 221.485 159.313 224.498 159.354 227.485C159.408 230.646 158.736 231.261 155.533 231.254C138.431 231.223 121.33 231.223 104.228 231.254C101.432 231.254 98.636 231.294 95.84 231.254C93.5801 231.207 92.8472 230.492 92.8065 228.267C92.759 225.013 92.8065 221.759 92.8065 218.511C92.8065 215.17 92.4061 214.763 88.9993 214.763C61.1435 214.763 33.2877 214.763 5.4319 214.763" stroke="white" stroke-width="5" stroke-linecap="round" stroke-linejoin="round"/>
<path d="M145.516 56.6587H105.284C101.576 56.6587 98.5703 59.6452 98.5703 63.3293V93.4955C98.5703 97.1796 101.576 100.166 105.284 100.166H145.516C149.224 100.166 152.229 97.1796 152.229 93.4955V63.3293C152.229 59.6452 149.224 56.6587 145.516 56.6587Z" stroke="white" stroke-width="5" stroke-linecap="round" stroke-linejoin="round"/>
<path d="M37.6585 23.3034C42.4642 23.3034 46.36 19.4076 46.36 14.6019C46.36 9.79618 42.4642 5.90039 37.6585 5.90039C32.8528 5.90039 28.957 9.79618 28.957 14.6019C28.957 19.4076 32.8528 23.3034 37.6585 23.3034Z" stroke="white" stroke-width="5" stroke-linecap="round" stroke-linejoin="round"/>
<path d="M11.553 74.0617C16.3587 74.0617 20.2545 70.1659 20.2545 65.3602C20.2545 60.5545 16.3587 56.6587 11.553 56.6587C6.74735 56.6587 2.85156 60.5545 2.85156 65.3602C2.85156 70.1659 6.74735 74.0617 11.553 74.0617Z" stroke="white" stroke-width="5" stroke-linecap="round" stroke-linejoin="round"/>
<path d="M47.0829 143.674C52.289 143.674 56.5095 139.778 56.5095 134.972C56.5095 130.167 52.289 126.271 47.0829 126.271C41.8767 126.271 37.6562 130.167 37.6562 134.972C37.6562 139.778 41.8767 143.674 47.0829 143.674Z" stroke="white" stroke-width="5" stroke-linecap="round" stroke-linejoin="round"/>
<path d="M213.864 23.3034C219.07 23.3034 223.291 19.4076 223.291 14.6019C223.291 9.79618 219.07 5.90039 213.864 5.90039C208.658 5.90039 204.438 9.79618 204.438 14.6019C204.438 19.4076 208.658 23.3034 213.864 23.3034Z" stroke="white" stroke-width="5" stroke-linecap="round" stroke-linejoin="round"/>
<path d="M240.694 74.0617C245.499 74.0617 249.395 70.1659 249.395 65.3602C249.395 60.5545 245.499 56.6587 240.694 56.6587C235.888 56.6587 231.992 60.5545 231.992 65.3602C231.992 70.1659 235.888 74.0617 240.694 74.0617Z" stroke="white" stroke-width="5" stroke-linecap="round" stroke-linejoin="round"/>
<path d="M205.16 143.674C209.565 143.674 213.136 139.778 213.136 134.972C213.136 130.167 209.565 126.271 205.16 126.271C200.755 126.271 197.184 130.167 197.184 134.972C197.184 139.778 200.755 143.674 205.16 143.674Z" stroke="white" stroke-width="5" stroke-linecap="round" stroke-linejoin="round"/>
<path d="M126.121 79.8627C129.325 79.8627 131.922 77.5901 131.922 74.7868C131.922 71.9835 129.325 69.7109 126.121 69.7109C122.918 69.7109 120.32 71.9835 120.32 74.7868C120.32 77.5901 122.918 79.8627 126.121 79.8627Z" stroke="white" stroke-width="5" stroke-linecap="round" stroke-linejoin="round"/>
<path d="M43.4609 169.778H110.172" stroke="white" stroke-width="5" stroke-linecap="round" stroke-linejoin="round"/>
<path d="M140.625 169.778H207.336" stroke="white" stroke-width="5" stroke-linecap="round" stroke-linejoin="round"/>
<path d="M43.4609 195.883H110.172" stroke="white" stroke-width="5" stroke-linecap="round" stroke-linejoin="round"/>
<path d="M140.625 195.883H207.336" stroke="white" stroke-width="5" stroke-linecap="round" stroke-linejoin="round"/>
<path d="M126.121 136.423C117.047 131.238 81.656 109.622 70.194 66.5983C66.5367 52.6782 65.7109 38.1649 67.7654 23.9193L120.069 4.17973C121.709 3.53433 123.438 3.14497 125.197 3.02531C125.815 2.99156 126.434 2.99156 127.052 3.02531C128.81 3.14497 130.539 3.53433 132.179 4.17973L184.483 23.9193C186.538 38.1649 185.712 52.6782 182.054 66.5983C170.586 109.622 135.201 131.238 126.121 136.423Z" stroke="white" stroke-width="5" stroke-linecap="round" stroke-linejoin="round"/>
<path d="M46.3594 126.271V112.91C46.3585 112.379 46.474 111.854 46.6994 111.363C46.9248 110.873 47.2557 110.428 47.673 110.052C48.0903 109.677 48.5859 109.379 49.1314 109.176C49.677 108.973 50.2618 108.868 50.8524 108.868H91.317" stroke="white" stroke-width="5" stroke-linecap="round" stroke-linejoin="round"/>
<path d="M205.885 124.821V109.225C205.909 108.002 205.464 106.819 204.648 105.936C203.831 105.054 202.71 104.543 201.531 104.517H162.379" stroke="white" stroke-width="5" stroke-linecap="round" stroke-linejoin="round"/>
</svg>
