<svg width="266" height="270" viewBox="0 0 266 270" fill="none" xmlns="http://www.w3.org/2000/svg">
<path d="M209.52 71.8675C209.569 71.1606 209.647 70.4538 209.647 69.7469C209.647 53.1645 209.583 36.5892 209.647 20.0138C209.703 10.0756 202.135 2.95778 192.704 3.00019C148.406 3.1769 104.1 3.09915 59.8021 3.04967C56.0888 3.04967 53.1874 4.32197 51.1401 7.34724C50.8013 7.8491 50.3989 8.30854 50.0248 8.32268C47.1374 8.47819 45.4926 10.5351 43.6712 12.3375C32.8467 23.1757 22.0221 34.0139 11.1976 44.8521C9.60921 46.4425 7.99964 47.9763 7.75256 50.4078C7.65373 51.3267 6.89839 51.7791 6.19244 52.281C5.16002 52.9775 4.32452 53.929 3.76678 55.0434C3.20904 56.1578 2.94791 57.3975 3.00861 58.6425C3.00861 58.904 3.00861 59.1726 3.00861 59.4342C3.00861 123.106 3.00861 186.773 3.00861 250.436C3.02167 254.574 4.67118 258.539 7.59632 261.462C10.5215 264.386 14.4841 266.03 18.6171 266.036C76.9238 266.036 135.228 266.036 193.53 266.036C202.531 266.036 209.4 259.151 209.64 249.892C209.71 247.156 209.64 244.421 209.64 241.685" stroke="white" stroke-width="6" stroke-linecap="round" stroke-linejoin="round"/>
<path d="M113.722 52.9709L169.796 53.1004C171.896 53.1004 173.911 52.9505 175.438 51.3158C176.332 50.4227 176.818 49.2307 176.793 47.9986C176.743 44.0071 176.793 40.0088 176.793 36.0173C176.793 32.8636 175.029 31.188 171.703 31.1812C144.247 31.1812 116.791 31.1812 89.3344 31.1812C86.3594 31.1812 84.5458 32.9317 84.5171 35.7584C84.5171 39.5865 84.7465 43.4281 84.4382 47.2289C84.173 50.4507 86.5243 53.1412 90.675 53.1004C93.184 53.1004 95.6931 53.1004 98.1878 53.1004" stroke="white" stroke-width="6" stroke-linecap="round" stroke-linejoin="round"/>
<path d="M258.53 145.215C259.049 142.522 260.023 139.936 261.412 137.566C262.212 136.175 262.704 134.631 262.855 133.037C263.006 131.442 262.812 129.834 262.286 128.32C261.761 126.806 260.916 125.42 259.808 124.257C258.7 123.093 257.354 122.178 255.861 121.572C250.332 119.132 247.217 115.167 246.877 109.163C246.495 102.442 238.927 97.0356 232.01 99.1448C227.196 100.614 223.083 99.194 219.557 95.7491C218.399 94.5286 217.172 93.3737 215.883 92.2901C212.874 89.9419 205.264 90.0404 201.816 93.3798C200.917 94.2375 200.025 95.1163 199.161 96.0092C197.712 97.6456 195.805 98.8174 193.683 99.3757C191.562 99.9339 189.321 99.8536 187.246 99.1448C179.777 96.9372 172.52 103.026 172.167 109.958C171.89 115.434 169.207 118.921 164.202 121.037C159.607 122.978 156.804 126.352 156.471 131.527C156.286 133.834 156.868 136.138 158.128 138.086C161.285 142.916 161.151 147.655 158.375 152.59C154.446 159.578 156.683 166.426 163.926 169.667C168.882 171.896 171.855 175.291 172.202 180.993C172.542 186.505 176.287 190.737 182.205 192.052C183.373 192.312 184.535 192.628 185.526 192.874C185.886 193.963 186.016 195.115 185.908 196.256C185.908 207.505 185.908 218.711 185.908 229.939C185.908 232.266 186.17 234.579 188.358 235.64C190.361 236.618 192.485 235.985 194.432 234.705C198.17 232.238 202.035 229.974 205.802 227.555C208.4 225.889 210.842 225.798 213.511 227.555C217.582 230.213 221.773 232.709 225.95 235.204C229.837 237.532 232.817 236.02 233.362 231.535C233.95 226.719 233.554 221.882 233.61 217.059C233.688 210.029 233.653 202.998 233.61 196.01C233.61 192.741 233.61 192.874 236.817 192.122C240.994 191.138 244.279 189.155 246.021 185.204C246.629 183.696 246.992 182.101 247.097 180.48C247.55 175.404 250.106 171.706 254.835 170.025C256.586 169.401 258.168 168.383 259.458 167.051C260.747 165.719 261.709 164.109 262.268 162.347C262.828 160.585 262.969 158.718 262.682 156.893C262.394 155.067 261.686 153.332 260.612 151.824C259.281 149.869 259.019 147.662 258.488 145.496" stroke="white" stroke-width="6" stroke-linecap="round" stroke-linejoin="round"/>
<path d="M134.518 126.689H29.6172" stroke="white" stroke-width="6" stroke-linecap="round" stroke-linejoin="round"/>
<path d="M131.386 98.5068H26.4844" stroke="white" stroke-width="6" stroke-linecap="round" stroke-linejoin="round"/>
<path d="M134.518 154.872H29.6172" stroke="white" stroke-width="6" stroke-linecap="round" stroke-linejoin="round"/>
<path d="M134.518 183.055C132.145 183.055 129.772 183.055 127.399 183.055C97.7931 183.055 68.1852 183.055 38.5749 183.055C35.589 183.055 32.6031 183.055 29.6172 183.055" stroke="white" stroke-width="6" stroke-linecap="round" stroke-linejoin="round"/>
<path d="M51.1208 7.69824C52.4493 9.45478 53.1117 11.6316 52.9886 13.8367C52.9886 23.2618 52.6561 32.7083 53.0877 42.112C53.3565 47.9653 49.3238 52.8988 42.6452 53.0129C32.6696 53.184 22.694 53.0699 12.7255 53.0129C10.8507 53.0129 9.27301 52.0504 7.69531 51.1521" stroke="white" stroke-width="6" stroke-linecap="round" stroke-linejoin="round"/>
<path d="M87.5477 223.763H29.6172" stroke="white" stroke-width="6" stroke-linecap="round" stroke-linejoin="round"/>
<path d="M233.154 192.86C229.098 189.958 224.093 190.408 220.364 193.942C218.636 195.582 217.284 197.65 215.158 198.847C211.15 201.09 205.037 200.93 201.058 196.67C199.19 194.675 197.482 192.367 194.785 191.532C191.767 190.604 188.756 190.379 186.184 192.86" stroke="white" stroke-width="6" stroke-linecap="round" stroke-linejoin="round"/>
<path d="M209.669 168.963C222.64 168.963 233.154 158.098 233.154 144.695C233.154 131.292 222.64 120.427 209.669 120.427C196.698 120.427 186.184 131.292 186.184 144.695C186.184 158.098 196.698 168.963 209.669 168.963Z" stroke="white" stroke-width="6" stroke-linecap="round" stroke-linejoin="round"/>
</svg>
