<svg width="540" height="540" viewBox="0 0 540 540" fill="none" xmlns="http://www.w3.org/2000/svg">
<path d="M456.084 129.241H83.916V413.654H456.084V129.241Z" fill="url(#paint0_linear)"/>
<path d="M450.022 135.303H89.9775V407.593H450.022V135.303Z" fill="url(#paint1_linear)"/>
<path d="M413.586 395.47C413.452 394.393 413.317 393.315 413.317 392.237C413.317 380.384 422.881 370.821 434.734 370.821C435.811 370.821 436.889 370.955 437.967 371.09V171.739C436.889 171.873 435.811 172.008 434.734 172.008C422.881 172.008 413.317 162.444 413.317 150.591C413.317 149.514 413.452 148.436 413.586 147.358H126.48C126.614 148.436 126.749 149.514 126.749 150.591C126.749 162.444 117.186 172.008 105.332 172.008C104.255 172.008 103.177 171.873 102.1 171.739V371.09C103.177 370.888 104.255 370.821 105.332 370.821C117.118 370.821 126.749 380.384 126.749 392.237C126.749 393.315 126.614 394.393 126.48 395.47H413.586Z" fill="#F1EFEC"/>
<path d="M437.899 153.285C437.899 156.518 435.273 159.145 432.04 159.145C428.807 159.145 426.181 156.518 426.181 153.285C426.181 150.053 428.807 147.426 432.04 147.426C435.273 147.359 437.899 149.985 437.899 153.285Z" fill="#F1EFEC"/>
<path d="M113.885 153.284C113.885 156.517 111.258 159.144 108.025 159.144C104.793 159.144 102.166 156.517 102.166 153.284C102.166 150.052 104.793 147.425 108.025 147.425C111.191 147.358 113.885 149.984 113.885 153.284Z" fill="#F1EFEC"/>
<path d="M113.886 389.611C113.886 392.844 111.259 395.471 108.026 395.471C104.794 395.471 102.167 392.844 102.167 389.611C102.167 386.379 104.794 383.752 108.026 383.752C111.192 383.752 113.886 386.379 113.886 389.611Z" fill="#F1EFEC"/>
<path d="M437.899 389.611C437.899 392.844 435.273 395.471 432.04 395.471C428.807 395.471 426.181 392.844 426.181 389.611C426.181 386.379 428.807 383.752 432.04 383.752C435.273 383.752 437.899 386.379 437.899 389.611Z" fill="#F1EFEC"/>
<path d="M358.698 184.602H181.234V195.714H358.698V184.602Z" fill="#08243B"/>
<path d="M408.671 233.968H131.33V245.08H408.671V233.968Z" fill="#08243B"/>
<path d="M408.671 258.213H131.33V269.258H408.671V258.213Z" fill="#08243B"/>
<path d="M408.671 282.392H131.33V293.504H408.671V282.392Z" fill="#08243B"/>
<path opacity="0.3" d="M360.381 412.846L360.651 413.654H400.117L392.372 390.553L388.398 378.767L397.423 377.084L392.372 369.271L400.589 364.961L393.45 358.967L400.05 352.367L391.429 348.797L395.807 340.581L386.513 339.638L388.264 330.478L379.104 332.364L378.094 323.137L373.649 325.562L369.945 327.582L366.241 319.029L359.708 325.764L353.647 318.625L349.404 326.976L341.524 321.992L339.975 331.219L330.95 328.727L332.162 338.021L322.801 338.358L326.707 346.844L317.885 349.875L324.081 356.879L316.538 362.402L324.552 367.251L318.962 374.726L328.054 377.016L327.852 377.488L324.956 385.637V385.771H325.091L330.007 385.502L328.66 389.678L320.646 413.654H360.112L360.381 412.846Z" fill="#08243B"/>
<path d="M380.586 365.164L367.992 402.677L366.577 406.853L353.781 445.174L342.736 441.47L328.593 436.755L318.289 433.321L334.924 383.685L345.093 353.311L366.577 360.517L380.586 365.164Z" fill="#9AA0A6"/>
<path d="M369.002 363.008L342.736 441.469L328.593 436.755L354.859 358.294L369.002 363.008Z" fill="url(#paint2_linear)"/>
<path d="M414.934 433.321L405.168 436.553L389.678 441.739L379.441 445.174L366.577 406.853L366.106 405.371L352.636 365.164L366.577 360.517L388.129 353.311L398.635 384.628L414.934 433.321Z" fill="url(#paint3_linear)"/>
<path d="M405.167 436.553L389.677 441.738L364.826 367.52L380.046 361.594L405.167 436.553Z" fill="#08243B"/>
<path opacity="0.3" d="M393.719 385.503L396.211 394.258L387.186 393.248L386.984 402.273L378.7 398.636L375.804 407.257L368.935 401.33L367.992 402.677L366.106 405.371L363.682 408.738L358.833 401.061L351.626 406.583L349.336 397.761L340.783 400.926L341.12 391.834L332.095 392.305L335.059 383.752L334.924 383.685L345.093 353.311L366.578 360.517L388.129 353.311L398.635 384.628L393.719 385.503Z" fill="#08243B"/>
<path opacity="0.1" d="M359.035 319.771L359.167 319.837L359.035 319.771Z" fill="#848484"/>
<path opacity="0.1" d="M359.102 319.97L359.168 319.838L359.102 319.97Z" fill="#848484"/>
<path d="M386.984 389.139L378.7 385.503L375.804 394.123L368.935 388.197L363.681 395.605L358.832 387.86L351.626 393.382L349.269 384.627L340.783 387.725L341.12 378.7L332.095 379.172L335.058 370.619L326.303 368.396L331.691 361.055L323.878 356.341L331.219 351.02L325.225 344.218L333.779 341.187L330.007 332.971L339.099 332.634L337.954 323.609L346.71 325.966L348.259 317.009L355.936 321.858L360.045 313.776L365.971 320.646L372.235 314.18L375.871 322.464L383.819 318.087L384.829 327.111L393.719 325.293L392.035 334.25L401.06 335.126L396.817 343.14L405.235 346.642L398.77 353.041L405.774 358.833L397.692 363.075L402.676 370.686L393.719 372.37L396.211 381.125L387.186 380.047L386.984 389.139Z" fill="url(#paint4_linear)"/>
<path d="M398.568 363.278L406.785 358.9L399.646 352.906L406.246 346.306L397.625 342.737L402.003 334.52L392.709 333.645L394.46 324.485L385.301 326.371L384.29 317.077L379.845 319.501L376.141 321.522L372.437 312.969L365.972 319.703L359.91 312.632L355.667 320.916L347.788 315.932L346.171 325.159L337.146 322.734L338.359 331.961L329.065 332.298L332.903 340.783L324.081 343.881L330.277 350.886L322.734 356.408L330.681 361.257L325.158 368.733L334.183 371.023L333.981 371.494L331.085 379.711L331.018 379.846H331.152L340.312 379.374L339.975 388.534V388.668L340.11 388.601L348.73 385.435L351.155 394.46L358.563 388.803L363.48 396.683L368.868 389.072L375.939 395.134L378.903 386.311L387.456 390.083L387.658 380.721L396.885 381.799L394.325 372.841L403.485 371.158L398.568 363.278ZM386.446 388.197L378.364 384.627L375.602 392.978L368.935 387.187L363.816 394.393L359.102 386.917L352.098 392.305L349.808 383.752L341.524 386.782L341.861 377.96L333.038 378.431L335.463 371.562L336.002 370.08L327.448 367.925L332.701 360.786L325.158 356.206L332.297 350.953L326.438 344.353L334.789 341.457L331.152 333.442L339.975 333.106L338.83 324.35L347.383 326.64L348.865 317.952L356.341 322.667L360.314 314.787L366.039 321.522L372.168 315.191L375.67 323.273L380.249 320.714L383.415 318.963L384.358 327.718L393.046 325.967L391.362 334.655L400.185 335.53L396.009 343.343L404.158 346.71L397.895 352.974L404.697 358.631L396.885 362.739L401.734 370.147L393.046 371.764L395.47 380.25L386.715 379.239L386.446 388.197Z" fill="#606060"/>
<path d="M393.18 355.398C393.18 371.09 380.452 383.752 364.827 383.752C349.135 383.752 336.473 371.023 336.473 355.398C336.473 339.706 349.202 327.044 364.827 327.044C380.519 326.977 393.18 339.706 393.18 355.398Z" fill="#08243B"/>
<path d="M381.124 330.344C376.477 327.179 370.82 325.36 364.826 325.36C348.662 325.36 335.529 338.493 335.529 354.657C335.529 361.055 337.55 366.914 341.052 371.696C346.372 379.105 355.06 383.954 364.893 383.954C381.057 383.954 394.19 370.821 394.19 354.657C394.123 344.555 389.004 335.597 381.124 330.344ZM364.826 382.135C356.071 382.135 348.258 378.027 343.207 371.562C339.57 366.914 337.348 360.988 337.348 354.657C337.348 339.504 349.672 327.179 364.826 327.179C370.887 327.179 376.477 329.132 381.057 332.499C387.859 337.483 392.304 345.565 392.304 354.657C392.304 369.81 379.979 382.135 364.826 382.135Z" fill="#9AA0A6"/>
<path d="M364.827 334.924L370.821 346.979L384.156 348.932L374.458 358.361L376.748 371.696L364.827 365.365L352.906 371.696L355.129 358.361L345.498 348.932L358.833 346.979L364.827 334.924Z" fill="url(#paint5_linear)"/>
<defs>
<linearGradient id="paint0_linear" x1="502.251" y1="115.485" x2="117.223" y2="374.016" gradientUnits="userSpaceOnUse">
<stop offset="0.645833" stop-color="#08243B"/>
</linearGradient>
<linearGradient id="paint1_linear" x1="506.224" y1="143.505" x2="-26.6492" y2="432.079" gradientUnits="userSpaceOnUse">
<stop offset="0.5721" stop-color="#F1EFEC"/>
</linearGradient>
<linearGradient id="paint2_linear" x1="422.469" y1="375.143" x2="314.946" y2="411.248" gradientUnits="userSpaceOnUse">
<stop stop-color="#08243B"/>
</linearGradient>
<linearGradient id="paint3_linear" x1="425.82" y1="385.125" x2="318.297" y2="421.23" gradientUnits="userSpaceOnUse">
<stop stop-color="#9AA0A6"/>
<stop offset="0.826047" stop-color="#9AA0A6"/>
</linearGradient>
<linearGradient id="paint4_linear" x1="408.796" y1="319.378" x2="330.921" y2="381.573" gradientUnits="userSpaceOnUse">
<stop offset="0.5721" stop-color="#9AA0A6"/>
</linearGradient>
<linearGradient id="paint5_linear" x1="402.205" y1="331.807" x2="348.267" y2="368.702" gradientUnits="userSpaceOnUse">
<stop offset="0.5721" stop-color="#F1EFEC"/>
</linearGradient>
</defs>
</svg>
