<svg width="503" height="503" viewBox="0 0 503 503" fill="none" xmlns="http://www.w3.org/2000/svg">
<path d="M469.375 330.419L113.235 409.652C108.467 410.718 103.699 408.146 101.88 403.567L23.9016 202.003C21.5805 195.98 25.5327 189.393 31.9316 188.641L354.384 151.063C357.959 150.624 361.535 152.255 363.605 155.203L475.334 315.112C479.349 320.883 476.213 328.913 469.375 330.419Z" fill="#2950AF"/>
<path d="M469.375 328.537L113.235 407.77C108.467 408.837 103.699 406.264 101.88 401.685L23.9016 200.121C21.5805 194.099 25.5327 187.512 31.9316 186.759L354.384 149.181C357.959 148.742 361.535 150.373 363.605 153.322L475.334 313.23C479.349 319.002 476.213 327.032 469.375 328.537Z" fill="url(#paint0_linear)"/>
<path d="M383.555 312.164C380.544 312.164 377.784 310.094 377.156 307.02C376.341 303.444 378.599 299.931 382.175 299.178L429.727 288.576C433.303 287.76 436.816 290.019 437.569 293.595C438.385 297.17 436.126 300.683 432.55 301.436L384.998 312.038C384.496 312.101 383.994 312.164 383.555 312.164Z" fill="#08243B"/>
<path d="M309.905 328.537C306.894 328.537 304.134 326.467 303.506 323.393C302.691 319.817 304.949 316.304 308.525 315.551L362.225 303.631C365.801 302.816 369.314 305.074 370.067 308.65C370.883 312.226 368.624 315.739 365.048 316.492L311.348 328.411C310.846 328.474 310.344 328.537 309.905 328.537Z" fill="#08243B"/>
<path d="M216.306 349.365C213.295 349.365 210.535 347.295 209.907 344.221C209.092 340.645 211.35 337.132 214.926 336.379L285.878 320.57C289.454 319.754 292.967 322.013 293.72 325.589C294.535 329.164 292.277 332.678 288.701 333.43L217.686 349.239C217.247 349.302 216.808 349.365 216.306 349.365Z" fill="#08243B"/>
<path d="M120.952 370.569C117.94 370.569 115.18 368.499 114.553 365.425C113.737 361.849 115.996 358.336 119.572 357.583L193.472 341.147C197.048 340.332 200.561 342.59 201.314 346.166C202.129 349.742 199.871 353.255 196.295 354.008L122.395 370.444C121.893 370.507 121.391 370.569 120.952 370.569Z" fill="#08243B"/>
<path d="M76.7856 248.176L99.558 300.308L173.772 286.506L146.044 238.766L76.7856 248.176Z" fill="#F1EFEC"/>
<path d="M61.7298 216.181C60.3497 216.181 59.1577 215.177 58.9068 213.734C58.7186 212.166 59.7851 210.786 61.2907 210.535L142.719 199.306C144.288 199.118 145.668 200.184 145.919 201.69C146.107 203.258 145.04 204.638 143.535 204.889L62.1689 216.118C62.0435 216.118 61.918 216.181 61.7298 216.181Z" fill="#F1EFEC"/>
<path opacity="0.2" d="M475.271 313.293L363.542 153.384C361.472 150.436 357.896 148.805 354.321 149.244L245.164 161.979L464.481 329.666L469.312 328.6C476.212 327.031 479.349 319.001 475.271 313.293Z" fill="white"/>
<g opacity="0.5">
<g opacity="0.5">
<path opacity="0.5" d="M196.922 179.042C197.925 180.171 202.881 179.23 207.963 176.972C213.044 174.713 216.432 172.016 215.428 170.949C213.985 169.318 212.417 167.624 210.911 165.931L187.449 168.691C190.774 172.267 193.91 175.717 196.922 179.042Z" fill="#08243B"/>
<path opacity="0.5" d="M135.568 307.772C135.631 307.834 135.631 307.834 135.693 307.897C136.07 308.399 136.509 308.901 136.885 309.403C136.948 309.465 137.011 309.591 137.136 309.654C137.513 310.155 137.889 310.595 138.328 311.096C138.454 311.222 138.516 311.347 138.642 311.473C139.018 311.912 139.395 312.351 139.834 312.853C139.959 312.978 140.085 313.104 140.21 313.229C140.587 313.669 140.963 314.108 141.402 314.547C141.528 314.672 141.653 314.86 141.779 314.986C142.155 315.425 142.531 315.864 142.971 316.241C143.096 316.366 143.222 316.554 143.41 316.68C143.786 317.119 144.225 317.558 144.602 317.934C144.727 318.06 144.853 318.185 144.978 318.374C145.417 318.813 145.794 319.252 146.233 319.628C146.358 319.754 146.484 319.879 146.609 320.005C147.048 320.444 147.487 320.883 147.989 321.322C148.052 321.385 148.052 321.385 148.115 321.448C149.62 322.89 151.189 324.333 152.757 325.776C152.945 325.902 153.071 326.09 153.259 326.215C153.635 326.529 154.012 326.843 154.388 327.219C154.639 327.47 154.89 327.658 155.141 327.909C155.517 328.223 155.831 328.474 156.207 328.787C156.521 329.038 156.772 329.289 157.086 329.54C157.399 329.791 157.776 330.105 158.089 330.356C158.403 330.607 158.717 330.858 159.03 331.109C159.344 331.359 159.721 331.673 160.034 331.924C160.348 332.175 160.724 332.426 161.038 332.677C161.352 332.928 161.728 333.179 162.042 333.43C162.418 333.681 162.732 333.932 163.108 334.245C163.422 334.496 163.798 334.747 164.112 334.998C164.488 335.249 164.865 335.5 165.178 335.814C165.492 336.065 165.868 336.315 166.182 336.504C166.559 336.755 166.935 337.068 167.311 337.319C167.625 337.57 167.939 337.758 168.315 338.009C168.691 338.26 169.131 338.574 169.507 338.825C169.821 339.013 170.134 339.264 170.448 339.452C170.887 339.766 171.326 340.017 171.765 340.33C172.079 340.519 172.33 340.707 172.644 340.895C173.146 341.209 173.647 341.522 174.149 341.836C174.4 342.024 174.651 342.15 174.902 342.338C175.655 342.777 176.408 343.279 177.161 343.718C227.159 373.705 284.624 372.011 307.271 341.02C307.333 340.895 307.396 340.832 307.459 340.707L323.205 319.566C323.456 319.315 323.644 319.001 323.895 318.75C324.334 318.185 324.773 317.558 325.212 316.931L325.338 316.805C347.232 286.505 326.781 239.454 277.033 209.656C225.528 178.853 163.61 177.473 139.708 207.272L139.52 207.46C139.395 207.648 139.207 207.837 139.081 208.025C138.642 208.589 138.266 209.154 137.889 209.719L128.228 223.206C116.936 211.036 101.566 193.721 91.5916 179.92L69.2583 182.492C83.8753 203.508 108.718 229.919 118.003 239.58C110.098 259.529 117.312 284.811 135.568 307.772Z" fill="#08243B"/>
</g>
</g>
<path opacity="0.2" d="M440.831 334.874L230.547 163.673L214.048 165.555L425.9 338.198L440.831 334.874Z" fill="white"/>
<path d="M374.395 300.558L367.181 294.786C373.078 262.667 359.528 226.093 329.353 201.501C298.676 176.47 259.342 170.699 228.79 183.748L221.764 178.102L201.501 203.383C200.874 204.073 200.309 204.763 199.744 205.453C170.009 241.839 179.858 299.115 221.701 333.305C263.545 367.495 321.636 365.738 351.372 329.29C351.435 329.165 351.56 329.039 351.623 328.914L374.395 300.558Z" fill="url(#paint1_linear)"/>
<path opacity="0.1" d="M367.182 294.787C370.632 275.778 367.307 255.202 357.772 236.444C363.481 261.224 358.901 286.757 342.967 306.33C313.231 342.716 255.202 344.535 213.296 310.345C201 300.307 191.464 288.263 184.877 275.339C189.771 296.669 202.317 317.434 221.702 333.305C263.546 367.495 321.637 365.739 351.373 329.291C351.436 329.165 351.561 329.04 351.624 328.914L374.396 300.496L367.182 294.787Z" fill="#08243B"/>
<path d="M350.618 175.028C392.462 209.218 402.311 266.431 372.575 302.88C342.839 339.265 284.811 341.085 242.904 306.895C200.998 272.705 191.212 215.491 220.948 179.043C250.683 142.595 308.775 140.838 350.618 175.028Z" fill="url(#paint2_linear)"/>
<path d="M270.446 323.392C265.992 321.51 261.6 319.378 257.334 316.868" stroke="#08243B" stroke-width="3" stroke-miterlimit="10" stroke-linecap="round"/>
<path d="M251.5 313.168C248.614 311.223 245.728 309.09 242.968 306.831C228.602 295.1 218 280.672 211.476 265.302" stroke="#08243B" stroke-width="3" stroke-miterlimit="10" stroke-linecap="round"/>
<path d="M350.185 282.642C369.976 258.411 362.636 219.667 333.789 196.105C304.942 172.544 265.513 173.087 245.722 197.318C225.93 221.549 233.271 260.293 262.117 283.854C290.964 307.416 330.393 306.873 350.185 282.642Z" fill="#9AA0A6"/>
<path d="M350.854 275.254C369.441 252.499 362.559 216.124 335.483 194.01C308.407 171.895 271.391 172.414 252.805 195.169C234.219 217.924 241.101 254.299 268.177 276.414C295.252 298.529 332.268 298.009 350.854 275.254Z" fill="#08243B"/>
<path d="M337.821 234.813L332.991 230.484C330.921 224.022 326.843 217.749 320.82 212.856C315.865 208.778 310.218 206.206 304.635 205.014L299.554 200.435L286.003 206.645C282.553 208.214 279.416 210.472 276.907 213.546C266.995 225.654 270.633 244.976 284.937 256.707C299.303 268.438 318.938 268.124 328.85 255.954C330.795 253.57 332.175 250.998 333.116 248.175L337.821 234.813Z" fill="url(#paint3_linear)"/>
<path d="M334.649 240.326C342.649 230.531 339.693 214.88 328.047 205.368C316.401 195.856 300.475 196.084 292.475 205.879C284.475 215.673 287.431 231.325 299.077 240.837C310.723 250.349 326.649 250.12 334.649 240.326Z" fill="#606060"/>
<path opacity="0.15" d="M328.035 205.391C316.367 195.856 300.495 196.107 292.465 205.893C291.712 206.834 291.022 207.775 290.458 208.842C298.927 201.627 312.979 202.254 323.518 210.849C334.058 219.444 337.445 233.057 332.113 242.843C332.991 242.09 333.807 241.275 334.622 240.334C342.652 230.485 339.641 214.864 328.035 205.391Z" fill="white"/>
<path d="M194.537 219.381C194.286 218.942 193.91 218.314 193.471 217.562C192.404 220.134 192.467 221.263 194.537 219.381Z" fill="#08243B"/>
<path d="M282.553 142.908C281.863 141.653 285.627 138.328 290.897 135.442C296.166 132.557 300.997 131.239 301.687 132.494C295.602 121.327 288.701 108.781 281.298 95.7946C266.305 69.5091 245.54 61.9811 230.735 60.2873C215.993 58.5934 204.45 62.2947 202.128 63.1103C176.47 71.2657 151.565 95.1046 158.277 137.889C162.167 162.669 186.947 206.394 193.471 217.561C193.91 218.314 194.287 218.941 194.538 219.38C200.936 213.421 206.645 197.047 206.708 196.859C196.608 178.603 182.179 149.997 179.732 134.501C174.149 98.7431 198.239 87.1374 208.841 83.8125L209.28 83.687C209.343 83.687 218.125 80.613 228.978 82.0559C242.843 83.8752 254.072 92.1561 262.29 106.585C269.693 119.383 276.531 131.804 282.553 142.908Z" fill="#9AA0A6"/>
<path d="M290.896 135.442C285.627 138.328 281.925 141.652 282.553 142.907C283.243 144.162 288.073 142.844 293.343 139.959C298.612 137.073 302.314 133.748 301.686 132.493C300.996 131.239 296.166 132.556 290.896 135.442Z" fill="#08243B"/>
<defs>
<linearGradient id="paint0_linear" x1="421.541" y1="107.508" x2="50.4007" y2="432.865" gradientUnits="userSpaceOnUse">
<stop offset="0.583333" stop-color="#08243B"/>
</linearGradient>
<linearGradient id="paint1_linear" x1="299.182" y1="173.201" x2="263.231" y2="347.28" gradientUnits="userSpaceOnUse">
<stop stop-color="#9AA0A6"/>
</linearGradient>
<linearGradient id="paint2_linear" x1="353.174" y1="109.096" x2="236.28" y2="382.408" gradientUnits="userSpaceOnUse">
<stop offset="0.5721" stop-color="#606060"/>
</linearGradient>
<linearGradient id="paint3_linear" x1="350.884" y1="213.719" x2="265.421" y2="250.932" gradientUnits="userSpaceOnUse">
<stop stop-color="#DADADA"/>
</linearGradient>
</defs>
</svg>
