<svg width="276" height="276" viewBox="0 0 276 276" fill="none" xmlns="http://www.w3.org/2000/svg">
<path d="M160.071 104.568C160.071 98.435 160.266 92.2866 160.019 86.1606C159.629 76.4723 155.053 69.3476 146.051 65.2412C137.513 61.3361 129.425 62.4018 121.973 67.79C115.314 72.6118 112.296 79.3639 112.401 87.5542C112.476 93.2257 112.401 98.8971 112.401 104.568" stroke="white" stroke-width="6" stroke-linecap="round" stroke-linejoin="round"/>
<path d="M24.6427 230.444C19.1379 230.444 13.8585 228.308 9.96603 224.507C6.07353 220.705 3.88672 215.549 3.88672 210.173V38.5928H49.0282" stroke="white" stroke-width="6" stroke-linecap="round" stroke-linejoin="round"/>
<path d="M73.3359 38.5928H252.587C255.266 38.588 257.92 39.1088 260.396 40.1254C262.873 41.142 265.123 42.6344 267.019 44.5172C268.915 46.4 270.419 48.6363 271.446 51.0981C272.472 53.5599 273 56.1988 273 58.8639V210.173C273 212.835 272.473 215.471 271.449 217.93C270.425 220.39 268.924 222.624 267.032 224.507C265.14 226.389 262.894 227.882 260.422 228.901C257.95 229.92 255.3 230.444 252.624 230.444H248.344" stroke="white" stroke-width="6" stroke-linecap="round" stroke-linejoin="round"/>
<path d="M247.823 229.575C247.823 240.857 243.346 251.676 235.378 259.654C227.41 267.631 216.603 272.112 205.334 272.112H66.3332C55.0657 272.111 44.2604 267.628 36.2937 259.651C28.3271 251.674 23.8516 240.856 23.8516 229.575V229.575C23.8516 218.295 28.3271 207.477 36.2937 199.5C44.2604 191.522 55.0657 187.04 66.3332 187.038H205.334C216.603 187.038 227.41 191.52 235.378 199.497C243.346 207.474 247.823 218.294 247.823 229.575Z" stroke="white" stroke-width="6" stroke-linecap="round" stroke-linejoin="round"/>
<path d="M163.041 104.568H110.375C101.905 104.568 95.0391 111.363 95.0391 119.745V171.862C95.0391 180.244 101.905 187.038 110.375 187.038H163.041C171.511 187.038 178.377 180.244 178.377 171.862V119.745C178.377 111.363 171.511 104.568 163.041 104.568Z" stroke="white" stroke-width="6" stroke-linecap="round" stroke-linejoin="round"/>
<path d="M47.6342 38.5923H3.88672V20.5837C3.88672 10.8734 12.9583 3 24.1101 3H83.7257C91.5767 3 98.7488 6.86826 102.216 12.9912L116.74 38.5851H62.9029" stroke="white" stroke-width="6" stroke-linecap="round" stroke-linejoin="round"/>
<path d="M149.729 141.202C149.729 133.909 143.513 128.007 135.846 128.007C128.179 128.007 121.949 133.909 121.949 141.202C121.982 143.297 122.504 145.352 123.467 147.185C124.43 149.018 125.807 150.573 127.474 151.713C127.474 151.943 127.474 152.166 127.474 152.397C127.474 158.581 131.23 163.599 135.86 163.599C140.49 163.599 144.253 158.581 144.253 152.397C144.253 152.166 144.253 151.943 144.253 151.713C145.912 150.568 147.279 149.01 148.233 147.177C149.188 145.345 149.702 143.293 149.729 141.202V141.202Z" stroke="white" stroke-width="6" stroke-linecap="round" stroke-linejoin="round"/>
<path d="M80.2334 240.05L67.3563 232.32L80.5261 224.838L80.9505 224.597L80.7197 224.167L79.4936 221.882L79.233 221.396L78.7749 221.703C77.3192 222.677 75.3988 223.923 73.0124 225.44C70.8463 226.818 68.4849 228.298 65.9283 229.882C65.9783 227.788 66.0445 225.668 66.1119 223.509C66.1171 223.341 66.1224 223.172 66.1277 223.003C66.2102 220.354 66.3135 217.669 66.4305 214.932L66.4521 214.429L65.9488 214.411L63.3244 214.318L62.7802 214.298L62.8072 214.842C62.9218 217.153 63.0228 219.644 63.1099 222.314C63.1881 224.708 63.2089 227.204 63.1725 229.804C61.0911 228.493 59.05 227.163 57.0492 225.814L50.9673 221.704L50.5376 221.414L50.2631 221.854L48.9544 223.952L48.6741 224.402L49.1389 224.655C50.5822 225.444 52.4395 226.55 54.7132 227.975C56.8071 229.287 59.1904 230.74 61.8629 232.334C60.083 233.377 58.129 234.497 56.0008 235.695C53.582 237.058 51.1818 238.345 48.8003 239.559L48.3284 239.799L48.5956 240.257L49.8217 242.355L50.0951 242.823L50.5395 242.513C51.9238 241.547 53.7908 240.383 56.1452 239.022C58.2938 237.779 60.6239 236.396 63.1356 234.872C63.1264 237.327 63.0802 239.856 63.0066 242.454C62.9148 245.374 62.8116 248.018 62.697 250.386L62.6705 250.933L63.2177 250.909L65.4081 250.816L65.8998 250.795L65.8867 250.303C65.7972 246.963 65.7423 243.832 65.7972 240.926C65.8435 238.476 65.8752 236.429 65.8842 234.785C67.3875 235.728 69.1313 236.883 71.1163 238.253C73.4548 239.867 75.8805 241.468 78.3932 243.057L78.8226 243.329L79.0872 242.895L80.4029 240.739L80.6652 240.309L80.2334 240.05Z" fill="white" stroke="white"/>
<path d="M128.855 240.047L115.612 232.32L129.135 224.841L129.572 224.599L129.331 224.162L128.071 221.877L127.811 221.406L127.36 221.699C125.864 222.674 123.89 223.919 121.437 225.437C119.203 226.819 116.768 228.305 114.13 229.895C114.181 227.797 114.249 225.673 114.319 223.509C114.324 223.341 114.329 223.173 114.335 223.004C114.42 220.355 114.526 217.669 114.646 214.933L114.668 214.429L114.164 214.411L111.467 214.318L110.922 214.299L110.95 214.843C111.068 217.153 111.172 219.644 111.261 222.315C111.342 224.712 111.363 227.213 111.325 229.817C109.177 228.501 107.07 227.165 105.005 225.811C105.005 225.811 105.005 225.811 105.005 225.811L98.7543 221.701L98.3316 221.423L98.0587 221.849L96.7136 223.947L96.4204 224.404L96.9004 224.658C98.3885 225.447 100.297 226.553 102.629 227.978C104.776 229.289 107.225 230.741 109.977 232.334C108.142 233.376 106.134 234.495 103.952 235.693C101.471 237.055 99.0041 238.343 96.5517 239.556L96.0655 239.797L96.3448 240.262L97.6049 242.36L97.8767 242.813L98.3138 242.517C99.7422 241.55 101.662 240.386 104.077 239.024C106.289 237.777 108.692 236.389 111.287 234.859C111.278 237.318 111.231 239.851 111.155 242.454C111.061 245.374 110.954 248.017 110.837 250.385L110.809 250.932L111.357 250.909L113.608 250.816L114.101 250.795L114.087 250.303L114.079 250.007C113.99 246.772 113.906 243.747 113.995 240.933C114.073 238.469 114.085 236.414 114.087 234.77C115.649 235.716 117.457 236.878 119.51 238.256C121.914 239.87 124.407 241.471 126.989 243.06L127.411 243.32L127.674 242.9L129.027 240.744L129.301 240.307L128.855 240.047Z" fill="white" stroke="white"/>
<path d="M178.339 240.049L165.084 232.316L178.619 224.839L179.057 224.598L178.815 224.16L177.554 221.875L177.294 221.404L176.843 221.698C175.351 222.672 173.375 223.917 170.916 225.435C168.676 226.817 166.237 228.302 163.601 229.891C163.652 227.794 163.72 225.671 163.79 223.508C163.795 223.34 163.801 223.171 163.806 223.002C163.891 220.354 163.997 217.669 164.118 214.933L164.14 214.429L163.635 214.411L160.936 214.318L160.391 214.299L160.419 214.843C160.539 217.154 160.653 219.666 160.737 222.313C160.814 224.69 160.833 227.208 160.795 229.814C158.644 228.498 156.535 227.163 154.468 225.808L148.212 221.699L147.789 221.422L147.516 221.847L146.17 223.945L145.875 224.405L146.359 224.658C147.847 225.436 149.756 226.54 152.09 227.974C154.239 229.295 156.7 230.75 159.471 232.34C157.638 233.381 155.629 234.499 153.444 235.695C150.955 237.057 148.486 238.345 146.036 239.558L145.55 239.799L145.829 240.264L147.091 242.362L147.363 242.815L147.8 242.518C149.224 241.552 151.145 240.389 153.567 239.027C155.785 237.78 158.191 236.392 160.785 234.863C160.777 237.319 160.732 239.85 160.652 242.455C160.563 245.374 160.457 248.017 160.334 250.384L160.306 250.932L160.854 250.909L163.107 250.816L163.604 250.795L163.586 250.298C163.464 246.958 163.433 243.835 163.494 240.929C163.546 238.473 163.576 236.421 163.584 234.777C165.133 235.722 166.934 236.882 168.987 238.259C171.392 239.872 173.887 241.473 176.472 243.062L176.894 243.321L177.157 242.902L178.511 240.747L178.785 240.309L178.339 240.049Z" fill="white" stroke="white"/>
<path d="M227.841 240.047L214.577 232.319L228.1 224.841L228.537 224.599L228.296 224.162L227.036 221.877L226.776 221.405L226.325 221.7C224.833 222.674 222.86 223.919 220.403 225.437C218.165 226.819 215.729 228.305 213.095 229.894C213.146 227.793 213.214 225.666 213.284 223.499C213.289 223.334 213.294 223.169 213.3 223.004C213.385 220.355 213.491 217.669 213.611 214.933L213.633 214.429L213.129 214.411L210.431 214.318L209.887 214.299L209.915 214.843C210.035 217.155 210.148 219.666 210.233 222.314C210.309 224.692 210.328 227.21 210.29 229.817C208.142 228.501 206.035 227.165 203.97 225.811C203.97 225.811 203.97 225.811 203.97 225.811L197.719 221.701L197.296 221.423L197.023 221.849L195.678 223.947L195.385 224.404L195.865 224.658C197.353 225.447 199.262 226.553 201.594 227.978C203.741 229.289 206.19 230.741 208.942 232.334C207.107 233.376 205.098 234.495 202.917 235.693C200.436 237.055 197.969 238.343 195.517 239.556L195.03 239.797L195.31 240.262L196.57 242.36L196.842 242.814L197.28 242.516C198.698 241.55 200.617 240.387 203.041 239.025C205.262 237.778 207.666 236.389 210.254 234.86C210.249 237.316 210.204 239.847 210.12 242.453C210.025 245.373 209.919 248.017 209.802 250.385L209.774 250.932L210.322 250.909L212.573 250.816L213.07 250.795L213.052 250.298C212.929 246.958 212.899 243.834 212.96 240.927C213.012 238.468 213.042 236.415 213.05 234.769C214.627 235.724 216.442 236.893 218.498 238.257C220.901 239.871 223.393 241.472 225.975 243.06L226.397 243.32L226.661 242.9L228.013 240.744L228.287 240.307L227.841 240.047Z" fill="white" stroke="white"/>
</svg>
