<svg width="328" height="219" viewBox="0 0 328 219" fill="none" xmlns="http://www.w3.org/2000/svg">
<rect x="186.619" y="3.42432" width="140.457" height="140.457" rx="20" fill="#08243B"/>
<path fill-rule="evenodd" clip-rule="evenodd" d="M235.05 54.6554C238.672 55.9741 242.298 57.2936 245.921 58.6118C249.544 59.9301 253.167 61.2494 256.793 62.569C259.186 63.4399 261.149 67.001 261.149 70.4695C261.149 76.7805 261.149 83.0916 261.149 89.3977C261.149 95.7088 261.149 102.02 261.149 108.331C261.149 111.81 259.189 113.93 256.796 113.059C253.17 111.74 249.544 110.42 245.921 109.101C242.298 107.782 238.669 106.461 235.046 105.143C232.654 104.272 230.705 100.729 230.705 97.2551C230.705 90.9441 230.705 84.6328 230.705 78.3219C230.705 72.0058 230.705 65.6948 230.705 59.3835C230.705 55.9201 232.657 53.7845 235.05 54.6554ZM240.476 56.6287C238.789 56.0149 236.736 55.2693 235.05 54.6554C232.657 53.7847 230.705 55.9201 230.705 59.3835C230.705 53.0604 230.705 63.1554 230.705 56.8271C230.705 53.344 232.815 49.7184 235.4 48.7773C236.682 48.3108 237.965 47.8437 239.247 47.3771C237.5 48.0129 240.781 46.8213 239.446 47.3074C238.111 47.7933 237.187 48.1295 236.498 48.5253C233.88 50.0303 233.941 53.6156 236.708 55.0963C237.866 55.7158 239.241 56.1792 240.476 56.6289L240.476 56.6287Z" fill="#F1EFEC"/>
<path fill-rule="evenodd" clip-rule="evenodd" d="M243.744 45.7406C250.787 43.177 270.644 35.9484 277.697 33.3827C280.286 32.4408 282.412 34.5243 282.412 38.0125C282.412 44.3408 282.412 50.669 282.412 56.9925C282.412 63.3106 282.412 69.6492 282.412 75.9672C282.412 79.4555 280.288 83.0707 277.702 84.0077C273.28 85.6097 269.495 86.9946 265.001 88.6298C265.001 82.3237 264.895 74.7129 264.96 68.4021C265.001 64.4241 262.729 61.0866 260.439 60.2538C256.814 58.9349 253.613 57.7685 249.991 56.4503C248.755 56.0008 241.934 53.5539 240.777 52.9346C238.011 51.4543 238.117 47.7886 240.954 46.7557C241.769 46.4589 242.608 46.1563 243.943 45.6704C245.278 45.1845 241.998 46.3759 243.744 45.7402V45.7406Z" fill="#F1EFEC"/>
<path fill-rule="evenodd" clip-rule="evenodd" d="M245.77 89.7674C246.15 89.7494 246.461 89.4432 246.601 88.9539C247.003 87.5351 247.195 85.9943 247.173 84.3709C247.137 81.7825 246.57 79.0772 245.532 76.5387C245.304 75.9811 244.85 75.6948 244.519 75.907C244.19 76.1257 244.108 76.752 244.336 77.3149C245.21 79.4454 245.685 81.7188 245.715 83.8808C245.73 85.1082 245.599 86.2823 245.325 87.3791C243.097 84.0786 240.868 80.7836 238.64 77.4837C238.348 77.0492 237.964 76.8188 237.617 76.8538C237.267 76.893 236.999 77.1995 236.895 77.6717C236.743 78.3634 236.566 79.4804 236.566 80.9041C236.566 83.4083 237.553 86.0088 237.595 86.1202C237.815 86.6847 238.262 86.9841 238.6 86.7939C238.938 86.6038 239.036 85.9829 238.819 85.4146C238.81 85.3961 238.025 83.3029 238.025 81.435C238.025 80.6575 238.089 79.9841 238.168 79.4576C240.326 82.6573 242.494 85.8584 244.659 89.0596C244.884 89.3892 245.149 89.6168 245.42 89.7154C245.535 89.7577 245.654 89.7756 245.77 89.7671V89.7674Z" fill="#08243B"/>
<path fill-rule="evenodd" clip-rule="evenodd" d="M248.978 95.3531C250.384 92.8207 251.148 89.5393 251.179 85.8696C251.176 85.8594 251.176 85.8494 251.176 85.8392C251.145 82.1524 250.381 78.3097 248.978 74.7534C248.752 74.193 248.299 73.8965 247.967 74.0928C247.632 74.2991 247.544 74.9234 247.766 75.489C249.014 78.6444 249.69 82.0512 249.721 85.3238C249.69 88.5794 249.014 91.489 247.766 93.7357C247.544 94.1395 247.632 94.828 247.967 95.278C248.092 95.4446 248.232 95.5511 248.372 95.6022C248.606 95.6875 248.838 95.6051 248.978 95.3533V95.3531Z" fill="#08243B"/>
<path fill-rule="evenodd" clip-rule="evenodd" d="M254.262 91.8128C254.223 91.7985 254.18 91.778 254.137 91.7523C253.741 91.5124 253.474 90.8648 253.544 90.3147C253.684 89.179 253.763 88.001 253.769 86.7966C253.739 82.5393 252.886 78.1141 251.297 73.9922C251.078 73.4228 251.175 72.8068 251.513 72.6117C251.851 72.4216 252.302 72.7219 252.521 73.2864C253.388 75.5513 254.063 77.8899 254.515 80.2467C254.967 82.6077 255.209 84.984 255.227 87.3173C255.227 87.3273 255.227 87.3324 255.227 87.3375C255.218 88.657 255.136 89.9601 254.981 91.2012C254.92 91.6889 254.609 91.9395 254.262 91.8131V91.8128Z" fill="#08243B"/>
<path fill-rule="evenodd" clip-rule="evenodd" d="M252.522 99.399C253.085 98.3471 253.572 97.1811 253.962 95.9356C254.114 95.4507 253.937 94.7706 253.566 94.4132C253.194 94.056 252.768 94.1581 252.613 94.6368C252.254 95.7782 251.812 96.8395 251.298 97.8033C251.079 98.2133 251.173 98.899 251.511 99.34C251.633 99.5004 251.773 99.607 251.907 99.6557C252.147 99.7434 252.385 99.6621 252.522 99.399Z" fill="#F4F2F3"/>
<rect x="5.12598" y="4.10107" width="140.457" height="140.457" rx="20" fill="#447756"/>
<g clip-path="url(#clip0)">
<path d="M95.0399 113.341L113.341 113.341L113.341 95.0402C103.245 95.0403 95.0398 103.245 95.0399 113.341Z" fill="white"/>
<path d="M70.6386 113.341L82.8392 113.341C82.8392 96.5042 96.5038 82.8396 113.341 82.8396L113.341 70.639C89.7631 70.6388 70.6386 89.7633 70.6386 113.341Z" fill="white"/>
<path d="M46.2381 113.341L58.4388 113.341C58.4388 83.0225 83.023 58.4383 113.342 58.4383L113.342 46.2375C76.2821 46.2377 46.2381 76.2817 46.2381 113.341Z" fill="white"/>
</g>
<path d="M35.6558 50.6949L35.6558 35.6531L50.6975 35.6531C50.6975 43.9512 43.9538 50.695 35.6558 50.6949Z" fill="white"/>
<path d="M35.6548 70.7505L35.6549 60.7227C49.4933 60.7227 60.7244 49.4916 60.7244 35.6532L70.7522 35.6531C70.7523 55.0319 55.0337 70.7505 35.6548 70.7505Z" fill="white"/>
<path d="M78.7568 165.218V197.437C78.7568 208.482 87.7112 217.437 98.7569 217.437H236.815C247.861 217.437 256.815 208.482 256.815 197.437V165.218" stroke="#C0BCBA" stroke-width="2.5"/>
<path d="M257.698 160.054C257.21 159.565 256.419 159.565 255.931 160.054L247.976 168.009C247.487 168.497 247.487 169.288 247.976 169.776C248.464 170.264 249.255 170.264 249.743 169.776L256.814 162.705L263.886 169.776C264.374 170.264 265.165 170.264 265.653 169.776C266.141 169.288 266.141 168.497 265.653 168.009L257.698 160.054ZM255.564 160.937L255.564 169.139L258.064 169.139L258.064 160.938L255.564 160.937Z" fill="#C0BCBA"/>
<path d="M79.6407 160.91C79.1526 160.421 78.3611 160.421 77.873 160.91L69.918 168.865C69.4298 169.353 69.4298 170.144 69.918 170.632C70.4062 171.12 71.1976 171.12 71.6858 170.632L78.7568 163.561L85.8279 170.632C86.3161 171.12 87.1075 171.12 87.5957 170.632C88.0838 170.144 88.0838 169.353 87.5957 168.865L79.6407 160.91ZM77.5068 161.793L77.5068 169.995L80.0068 169.995L80.0068 161.793L77.5068 161.793Z" fill="#C0BCBA"/>
<defs>
<clipPath id="clip0">
<rect width="94.8986" height="94.8986" fill="white" transform="translate(22.5137 89.6167) rotate(-45)"/>
</clipPath>
</defs>
</svg>
