<svg width="107" height="97" viewBox="0 0 107 97" fill="none" xmlns="http://www.w3.org/2000/svg">
<g clip-path="url(#clip0)">
<path d="M72.1286 5.5582L64.0267 0.841067C63.2426 0.319054 62.3282 0.0277401 61.3873 0.000198491C60.4463 -0.0273431 59.5165 0.209991 58.7034 0.685256L8.32814 30.1198C5.75051 31.6247 3.62002 33.7911 2.15624 36.3956C0.692472 39.0001 -0.0516321 41.9487 0.000621038 44.9373L0.388544 67.0111C0.405194 67.9806 0.652126 68.9321 1.10889 69.787C1.56566 70.6418 2.21911 71.3754 3.01514 71.9268L11.922 76.406L22.7531 43.9647L72.1286 5.5582Z" fill="#08243B"/>
<path d="M11.9629 75.8597L11.4502 84.3317L19.7008 89.6258L23.2673 69.7368C23.2673 69.7368 12.1611 72.4096 11.9629 75.8597Z" fill="#08243B"/>
<path d="M69.131 5.50519L14.668 37.229C13.1297 38.125 11.8531 39.4099 10.9657 40.9552C10.0784 42.5005 9.61133 44.2521 9.61133 46.0349V72.2317C9.61118 73.0943 9.83769 73.9418 10.2681 74.689C10.6985 75.4361 11.3176 76.0566 12.0632 76.488C12.8089 76.9194 13.6547 77.1465 14.5157 77.1466C15.3767 77.1466 16.2225 76.9195 16.9682 76.4882L21.5327 73.8565L19.699 89.626L33.3002 66.9666L73.4836 43.6943V8.01529C73.4812 7.506 73.3455 7.00626 73.09 6.56597C72.8345 6.12568 72.4682 5.76026 72.0277 5.5062C71.5871 5.25214 71.0878 5.11834 70.5795 5.11816C70.0711 5.11799 69.5717 5.25144 69.131 5.50519Z" fill="#9AA0A6"/>
<path d="M27.4251 51.9941C28.8225 49.4068 28.6681 46.6114 27.0802 45.7505C25.4923 44.8895 23.0722 46.289 21.6748 48.8763C20.2774 51.4636 20.4318 54.259 22.0197 55.1199C23.6076 55.9809 26.0277 54.5814 27.4251 51.9941Z" fill="#F1EFEC"/>
<path d="M39.3763 45.1372C40.7737 42.5499 40.6193 39.7545 39.0313 38.8936C37.4434 38.0326 35.0234 39.4321 33.6259 42.0194C32.2285 44.6067 32.383 47.402 33.9709 48.263C35.5588 49.1239 37.9788 47.7245 39.3763 45.1372Z" fill="#F1EFEC"/>
<path d="M51.4476 37.8667C52.845 35.2794 52.6906 32.484 51.1027 31.623C49.5148 30.7621 47.0947 32.1616 45.6972 34.7489C44.2998 37.3362 44.4542 40.1315 46.0422 40.9925C47.6301 41.8534 50.0501 40.454 51.4476 37.8667Z" fill="#F1EFEC"/>
<path d="M62.7933 31.2817C64.1907 28.6944 64.0363 25.899 62.4484 25.0381C60.8605 24.1771 58.4404 25.5766 57.043 28.1639C55.6455 30.7512 55.7999 33.5466 57.3879 34.4075C58.9758 35.2685 61.3959 33.869 62.7933 31.2817Z" fill="#F1EFEC"/>
<path d="M103.379 31.5631L95.6721 27.0035C95.2222 26.7378 94.7101 26.5961 94.1879 26.5928C93.6656 26.5895 93.1518 26.7247 92.6986 26.9847L46.0163 53.8321C43.7065 55.1604 41.7874 57.0759 40.4527 59.385C39.1181 61.6941 38.4152 64.3152 38.415 66.9836V87.7767C38.4143 88.341 38.5601 88.8959 38.8382 89.3867C39.1162 89.8775 39.5169 90.2874 40.0009 90.5761L49.5161 96.2538C49.5161 96.2538 56.2168 68.1582 56.5227 67.9287C56.8285 67.6993 103.379 31.5631 103.379 31.5631Z" fill="#08243B"/>
<path d="M47.4053 70.8274V92.3841C47.4062 93.2009 47.6237 94.0027 48.0355 94.7076C48.4473 95.4125 49.0387 95.995 49.7491 96.3957C50.4594 96.7963 51.2633 97.0006 52.0784 96.9877C52.8935 96.9748 53.6905 96.7451 54.3879 96.3222L85.7088 77.3407C85.7088 77.3407 97.0166 83.9241 97.0166 83.2101C97.0166 82.4961 95.9913 72.0808 96.304 71.5671C96.4749 71.2949 99.486 69.259 102.275 67.415C103.728 66.4536 104.92 65.1463 105.744 63.6101C106.569 62.0739 107 60.3568 107 58.6125V35.996C107 35.1983 106.789 34.4148 106.39 33.7248C105.991 33.0347 105.417 32.4625 104.726 32.066C104.035 31.6696 103.252 31.4629 102.456 31.4669C101.66 31.4708 100.879 31.6853 100.192 32.0887L54.0632 59.1844C52.0363 60.3747 50.3553 62.0755 49.1874 64.118C48.0194 66.1604 47.4051 68.4735 47.4053 70.8274Z" fill="#9AA0A6"/>
<path d="M62.3518 75.3745C63.7493 72.7872 63.5948 69.9918 62.0069 69.1309C60.419 68.2699 57.999 69.6694 56.6015 72.2567C55.2041 74.844 55.3585 77.6393 56.9464 78.5003C58.5343 79.3612 60.9544 77.9618 62.3518 75.3745Z" fill="#F1EFEC"/>
<path d="M74.2698 68.8012C75.6672 66.2139 75.5128 63.4186 73.9249 62.5576C72.337 61.6967 69.9169 63.0961 68.5195 65.6834C67.1221 68.2707 67.2765 71.0661 68.8644 71.9271C70.4523 72.788 72.8724 71.3885 74.2698 68.8012Z" fill="#F1EFEC"/>
<path d="M86.1751 61.6709C87.5726 59.0836 87.4181 56.2882 85.8302 55.4272C84.2423 54.5663 81.8222 55.9658 80.4248 58.5531C79.0274 61.1404 79.1818 63.9357 80.7697 64.7967C82.3576 65.6576 84.7777 64.2582 86.1751 61.6709Z" fill="#F1EFEC"/>
<path d="M97.6351 55.0878C99.0325 52.5005 98.8781 49.7052 97.2901 48.8442C95.7022 47.9833 93.2822 49.3828 91.8847 51.9701C90.4873 54.5574 90.6417 57.3527 92.2296 58.2137C93.8176 59.0746 96.2376 57.6751 97.6351 55.0878Z" fill="#F1EFEC"/>
</g>
<defs>
<clipPath id="clip0">
<rect width="107" height="97" fill="white"/>
</clipPath>
</defs>
</svg>
