<svg width="119" height="119" viewBox="0 0 119 119" fill="none" xmlns="http://www.w3.org/2000/svg">
<path d="M75.5714 33.89C65.7912 33.89 56.011 33.89 46.2308 33.89C38.9496 33.89 34.0014 38.8714 33.9931 46.1194C33.9931 58.9714 33.9931 71.8181 33.9931 84.6591C33.9796 85.8308 34.1135 86.9995 34.3916 88.1378C35.7947 93.5177 40.3278 96.9216 46.2225 96.9382C54.9621 96.9714 63.7073 96.9714 72.4581 96.9382C73.1978 96.9114 73.9345 97.0463 74.617 97.333C75.2995 97.6198 75.9113 98.0515 76.41 98.5987C82.122 104.352 87.9004 110.056 93.6457 115.776C94.3016 116.432 94.9409 117.113 95.9787 116.706C97.0165 116.299 97.0497 115.295 97.0497 114.324C97.0497 109.896 97.0497 105.468 97.0497 101.04C97.0497 98.0924 98.1871 96.9797 101.143 96.9548C103.393 96.9548 105.659 97.1458 107.876 96.6228C113.364 95.3193 116.942 90.7199 116.95 84.875C116.95 72.0727 116.851 59.2705 117 46.4765C117.092 39.2368 111.72 33.699 104.381 33.8484C94.7749 34.0394 85.1773 33.89 75.5714 33.89Z" stroke="white" stroke-width="3" stroke-linecap="round" stroke-linejoin="round"/>
<path d="M33.8899 46.1026C29.7636 50.262 22.9557 56.9954 18.8045 61.1466C18.3561 61.6198 17.9161 62.1263 17.144 61.8191C16.3719 61.5119 16.3719 60.7979 16.3719 60.1005C16.3719 56.9123 16.3719 53.7242 16.3719 50.5361C16.3719 48.4107 15.5499 47.5804 13.4162 47.5804C11.7909 47.686 10.1588 47.608 8.551 47.3479C6.64339 46.9162 4.94617 45.8325 3.7519 44.2836C2.55763 42.7347 1.94115 40.8176 2.00872 38.8629C2.00872 29.6224 2.11665 20.3819 2.00872 11.1413C1.95449 9.9276 2.15363 8.71581 2.5934 7.58324C3.03316 6.45067 3.70393 5.42219 4.56303 4.56309C5.42214 3.70398 6.45071 3.03307 7.58329 2.5933C8.71586 2.15353 9.9276 1.95449 11.1413 2.00873C18.0406 2.14987 24.9731 2.05028 31.8973 2.05028C38.9709 2.05028 46.0197 2.05028 53.085 2.05028C58.3321 2.05858 61.9187 5.63682 61.9187 10.8839V33.549" stroke="white" stroke-width="3" stroke-linecap="round" stroke-linejoin="round"/>
<path d="M52.0321 51.9644H44.8672" stroke="white" stroke-width="3" stroke-linecap="round" stroke-linejoin="round"/>
<path d="M103.29 51.8142L56.7969 51.8142" stroke="white" stroke-width="3" stroke-linecap="round" stroke-linejoin="round"/>
<path d="M67.5883 64.2678H45.1719" stroke="white" stroke-width="3" stroke-linecap="round" stroke-linejoin="round"/>
<path d="M99.9682 64.2678L72.5703 64.2678" stroke="white" stroke-width="3" stroke-linecap="round" stroke-linejoin="round"/>
<path d="M89.891 77.4443H44.8672" stroke="white" stroke-width="3" stroke-linecap="round" stroke-linejoin="round"/>
</svg>
