<svg width="98" height="105" viewBox="0 0 98 105" fill="none" xmlns="http://www.w3.org/2000/svg">
<g clip-path="url(#clip0)">
<path d="M57.9886 5.37958L51.7978 0.791271C51.361 0.466749 50.8625 0.234557 50.3329 0.108865C49.8033 -0.0168265 49.2536 -0.0333822 48.7173 0.0602086L41.4841 1.30918C40.7565 1.43554 40.0886 1.79149 39.5783 2.32483C39.0681 2.85818 38.7423 3.54084 38.6488 4.2727C38.4616 5.76848 38.2221 7.57089 38.0518 8.73947C37.9837 9.21209 37.8103 9.66341 37.5444 10.0602C37.2785 10.4569 36.9268 10.7889 36.5153 11.0318L33.2046 12.9912C32.5729 13.3662 31.8518 13.564 31.117 13.564C30.3822 13.564 29.6611 13.3662 29.0294 12.9912L25.2396 10.7289C24.5657 10.3249 23.7759 10.1577 22.9959 10.2539C22.2159 10.3502 21.4906 10.7043 20.9352 11.2599L14.9072 17.2785C14.4177 17.7681 14.0924 18.3974 13.976 19.0796C13.8597 19.7618 13.9582 20.4632 14.2578 21.0871L16.0769 24.8677C16.2512 25.2303 16.3375 25.6289 16.3288 26.0311C16.32 26.4333 16.2164 26.8278 16.0263 27.1824L13.2023 32.47C12.8972 33.0408 12.4428 33.5182 11.8874 33.8511C11.332 34.184 10.6965 34.36 10.0488 34.3603H6.74755C5.93788 34.3606 5.14937 34.6187 4.49651 35.0972C3.84364 35.5756 3.36038 36.2495 3.11688 37.0209L0.0906968 46.5116C-0.0445108 46.9365 -0.0264374 47.3953 0.141776 47.8083C0.30999 48.2213 0.61771 48.5623 1.01146 48.7721L5.20358 51.0158C5.57416 51.2132 5.8867 51.5038 6.11025 51.859C6.33379 52.2142 6.46058 52.6215 6.47805 53.0407L6.68766 58.1301C6.72176 58.9555 6.54335 59.7759 6.16949 60.5128C5.79563 61.2496 5.23882 61.8784 4.5523 62.3389L1.50928 64.3713C0.953693 64.7416 0.528425 65.2767 0.293399 65.9013C0.0583744 66.5259 0.0254418 67.2084 0.199243 67.8527L2.05949 74.6622C2.27091 75.4418 2.66271 76.1608 3.20331 76.7613C3.74391 77.3618 4.41818 77.827 5.17176 78.1193L12.9646 81.1464L22.41 74.9128L21.9084 36.834L57.9886 5.37958Z" fill="#08243B"/>
<path d="M30.0508 79.6035C30.0508 79.6035 36.12 82.6418 40.881 81.1461L42.7974 59.4573L36.7207 56.1927C35.8786 55.7399 35.1775 55.0642 34.6943 54.2397C34.211 53.4152 33.9642 52.4737 33.9809 51.5184C34.0426 47.779 34.1418 41.6724 34.183 38.4303C34.192 37.6887 34.3678 36.9585 34.6972 36.2937C35.0266 35.629 35.5014 35.0467 36.0863 34.5899L42.3146 29.7286C42.7095 29.4213 43.186 29.2366 43.685 29.1974C44.1841 29.1582 44.6837 29.2662 45.1218 29.508L49.6227 32.006C49.7453 32.0743 49.8475 32.1741 49.9185 32.295C49.9896 32.416 50.027 32.5538 50.0269 32.694V42.7905C50.0269 42.7905 55.1679 42.3661 55.0107 42.0819C54.889 41.865 54.9527 32.8903 54.9901 28.6554C54.99 28.4283 55.049 28.2051 55.1614 28.0078C55.2737 27.8104 55.4355 27.6456 55.6309 27.5296C55.8263 27.4136 56.0486 27.3504 56.2758 27.3462C56.5031 27.3419 56.7275 27.3969 56.9271 27.5055L68.7792 33.8028C69.4027 34.133 69.924 34.6271 70.2868 35.2318C70.6496 35.8365 70.8402 36.5287 70.8378 37.2337L70.7704 50.5424C70.7867 51.599 70.5471 52.6439 70.072 53.588C69.5969 54.5321 68.9004 55.3475 68.0418 55.9646L62.098 60.2295L63.1891 72.8408C63.1891 72.8408 73.3793 63.7034 74.2308 50.0301C74.2308 50.0301 76.557 34.1805 64.7162 24.3831C64.7162 24.3831 79.0555 23.7287 82.3904 35.923C85.7254 48.1174 82.3455 76.4456 70.5178 84.0535C56.9514 92.772 30.6927 93.002 30.0508 79.6035Z" fill="#08243B"/>
<path d="M15.0766 80.815L15.4734 81.417C15.8009 81.9129 15.997 82.4837 16.0431 83.076C16.0893 83.6683 15.984 84.2626 15.7373 84.8031L14.8689 86.7065C14.3926 87.7525 14.317 88.9367 14.6565 90.0346C14.9959 91.1326 15.7267 92.0679 16.7104 92.6634L30.0503 100.724L36.1195 91.2836L20.8876 76.6997L15.0766 80.815Z" fill="#08243B"/>
<path d="M37.2295 93.8115C37.2295 94.3724 37.7254 96.3394 38.139 97.8838C38.3042 98.5031 38.5978 99.0807 39.0008 99.5793C39.4038 100.078 39.9072 100.486 40.4784 100.778L48.7578 105C48.7578 105 49.6131 96.4591 49.3024 95.986C48.9917 95.513 37.2295 93.8115 37.2295 93.8115Z" fill="#08243B"/>
<path d="M66.2129 90.7862L72.6545 94.3929C73.2872 94.7475 74.0149 94.8961 74.7361 94.818C75.4573 94.74 76.1362 94.439 76.6782 93.9572L83.9583 86.77L66.2129 90.7862Z" fill="#08243B"/>
<path d="M95.0327 29.7172L88.1812 23.7846C87.7801 23.4376 87.2912 23.2076 86.7679 23.1199C86.2447 23.0322 85.7074 23.0901 85.2149 23.2872L81.6348 24.7175L87.0246 31.5233L95.0327 29.7172Z" fill="#08243B"/>
<path d="M82.8907 13.0638L69.4422 4.39388C68.9772 4.09391 68.4187 3.97327 67.8712 4.05447C67.3236 4.13567 66.8244 4.41315 66.4666 4.83513L62.4298 9.59545L59.8266 10.3172C59.8266 10.3172 59.0237 14.8886 59.8266 15.0775C60.6294 15.2663 82.8027 18.7926 82.8027 18.7926L83.8788 16.3751C84.136 15.796 84.1777 15.1443 83.9965 14.5372C83.8154 13.9301 83.4232 13.4076 82.8907 13.0638Z" fill="#08243B"/>
<path d="M91.19 45.5408C91.1899 45.1269 91.2924 44.7193 91.4884 44.3546C91.6843 43.9898 91.9676 43.6792 92.3129 43.4505C94.2443 42.1622 98.006 39.6007 98.006 39.18C98.006 38.7593 96.346 33.4998 95.3429 30.3493C95.1446 29.7265 94.7112 29.2055 94.1346 28.8969C93.558 28.5882 92.8837 28.5163 92.2549 28.6965L88.3491 29.8183C87.8523 29.9597 87.324 29.9449 86.8358 29.776C86.3477 29.6071 85.9234 29.2922 85.6205 28.8741L81.8776 23.6912C81.6083 23.3189 81.4462 22.88 81.4089 22.4222C81.3716 21.9644 81.4606 21.5051 81.6661 21.0942L83.8183 16.7938C84.1022 16.2264 84.1611 15.5729 83.983 14.964C83.805 14.3551 83.4032 13.836 82.8582 13.5106L76.4353 9.68511C75.9116 9.37312 75.2923 9.26181 74.6926 9.37187C74.093 9.48192 73.5537 9.80586 73.1752 10.2834L70.1041 14.1724C69.8395 14.5053 69.4946 14.7657 69.1019 14.9292C68.7091 15.0927 68.2812 15.154 67.8583 15.1073C65.3562 14.8287 60.3556 14.2435 60.3556 14.0322C60.3556 13.8209 59.7941 10.0104 59.403 7.36104C59.3539 7.03253 59.2402 6.71698 59.0684 6.43266C58.8965 6.14833 58.6699 5.90087 58.4017 5.70457C58.1336 5.50827 57.8291 5.36704 57.5059 5.28903C57.1828 5.21103 56.8473 5.1978 56.519 5.25012L49.632 6.29903C49.1131 6.37852 48.6321 6.61808 48.2563 6.98417C47.8805 7.35027 47.6286 7.82459 47.5359 8.34077L46.4561 14.3688C46.3905 14.7377 46.243 15.0873 46.0244 15.3917C45.8057 15.6962 45.5216 15.9479 45.1928 16.1282L39.2228 19.4114C38.8045 19.6412 38.3293 19.7475 37.8528 19.7177C37.3763 19.6879 36.9181 19.5233 36.5316 19.2431L32.6427 16.418C32.162 16.0692 31.5733 15.9016 30.9808 15.9447C30.3883 15.9878 29.8301 16.2389 29.405 16.6536L23.8617 22.0627C23.4917 22.4242 23.2423 22.8908 23.1476 23.3991C23.0528 23.9074 23.1172 24.4325 23.3321 24.9028L25.0277 28.6198C25.1849 28.9639 25.2623 29.3389 25.2542 29.7171C25.2461 30.0952 25.1527 30.4666 24.9809 30.8036L21.2173 38.1816C21.0062 38.5951 20.6847 38.9422 20.2883 39.1845C19.892 39.4267 19.4362 39.5546 18.9715 39.554H13.8849C13.3212 39.5539 12.7739 39.743 12.3307 40.0908C11.8875 40.4387 11.5741 40.9252 11.4407 41.4723L9.30349 50.2525C9.16011 50.8428 9.23561 51.4651 9.51602 52.004C9.79643 52.543 10.2628 52.9623 10.8287 53.1843L13.956 54.4089C14.4369 54.598 14.8478 54.9303 15.1331 55.3608C15.4184 55.7913 15.5641 56.2991 15.5505 56.8153L15.3484 64.2942C15.3374 64.6839 15.236 65.0657 15.0522 65.4097C14.8684 65.7536 14.6072 66.0502 14.2891 66.2761L10.1981 69.1797C9.78235 69.4742 9.46599 69.8879 9.29087 70.3661C9.11575 70.8442 9.09013 71.3642 9.2174 71.8572L11.1394 79.295C11.2259 79.6286 11.3801 79.941 11.5924 80.2126C11.8048 80.4842 12.0707 80.7093 12.3738 80.874C12.6769 81.0386 13.0106 81.1393 13.3543 81.1696C13.6979 81.2 14.0441 81.1595 14.3715 81.0506L17.5399 79.9942C18.0254 79.8326 18.5487 79.8229 19.0399 79.9662C19.5311 80.1095 19.9669 80.3991 20.2891 80.7963L23.9927 85.3603C24.261 85.6905 24.4409 86.0833 24.5155 86.5019C24.5902 86.9205 24.5571 87.3512 24.4194 87.7536L22.6116 93.0543C22.4411 93.5514 22.431 94.0894 22.5828 94.5925C22.7346 95.0957 23.0405 95.5386 23.4575 95.8588L29.2404 100.313C29.7474 100.703 30.3843 100.885 31.0214 100.823C31.6584 100.76 32.2476 100.457 32.6689 99.976L36.2865 95.8402C36.574 95.5114 36.9424 95.2631 37.3552 95.1198C37.768 94.9765 38.2111 94.9432 38.6408 95.0231L44.0269 96.0253C44.5599 96.1239 45.0466 96.392 45.4146 96.7896C45.7825 97.1872 46.012 97.693 46.0687 98.2315L46.544 102.753C46.5798 103.089 46.6831 103.414 46.8479 103.71C47.0126 104.005 47.2353 104.264 47.5026 104.472C47.77 104.679 48.0765 104.831 48.4038 104.917C48.7311 105.003 49.0724 105.022 49.4074 104.974L57.5278 103.815C58.069 103.738 58.5704 103.487 58.9558 103.099C59.3412 102.712 59.5895 102.209 59.6631 101.668L60.4491 95.8551C60.5037 95.4573 60.6529 95.0782 60.884 94.7497C61.1152 94.4212 61.4217 94.1527 61.7779 93.9667L67.8228 90.8199C68.3097 90.5677 68.8659 90.4815 69.4064 90.5743C69.947 90.6671 70.4424 90.9339 70.8171 91.3341L73.0928 93.7648C73.5482 94.2519 74.1784 94.5385 74.8452 94.5617C75.5119 94.5848 76.1606 94.3426 76.6487 93.8882L83.3317 87.6601C83.7157 87.3026 83.9781 86.834 84.0821 86.32C84.1861 85.806 84.1266 85.2723 83.9119 84.7938L81.8813 80.271C81.7137 79.8981 81.6397 79.4899 81.6658 79.082C81.6918 78.674 81.8172 78.2786 82.031 77.9301L86.152 71.2364C86.4119 70.8148 86.7902 70.4789 87.2397 70.2704C87.6893 70.062 88.1903 69.9902 88.6804 70.0641C89.7602 70.2249 91.1863 70.3539 92.3092 70.4381C92.8208 70.4762 93.3301 70.3383 93.7523 70.0471C94.1745 69.7559 94.4842 69.3291 94.6298 68.8376C95.3167 66.506 96.5443 62.3478 97.3023 59.7919C97.4893 59.1626 97.4222 58.4852 97.1155 57.9047C96.8087 57.3242 96.2866 56.8869 95.661 56.6862L92.9343 55.8112C92.4274 55.6481 91.9854 55.3285 91.672 54.8984C91.3585 54.4684 91.1898 53.95 91.19 53.418V45.5408ZM80.1689 66.6257C73.4503 84.1207 55.9782 93.6937 41.1411 88.0079C26.304 82.322 19.7239 63.5276 26.4425 46.0344C33.1611 28.5413 50.6332 18.9664 65.4703 24.6541C80.3074 30.3418 86.8875 49.1326 80.1689 66.6257Z" fill="#9AA0A6"/>
<path d="M47.338 85.3997C47.338 85.3997 56.9181 86.3215 63.021 82.3521L61.1046 59.7378L67.5706 54.6764C68.2071 54.1775 68.7222 53.5409 69.0771 52.8146C69.432 52.0882 69.6176 51.2909 69.6198 50.4826C69.6198 47.3695 69.6367 42.1455 69.6198 38.7221C69.6166 37.6556 69.309 36.6121 68.7333 35.714C68.1575 34.8159 67.3374 34.1004 66.3691 33.6514C64.0915 32.595 61.4471 31.361 61.4471 31.3198V43.9741C61.447 44.5159 61.2518 45.0395 60.8972 45.4494C60.5426 45.8593 60.0523 46.128 59.5157 46.2066L50.469 47.5266C50.3258 47.5478 50.1797 47.538 50.0406 47.4977C49.9015 47.4575 49.7728 47.3878 49.6631 47.2935C49.5533 47.1991 49.4652 47.0822 49.4047 46.9508C49.3442 46.8194 49.3127 46.6765 49.3124 46.5319C49.2993 43.559 49.2713 35.7548 49.2956 33.326C49.2962 33.2621 49.2785 33.1992 49.2447 33.1449C49.2108 33.0906 49.1621 33.0471 49.1044 33.0194C49.0467 32.9917 48.9822 32.9811 48.9186 32.9887C48.855 32.9963 48.7949 33.0219 48.7454 33.0624L42.8034 37.9143C42.047 38.532 41.4417 39.3141 41.0337 40.201C40.6257 41.0878 40.4257 42.056 40.4491 43.0318L40.7336 54.7811C40.752 55.6122 41.0045 56.4213 41.4619 57.1157C41.9193 57.8102 42.5632 58.3618 43.3199 58.7076L49.3087 61.4542L47.338 85.3997Z" fill="#F1EFEC"/>
</g>
<defs>
<clipPath id="clip0">
<rect width="98" height="105" fill="white"/>
</clipPath>
</defs>
</svg>
