<svg width="111" height="103" viewBox="0 0 111 103" fill="none" xmlns="http://www.w3.org/2000/svg">
<path d="M93.4246 9.30504C93.4388 8.48014 93.3979 7.65516 93.3024 6.83569C92.7622 3.70408 90.5695 2.03215 87.1935 2C84.6856 2 82.1778 2 79.6699 2H7.89348C4.3696 2 2.23466 3.92913 1.74595 6.82926C1.68873 7.18642 1.66291 7.54786 1.66879 7.90953C1.66879 32.0879 1.66879 56.2642 1.66879 80.4384C1.66879 83.5764 3.59789 86.3544 7.59119 86.4573C8.05418 86.4573 8.52363 86.4573 8.98662 86.4573" stroke="white" stroke-width="3" stroke-linecap="round" stroke-linejoin="round"/>
<path d="M100.735 31.4385H23.5703" stroke="white" stroke-width="3" stroke-linecap="round" stroke-linejoin="round"/>
<path d="M51.1923 66.2592C51.366 70.8634 53.4751 74.3036 57.6228 76.2263C59.1345 76.923 60.7853 77.2653 62.4494 77.227C64.1134 77.1887 65.7468 76.771 67.2248 76.0056C68.7029 75.2402 69.9867 74.1474 70.9782 72.8105C71.9698 71.4736 72.643 69.9279 72.9464 68.2913C73.2242 66.8613 73.2135 65.3903 72.9147 63.9646C72.616 62.5388 72.0352 61.1872 71.2067 59.989C70.3782 58.7909 69.3187 57.7703 68.0902 56.9875C66.8617 56.2047 65.4892 55.6753 64.0532 55.4304C61.5306 54.9814 58.9304 55.4327 56.7067 56.7055C54.483 57.9784 52.7771 59.9919 51.8868 62.3945C51.4772 63.6124 51.2328 64.8799 51.1602 66.1628" stroke="white" stroke-width="3" stroke-linecap="round" stroke-linejoin="round"/>
<path d="M39.2031 82.0074C41.4209 84.5799 43.8238 86.9871 46.3924 89.2096C47.582 88.7851 48.2443 87.8527 49.0481 87.1004C49.2346 86.9267 49.4082 86.7466 49.5818 86.5666C51.0416 85.0747 51.093 85.2805 52.7971 86.065C53.6909 86.483 54.6104 86.8045 55.5107 87.1839C55.8894 87.3109 56.2129 87.5644 56.4271 87.9015C56.6414 88.2386 56.7333 88.6391 56.6875 89.0359C56.6875 90.0069 56.6875 90.9651 56.6875 91.9361C56.7261 93.3057 57.1376 93.7429 58.5073 93.7558C60.9423 93.7815 63.3794 93.7815 65.8187 93.7558C67.1884 93.7558 67.5999 93.3057 67.6385 91.9361C67.6385 91.0101 67.6385 90.0776 67.6385 89.1452C67.6385 87.8913 67.8636 87.5119 69.0403 87.1197C70.1054 86.7666 71.1434 86.3368 72.1462 85.8336C72.4826 85.6077 72.8912 85.5154 73.292 85.5749C73.6928 85.6343 74.0569 85.8413 74.3132 86.1551C75.3936 87.229 76.326 88.4765 77.7021 89.1967C78.5808 88.7407 79.3593 88.113 79.9914 87.3511C81.3546 85.9878 82.7371 84.644 84.0747 83.2614C85.245 82.0461 85.2322 81.5638 84.0747 80.3677C83.3738 79.6411 82.6536 78.9272 81.9269 78.2199C81.6866 78.0137 81.5251 77.7306 81.47 77.4188C81.4149 77.1069 81.4695 76.7856 81.6246 76.5095C82.2202 75.3156 82.7442 74.0874 83.1937 72.8313C83.3121 72.4767 83.5518 72.1753 83.8706 71.9801C84.1893 71.7848 84.5667 71.7081 84.9363 71.7637C85.9395 71.7894 86.9427 71.7894 87.9458 71.7637C89.1676 71.7316 89.727 71.2622 89.7592 70.0469C89.8106 67.5454 89.817 65.0312 89.7592 62.5297C89.7592 61.2436 89.1804 60.7677 87.83 60.7099C86.8333 60.6648 85.8238 60.6713 84.8271 60.7099C84.4586 60.7611 84.0839 60.6809 83.7687 60.4833C83.4535 60.2857 83.2181 59.9835 83.1037 59.6296C82.6471 58.44 82.2356 57.231 81.6826 56.0929C81.5004 55.7828 81.4353 55.4178 81.499 55.0639C81.5627 54.71 81.7509 54.3908 82.0298 54.1637C82.8207 53.3792 83.6438 52.6203 84.3833 51.7908C84.8785 51.2313 85.2065 50.5947 84.5055 49.8616C82.3771 47.6174 80.2486 45.3604 77.9079 43.3477C76.6218 43.8621 75.8309 44.9168 74.9435 45.7913C73.2137 47.4889 73.4323 47.3474 71.4068 46.4022C70.5837 46.0163 69.7477 45.6948 68.9118 45.3797C68.4955 45.2651 68.1353 45.0028 67.8985 44.6418C67.6618 44.2808 67.5648 43.8459 67.6257 43.4185C67.6257 42.4539 67.6642 41.4894 67.6257 40.5184C67.5742 39.2966 67.1948 38.8399 66.0181 38.8142C63.4459 38.7628 60.8737 38.7628 58.3015 38.8142C57.1248 38.8142 56.7453 39.2966 56.7003 40.5184C56.6553 41.5215 56.7003 42.5246 56.7003 43.5278C56.7514 43.9246 56.6608 44.3267 56.4443 44.6631C56.2278 44.9996 55.8994 45.2488 55.5171 45.3668C54.3918 45.7848 53.2922 46.2864 52.1798 46.7494C51.8264 46.9313 51.4218 46.9883 51.0319 46.9113C50.642 46.8342 50.2896 46.6275 50.0319 46.3249C49.3889 45.6819 48.7459 45.0388 48.1028 44.3958C47.712 43.9752 47.2335 43.6459 46.701 43.4312" stroke="white" stroke-width="3" stroke-linecap="round" stroke-linejoin="round"/>
<path d="M46.4816 43.1675C44.4624 44.7494 41.826 47.6688 40.0512 49.5015C39.1702 50.4211 39.1959 50.9097 40.0512 51.8486C40.7971 52.6717 41.6137 53.4368 42.4046 54.2213C42.6516 54.448 42.817 54.7498 42.8751 55.0799C42.9333 55.4101 42.8809 55.7503 42.7262 56.0476C42.231 57.1987 41.6587 58.3177 41.2408 59.4944C41.1334 59.8846 40.8854 60.2212 40.5447 60.4397C40.204 60.6581 39.7946 60.7428 39.3952 60.6775C38.4307 60.6389 37.4661 60.6389 36.4951 60.6775C35.2733 60.729 34.8168 61.1084 34.791 62.2787C34.7396 64.8509 34.7332 67.423 34.791 69.9952C34.8232 71.3134 35.2797 71.6801 36.6044 71.7122C37.5689 71.7122 38.5335 71.7122 39.5045 71.7122C39.8707 71.6712 40.24 71.7557 40.552 71.952C40.8639 72.1482 41.0999 72.4446 41.2215 72.7925C41.6909 73.9371 42.0895 75.1138 42.6361 76.2198C42.8538 76.5592 42.9393 76.9667 42.8765 77.3649C42.8137 77.7632 42.6069 78.1246 42.2954 78.3805C41.6523 78.985 41.08 79.6023 40.4691 80.2068C39.9662 80.6329 39.594 81.1924 39.3952 81.8209" stroke="white" stroke-width="3" stroke-linecap="round" stroke-linejoin="round"/>
<path d="M34.7518 40.4668H23.582" stroke="white" stroke-width="3" stroke-linecap="round" stroke-linejoin="round"/>
<path d="M103.11 16.7065H22.1766C18.9164 16.7065 16.2734 19.3495 16.2734 22.6097V95.1771C16.2734 98.4373 18.9164 101.08 22.1766 101.08H103.11C106.37 101.08 109.013 98.4373 109.013 95.1771V22.6097C109.013 19.3495 106.37 16.7065 103.11 16.7065Z" stroke="white" stroke-width="3" stroke-linecap="round" stroke-linejoin="round"/>
<path d="M15.782 9.96094H7.98828" stroke="white" stroke-width="3" stroke-linecap="round" stroke-linejoin="round"/>
</svg>
