<svg width="73" height="102" viewBox="0 0 73 102" fill="none" xmlns="http://www.w3.org/2000/svg">
<g clip-path="url(#clip0)">
<path d="M31.4353 8.72163C28.9635 13.5956 19.9995 28.8572 2.93911 33.0556C2.35435 33.1959 1.82698 33.5113 1.42823 33.9593C1.02947 34.4073 0.778544 34.9661 0.709338 35.5605C-0.606055 46.9143 -4.49347 100.919 39.6318 101.209L72.5651 4.76053L65.2656 0.422925C64.7063 0.0885087 64.052 -0.0539286 63.4034 0.0175125C62.7548 0.0889536 62.1477 0.370318 61.6755 0.818348C57.4769 4.81383 45.5312 13.3498 33.6045 7.94798C33.2124 7.77369 32.7678 7.75687 32.3635 7.90105C31.9593 8.04523 31.6267 8.33924 31.4353 8.72163Z" fill="#08243B"/>
<path d="M40.4988 14.7011C37.2976 19.8365 25.8065 36.7433 12.1513 38.9646C11.5764 39.054 11.0464 39.3269 10.6411 39.7421C10.2357 40.1574 9.97714 40.6924 9.90427 41.2666C8.57851 52.0978 4.56665 101.44 41.3804 102C41.3804 102 76.756 75.5239 72.6663 5.28492C72.6582 5.14512 72.6094 5.01067 72.5258 4.89797C72.4422 4.78527 72.3275 4.69917 72.1956 4.65016C72.0637 4.60115 71.9204 4.59134 71.783 4.62193C71.6456 4.65252 71.5201 4.72219 71.4218 4.82245C68.1221 8.18698 57.8236 16.9791 43.0553 13.6507C42.5723 13.5388 42.0661 13.5799 41.6077 13.7683C41.1494 13.9566 40.7616 14.2828 40.4988 14.7011Z" fill="#9AA0A6"/>
<path d="M43.1265 21.7931C40.3194 26.0379 30.8092 39.1676 18.0131 43.4382C17.3378 43.6606 16.7446 44.0783 16.3092 44.6378C15.8738 45.1973 15.6161 45.8732 15.569 46.5792C14.9208 56.7416 14.0755 94.5456 37.2686 96.0465C37.7736 96.0777 38.2792 95.9956 38.748 95.8064C39.2168 95.6171 39.6369 95.3255 39.9772 94.9531C45.2267 89.2281 67.6661 62.1829 67.6627 17.6463C67.664 17.383 67.5939 17.1241 67.4597 16.8971C67.3256 16.67 67.1324 16.4831 66.9004 16.356C66.6685 16.229 66.4064 16.1665 66.1418 16.1751C65.8771 16.1837 65.6197 16.2632 65.3966 16.4051C61.8134 18.6951 54.2858 22.4653 45.505 20.796C45.0538 20.7099 44.5872 20.7586 44.1638 20.9361C43.7405 21.1136 43.3796 21.4118 43.1265 21.7931Z" fill="#F1EFEC"/>
<path d="M63.5263 30.7124L59.8359 28.5771L40.2744 62.678L45.9232 66.3176C45.9232 66.3176 63.2393 31.6614 63.5263 30.7124Z" fill="#9AA0A6"/>
<path d="M34.3283 58.3248L30.8817 56.3477L24.2788 68.2946L29.3036 71.09L34.3283 58.3248Z" fill="#9AA0A6"/>
<path d="M63.5263 30.7124L44.1913 63.811L34.3284 58.3249L27.646 70.1412L45.8887 80.5855L71.9269 35.5727L63.5263 30.7124Z" fill="#DADADA"/>
</g>
<defs>
<clipPath id="clip0">
<rect width="73" height="102" fill="white"/>
</clipPath>
</defs>
</svg>
