<svg width="102" height="119" viewBox="0 0 102 119" fill="none" xmlns="http://www.w3.org/2000/svg">
<path d="M50.7726 2.00652C48.9567 2.26041 47.5735 3.43223 46.0461 4.26553C41.4965 6.73072 36.8727 9.04831 32.1746 11.2184C24.7509 14.6439 17.1107 17.5862 9.30234 20.0267C7.33568 20.6451 5.36902 21.2505 3.40236 21.9146C1.80937 22.4549 1.6258 22.7349 1.6258 24.3819C1.6258 33.0145 1.55369 41.6535 1.6258 50.286C1.70737 53.5238 1.99861 56.7531 2.4977 59.9537C3.36282 65.8575 4.97284 71.6296 7.28978 77.134C9.92179 83.4269 13.4713 89.3011 17.8245 94.5683C22.8869 100.753 28.8948 106.111 35.6293 110.447C39.5381 113.086 43.8017 115.166 48.2946 116.625C50.8316 117.399 53.1588 116.872 55.4074 115.974C62.4081 113.072 68.8695 109.025 74.5233 104.002C79.3668 99.8395 83.6639 95.0889 87.3131 89.8615C92.0377 83.012 95.527 75.3989 97.625 67.3622C98.4513 64.1495 99.071 60.8878 99.4802 57.5969C99.8047 55.0598 99.9689 52.505 99.9718 49.9475C100.031 41.5493 99.9718 33.1447 99.9718 24.7466C99.9718 22.6568 99.8604 22.4745 97.8347 21.8039C93.5277 20.3912 89.1618 19.1543 84.9072 17.5723C80.1938 15.8146 75.5197 13.9592 70.9177 11.928C65.5422 9.55182 60.3306 6.88264 55.1845 4.11581C53.7816 3.36714 52.5229 2.33202 50.9102 2" stroke="white" stroke-width="3" stroke-linecap="round" stroke-linejoin="round"/>
<path d="M42.4737 66.3014C41.6838 65.8622 40.9636 65.3093 40.3366 64.6608C37.544 61.8614 34.7382 59.075 31.9193 56.3017C31.3405 55.6645 30.6322 55.1563 29.8413 54.8106C29.0503 54.465 28.1946 54.2898 27.3304 54.2965C26.2862 54.3129 25.2677 54.6207 24.3913 55.1848C23.5149 55.7489 22.816 56.5466 22.3745 57.4866C21.9016 58.3445 21.6816 59.3173 21.7396 60.2936C21.7975 61.2699 22.1312 62.2104 22.7022 63.0072C23.0829 63.6003 23.5221 64.1542 24.0134 64.6608C28.6416 69.244 33.2698 73.8336 37.898 78.4298C39.2091 79.7318 40.7234 80.7604 42.7491 80.6823C43.9555 80.6468 45.1185 80.2269 46.0662 79.4845C46.6491 79.0077 47.205 78.4991 47.7312 77.9611C57.346 68.4128 66.9608 58.8645 76.5756 49.3162C77.2311 48.6652 77.8539 48.0142 78.4767 47.3176C79.0698 46.6489 79.4925 45.8485 79.709 44.9837C79.9255 44.1189 79.9294 43.215 79.7206 42.3483C79.5117 41.4816 79.0962 40.6776 78.5089 40.0038C77.9216 39.33 77.1799 38.8064 76.3461 38.4768C73.8157 37.4743 71.6786 38.0667 69.8234 39.9025C61.5197 48.1488 53.216 56.395 44.9124 64.6412C44.2902 65.3449 43.5205 65.9049 42.6573 66.2818" stroke="white" stroke-width="3" stroke-linecap="round" stroke-linejoin="round"/>
<path d="M25.1647 25.1047C21.2904 26.6281 17.357 27.9692 13.4237 29.3298C11.8963 29.8637 11.6472 30.2478 11.6406 31.7972V40.8659" stroke="white" stroke-width="3" stroke-linecap="round" stroke-linejoin="round"/>
<path d="M79.3612 83.6182C75.5818 89.2495 70.8903 94.221 65.4766 98.3312" stroke="white" stroke-width="3" stroke-linecap="round" stroke-linejoin="round"/>
</svg>
