<svg width="114" height="32" viewBox="0 0 114 32" fill="none" xmlns="http://www.w3.org/2000/svg">
<path d="M27.3137 4.68625C24.2917 1.66431 20.2738 0 16 0C11.7262 0 7.70819 1.66431 4.68625 4.68625C1.66425 7.70825 0 11.7262 0 16C0 20.2738 1.66425 24.2917 4.68625 27.3137C7.70825 30.3357 11.7262 32 16 32C20.2738 32 24.2917 30.3357 27.3137 27.3137C30.3357 24.2917 32 20.2738 32 16C32 11.7262 30.3357 7.70831 27.3137 4.68625ZM16 30.125C8.21144 30.125 1.875 23.7886 1.875 16C1.875 8.21144 8.21144 1.875 16 1.875C23.7886 1.875 30.125 8.21144 30.125 16C30.125 23.7886 23.7886 30.125 16 30.125Z" fill="#DADADA"/>
<path d="M23.6438 10.8663C23.2778 10.5003 22.6841 10.5003 22.3181 10.8664L14.0394 19.145L9.68146 14.7871C9.3154 14.421 8.72177 14.421 8.35565 14.7871C7.98952 15.1532 7.98952 15.7468 8.35565 16.1129L13.3765 21.1337C13.5595 21.3168 13.7995 21.4083 14.0393 21.4083C14.2792 21.4083 14.5192 21.3167 14.7022 21.1337L23.6438 12.1921C24.01 11.826 24.01 11.2324 23.6438 10.8663Z" fill="#DADADA"/>
<line x1="32" y1="15" x2="114" y2="15" stroke="#DADADA" stroke-width="2"/>
</svg>
