<svg width="124" height="32" viewBox="0 0 124 32" fill="none" xmlns="http://www.w3.org/2000/svg">
<path fill-rule="evenodd" clip-rule="evenodd" d="M1.71549 8.48888L6.00781 10.0508L10.3001 11.6133C11.2449 11.9569 12.0203 13.3649 12.0203 14.7326V29.6816C12.0203 31.055 11.2475 31.8921 10.3012 31.5485L6.0073 29.9855L1.71343 28.423C0.769136 28.0789 0 26.6803 0 25.3084V10.3558C0 8.98857 0.772742 8.14527 1.71549 8.48888ZM3.85804 9.26779L1.71549 8.48888C0.772742 8.14527 0 8.98857 0 10.3558V9.34608C0 7.9706 0.833016 6.53949 1.85458 6.16754L3.37328 5.61478C2.68348 5.86566 3.97911 5.39533 3.45158 5.58748C3.05165 5.71691 2.66253 5.87761 2.28783 6.06812C2.05211 6.19735 1.85679 6.38934 1.72353 6.62281C1.59027 6.85627 1.52427 7.12209 1.53286 7.39077C1.54145 7.65945 1.62429 7.92048 1.77219 8.14496C1.9201 8.36943 2.12728 8.54857 2.37077 8.66248C2.85225 8.8981 3.34883 9.10034 3.85804 9.26779Z" fill="#F1EFEC"/>
<path fill-rule="evenodd" clip-rule="evenodd" d="M5.14928 4.96853C7.93115 3.95623 15.7703 1.10224 18.5548 0.0894325C19.5774 -0.282514 20.4166 0.540199 20.4166 1.91723V16.9033C20.4166 18.2803 19.5779 19.7078 18.5569 20.0777C16.811 20.7103 15.3165 21.2569 13.5423 21.9024C13.5423 19.4126 13.5 16.4077 13.5263 13.9174C13.5423 12.3467 12.6449 11.0289 11.7413 10.7002L7.61586 9.19852C7.128 9.02079 4.43524 8.05486 3.97778 7.81016C3.7354 7.70688 3.52978 7.53297 3.38769 7.31111C3.2456 7.08925 3.17364 6.82973 3.1812 6.56637C3.18877 6.30302 3.27549 6.04805 3.43008 5.83471C3.58467 5.62137 3.79996 5.45955 4.04787 5.37035L5.22808 4.94174C5.75509 4.7501 4.45998 5.22044 5.14978 4.96904L5.14928 4.96853Z" fill="#F1EFEC"/>
<path d="M26.3701 18.1024V0.744131H33.4534C35.2255 0.646977 36.9659 1.2428 38.3077 2.40589C38.9015 2.96703 39.3683 3.64926 39.676 4.40647C39.9837 5.16368 40.1254 5.97821 40.0916 6.795C40.1364 7.64813 39.9804 8.49984 39.6362 9.28155C39.292 10.0633 38.7691 10.7531 38.1099 11.2955C36.6721 12.4004 34.8933 12.9664 33.0822 12.8952H30.1838V18.1024H26.3701ZM30.1838 9.49766H33.2062C34.013 9.5441 34.8065 9.27761 35.4222 8.75353C35.6876 8.50823 35.8971 8.20845 36.0361 7.87468C36.1751 7.54091 36.2405 7.18104 36.2277 6.81965C36.2494 6.45413 36.1866 6.08849 36.0448 5.75098C35.903 5.41346 35.6855 5.11309 35.4094 4.873C34.7542 4.38372 33.9474 4.14269 33.1315 4.19267H30.1838V9.49938V9.49766ZM46.0359 18.3507C44.8544 18.3924 43.6977 18.0048 42.7792 17.2596C42.346 16.8884 42.0037 16.4227 41.7784 15.8983C41.5531 15.3739 41.4506 14.8047 41.4794 14.2346C41.4403 13.6269 41.5525 13.019 41.8054 12.4652C42.0582 11.9113 42.444 11.4288 42.9285 11.0608C44.0809 10.2957 45.4486 9.92186 46.8293 9.99433C47.9338 9.99414 49.0303 10.1787 50.074 10.5403V10.3175C50.074 8.69714 49.1243 7.88695 47.225 7.88695C45.9705 7.90911 44.7298 8.15265 43.5598 8.6064L42.6179 5.73024C44.2421 5.01813 45.9973 4.65483 47.7704 4.6638C48.5789 4.60065 49.3918 4.69977 50.1615 4.95533C50.9312 5.21089 51.6422 5.61775 52.2527 6.15206C52.7632 6.72674 53.1537 7.39811 53.4004 8.12645C53.6471 8.85479 53.745 9.62528 53.689 10.3923V18.1049H50.0479V16.6669C49.5436 17.2255 48.9226 17.6662 48.2292 17.9576C47.5357 18.2491 46.7866 18.3841 46.0351 18.3533L46.0359 18.3507ZM47.1757 15.7467C47.9402 15.7817 48.6934 15.5493 49.3055 15.0893C49.5637 14.8944 49.7723 14.6413 49.9143 14.3505C50.0563 14.0596 50.1276 13.7393 50.1225 13.4156V12.7463C49.3679 12.4063 48.5476 12.237 47.7203 12.2505C47.0458 12.2101 46.3756 12.3791 45.8007 12.7344C45.5785 12.8913 45.3995 13.1021 45.2806 13.3471C45.1618 13.592 45.1067 13.8631 45.121 14.1351C45.113 14.3629 45.1607 14.5893 45.2599 14.7945C45.3591 14.9998 45.5067 15.1777 45.69 15.313C46.1235 15.6184 46.6461 15.771 47.1757 15.7467ZM59.6097 22.1445C58.4328 22.1478 57.2771 21.8306 56.2664 21.2269L57.5293 18.4987C58.0101 18.8158 58.5683 18.9957 59.1435 19.0192C59.4247 19.0254 59.7007 18.9456 59.9353 18.7904C60.17 18.6353 60.352 18.4122 60.4567 18.1509L55.2548 4.80921H59.2427L62.265 13.8604L65.1634 4.80921H69.0766L63.9742 18.423C63.6391 19.5133 63.0441 20.5056 62.2405 21.3145C61.4956 21.9022 60.5617 22.1976 59.6147 22.1453L59.6097 22.1445ZM104.676 16.3913C103.28 17.6807 101.451 18.3977 99.5514 18.4001C97.652 18.4025 95.821 17.69 94.4217 16.4041C93.772 15.7604 93.2567 14.9938 92.9058 14.1489C92.5548 13.3039 92.3755 12.3976 92.3778 11.4825C92.3801 10.5675 92.5643 9.66201 92.9194 8.81886C93.2746 7.9757 93.7937 7.21171 94.4466 6.57133C95.8427 5.2819 97.6715 4.56489 99.5709 4.56253C101.47 4.56016 103.301 5.27261 104.701 6.55856C105.35 7.20233 105.865 7.96896 106.216 8.81387C106.567 9.65878 106.746 10.5651 106.744 11.4801C106.741 12.3951 106.558 13.3005 106.203 14.1436C105.848 14.9868 105.329 15.7508 104.676 16.3913ZM99.5863 15.1514C100.055 15.1705 100.522 15.086 100.955 14.9039C101.387 14.7218 101.774 14.4465 102.088 14.0977C102.722 13.3771 103.059 12.4418 103.029 11.4817C103.048 10.5241 102.697 9.596 102.05 8.89046C101.735 8.5382 101.347 8.25918 100.912 8.07291C100.478 7.88664 100.008 7.79763 99.5361 7.8121C99.0674 7.79293 98.6002 7.87742 98.1678 8.05954C97.7354 8.24166 97.3487 8.51695 97.0347 8.86581C96.4003 9.58637 96.0639 10.5217 96.0936 11.4817C96.0745 12.4394 96.4248 13.3676 97.072 14.073C97.3873 14.4253 97.7758 14.7044 98.2101 14.8906C98.6444 15.0769 99.114 15.1659 99.5863 15.1514ZM117.37 18.3498C116.575 18.3591 115.788 18.1849 115.071 17.8409C114.354 17.4968 113.725 16.9921 113.234 16.3658V18.1015H109.468V0H113.234V6.71846C113.69 6.04351 114.307 5.49289 115.029 5.11624C115.751 4.73959 116.556 4.54873 117.37 4.56089C118.171 4.55397 118.964 4.716 119.698 5.03646C120.432 5.35691 121.091 5.82861 121.631 6.4208C122.782 7.84697 123.411 9.6248 123.414 11.4587C123.416 13.2925 122.791 15.0719 121.643 16.501C121.101 17.0921 120.44 17.5621 119.704 17.8803C118.968 18.1986 118.173 18.358 117.371 18.3482L117.37 18.3498ZM114.113 14.1215C114.397 14.4506 114.749 14.7133 115.146 14.8911C115.542 15.0689 115.972 15.1575 116.406 15.1505C116.842 15.1565 117.273 15.0675 117.671 14.8898C118.069 14.7121 118.423 14.45 118.71 14.1215C119.358 13.3795 119.695 12.4156 119.651 11.4307C119.69 10.4618 119.352 9.51557 118.71 8.7901C118.423 8.46162 118.069 8.19945 117.671 8.02175C117.273 7.84406 116.842 7.75512 116.406 7.76108C115.972 7.75412 115.542 7.84265 115.146 8.02046C114.749 8.19826 114.397 8.46099 114.113 8.7901C113.473 9.53589 113.14 10.4983 113.185 11.4809C113.145 12.4488 113.477 13.3952 114.112 14.1257L114.113 14.1215ZM71.1516 18.1015V4.93509H74.4876V6.38678C74.9336 5.81909 75.495 5.35268 76.1346 5.01842C76.7589 4.70806 77.4479 4.55093 78.1449 4.56004C78.8821 4.5399 79.6134 4.70017 80.2747 5.02693C80.9044 5.37511 81.4336 5.88049 81.8105 6.49394C82.2221 5.88419 82.7797 5.38762 83.4327 5.04975C84.0857 4.71187 84.8131 4.54347 85.5479 4.56004C86.1272 4.51441 86.7094 4.59551 87.2542 4.79771C87.7991 4.99992 88.2934 5.31841 88.703 5.73104C89.1126 6.14368 89.428 6.64062 89.6267 7.18736C89.8253 7.7341 89.9026 8.31755 89.8535 8.89726V18.1015H86.3853V9.61842C86.4016 9.34923 86.3643 9.07949 86.2758 8.82477C86.1873 8.57006 86.0494 8.33541 85.8698 8.13442C85.6799 7.95282 85.4544 7.81247 85.2078 7.72218C84.9612 7.63188 84.6989 7.59358 84.4368 7.6097C84.1323 7.59499 83.8285 7.64774 83.5467 7.76417C83.265 7.8806 83.0123 8.05785 82.8068 8.28326C82.3788 8.79555 82.1614 9.45171 82.1992 10.1185V18.099H78.7567V9.64311C78.7902 9.09632 78.609 8.55803 78.2519 8.14293C78.0683 7.95949 77.8479 7.8171 77.6053 7.72519C77.3627 7.63327 77.1036 7.59391 76.8446 7.6097C76.5403 7.59612 76.2369 7.65008 75.9558 7.7677C75.6747 7.88532 75.4229 8.0637 75.2188 8.29006C74.7951 8.81224 74.5815 9.47405 74.6199 10.1457V18.1015H71.1516Z" fill="#F1EFEC"/>
<path fill-rule="evenodd" clip-rule="evenodd" d="M5.949 22.3514C6.0308 22.3399 6.10677 22.3026 6.16582 22.2448C6.22487 22.1871 6.26388 22.1119 6.27716 22.0304C6.43942 21.4412 6.51559 20.8317 6.50331 20.2207C6.48038 19.1591 6.26064 18.111 5.85524 17.1297C5.76509 16.9097 5.58581 16.7963 5.45496 16.8803C5.38637 16.9538 5.34254 17.047 5.32961 17.1467C5.31667 17.2464 5.33529 17.3476 5.38284 17.4362C5.72351 18.2591 5.90816 19.1381 5.92737 20.0285C5.93537 20.4936 5.88341 20.9577 5.77281 21.4096C4.89292 20.1066 4.01302 18.8042 3.13313 17.5026C3.09398 17.429 3.03593 17.3671 2.96494 17.3234C2.89395 17.2796 2.8126 17.2557 2.72924 17.2538C2.59118 17.2693 2.48505 17.3903 2.44436 17.5768C2.35571 17.9963 2.3122 18.4241 2.31454 18.8529C2.33936 19.557 2.47658 20.2527 2.72101 20.9135C2.80755 21.1361 2.98425 21.2545 3.11768 21.1793C3.2511 21.1041 3.28974 20.8589 3.20422 20.6348C3.01936 20.1304 2.91353 19.6003 2.89048 19.0636C2.89004 18.8022 2.90899 18.5411 2.94716 18.2825C3.79924 19.546 4.65355 20.8099 5.51009 22.0742C5.58158 22.1886 5.68637 22.2785 5.81042 22.3317C5.85452 22.3481 5.90156 22.3549 5.94848 22.3519L5.949 22.3514Z" fill="#71757C"/>
<path fill-rule="evenodd" clip-rule="evenodd" d="M7.21444 24.5574C7.80805 23.3999 8.10659 22.1137 8.08352 20.8131C8.08296 20.8092 8.08296 20.8052 8.08352 20.8013C8.06244 19.3011 7.76833 17.8173 7.21551 16.4224C7.12639 16.2014 6.94761 16.0839 6.81625 16.1617C6.74619 16.2333 6.70071 16.3253 6.68645 16.4245C6.67218 16.5236 6.68985 16.6246 6.73688 16.713C7.22807 17.9498 7.48992 19.2657 7.50963 20.5963C7.52901 21.7501 7.26359 22.8908 6.73688 23.9176C6.69622 24.0172 6.68216 24.1257 6.69607 24.2325C6.70998 24.3392 6.7514 24.4405 6.81625 24.5264C6.85596 24.5837 6.91146 24.6283 6.97598 24.6547C7.02091 24.6721 7.07075 24.6716 7.11533 24.6533C7.15991 24.635 7.19579 24.6003 7.21551 24.5564L7.21444 24.5574Z" fill="#71757C"/>
<path fill-rule="evenodd" clip-rule="evenodd" d="M9.299 23.1589C9.2811 23.1527 9.26385 23.1448 9.24749 23.1352C9.16251 23.0693 9.09617 22.9823 9.05506 22.8829C9.01395 22.7836 8.99946 22.6752 9.01305 22.5685C9.07002 22.107 9.09977 21.6426 9.10216 21.1776C9.08098 19.4478 8.75041 17.7357 8.12599 16.1223C8.07932 16.0345 8.06239 15.9339 8.07782 15.8356C8.09324 15.7373 8.14011 15.6466 8.21145 15.5772C8.34487 15.502 8.52059 15.6211 8.6092 15.8436C8.95174 16.7349 9.21512 17.6545 9.39634 18.592C9.57419 19.5121 9.66834 20.4465 9.67763 21.3836V21.3919C9.67498 21.9018 9.64249 22.4112 9.58029 22.9173C9.55607 23.11 9.43345 23.2089 9.29642 23.1589H9.299Z" fill="#71757C"/>
<path fill-rule="evenodd" clip-rule="evenodd" d="M8.61348 26.1544C8.84477 25.7174 9.03448 25.2597 9.18015 24.7872C9.20708 24.682 9.20704 24.5718 9.18002 24.4667C9.15301 24.3616 9.09987 24.2651 9.02557 24.186C9.00117 24.1529 8.96762 24.1277 8.92904 24.1135C8.89047 24.0993 8.84858 24.0967 8.80856 24.1061C8.76853 24.1155 8.73211 24.1364 8.70385 24.1662C8.67559 24.1961 8.6567 24.2337 8.64952 24.2741C8.51544 24.7061 8.34158 25.1246 8.1302 25.5244C8.09026 25.6242 8.07706 25.7326 8.09178 25.839C8.10651 25.9454 8.1487 26.0462 8.21422 26.1313C8.25313 26.1863 8.30663 26.2293 8.36873 26.2554C8.4146 26.2736 8.46581 26.273 8.51123 26.2537C8.55665 26.2344 8.59266 26.1981 8.61141 26.1524L8.61348 26.1544Z" fill="#71757C"/>
</svg>
