<svg width="125" height="32" viewBox="0 0 125 32" fill="none" xmlns="http://www.w3.org/2000/svg">
<g clip-path="url(#clip0_432_1013)">
<path fill-rule="evenodd" clip-rule="evenodd" d="M1.76019 8.63265L6.16475 10.2098L10.5697 11.7869C11.5391 12.1338 12.3347 13.5554 12.3347 14.9367V30.0326C12.3347 31.4194 11.5417 32.2648 10.5708 31.9178L6.16438 30.3407L1.75834 28.7636C0.789269 28.4144 0 27.002 0 25.6167V10.5178C0 9.13732 0.792976 8.28568 1.76019 8.63265ZM3.95895 9.41937L1.76019 8.63265C0.792976 8.28568 0 9.13732 0 10.5178V9.49933C0 8.11037 0.854887 6.66529 1.90292 6.28972L3.45996 5.73149C2.75225 5.98493 4.08166 5.51143 3.5404 5.70399C3.13017 5.83461 2.73091 5.99685 2.34631 6.18922C2.10492 6.31911 1.90476 6.51279 1.76816 6.74866C1.63155 6.98454 1.56388 7.25332 1.57268 7.52503C1.58149 7.79674 1.66643 8.06068 1.81802 8.28741C1.96961 8.51414 2.1819 8.69474 2.4312 8.80907C2.92576 9.04678 3.43621 9.2507 3.95895 9.41937Z" fill="white"/>
<path fill-rule="evenodd" clip-rule="evenodd" d="M5.31912 5.03025C8.1596 4.00513 16.1631 1.11571 19.0073 0.0905874C20.0516 -0.286086 20.9084 0.54685 20.9084 1.94095V17.1128C20.9084 18.5065 20.052 19.952 19.0095 20.3264C17.2267 20.9668 15.7008 21.5203 13.8891 22.1738C13.8891 19.653 13.8461 16.611 13.8728 14.0899C13.8891 12.4995 12.9727 11.1656 12.05 10.8329L7.83782 9.3123C7.33993 9.13258 4.58991 8.15477 4.1228 7.90684C3.87515 7.80198 3.66512 7.62583 3.52001 7.4013C3.3749 7.17676 3.30143 6.91423 3.30914 6.64783C3.31686 6.38144 3.40541 6.1235 3.56328 5.90756C3.72115 5.69162 3.94104 5.52766 4.19435 5.437L5.39957 5.00311C5.93786 4.80909 4.61512 5.28516 5.3195 5.03062L5.31912 5.03025Z" fill="white"/>
<path fill-rule="evenodd" clip-rule="evenodd" d="M6.05981 22.6191C6.14214 22.6076 6.21855 22.5702 6.27779 22.5124C6.33687 22.4543 6.37581 22.3792 6.38901 22.2979C6.55185 21.7077 6.62838 21.0976 6.61626 20.486C6.59335 19.4237 6.37254 18.3746 5.9649 17.3916C5.87407 17.1715 5.6939 17.0578 5.5623 17.1418C5.49325 17.2156 5.44919 17.3088 5.43623 17.4085C5.42327 17.5083 5.44207 17.6095 5.49 17.6982C5.83238 18.5226 6.01789 19.4024 6.03719 20.2934C6.04534 20.759 5.99314 21.2237 5.88186 21.6762C4.99781 20.3717 4.11363 19.0679 3.22934 17.7649C3.19001 17.6913 3.13168 17.6293 3.06029 17.5852C2.98897 17.5416 2.90719 17.5177 2.82339 17.5159C2.68437 17.5313 2.57798 17.6523 2.53683 17.839C2.44785 18.2591 2.4041 18.6873 2.40633 19.1165C2.43127 19.8212 2.56891 20.5175 2.81413 21.1796C2.90125 21.4022 3.07882 21.521 3.21302 21.4455C3.34723 21.3699 3.38578 21.1249 3.30014 20.9005C3.11443 20.3956 3.00827 19.8656 2.9854 19.3288C2.98494 19.0673 3.00402 18.806 3.04249 18.5473C3.89886 19.8119 4.75758 21.0771 5.61865 22.343C5.69039 22.457 5.79569 22.5466 5.92041 22.5997C5.96467 22.6161 6.01192 22.6229 6.05906 22.6199L6.05981 22.6191Z" fill="#71757C"/>
<path fill-rule="evenodd" clip-rule="evenodd" d="M7.34198 24.8898C7.97623 23.727 8.29708 22.4221 8.27361 21.101C8.27286 21.097 8.27286 21.0929 8.27361 21.0889C8.24974 19.5669 7.93359 18.0632 7.34198 16.658C7.24634 16.4342 7.05467 16.3154 6.9138 16.3943C6.83932 16.4655 6.79049 16.5589 6.77478 16.6602C6.75929 16.7612 6.77833 16.8645 6.8289 16.9536C7.35419 18.1997 7.63524 19.5332 7.6571 20.8832C7.67707 22.0549 7.39226 23.212 6.83001 24.2435C6.78629 24.3438 6.77116 24.454 6.78627 24.5622C6.80146 24.671 6.84589 24.7737 6.91491 24.8597C6.95836 24.9182 7.01778 24.9632 7.08618 24.9895C7.13396 25.0074 7.1867 25.0074 7.23447 24.9895C7.28166 24.9717 7.32014 24.9367 7.34198 24.8916V24.8898Z" fill="#71757C"/>
<path fill-rule="evenodd" clip-rule="evenodd" d="M9.53773 23.5001C9.51924 23.4939 9.50147 23.4858 9.48471 23.4759C9.39717 23.4092 9.3288 23.3209 9.2864 23.22C9.244 23.119 9.22904 23.0089 9.243 22.9004C9.30161 22.4315 9.3323 21.9597 9.33494 21.4872C9.31291 19.7299 8.97213 17.9907 8.32881 16.3525C8.28068 16.2632 8.26325 16.1609 8.27917 16.0609C8.2951 15.961 8.34349 15.8689 8.41704 15.7986C8.5542 15.7223 8.73549 15.843 8.82668 16.0693C9.18002 16.9742 9.45183 17.9082 9.63894 18.8604C9.82209 19.7951 9.91913 20.7443 9.92884 21.6963V21.7047C9.92567 22.2224 9.89187 22.7395 9.82763 23.2532C9.80279 23.4487 9.67638 23.5492 9.53513 23.4986L9.53773 23.5001Z" fill="#71757C"/>
<path fill-rule="evenodd" clip-rule="evenodd" d="M8.84349 26.5208C9.09214 26.072 9.29661 25.6006 9.45407 25.1131C9.48318 25.005 9.48318 24.8912 9.45407 24.783C9.42465 24.6741 9.36731 24.5746 9.28762 24.494C9.26058 24.4602 9.22429 24.4347 9.18307 24.4207C9.14126 24.4062 9.09616 24.4036 9.05295 24.4133C9.01007 24.4227 8.97082 24.4441 8.93988 24.4749C8.90988 24.5051 8.88951 24.5434 8.88131 24.585C8.73623 25.0308 8.5484 25.4619 8.32041 25.8723C8.27788 25.9748 8.26388 26.0867 8.27985 26.1964C8.29582 26.306 8.34119 26.4094 8.41123 26.4959C8.45386 26.5528 8.5116 26.597 8.57806 26.6235C8.62749 26.6428 8.68247 26.6428 8.73191 26.6235C8.75598 26.614 8.77793 26.5999 8.79651 26.5821C8.81508 26.5642 8.82991 26.5429 8.84016 26.5193L8.84349 26.5208Z" fill="#71757C"/>
<path d="M33.3087 26.6554C30.9158 26.6554 28.8371 25.7707 27.0727 24.0011C25.3081 22.2076 24.4258 19.7923 24.4258 16.7552C24.4258 13.742 25.296 11.3507 27.0364 9.58116C28.8006 7.81161 30.8913 6.92684 33.3087 6.92684C35.9193 6.92684 38.0942 8.03876 39.8334 10.2626V0.0755615H44.2205V26.2608H39.8349V23.1044C38.1429 25.4715 35.9675 26.6552 33.3087 26.6554ZM30.4445 21.203C31.5319 22.3278 32.8371 22.8902 34.36 22.8902C35.883 22.8902 37.1883 22.3156 38.276 21.1663C39.3635 20.0188 39.9072 18.5482 39.9072 16.7545C39.9072 14.9847 39.3635 13.5379 38.276 12.4141C37.1885 11.2663 35.8832 10.6925 34.36 10.6925C32.8134 10.6925 31.5082 11.2549 30.4445 12.3796C29.3817 13.4799 28.8504 14.9627 28.8504 16.8278C28.8496 18.6208 29.381 20.0792 30.4445 21.203ZM65.7558 26.2608H61.405V23.9292C59.8579 25.7467 57.7912 26.6554 55.2051 26.6554C53.2956 26.6554 51.6762 26.1412 50.3467 25.1128C49.0415 24.0614 48.3888 22.6027 48.3886 20.7368C48.3886 18.7042 49.1017 17.1618 50.528 16.1097C51.9543 15.0575 53.8276 14.5318 56.1478 14.5326C58.0088 14.5326 59.7732 14.7957 61.441 15.3218V14.9631C61.441 13.6479 61.0301 12.6436 60.2083 11.9501C59.4108 11.2567 58.2506 10.91 56.7276 10.91C54.9875 10.91 53.1626 11.3045 51.2532 12.0935L50.0565 8.61398C52.4254 7.56257 54.8546 7.03687 57.3441 7.03687C60.1238 7.03687 62.2146 7.73043 63.6164 9.11756C65.0425 10.5044 65.7556 12.4773 65.7558 15.0361V26.2608ZM61.5137 19.4095V18.3334C60.2085 17.8312 58.7461 17.5801 57.1265 17.5801C55.7489 17.5801 54.6738 17.8432 53.9012 18.3693C53.1286 18.8955 52.7419 19.6369 52.7409 20.5934C52.7409 21.4544 53.0914 22.1358 53.7926 22.6378C54.4938 23.1398 55.376 23.3909 56.4392 23.3912C57.9134 23.3912 59.122 23.0205 60.0649 22.2791C61.0307 21.538 61.5137 20.5815 61.5137 19.4095ZM70.9734 32V7.32148H75.3605V10.4779C77.0525 8.11053 79.2158 6.92684 81.8504 6.92684C84.2675 6.92684 86.3584 7.82359 88.1231 9.6171C89.8872 11.3869 90.7694 13.7902 90.7696 16.8271C90.7696 19.8163 89.8875 22.2076 88.1231 24.0011C86.3584 25.7704 84.2675 26.6552 81.8504 26.6554C79.2161 26.6554 77.0528 25.5429 75.3605 23.3178V32H70.9734ZM80.8346 22.8891C82.3815 22.8891 83.6747 22.3267 84.7143 21.2019C85.777 20.0772 86.3084 18.5945 86.3084 16.7541C86.3084 14.9606 85.777 13.5018 84.7143 12.3778C83.6515 11.2538 82.3583 10.6914 80.8346 10.6906C79.3117 10.6906 77.9944 11.2645 76.8827 12.4123C75.7953 13.5615 75.2515 15.0322 75.2515 16.8245C75.2515 18.5938 75.7953 20.0525 76.8827 21.2004C77.9951 22.3264 79.3127 22.8893 80.8354 22.8891H80.8346ZM95.3351 4.41592V0.290856H100.048V4.41592H95.3351ZM95.5164 26.2608V7.32148H99.9035V26.2608H95.5164ZM114.737 26.6914C111.836 26.6914 109.419 25.7348 107.486 23.8218C105.552 21.9087 104.585 19.5771 104.585 16.8271C104.585 14.077 105.564 11.7455 107.522 9.83239C109.48 7.89511 111.909 6.92659 114.81 6.92684C117.71 6.92708 120.127 7.88362 122.061 9.79645C124.019 11.7095 124.998 14.0531 124.998 16.8271C124.998 19.5529 124.019 21.8845 122.061 23.8218C120.103 25.7348 117.662 26.6914 114.737 26.6914ZM114.811 22.925C116.551 22.925 117.953 22.339 119.017 21.1671C120.081 19.9951 120.612 18.5485 120.611 16.8271C120.611 15.1289 120.055 13.6941 118.943 12.5227C117.831 11.327 116.429 10.7291 114.737 10.7291C113.021 10.7291 111.631 11.315 110.567 12.4867C109.504 13.6584 108.973 15.1052 108.973 16.8271C108.973 18.501 109.529 19.9358 110.642 21.1315C111.754 22.3272 113.144 22.925 114.811 22.925Z" fill="white"/>
</g>
<defs>
<clipPath id="clip0_432_1013">
<rect width="125" height="32" fill="white"/>
</clipPath>
</defs>
</svg>
