<svg width="132" height="34" viewBox="0 0 132 34" fill="none" xmlns="http://www.w3.org/2000/svg">
<g clip-path="url(#clip0_278_203)">
<path fill-rule="evenodd" clip-rule="evenodd" d="M1.85876 9.17229L6.50998 10.848L11.1616 12.5237C12.1853 12.8923 13.0254 14.4028 13.0254 15.8703V31.9097C13.0254 33.3832 12.1881 34.2814 11.1628 33.9128L6.50959 32.2371L1.85681 30.5614C0.833468 30.1904 0 28.6897 0 27.2178V11.1753C0 9.70851 0.837383 8.80364 1.85876 9.17229ZM4.18065 10.0082L1.85876 9.17229C0.837383 8.80364 0 9.70851 0 11.1753V10.0931C0 8.61737 0.902761 7.08197 2.00948 6.68293L3.65372 6.08981C2.90637 6.35909 4.31023 5.856 3.73867 6.06059C3.30546 6.19937 2.88384 6.37176 2.4777 6.57615C2.2228 6.71415 2.01143 6.91994 1.86717 7.17056C1.72292 7.42117 1.65146 7.70675 1.66075 7.99544C1.67005 8.28413 1.75975 8.56457 1.91983 8.80547C2.07991 9.04638 2.30409 9.23826 2.56735 9.35973C3.08961 9.61231 3.62864 9.82897 4.18065 10.0082Z" fill="#08243B"/>
<path fill-rule="evenodd" clip-rule="evenodd" d="M5.61921 5.34465C8.61876 4.25545 17.0705 1.18544 20.074 0.0962491C21.1768 -0.303966 22.0815 0.581028 22.0815 2.06225V18.1823C22.0815 19.6632 21.1772 21.1989 20.0763 21.5968C18.1937 22.2772 16.5823 22.8653 14.6691 23.5597C14.6691 20.8813 14.6237 17.6492 14.6519 14.9705C14.6691 13.2808 13.7014 11.8634 12.727 11.51L8.27895 9.89432C7.75319 9.70337 4.84917 8.66445 4.3559 8.40101C4.09438 8.2896 3.87258 8.10244 3.71935 7.86388C3.56611 7.62531 3.48853 7.34637 3.49668 7.06332C3.50483 6.78028 3.59833 6.50622 3.76504 6.27678C3.93175 6.04734 4.16395 5.87314 4.43145 5.77682L5.70417 5.31581C6.2726 5.10966 4.87579 5.61548 5.61961 5.34504L5.61921 5.34465Z" fill="#08243B"/>
<path fill-rule="evenodd" clip-rule="evenodd" d="M6.40112 24.0327C6.48807 24.0204 6.56876 23.9807 6.63132 23.9193C6.6937 23.8576 6.73482 23.7778 6.74876 23.6914C6.92072 23.0644 7.00153 22.4161 6.98874 21.7663C6.96455 20.6375 6.73137 19.5229 6.3009 18.4784C6.20499 18.2446 6.01473 18.1238 5.87575 18.213C5.80285 18.2914 5.75631 18.3905 5.74263 18.4965C5.72894 18.6024 5.74879 18.71 5.79941 18.8042C6.16096 19.6801 6.35686 20.6149 6.37724 21.5617C6.38585 22.0564 6.33072 22.5501 6.21321 23.0308C5.27965 21.6448 4.34597 20.2596 3.41215 18.8751C3.37062 18.7969 3.30903 18.731 3.23363 18.6842C3.15832 18.6379 3.07196 18.6125 2.98347 18.6105C2.83667 18.6269 2.72431 18.7555 2.68086 18.9538C2.5869 19.4002 2.5407 19.8551 2.54305 20.3112C2.56939 21.0599 2.71474 21.7997 2.97369 22.5032C3.06568 22.7397 3.25321 22.866 3.39492 22.7857C3.53664 22.7054 3.57735 22.4451 3.48692 22.2066C3.2908 21.6703 3.1787 21.1071 3.15455 20.5368C3.15406 20.2589 3.17421 19.9813 3.21484 19.7063C4.11917 21.05 5.02597 22.3943 5.93526 23.7393C6.01102 23.8605 6.12222 23.9557 6.25393 24.0121C6.30066 24.0295 6.35056 24.0368 6.40034 24.0335L6.40112 24.0327Z" fill="#F1EFEC" fill-opacity="0.92"/>
<path fill-rule="evenodd" clip-rule="evenodd" d="M7.75295 26.4454C8.42271 25.21 8.76152 23.8236 8.73674 22.4199C8.73595 22.4157 8.73595 22.4113 8.73674 22.4071C8.71154 20.7899 8.37768 19.1922 7.75295 17.6992C7.65194 17.4615 7.44955 17.3352 7.30078 17.419C7.22214 17.4946 7.17057 17.5939 7.15398 17.7015C7.13762 17.8089 7.15773 17.9186 7.21113 18.0133C7.76583 19.3372 8.06263 20.7541 8.08571 22.1884C8.1068 23.4334 7.80604 24.6629 7.21231 25.7588C7.16614 25.8654 7.15016 25.9825 7.16611 26.0975C7.18216 26.213 7.22907 26.3222 7.30196 26.4135C7.34784 26.4757 7.41058 26.5235 7.48282 26.5514C7.53327 26.5705 7.58896 26.5705 7.63942 26.5514C7.68925 26.5325 7.72988 26.4953 7.75295 26.4474V26.4454Z" fill="#F1EFEC" fill-opacity="0.92"/>
<path fill-rule="evenodd" clip-rule="evenodd" d="M10.0734 24.9688C10.0538 24.9622 10.0351 24.9536 10.0174 24.9431C9.92495 24.8722 9.85275 24.7785 9.80797 24.6712C9.76319 24.564 9.74739 24.4469 9.76214 24.3317C9.82403 23.8335 9.85645 23.3321 9.85923 22.8302C9.83597 20.963 9.4761 19.1151 8.79675 17.3745C8.74593 17.2796 8.72753 17.1709 8.74434 17.0647C8.76115 16.9585 8.81226 16.8607 8.88992 16.786C9.03477 16.705 9.22621 16.8332 9.32251 17.0736C9.69563 18.0351 9.98266 19.0274 10.1802 20.0392C10.3737 21.0323 10.4761 22.0408 10.4864 23.0523V23.0613C10.483 23.6113 10.4473 24.1607 10.3795 24.7066C10.3533 24.9143 10.2198 25.021 10.0706 24.9673L10.0734 24.9688Z" fill="#F1EFEC" fill-opacity="0.92"/>
<path fill-rule="evenodd" clip-rule="evenodd" d="M9.33635 28.1785C9.59893 27.7016 9.81484 27.2008 9.98112 26.6828C10.0119 26.5679 10.0119 26.447 9.98112 26.3321C9.95005 26.2164 9.88951 26.1106 9.80535 26.025C9.77679 25.989 9.73848 25.962 9.69495 25.9471C9.6508 25.9316 9.60317 25.9289 9.55754 25.9393C9.51226 25.9492 9.47081 25.972 9.43814 26.0047C9.40646 26.0368 9.38495 26.0775 9.37629 26.1216C9.22308 26.5953 9.02474 27.0534 8.78397 27.4895C8.73907 27.5984 8.72428 27.7172 8.74114 27.8337C8.75801 27.9502 8.80592 28.0601 8.87989 28.152C8.9249 28.2125 8.98587 28.2594 9.05605 28.2876C9.10826 28.308 9.16632 28.308 9.21852 28.2876C9.24394 28.2775 9.26712 28.2625 9.28674 28.2436C9.30635 28.2246 9.32201 28.2019 9.33283 28.1769L9.33635 28.1785Z" fill="#F1EFEC" fill-opacity="0.92"/>
<path d="M35.1772 28.3212C32.6503 28.3212 30.4553 27.3811 28.5921 25.501C26.7286 23.5954 25.7969 21.0291 25.7969 17.8022C25.7969 14.6007 26.7158 12.0599 28.5537 10.1798C30.4166 8.29963 32.6245 7.35956 35.1772 7.35956C37.934 7.35956 40.2307 8.54098 42.0673 10.9038V0.0800781H46.7001V27.9019H42.0689V24.5482C40.2822 27.0633 37.9849 28.3209 35.1772 28.3212ZM32.1526 22.528C33.301 23.7231 34.6792 24.3206 36.2875 24.3206C37.8957 24.3206 39.2741 23.7101 40.4227 22.489C41.5711 21.2698 42.1452 19.7073 42.1452 17.8014C42.1452 15.921 41.5711 14.3838 40.4227 13.1898C39.2744 11.9703 37.8959 11.3605 36.2875 11.3605C34.6542 11.3605 33.2759 11.9581 32.1526 13.1531C31.0304 14.3222 30.4692 15.8976 30.4692 17.8793C30.4685 19.7844 31.0296 21.334 32.1526 22.528ZM69.4414 27.9019H64.847V25.4246C63.2132 27.3557 61.0308 28.3212 58.2998 28.3212C56.2834 28.3212 54.5733 27.7748 53.1694 26.6821C51.7911 25.565 51.1019 24.0152 51.1016 22.0327C51.1016 19.873 51.8547 18.2342 53.3608 17.1163C54.867 15.9984 56.8452 15.4399 59.2953 15.4406C61.2606 15.4406 63.1238 15.7202 64.8849 16.2793V15.8981C64.8849 14.5007 64.4511 13.4336 63.5833 12.6968C62.7411 11.96 61.5158 11.5916 59.9076 11.5916C58.07 11.5916 56.143 12.0108 54.1266 12.8492L52.8629 9.15215C55.3645 8.03503 57.9297 7.47647 60.5587 7.47647C63.494 7.47647 65.7018 8.21338 67.1822 9.6872C68.6881 11.1608 69.4412 13.2569 69.4414 15.9757V27.9019ZM64.9617 20.6224V19.479C63.5834 18.9454 62.0391 18.6786 60.3289 18.6786C58.8741 18.6786 57.7388 18.9581 56.923 19.5172C56.1071 20.0763 55.6987 20.864 55.6976 21.8803C55.6976 22.7951 56.0678 23.5191 56.8082 24.0525C57.5487 24.5858 58.4803 24.8526 59.6031 24.8529C61.1598 24.8529 62.4361 24.4591 63.4318 23.6714C64.4517 22.8839 64.9617 21.8676 64.9617 20.6224ZM74.9512 33.9998V7.77887H79.584V11.1326C81.3707 8.61723 83.6552 7.35956 86.4373 7.35956C88.9898 7.35956 91.1977 8.31236 93.0612 10.218C94.9241 12.0984 95.8557 14.6519 95.856 17.8786C95.856 21.0546 94.9244 23.5954 93.0612 25.501C91.1977 27.3809 88.9898 28.3209 86.4373 28.3212C83.6554 28.3212 81.371 27.1391 79.584 24.775V33.9998H74.9512ZM85.3646 24.3194C86.9982 24.3194 88.3638 23.7219 89.4615 22.5268C90.5838 21.3318 91.1449 19.7565 91.1449 17.801C91.1449 15.8954 90.5838 14.3455 89.4615 13.1512C88.3393 11.9569 86.9736 11.3594 85.3646 11.3586C83.7564 11.3586 82.3653 11.9683 81.1914 13.1878C80.0431 14.4089 79.4689 15.9715 79.4689 17.8758C79.4689 19.7557 80.0431 21.3055 81.1914 22.5253C82.3661 23.7216 83.7575 24.3197 85.3654 24.3194H85.3646ZM100.677 4.69171V0.308828H105.654V4.69171H100.677ZM100.869 27.9019V7.77887H105.501V27.9019H100.869ZM121.165 28.3594C118.102 28.3594 115.55 27.3431 113.508 25.3104C111.466 23.2778 110.445 20.8005 110.445 17.8786C110.445 14.9566 111.479 12.4794 113.546 10.4467C115.614 8.38835 118.179 7.3593 121.242 7.35956C124.305 7.35982 126.858 8.37614 128.9 10.4085C130.967 12.4412 132.001 14.9312 132.001 17.8786C132.001 20.7748 130.967 23.252 128.9 25.3104C126.833 27.3431 124.254 28.3594 121.165 28.3594ZM121.244 24.3576C123.081 24.3576 124.562 23.735 125.685 22.4898C126.808 21.2446 127.37 19.7075 127.368 17.8786C127.368 16.0743 126.781 14.5498 125.607 13.3051C124.432 12.0347 122.952 11.3995 121.165 11.3995C119.353 11.3995 117.885 12.022 116.762 13.2669C115.639 14.5119 115.078 16.0491 115.079 17.8786C115.079 19.6571 115.666 21.1816 116.841 22.452C118.015 23.7224 119.483 24.3576 121.244 24.3576Z" fill="#08243B"/>
</g>
<defs>
<clipPath id="clip0_278_203">
<rect width="132" height="34" fill="white"/>
</clipPath>
</defs>
</svg>
