<svg width="133" height="34" viewBox="0 0 133 34" fill="none" xmlns="http://www.w3.org/2000/svg">
<path fill-rule="evenodd" clip-rule="evenodd" d="M1.84429 9.12606L6.45889 10.8053L11.0735 12.4851C12.0892 12.8545 12.9228 14.3682 12.9228 15.8386V31.9099C12.9228 33.3865 12.092 34.2865 11.0746 33.917L6.45833 32.2367L1.84207 30.5569C0.826884 30.1869 0 28.6833 0 27.2084V11.1332C0 9.66326 0.830761 8.75665 1.84429 9.12606ZM4.14771 9.96344L1.84429 9.12606C0.830761 8.75665 0 9.66326 0 11.1332V10.0476C0 8.56886 0.89556 7.0303 1.99383 6.63043L3.62655 6.03616C2.88496 6.30588 4.27786 5.80023 3.71073 6.00682C3.28078 6.14596 2.86244 6.31873 2.45961 6.52354C2.20619 6.66247 1.9962 6.86888 1.85294 7.11987C1.70967 7.37086 1.63872 7.65664 1.64795 7.9455C1.65719 8.23435 1.74625 8.51498 1.90525 8.75631C2.06426 8.99764 2.287 9.19023 2.54877 9.31269C3.0664 9.566 3.60027 9.78343 4.14771 9.96344Z" fill="black"/>
<path fill-rule="evenodd" clip-rule="evenodd" d="M5.53537 5.34157C8.52611 4.25328 16.9539 1.185 19.9474 0.0961473C21.0468 -0.303726 21.949 0.580758 21.949 2.06117V18.1724C21.949 19.6528 21.0473 21.1875 19.9496 21.5852C18.0727 22.2653 16.466 22.8529 14.5585 23.5469C14.5585 20.8702 14.5131 17.6396 14.5414 14.9623C14.5585 13.2737 13.5937 11.857 12.6223 11.5036L8.18714 9.88916C7.66265 9.69808 4.76772 8.65963 4.27591 8.39656C4.01534 8.28552 3.79428 8.09856 3.64152 7.86004C3.48875 7.62152 3.4114 7.34252 3.41953 7.05939C3.42766 6.77626 3.52089 6.50215 3.68708 6.27279C3.85328 6.04343 4.08474 5.86947 4.35126 5.77357L5.62008 5.31277C6.18666 5.10674 4.79432 5.6124 5.53591 5.34213L5.53537 5.34157Z" fill="black"/>
<path d="M28.3506 19.4615V0.800002H35.9657C37.8709 0.695554 39.742 1.33611 41.1845 2.58653C41.8228 3.18979 42.3247 3.92326 42.6555 4.73731C42.9863 5.55137 43.1386 6.42706 43.1023 7.30518C43.1504 8.22236 42.9827 9.13802 42.6127 9.97843C42.2426 10.8188 41.6805 11.5605 40.9718 12.1436C39.426 13.3314 37.5137 13.9399 35.5666 13.8634H32.4506V19.4615H28.3506ZM32.4506 10.2108H35.6999C36.5673 10.2607 37.4204 9.97419 38.0824 9.41076C38.3677 9.14705 38.5929 8.82475 38.7423 8.46592C38.8917 8.10709 38.962 7.7202 38.9483 7.33168C38.9716 6.93871 38.9041 6.54563 38.7516 6.18277C38.5992 5.81991 38.3654 5.49699 38.0685 5.23888C37.3642 4.71286 36.4967 4.45373 35.6196 4.50746H32.4506V10.2126V10.2108ZM49.4929 19.7285C48.2227 19.7733 46.9792 19.3567 45.9917 18.5555C45.526 18.1564 45.158 17.6558 44.9158 17.092C44.6735 16.5282 44.5633 15.9163 44.5943 15.3034C44.5523 14.65 44.6729 13.9965 44.9447 13.4011C45.2166 12.8056 45.6313 12.2869 46.1522 11.8912C47.3911 11.0688 48.8615 10.6668 50.3459 10.7447C51.5333 10.7445 52.7122 10.9429 53.8342 11.3317V11.0922C53.8342 9.35013 52.8132 8.47912 50.7713 8.47912C49.4226 8.50294 48.0887 8.76476 46.8309 9.25259L45.8183 6.16048C47.5644 5.39489 49.4514 5.00432 51.3577 5.01396C52.2269 4.94607 53.1008 5.05263 53.9283 5.32738C54.7558 5.60213 55.5201 6.03954 56.1765 6.61396C56.7254 7.2318 57.1451 7.95358 57.4103 8.7366C57.6756 9.51962 57.7809 10.348 57.7207 11.1726V19.4643H53.8061V17.9182C53.264 18.5188 52.5964 18.9926 51.8508 19.3059C51.1053 19.6192 50.2999 19.7645 49.492 19.7313L49.4929 19.7285ZM50.7183 16.929C51.5402 16.9666 52.3499 16.7167 53.008 16.2222C53.2856 16.0127 53.5099 15.7406 53.6625 15.4279C53.8152 15.1152 53.8918 14.7709 53.8864 14.4229V13.7033C53.0751 13.3378 52.1932 13.1558 51.3037 13.1703C50.5787 13.1268 49.8581 13.3085 49.2401 13.6905C49.0011 13.8592 48.8087 14.0859 48.6809 14.3492C48.5532 14.6126 48.494 14.904 48.5093 15.1964C48.5008 15.4413 48.552 15.6847 48.6586 15.9053C48.7653 16.126 48.9239 16.3173 49.121 16.4627C49.5871 16.7911 50.149 16.9551 50.7183 16.929ZM64.0859 23.8071C62.8206 23.8107 61.5781 23.4697 60.4915 22.8206L61.8493 19.8876C62.3661 20.2285 62.9663 20.4219 63.5847 20.4471C63.8869 20.4538 64.1837 20.368 64.4359 20.2012C64.6882 20.0344 64.8839 19.7946 64.9964 19.5137L59.4039 5.1703H63.6913L66.9405 14.9011L70.0565 5.1703H74.2636L68.7781 19.8062C68.4178 20.9784 67.7781 22.0452 66.9142 22.9148C66.1133 23.5467 65.1094 23.8643 64.0912 23.8081L64.0859 23.8071ZM112.536 17.622C111.035 19.0082 109.069 19.7791 107.026 19.7816C104.984 19.7841 103.016 19.0182 101.512 17.6357C100.813 16.9437 100.259 16.1196 99.8818 15.2112C99.5046 14.3028 99.3117 13.3284 99.3142 12.3446C99.3167 11.3609 99.5147 10.3875 99.8966 9.48099C100.278 8.57453 100.836 7.75318 101.538 7.06472C103.039 5.67848 105.005 4.90763 107.047 4.90509C109.089 4.90255 111.058 5.66849 112.562 7.05099C113.261 7.74309 113.815 8.56729 114.192 9.47563C114.569 10.384 114.761 11.3584 114.759 12.342C114.756 13.3257 114.559 14.2991 114.177 15.2056C113.795 16.112 113.238 16.9334 112.536 17.622ZM107.064 16.289C107.568 16.3096 108.07 16.2187 108.535 16.0229C109 15.8271 109.416 15.5312 109.753 15.1561C110.435 14.3815 110.797 13.3759 110.765 12.3438C110.786 11.3143 110.409 10.3165 109.713 9.55797C109.374 9.17927 108.956 8.87929 108.489 8.67904C108.023 8.47879 107.518 8.38309 107.01 8.39865C106.506 8.37804 106.004 8.46887 105.539 8.66467C105.074 8.86046 104.658 9.15641 104.321 9.53147C103.639 10.3061 103.277 11.3117 103.309 12.3438C103.288 13.3734 103.665 14.3712 104.361 15.1296C104.7 15.5084 105.118 15.8084 105.584 16.0087C106.051 16.2089 106.556 16.3046 107.064 16.289ZM126.183 19.7276C125.328 19.7375 124.482 19.5503 123.711 19.1804C122.94 18.8105 122.264 18.2679 121.736 17.5946V19.4606H117.688V0H121.736V7.22289C122.227 6.49727 122.89 5.90531 123.667 5.50037C124.443 5.09544 125.308 4.89025 126.183 4.90333C127.044 4.89589 127.896 5.07009 128.686 5.4146C129.475 5.75912 130.183 6.26624 130.764 6.90289C132.001 8.43613 132.678 10.3474 132.68 12.319C132.683 14.2906 132.011 16.2036 130.777 17.7399C130.194 18.3754 129.483 18.8806 128.692 19.2228C127.9 19.565 127.046 19.7364 126.184 19.7258L126.183 19.7276ZM122.682 15.1818C122.987 15.5356 123.365 15.818 123.791 16.0092C124.217 16.2003 124.68 16.2955 125.147 16.288C125.615 16.2944 126.079 16.1988 126.507 16.0078C126.934 15.8168 127.315 15.5349 127.623 15.1818C128.32 14.3841 128.683 13.3478 128.636 12.2889C128.677 11.2473 128.314 10.23 127.623 9.45008C127.315 9.09693 126.934 8.81507 126.507 8.62404C126.079 8.43301 125.615 8.33738 125.147 8.3438C124.68 8.33631 124.217 8.43149 123.791 8.62265C123.365 8.8138 122.987 9.09626 122.682 9.45008C121.993 10.2519 121.636 11.2865 121.683 12.3429C121.64 13.3835 121.998 14.4009 122.681 15.1863L122.682 15.1818ZM76.4944 19.4606V5.30562H80.0808V6.86631C80.5603 6.256 81.1639 5.75457 81.8514 5.39521C82.5227 5.06154 83.2633 4.89262 84.0127 4.90241C84.8053 4.88076 85.5914 5.05307 86.3024 5.40436C86.9794 5.77869 87.5483 6.32201 87.9536 6.98152C88.396 6.32599 88.9955 5.79214 89.6975 5.42889C90.3995 5.06564 91.1815 4.8846 91.9716 4.90241C92.5944 4.85335 93.2202 4.94055 93.806 5.15793C94.3918 5.37532 94.9231 5.71772 95.3635 6.16134C95.8039 6.60496 96.143 7.13921 96.3566 7.727C96.5701 8.31479 96.6533 8.94205 96.6005 9.56528V19.4606H92.8718V10.3406C92.8893 10.0512 92.8493 9.7612 92.7541 9.48735C92.659 9.21351 92.5107 8.96124 92.3176 8.74516C92.1135 8.54993 91.871 8.39905 91.6059 8.30197C91.3408 8.2049 91.0588 8.16372 90.777 8.18104C90.4497 8.16524 90.123 8.22195 89.8201 8.34712C89.5172 8.47228 89.2455 8.66284 89.0246 8.90518C88.5645 9.45594 88.3308 10.1614 88.3714 10.8782V19.4579H84.6704V10.3671C84.7065 9.77929 84.5116 9.20058 84.1278 8.75432C83.9303 8.5571 83.6934 8.40402 83.4326 8.30521C83.1718 8.20639 82.8932 8.16407 82.6148 8.18104C82.2876 8.16645 81.9614 8.22446 81.6593 8.35091C81.3571 8.47736 81.0864 8.66914 80.8669 8.91249C80.4114 9.47388 80.1817 10.1854 80.223 10.9075V19.4606H76.4944Z" fill="black"/>
<path fill-rule="evenodd" clip-rule="evenodd" d="M6.39572 24.0301C6.48365 24.0178 6.56533 23.9776 6.62881 23.9156C6.69229 23.8535 6.73424 23.7727 6.74851 23.685C6.92296 23.0516 7.00485 22.3963 6.99165 21.7394C6.96699 20.5982 6.73075 19.4714 6.29492 18.4164C6.198 18.1799 6.00525 18.058 5.86458 18.1482C5.79084 18.2273 5.74373 18.3274 5.72982 18.4346C5.71591 18.5418 5.73592 18.6507 5.78705 18.7459C6.1533 19.6305 6.35181 20.5756 6.37246 21.5328C6.38106 22.0328 6.3252 22.5318 6.2063 23.0176C5.26034 21.6167 4.31438 20.2166 3.36842 18.8173C3.32634 18.7381 3.26392 18.6716 3.18761 18.6246C3.11129 18.5776 3.02383 18.5518 2.93422 18.5498C2.78579 18.5664 2.67169 18.6966 2.62794 18.8971C2.53264 19.3481 2.48586 19.808 2.48838 20.2689C2.51506 21.026 2.66259 21.7739 2.92536 22.4843C3.0184 22.7236 3.20837 22.8509 3.35181 22.77C3.49526 22.6892 3.53679 22.4256 3.44486 22.1847C3.24612 21.6423 3.13234 21.0725 3.10756 20.4954C3.10708 20.2144 3.12745 19.9337 3.16849 19.6557C4.08455 21.0141 5.003 22.3729 5.92385 23.7321C6.00071 23.8552 6.11337 23.9518 6.24673 24.009C6.29414 24.0265 6.34472 24.0339 6.39516 24.0306L6.39572 24.0301Z" fill="#F1EFEC"/>
<path fill-rule="evenodd" clip-rule="evenodd" d="M7.7564 26.401C8.39457 25.1566 8.71553 23.7738 8.69073 22.3756C8.69013 22.3714 8.69013 22.3671 8.69073 22.3629C8.66807 20.75 8.35187 19.1548 7.75755 17.6552C7.66173 17.4176 7.46953 17.2913 7.32831 17.3749C7.25299 17.4519 7.2041 17.5509 7.18876 17.6574C7.17343 17.764 7.19242 17.8726 7.24298 17.9676C7.77105 19.2972 8.05256 20.712 8.07375 22.1425C8.09458 23.3829 7.80924 24.6093 7.24298 25.7131C7.19927 25.8203 7.18416 25.9369 7.19911 26.0517C7.21406 26.1665 7.25859 26.2753 7.32831 26.3677C7.371 26.4293 7.43067 26.4772 7.50003 26.5056C7.54833 26.5243 7.60192 26.5238 7.64985 26.5041C7.69777 26.4844 7.73635 26.4471 7.75755 26.3999L7.7564 26.401Z" fill="#F1EFEC"/>
<path fill-rule="evenodd" clip-rule="evenodd" d="M9.99755 24.898C9.9783 24.8914 9.95977 24.8829 9.94218 24.8726C9.85081 24.8018 9.77949 24.7082 9.7353 24.6014C9.6911 24.4945 9.67552 24.378 9.69014 24.2633C9.75138 23.7672 9.78336 23.2679 9.78594 22.768C9.76316 20.9083 9.40777 19.0676 8.73646 17.3332C8.68629 17.2387 8.6681 17.1305 8.68468 17.0249C8.70126 16.9192 8.75165 16.8217 8.82834 16.7471C8.97179 16.6663 9.1607 16.7943 9.25596 17.0335C9.62422 17.9917 9.90737 18.9804 10.1022 19.9882C10.2934 20.9775 10.3946 21.982 10.4046 22.9895V22.9984C10.4018 23.5466 10.3668 24.0942 10.3 24.6383C10.2739 24.8454 10.1421 24.9518 9.99478 24.898H9.99755Z" fill="#F1EFEC"/>
<path fill-rule="evenodd" clip-rule="evenodd" d="M9.26051 28.1177C9.50917 27.6479 9.71313 27.1558 9.86972 26.6478C9.89868 26.5348 9.89864 26.4163 9.86959 26.3033C9.84054 26.1903 9.78341 26.0865 9.70355 26.0015C9.6773 25.9659 9.64124 25.9388 9.59977 25.9236C9.55829 25.9083 9.51326 25.9055 9.47023 25.9156C9.42721 25.9257 9.38805 25.9482 9.35767 25.9802C9.32728 26.0123 9.30697 26.0527 9.29925 26.0963C9.15511 26.5606 8.96819 27.0106 8.74095 27.4404C8.69801 27.5476 8.68381 27.6642 8.69964 27.7786C8.71547 27.893 8.76083 28.0013 8.83127 28.0928C8.8731 28.152 8.93062 28.1982 8.99739 28.2263C9.04669 28.2459 9.10175 28.2451 9.15058 28.2244C9.19942 28.2037 9.23812 28.1646 9.25828 28.1156L9.26051 28.1177Z" fill="#F1EFEC"/>
</svg>
