<svg width="644" height="328" viewBox="0 0 644 328" fill="none" xmlns="http://www.w3.org/2000/svg">
<path d="M120 182L124.592 176.706C155.222 141.397 198.423 119.437 245 115.5V115.5" stroke="white" stroke-width="3"/>
<path d="M496.5 178.5V178.5C466.436 142.195 422.972 119.447 376 115.5V115.5" stroke="white" stroke-width="3"/>
<path d="M376.4 115.584C376.4 97.8832 376.364 80.1829 376.429 62.4868C376.436 61.5257 376.258 60.5727 375.905 59.6834C375.553 58.7941 375.033 57.9862 374.375 57.3068C373.718 56.6273 372.936 56.0899 372.076 55.7259C371.215 55.3618 370.294 55.1784 369.364 55.1863C363.606 55.2961 357.848 55.2158 352.09 55.2158" stroke="white" stroke-width="3" stroke-linecap="round" stroke-linejoin="round"/>
<path d="M270.057 55.2201C264.081 55.2201 258.104 55.3088 252.132 55.1863C251.154 55.1778 250.185 55.3663 249.282 55.7405C248.38 56.1147 247.562 56.6668 246.879 57.3637C246.196 58.0606 245.662 58.8878 245.308 59.7957C244.954 60.7036 244.788 61.6734 244.82 62.6468C244.858 80.2909 244.82 97.9393 244.82 115.584" stroke="white" stroke-width="3" stroke-linecap="round" stroke-linejoin="round"/>
<path d="M321.415 35.3538C321.415 31.6366 321.34 27.9194 321.44 24.2064C321.511 21.408 319.284 18.3327 316.246 17.7999C312.523 17.1663 308.721 17.1663 304.998 17.7999C301.96 18.3201 299.733 21.408 299.808 24.2064C299.905 27.9194 299.834 31.6366 299.834 35.3538" stroke="white" stroke-width="3" stroke-linecap="round" stroke-linejoin="round"/>
<path d="M256.535 14.6201C256.535 17.7935 256.535 20.9669 256.535 24.1403C256.535 25.9537 256.891 26.3345 258.524 26.339C263.269 26.339 268.015 26.339 272.761 26.339" stroke="white" stroke-width="3" stroke-linecap="round" stroke-linejoin="round"/>
<path d="M364.709 14.6201C364.709 17.7935 364.709 20.9669 364.709 24.1403C364.709 25.9537 364.357 26.3345 362.724 26.339C357.978 26.339 353.228 26.339 348.482 26.339" stroke="white" stroke-width="3" stroke-linecap="round" stroke-linejoin="round"/>
<path d="M375.528 41.6646H363.809" stroke="white" stroke-width="3" stroke-linecap="round" stroke-linejoin="round"/>
<path d="M256.536 41.6646H245.719" stroke="white" stroke-width="3" stroke-linecap="round" stroke-linejoin="round"/>
<path d="M310.623 49.7769V57.8899" stroke="white" stroke-width="3" stroke-linecap="round" stroke-linejoin="round"/>
<path d="M235.448 133.629C234.284 133.737 234.022 134.493 234.022 135.494C234.022 141.242 233.955 146.999 234.056 152.747C234.111 155.613 236.954 158.683 240.501 158.807C240.763 158.807 241.024 158.807 241.29 158.807C287.492 158.807 333.698 158.823 379.909 158.853C384.055 158.853 387.426 155.277 387.24 151.651C386.97 146.43 387.151 141.188 387.177 135.955C387.177 133.994 386.793 133.612 384.802 133.612C367.751 133.629 350.701 133.629 333.65 133.612C331.541 133.612 331.288 133.857 331.28 135.942C331.28 137.807 331.254 139.681 331.28 141.537C331.313 143.502 330.896 143.884 328.905 143.88C318.275 143.86 307.644 143.86 297.014 143.88C295.276 143.88 293.538 143.905 291.8 143.88C290.396 143.851 289.94 143.406 289.915 142.023C289.885 140 289.915 137.978 289.915 135.959C289.915 133.882 289.666 133.629 287.548 133.629C270.234 133.629 252.919 133.629 235.604 133.629" stroke="white" stroke-width="3" stroke-linecap="round" stroke-linejoin="round"/>
<path d="M322.679 35.3535H297.671C295.366 35.3535 293.498 37.2099 293.498 39.4999V58.2508C293.498 60.5408 295.366 62.3972 297.671 62.3972H322.679C324.984 62.3972 326.852 60.5408 326.852 58.2508V39.4999C326.852 37.2099 324.984 35.3535 322.679 35.3535Z" stroke="white" stroke-width="3" stroke-linecap="round" stroke-linejoin="round"/>
<path d="M255.637 14.6202C258.624 14.6202 261.046 12.1986 261.046 9.21146C261.046 6.2243 258.624 3.80273 255.637 3.80273C252.65 3.80273 250.229 6.2243 250.229 9.21146C250.229 12.1986 252.65 14.6202 255.637 14.6202Z" stroke="white" stroke-width="3" stroke-linecap="round" stroke-linejoin="round"/>
<path d="M239.409 46.171C242.396 46.171 244.817 43.7494 244.817 40.7622C244.817 37.7751 242.396 35.3535 239.409 35.3535C236.422 35.3535 234 37.7751 234 40.7622C234 43.7494 236.422 46.171 239.409 46.171Z" stroke="white" stroke-width="3" stroke-linecap="round" stroke-linejoin="round"/>
<path d="M261.494 89.441C264.73 89.441 267.354 87.0194 267.354 84.0323C267.354 81.0451 264.73 78.6235 261.494 78.6235C258.258 78.6235 255.635 81.0451 255.635 84.0323C255.635 87.0194 258.258 89.441 261.494 89.441Z" stroke="white" stroke-width="3" stroke-linecap="round" stroke-linejoin="round"/>
<path d="M365.162 14.6202C368.398 14.6202 371.022 12.1986 371.022 9.21146C371.022 6.2243 368.398 3.80273 365.162 3.80273C361.926 3.80273 359.303 6.2243 359.303 9.21146C359.303 12.1986 361.926 14.6202 365.162 14.6202Z" stroke="white" stroke-width="3" stroke-linecap="round" stroke-linejoin="round"/>
<path d="M381.838 46.171C384.826 46.171 387.247 43.7494 387.247 40.7622C387.247 37.7751 384.826 35.3535 381.838 35.3535C378.851 35.3535 376.43 37.7751 376.43 40.7622C376.43 43.7494 378.851 46.171 381.838 46.171Z" stroke="white" stroke-width="3" stroke-linecap="round" stroke-linejoin="round"/>
<path d="M359.751 89.441C362.489 89.441 364.709 87.0194 364.709 84.0323C364.709 81.0451 362.489 78.6235 359.751 78.6235C357.013 78.6235 354.793 81.0451 354.793 84.0323C354.793 87.0194 357.013 89.441 359.751 89.441Z" stroke="white" stroke-width="3" stroke-linecap="round" stroke-linejoin="round"/>
<path d="M310.625 49.777C312.617 49.777 314.231 48.3644 314.231 46.6219C314.231 44.8794 312.617 43.4668 310.625 43.4668C308.634 43.4668 307.02 44.8794 307.02 46.6219C307.02 48.3644 308.634 49.777 310.625 49.777Z" stroke="white" stroke-width="3" stroke-linecap="round" stroke-linejoin="round"/>
<path d="M259.244 105.667H300.711" stroke="white" stroke-width="3" stroke-linecap="round" stroke-linejoin="round"/>
<path d="M319.639 105.667H361.106" stroke="white" stroke-width="3" stroke-linecap="round" stroke-linejoin="round"/>
<path d="M259.244 121.893H300.711" stroke="white" stroke-width="3" stroke-linecap="round" stroke-linejoin="round"/>
<path d="M319.639 121.893H361.106" stroke="white" stroke-width="3" stroke-linecap="round" stroke-linejoin="round"/>
<path d="M310.624 84.9338C304.983 81.7111 282.985 68.2747 275.86 41.5319C273.587 32.8794 273.074 23.858 274.351 15.0032L306.862 2.7333C307.881 2.33213 308.956 2.09011 310.049 2.01573C310.433 1.99476 310.818 1.99476 311.202 2.01573C312.295 2.09011 313.37 2.33213 314.389 2.7333L346.901 15.0032C348.178 23.858 347.664 32.8794 345.391 41.5319C338.262 68.2747 316.268 81.7111 310.624 84.9338Z" stroke="white" stroke-width="3" stroke-linecap="round" stroke-linejoin="round"/>
<path d="M261.045 78.6236V70.3182C261.044 69.9885 261.116 69.6619 261.256 69.3572C261.396 69.0524 261.602 68.7755 261.861 68.5422C262.121 68.3088 262.429 68.1237 262.768 67.9974C263.107 67.8712 263.471 67.8062 263.838 67.8062H288.99" stroke="white" stroke-width="3" stroke-linecap="round" stroke-linejoin="round"/>
<path d="M360.203 77.7219V68.0279C360.218 67.2677 359.941 66.5325 359.434 65.9838C358.926 65.4351 358.229 65.1178 357.496 65.1016H333.16" stroke="white" stroke-width="3" stroke-linecap="round" stroke-linejoin="round"/>
<path d="M98.1937 222.556C98.1937 218.778 98.3137 214.992 98.1614 211.219C97.9216 205.252 95.1032 200.864 89.5587 198.334C84.3002 195.929 79.3184 196.586 74.7287 199.904C70.628 202.874 68.7691 207.033 68.8337 212.077C68.8798 215.57 68.8337 219.063 68.8337 222.556" stroke="white" stroke-width="3" stroke-linecap="round" stroke-linejoin="round"/>
<path d="M14.7836 300.082C11.3932 300.082 8.14164 298.767 5.74424 296.426C3.34685 294.084 2 290.909 2 287.597V181.921H29.8026" stroke="white" stroke-width="3" stroke-linecap="round" stroke-linejoin="round"/>
<path d="M44.7734 181.921H155.174C156.824 181.918 158.459 182.239 159.984 182.865C161.509 183.491 162.895 184.411 164.063 185.57C165.231 186.73 166.157 188.107 166.789 189.623C167.421 191.14 167.746 192.765 167.746 194.406V287.597C167.746 289.237 167.422 290.861 166.791 292.375C166.16 293.89 165.236 295.266 164.071 296.426C162.905 297.585 161.522 298.505 159.999 299.132C158.477 299.759 156.845 300.082 155.197 300.082H152.561" stroke="white" stroke-width="3" stroke-linecap="round" stroke-linejoin="round"/>
<path d="M152.239 299.548C152.239 306.496 149.481 313.16 144.574 318.073C139.666 322.986 133.01 325.746 126.07 325.746H40.4593C33.5197 325.745 26.8647 322.984 21.958 318.071C17.0514 313.158 14.2949 306.495 14.2949 299.548V299.548C14.2949 292.6 17.0514 285.937 21.958 281.024C26.8647 276.111 33.5197 273.35 40.4593 273.349H126.07C133.01 273.349 139.666 276.109 144.574 281.023C149.481 285.936 152.239 292.599 152.239 299.548Z" stroke="white" stroke-width="3" stroke-linecap="round" stroke-linejoin="round"/>
<path d="M100.023 222.556H67.5861C62.3695 222.556 58.1406 226.74 58.1406 231.903V264.002C58.1406 269.164 62.3695 273.349 67.5861 273.349H100.023C105.24 273.349 109.468 269.164 109.468 264.002V231.903C109.468 226.74 105.24 222.556 100.023 222.556Z" stroke="white" stroke-width="3" stroke-linecap="round" stroke-linejoin="round"/>
<path d="M28.944 181.921H2V170.83C2 164.849 7.58718 160 14.4555 160H51.1728C56.0082 160 60.4255 162.382 62.5607 166.154L71.5065 181.917H38.348" stroke="white" stroke-width="3" stroke-linecap="round" stroke-linejoin="round"/>
<path d="M91.8261 245.119C91.8261 240.627 87.998 236.992 83.2758 236.992C78.5536 236.992 74.7168 240.627 74.7168 245.119C74.7372 246.41 75.0582 247.675 75.6516 248.804C76.245 249.933 77.0926 250.891 78.1196 251.593C78.1196 251.735 78.1196 251.872 78.1196 252.014C78.1196 255.823 80.4329 258.913 83.2845 258.913C86.136 258.913 88.4537 255.823 88.4537 252.014C88.4537 251.872 88.4537 251.735 88.4537 251.593C89.4754 250.887 90.3171 249.928 90.9052 248.799C91.4932 247.671 91.8094 246.407 91.8261 245.119V245.119Z" stroke="white" stroke-width="3" stroke-linecap="round" stroke-linejoin="round"/>
<path d="M49.1214 305.835L41.4723 301.243L49.2977 296.797L49.722 296.556L49.4913 296.126L48.7361 294.719L48.4755 294.233L48.0174 294.54C47.1226 295.139 45.9412 295.905 44.4721 296.839C43.2243 297.633 41.8712 298.482 40.4127 299.386C40.4423 298.213 40.4793 297.026 40.5171 295.817C40.5203 295.714 40.5235 295.61 40.5268 295.506C40.5776 293.876 40.6412 292.222 40.7132 290.537L40.7347 290.034L40.2315 290.016L38.6151 289.959L38.0709 289.939L38.0979 290.483C38.1685 291.905 38.2306 293.438 38.2842 295.082C38.3288 296.447 38.3431 297.868 38.327 299.343C37.1471 298.596 35.9885 297.839 34.8511 297.072C34.851 297.072 34.8509 297.072 34.8507 297.072L31.1051 294.541L30.6754 294.25L30.4009 294.691L29.5949 295.983L29.3145 296.432L29.7794 296.686C30.6635 297.169 31.8038 297.848 33.2027 298.725C34.4203 299.488 35.7964 300.328 37.3306 301.245C36.3115 301.84 35.2025 302.475 34.0035 303.15C32.5159 303.988 31.04 304.779 29.5757 305.526L29.1038 305.766L29.371 306.223L30.1262 307.516L30.3996 307.984L30.844 307.674C31.6903 307.083 32.835 306.37 34.2828 305.532C35.5234 304.814 36.8619 304.021 38.2983 303.152C38.2899 304.554 38.2625 305.996 38.2206 307.474C38.1641 309.272 38.1006 310.899 38.03 312.356L38.0035 312.903L38.5507 312.879L39.8998 312.822L40.3915 312.801L40.3784 312.309C40.3232 310.253 40.2896 308.328 40.3233 306.543C40.3486 305.201 40.3669 304.054 40.3746 303.104C41.2293 303.646 42.2037 304.295 43.2982 305.05C44.7407 306.046 46.2368 307.034 47.7865 308.014L48.2159 308.285L48.4805 307.851L49.2908 306.524L49.5532 306.094L49.1214 305.835Z" fill="white" stroke="white"/>
<path d="M70.0995 299.399C70.1299 298.222 70.1681 297.031 70.207 295.818C70.2103 295.714 70.2137 295.611 70.217 295.507C70.2693 293.876 70.3346 292.223 70.4086 290.538L70.4308 290.034L69.9264 290.016L68.2652 289.959L67.7208 289.94L67.7485 290.484C67.821 291.906 67.8848 293.439 67.94 295.083C67.9859 296.452 68.0005 297.876 67.9838 299.356C66.7619 298.604 65.5621 297.841 64.3845 297.069C64.3844 297.069 64.3843 297.069 64.3842 297.069L60.5345 294.537L60.1118 294.259L59.8389 294.685L59.0104 295.978L58.7173 296.435L59.1973 296.689C60.1089 297.172 61.2808 297.851 62.7156 298.728C63.9631 299.49 65.3763 300.329 66.9548 301.245C65.9051 301.839 64.7662 302.473 63.538 303.147C62.012 303.985 60.4951 304.777 58.9872 305.523L58.5011 305.764L58.7803 306.229L59.5565 307.521L59.8282 307.973L60.2653 307.678C61.139 307.086 62.3163 306.372 63.8018 305.535C65.0819 304.813 66.4662 304.014 67.9545 303.139C67.946 304.545 67.9177 305.991 67.8745 307.474C67.8165 309.271 67.7512 310.898 67.6787 312.355L67.6515 312.902L68.1988 312.879L69.5854 312.822L70.0781 312.801L70.0645 312.308L70.0595 312.129C70.0045 310.135 69.9532 308.276 70.0077 306.549C70.0504 305.195 70.0611 304.041 70.0638 303.089C70.9544 303.636 71.9681 304.29 73.1056 305.054C74.588 306.049 76.1255 307.037 77.718 308.017L78.1402 308.277L78.4036 307.857L79.2364 306.529L79.5107 306.092L79.0648 305.831L71.2003 301.243L79.2336 296.8L79.6706 296.558L79.4294 296.121L78.6533 294.714L78.3935 294.243L77.9426 294.536C77.0228 295.135 75.8084 295.901 74.2984 296.836C73.0084 297.634 71.6087 298.489 70.0995 299.399Z" fill="white" stroke="white"/>
<path d="M100.568 299.397C100.598 298.22 100.636 297.029 100.675 295.817C100.679 295.713 100.682 295.61 100.685 295.506C100.738 293.875 100.803 292.223 100.877 290.538L100.899 290.034L100.395 290.016L98.7322 289.959L98.1873 289.94L98.2156 290.484C98.2897 291.907 98.3593 293.452 98.4116 295.081C98.4551 296.439 98.4684 297.872 98.4512 299.355C97.2277 298.602 96.0265 297.84 94.8474 297.067L90.9943 294.536L90.572 294.259L90.299 294.684L89.4698 295.976L89.1747 296.436L89.659 296.689C90.5697 297.166 91.7414 297.843 93.1769 298.726C94.4267 299.494 95.8465 300.335 97.4359 301.249C96.388 301.842 95.2491 302.476 94.0191 303.149C92.4887 303.986 90.9702 304.778 89.4636 305.524L88.9775 305.765L89.257 306.23L90.0339 307.522L90.306 307.975L90.743 307.678C91.6141 307.088 92.7921 306.374 94.2816 305.537C95.5655 304.815 96.9515 304.016 98.4394 303.141C98.4315 304.546 98.4048 305.991 98.3592 307.475C98.304 309.272 98.2387 310.898 98.1632 312.354L98.1348 312.902L98.6833 312.879L100.071 312.822L100.568 312.801L100.55 312.304C100.475 310.25 100.456 308.331 100.494 306.545C100.522 305.196 100.54 304.046 100.547 303.093C101.431 303.64 102.441 304.293 103.577 305.056C105.061 306.051 106.6 307.038 108.194 308.018L108.616 308.277L108.879 307.858L109.713 306.53L109.987 306.093L109.541 305.833L101.67 301.241L109.71 296.799L110.147 296.557L109.906 296.12L109.129 294.713L108.869 294.241L108.418 294.536C107.501 295.134 106.286 295.9 104.772 296.834C103.478 297.632 102.077 298.487 100.568 299.397Z" fill="white" stroke="white"/>
<path d="M131.055 299.399C131.085 298.219 131.123 297.026 131.162 295.812C131.166 295.71 131.169 295.608 131.172 295.507C131.224 293.876 131.29 292.223 131.364 290.538L131.386 290.034L130.882 290.016L129.22 289.959L128.675 289.94L128.704 290.484C128.778 291.907 128.847 293.453 128.899 295.082C128.943 296.44 128.956 297.874 128.939 299.356C127.717 298.604 126.517 297.841 125.34 297.069C125.339 297.069 125.339 297.069 125.339 297.069L121.49 294.537L121.067 294.259L120.794 294.685L119.966 295.978L119.672 296.435L120.152 296.689C121.064 297.172 122.236 297.851 123.671 298.728C124.918 299.49 126.331 300.329 127.91 301.245C126.86 301.839 125.721 302.473 124.493 303.147C122.967 303.985 121.45 304.777 119.942 305.523L119.456 305.764L119.735 306.229L120.512 307.521L120.784 307.975L121.222 307.677C122.089 307.086 123.265 306.373 124.756 305.535C126.041 304.813 127.426 304.015 128.911 303.14C128.905 304.544 128.878 305.989 128.83 307.473C128.772 309.271 128.706 310.898 128.634 312.355L128.607 312.902L129.154 312.879L130.54 312.822L131.038 312.801L131.019 312.304C130.944 310.25 130.925 308.33 130.963 306.544C130.991 305.193 131.009 304.041 131.016 303.087C131.915 303.639 132.934 304.298 134.075 305.055C135.557 306.05 137.094 307.037 138.686 308.017L139.108 308.277L139.372 307.857L140.205 306.529L140.479 306.091L140.033 305.831L132.156 301.242L140.189 296.8L140.626 296.558L140.385 296.121L139.608 294.714L139.348 294.242L138.897 294.537C137.981 295.135 136.767 295.901 135.254 296.836C133.961 297.634 132.562 298.488 131.055 299.399Z" fill="white" stroke="white"/>
<path d="M609.431 202.493C609.46 202.068 609.507 201.642 609.507 201.216C609.507 191.225 609.469 181.238 609.507 171.251C609.541 165.263 604.982 160.975 599.299 161C572.609 161.107 545.914 161.06 519.224 161.03C516.987 161.03 515.239 161.797 514.005 163.619C513.801 163.922 513.558 164.198 513.333 164.207C511.593 164.301 510.602 165.54 509.505 166.626C502.983 173.156 496.461 179.686 489.939 186.216C488.982 187.175 488.012 188.099 487.863 189.564C487.804 190.117 487.349 190.39 486.923 190.692C486.301 191.112 485.798 191.685 485.462 192.357C485.126 193.028 484.969 193.775 485.005 194.525C485.005 194.683 485.005 194.845 485.005 195.002C485.005 233.365 485.005 271.726 485.005 310.083C485.013 312.577 486.007 314.965 487.769 316.727C489.532 318.488 491.919 319.479 494.41 319.482C529.54 319.482 564.669 319.482 599.797 319.482C605.22 319.482 609.358 315.334 609.503 309.755C609.546 308.107 609.503 306.459 609.503 304.811" stroke="white" stroke-width="3" stroke-linecap="round" stroke-linejoin="round"/>
<path d="M551.709 191.108L585.494 191.186C586.76 191.186 587.973 191.096 588.893 190.111C589.432 189.573 589.725 188.855 589.71 188.112C589.679 185.707 589.71 183.298 589.71 180.893C589.71 178.993 588.647 177.984 586.643 177.979C570.1 177.979 553.558 177.979 537.015 177.979C535.222 177.979 534.13 179.034 534.112 180.737C534.112 183.044 534.251 185.358 534.065 187.648C533.905 189.59 535.322 191.211 537.823 191.186C539.334 191.186 540.846 191.186 542.349 191.186" stroke="white" stroke-width="3" stroke-linecap="round" stroke-linejoin="round"/>
<path d="M638.96 246.686C639.272 245.064 639.859 243.506 640.696 242.078C641.178 241.24 641.474 240.31 641.565 239.349C641.656 238.388 641.539 237.419 641.223 236.507C640.906 235.595 640.397 234.76 639.729 234.059C639.062 233.358 638.251 232.806 637.351 232.441C634.02 230.971 632.143 228.582 631.938 224.965C631.708 220.915 627.148 217.658 622.981 218.929C620.08 219.814 617.602 218.958 615.478 216.883C614.78 216.147 614.041 215.451 613.264 214.799C611.451 213.384 606.866 213.443 604.788 215.455C604.247 215.972 603.709 216.501 603.189 217.039C602.315 218.025 601.167 218.731 599.888 219.068C598.61 219.404 597.26 219.356 596.01 218.929C591.51 217.598 587.137 221.267 586.924 225.443C586.758 228.743 585.141 230.844 582.125 232.119C579.357 233.288 577.668 235.322 577.467 238.439C577.356 239.829 577.707 241.218 578.466 242.391C580.368 245.301 580.287 248.156 578.615 251.13C576.248 255.34 577.595 259.466 581.959 261.419C584.945 262.762 586.736 264.808 586.945 268.243C587.15 271.564 589.407 274.114 592.973 274.906C593.677 275.063 594.376 275.253 594.973 275.402C595.19 276.058 595.269 276.752 595.204 277.439C595.204 284.217 595.204 290.969 595.204 297.733C595.204 299.136 595.361 300.529 596.679 301.169C597.887 301.758 599.166 301.376 600.339 300.605C602.592 299.119 604.921 297.755 607.19 296.298C608.755 295.294 610.227 295.239 611.835 296.298C614.288 297.899 616.813 299.402 619.33 300.906C621.671 302.308 623.467 301.398 623.796 298.695C624.15 295.793 623.911 292.879 623.945 289.973C623.992 285.737 623.97 281.501 623.945 277.291C623.945 275.321 623.945 275.402 625.877 274.948C628.394 274.355 630.373 273.161 631.422 270.78C631.789 269.872 632.008 268.911 632.071 267.934C632.344 264.875 633.884 262.647 636.733 261.635C637.788 261.259 638.741 260.646 639.518 259.843C640.295 259.04 640.875 258.07 641.212 257.009C641.549 255.947 641.634 254.822 641.461 253.722C641.288 252.622 640.861 251.577 640.214 250.668C639.412 249.491 639.254 248.161 638.934 246.856" stroke="white" stroke-width="3" stroke-linecap="round" stroke-linejoin="round"/>
<path d="M564.241 235.524H501.037" stroke="white" stroke-width="3" stroke-linecap="round" stroke-linejoin="round"/>
<path d="M562.353 218.544H499.148" stroke="white" stroke-width="3" stroke-linecap="round" stroke-linejoin="round"/>
<path d="M564.241 252.505H501.037" stroke="white" stroke-width="3" stroke-linecap="round" stroke-linejoin="round"/>
<path d="M564.241 269.485C562.812 269.485 561.382 269.485 559.952 269.485C542.114 269.485 524.275 269.485 506.434 269.485C504.635 269.485 502.836 269.485 501.037 269.485" stroke="white" stroke-width="3" stroke-linecap="round" stroke-linejoin="round"/>
<path d="M513.993 163.831C514.793 164.889 515.192 166.2 515.118 167.529C515.118 173.208 514.918 178.899 515.178 184.565C515.34 188.092 512.91 191.064 508.886 191.133C502.875 191.236 496.865 191.168 490.859 191.133C489.729 191.133 488.779 190.553 487.828 190.012" stroke="white" stroke-width="3" stroke-linecap="round" stroke-linejoin="round"/>
<path d="M535.941 294.012H501.037" stroke="white" stroke-width="3" stroke-linecap="round" stroke-linejoin="round"/>
<path d="M623.672 275.393C621.227 273.644 618.212 273.915 615.965 276.045C614.924 277.033 614.109 278.279 612.828 279C610.414 280.351 606.731 280.255 604.333 277.689C603.207 276.486 602.179 275.096 600.553 274.593C598.735 274.033 596.921 273.898 595.371 275.393" stroke="white" stroke-width="3" stroke-linecap="round" stroke-linejoin="round"/>
<path d="M609.521 260.995C617.336 260.995 623.672 254.448 623.672 246.373C623.672 238.297 617.336 231.751 609.521 231.751C601.706 231.751 595.371 238.297 595.371 246.373C595.371 254.448 601.706 260.995 609.521 260.995Z" stroke="white" stroke-width="3" stroke-linecap="round" stroke-linejoin="round"/>
</svg>
