<svg width="563" height="519" viewBox="0 0 563 519" fill="none" xmlns="http://www.w3.org/2000/svg">
<path d="M223.632 227.638H341.342C344.828 227.638 347.625 224.841 347.625 221.355V103.645C347.625 100.159 344.828 97.3623 341.342 97.3623H223.632C220.146 97.3623 217.35 100.159 217.35 103.645V221.355C217.35 224.801 220.146 227.638 223.632 227.638Z" fill="#9AA0A6"/>
<path d="M286.095 227.638H403.805C407.291 227.638 410.088 224.841 410.088 221.355V103.645C410.088 100.159 407.291 97.3623 403.805 97.3623H286.095C282.609 97.3623 279.812 100.159 279.812 103.645V221.355C279.812 224.801 282.609 227.638 286.095 227.638Z" fill="#08243B"/>
<path d="M279.812 201.088V219.491C279.812 223.949 283.461 227.598 287.919 227.598" stroke="#08243B" stroke-width="2.5823" stroke-miterlimit="10" stroke-linecap="round"/>
<path d="M279.812 131.046V194.562" stroke="#08243B" stroke-width="2.5823" stroke-miterlimit="10" stroke-linecap="round"/>
<path d="M290.271 212.438V112.563C290.271 109.968 292.378 107.82 295.013 107.82H394.888C397.482 107.82 399.631 109.928 399.631 112.563V212.438C399.631 215.032 397.523 217.18 394.888 217.18H295.013C292.378 217.18 290.271 215.032 290.271 212.438Z" fill="white"/>
<path d="M393.469 107.861H391.361C394.726 107.861 397.482 110.576 397.482 113.981V211.1C397.482 214.464 394.766 217.221 391.361 217.221H393.469C396.833 217.221 399.59 214.505 399.59 211.1V113.941C399.59 110.576 396.874 107.861 393.469 107.861Z" fill="#08243B"/>
<path d="M349.368 179.524C358.77 179.524 366.392 171.902 366.392 162.5C366.392 153.098 358.77 145.476 349.368 145.476C339.966 145.476 332.344 153.098 332.344 162.5C332.344 171.902 339.966 179.524 349.368 179.524Z" fill="url(#paint0_linear)"/>
<path d="M351.476 176.282C359.087 176.282 365.257 170.112 365.257 162.5C365.257 154.889 359.087 148.719 351.476 148.719C343.865 148.719 337.694 154.889 337.694 162.5C337.694 170.112 343.865 176.282 351.476 176.282Z" fill="white"/>
<path d="M349.936 141.585V133.721" stroke="#9AA0A6" stroke-width="2.5823" stroke-miterlimit="10" stroke-linecap="round"/>
<path d="M339.478 144.381L335.546 137.572" stroke="#9AA0A6" stroke-width="2.5823" stroke-miterlimit="10" stroke-linecap="round"/>
<path d="M331.817 152.043L325.048 148.111" stroke="#9AA0A6" stroke-width="2.5823" stroke-miterlimit="10" stroke-linecap="round"/>
<path d="M329.02 162.5H321.156" stroke="#9AA0A6" stroke-width="2.5823" stroke-miterlimit="10" stroke-linecap="round"/>
<path d="M331.817 172.958L325.048 176.89" stroke="#9AA0A6" stroke-width="2.5823" stroke-miterlimit="10" stroke-linecap="round"/>
<path d="M339.478 180.619L335.546 187.428" stroke="#9AA0A6" stroke-width="2.5823" stroke-miterlimit="10" stroke-linecap="round"/>
<path d="M349.936 183.456V191.279" stroke="#9AA0A6" stroke-width="2.5823" stroke-miterlimit="10" stroke-linecap="round"/>
<path d="M360.434 180.619L364.325 187.428" stroke="#9AA0A6" stroke-width="2.5823" stroke-miterlimit="10" stroke-linecap="round"/>
<path d="M368.095 172.958L374.864 176.89" stroke="#9AA0A6" stroke-width="2.5823" stroke-miterlimit="10" stroke-linecap="round"/>
<path d="M370.892 162.5H378.715" stroke="#9AA0A6" stroke-width="2.5823" stroke-miterlimit="10" stroke-linecap="round"/>
<path d="M368.095 152.043L374.864 148.111" stroke="#9AA0A6" stroke-width="2.5823" stroke-miterlimit="10" stroke-linecap="round"/>
<path d="M360.434 144.381L364.325 137.572" stroke="#9AA0A6" stroke-width="2.5823" stroke-miterlimit="10" stroke-linecap="round"/>
<path d="M353.422 157.19L352.611 154.961L353.057 153.785H352.206L352.165 153.907V153.947L352.084 154.15C352.044 154.312 351.963 154.474 351.882 154.677L351.76 154.961C351.679 155.123 351.638 155.325 351.557 155.528L351.436 155.933C351.355 156.136 351.274 156.339 351.233 156.501L350.99 157.19C348.558 157.757 346.774 159.906 346.774 162.5C346.774 165.499 349.206 167.931 352.206 167.931C355.205 167.931 357.637 165.499 357.637 162.5C357.637 159.906 355.813 157.757 353.422 157.19Z" fill="#08243B"/>
<path d="M354.273 157.19L353.057 153.785L351.841 157.19C349.408 157.757 347.625 159.906 347.625 162.5C347.625 165.499 350.057 167.931 353.057 167.931C356.056 167.931 358.488 165.499 358.488 162.5C358.488 159.906 356.664 157.757 354.273 157.19Z" fill="url(#paint1_linear)"/>
<path d="M369.837 81.5541H220.146C215.241 81.5541 211.229 77.5413 211.229 72.6367C211.229 67.7321 215.241 63.7192 220.146 63.7192H369.797C374.701 63.7192 378.714 67.7321 378.714 72.6367C378.714 77.5413 374.701 81.5541 369.837 81.5541Z" fill="#DADADA"/>
<path d="M248.114 73.4474C248.114 75.1903 246.696 76.5685 244.993 76.5685C243.25 76.5685 241.872 75.1498 241.872 73.4474C241.872 71.7044 243.291 70.3263 244.993 70.3263C246.696 70.2858 248.114 71.7044 248.114 73.4474Z" fill="#606060"/>
<path d="M258.856 73.4474C258.856 75.1903 257.437 76.5685 255.734 76.5685C253.991 76.5685 252.613 75.1498 252.613 73.4474C252.613 71.7044 254.032 70.3263 255.734 70.3263C257.437 70.2858 258.856 71.7044 258.856 73.4474Z" fill="#606060"/>
<path d="M269.598 73.4474C269.598 75.1903 268.179 76.5685 266.477 76.5685C264.734 76.5685 263.355 75.1498 263.355 73.4474C263.355 71.7044 264.774 70.3263 266.477 70.3263C268.179 70.2858 269.598 71.7044 269.598 73.4474Z" fill="#606060"/>
<path d="M280.339 73.4474C280.339 75.1903 278.92 76.5685 277.218 76.5685C275.475 76.5685 274.097 75.1498 274.097 73.4474C274.097 71.7044 275.515 70.3263 277.218 70.3263C278.961 70.2858 280.339 71.7044 280.339 73.4474Z" fill="#606060"/>
<path d="M291.08 73.4474C291.08 75.1903 289.661 76.5685 287.959 76.5685C286.216 76.5685 284.838 75.1498 284.838 73.4474C284.838 71.7044 286.257 70.3263 287.959 70.3263C289.702 70.2858 291.08 71.7044 291.08 73.4474Z" fill="#606060"/>
<path d="M301.861 73.4474C301.861 75.1903 300.443 76.5685 298.74 76.5685C296.997 76.5685 295.619 75.1498 295.619 73.4474C295.619 71.7044 297.038 70.3263 298.74 70.3263C300.443 70.2858 301.861 71.7044 301.861 73.4474Z" fill="#606060"/>
<path d="M312.603 73.4474C312.603 75.1903 311.184 76.5685 309.481 76.5685C307.739 76.5685 306.36 75.1498 306.36 73.4474C306.36 71.7044 307.779 70.3263 309.481 70.3263C311.184 70.2858 312.603 71.7044 312.603 73.4474Z" fill="#606060"/>
<path d="M323.345 73.4474C323.345 75.1903 321.926 76.5685 320.224 76.5685C318.481 76.5685 317.103 75.1498 317.103 73.4474C317.103 71.7044 318.521 70.3263 320.224 70.3263C321.926 70.2858 323.345 71.7044 323.345 73.4474Z" fill="#606060"/>
<path d="M334.086 73.4474C334.086 75.1903 332.667 76.5685 330.965 76.5685C329.222 76.5685 327.844 75.1498 327.844 73.4474C327.844 71.7044 329.262 70.3263 330.965 70.3263C332.667 70.2858 334.086 71.7044 334.086 73.4474Z" fill="#606060"/>
<path d="M227.564 71.0153V70.5289C227.564 68.5833 225.983 67.043 224.078 67.043C222.133 67.043 220.592 68.6238 220.592 70.5289V71.0153H220.065V77.3386C220.065 78.433 228.172 78.433 228.172 77.3386V71.0153H227.564ZM221.808 70.5289C221.808 69.3129 222.538 68.2185 224.078 68.2185C225.578 68.2185 226.348 69.2318 226.348 70.5289V71.0153H221.808V70.5289ZM224.686 74.1769V76.0009C224.686 76.3252 224.403 76.5684 224.078 76.5684C223.754 76.5684 223.511 76.3252 223.511 76.0009V74.1769C223.187 73.9742 222.943 73.65 222.943 73.2446C222.943 72.6366 223.47 72.1097 224.078 72.1097C224.686 72.1097 225.213 72.6366 225.213 73.2446C225.173 73.6905 224.93 74.0148 224.686 74.1769Z" fill="url(#paint2_linear)"/>
<path d="M215.728 105.266C203.406 118.44 183.747 129.262 162.75 133.883C162.75 135.302 162.71 143.084 162.548 178.916C162.345 226.746 207.864 250.134 214.917 253.742C221.767 250.58 267.895 227.233 268.098 179.403C268.26 143.53 268.3 135.748 268.3 134.37C247.304 129.546 227.929 118.561 215.728 105.266Z" fill="url(#paint3_linear)"/>
<path d="M215.687 114.021C215.646 113.981 215.606 113.94 215.565 113.94C203.486 125.006 186.786 133.68 168.425 138.423L168.262 178.957C168.181 197.521 175.558 214.302 190.151 228.813C199.757 238.379 209.85 244.297 214.957 246.972C215.16 246.851 215.403 246.729 215.646 246.608C220.956 243.851 230.644 238.095 239.926 229.056C254.68 214.626 262.179 197.926 262.26 179.362L262.422 138.828C244.223 133.964 227.644 125.128 215.687 114.021Z" fill="url(#paint4_linear)"/>
<path d="M194.326 172.431V203.845C194.326 207.331 237.008 207.331 237.008 203.845V172.431H194.326ZM217.836 189.131V198.049C217.836 199.224 216.863 200.237 215.687 200.237C214.471 200.237 213.499 199.265 213.499 198.049V189.131C211.675 188.32 210.378 186.456 210.378 184.348C210.378 181.43 212.729 179.079 215.647 179.079C218.565 179.079 220.916 181.43 220.916 184.348C220.957 186.456 219.7 188.28 217.836 189.131Z" fill="#F1EFEC"/>
<path d="M233.319 170.202H228.982V168.094C228.982 160.757 223.024 154.799 215.687 154.799C208.35 154.799 202.392 160.757 202.392 168.094V170.202H198.055V168.094C198.055 158.366 205.959 150.502 215.646 150.502C225.374 150.502 233.238 158.406 233.238 168.094V170.202H233.319Z" fill="#F1EFEC"/>
<g opacity="0.4">
<g opacity="0.4">
<path opacity="0.4" d="M215.688 114.022V246.648C220.997 243.892 230.685 238.136 239.967 229.097C254.722 214.667 262.22 197.967 262.301 179.403L262.464 138.869C244.223 133.964 227.645 125.128 215.688 114.022Z" fill="white"/>
</g>
</g>
<path d="M258.482 423.96L62.3576 467.594C59.732 468.181 57.1064 466.764 56.1046 464.243L13.1623 353.242C11.8841 349.926 14.0605 346.298 17.5844 345.884L195.157 325.19C197.127 324.948 199.096 325.846 200.236 327.47L261.764 415.531C263.976 418.709 262.248 423.131 258.482 423.96Z" fill="#2950AF"/>
<path d="M258.482 422.924L62.3576 466.557C59.732 467.145 57.1064 465.728 56.1046 463.206L13.1623 352.206C11.8841 348.889 14.0605 345.262 17.5844 344.847L195.157 324.153C197.127 323.912 199.096 324.81 200.236 326.434L261.764 414.495C263.976 417.673 262.248 422.095 258.482 422.924Z" fill="url(#paint5_linear)"/>
<path d="M211.222 413.907C209.564 413.907 208.044 412.767 207.698 411.074C207.249 409.105 208.493 407.171 210.462 406.756L236.649 400.917C238.618 400.468 240.553 401.712 240.967 403.681C241.416 405.65 240.173 407.585 238.203 408L212.017 413.838C211.74 413.873 211.464 413.907 211.222 413.907Z" fill="#08243B"/>
<path d="M170.663 422.924C169.005 422.924 167.485 421.784 167.14 420.091C166.69 418.122 167.934 416.187 169.903 415.773L199.476 409.209C201.445 408.76 203.38 410.003 203.794 411.973C204.243 413.942 203 415.876 201.03 416.291L171.458 422.855C171.182 422.89 170.905 422.924 170.663 422.924Z" fill="#08243B"/>
<path d="M119.119 434.394C117.461 434.394 115.941 433.254 115.595 431.561C115.146 429.592 116.39 427.657 118.359 427.242L157.432 418.537C159.401 418.087 161.336 419.331 161.75 421.3C162.199 423.27 160.956 425.204 158.987 425.619L119.879 434.325C119.637 434.359 119.395 434.394 119.119 434.394Z" fill="#08243B"/>
<path d="M66.6078 446.071C64.9495 446.071 63.4294 444.931 63.0839 443.238C62.6348 441.269 63.8785 439.334 65.8477 438.92L106.544 429.868C108.514 429.419 110.448 430.663 110.863 432.632C111.312 434.601 110.068 436.536 108.099 436.95L67.4024 446.002C67.126 446.036 66.8496 446.071 66.6078 446.071Z" fill="#08243B"/>
<path d="M42.2852 378.669L54.8258 407.378L95.6952 399.778L80.4253 373.487L42.2852 378.669Z" fill="#F1EFEC"/>
<path d="M33.9942 361.05C33.2342 361.05 32.5778 360.497 32.4396 359.703C32.3359 358.839 32.9233 358.079 33.7524 357.941L78.5948 351.757C79.4584 351.653 80.2185 352.24 80.3567 353.07C80.4603 353.933 79.873 354.693 79.0439 354.831L34.236 361.015C34.167 361.015 34.0979 361.05 33.9942 361.05Z" fill="#F1EFEC"/>
<path opacity="0.2" d="M261.73 414.529L200.201 326.468C199.061 324.844 197.092 323.946 195.123 324.188L135.01 331.201L255.788 423.546L258.448 422.959C262.248 422.095 263.975 417.673 261.73 414.529Z" fill="white"/>
<g opacity="0.5">
<g opacity="0.5">
<path opacity="0.5" d="M108.444 340.598C108.996 341.22 111.726 340.701 114.524 339.458C117.322 338.214 119.188 336.729 118.635 336.141C117.841 335.243 116.977 334.31 116.148 333.377L103.227 334.898C105.058 336.867 106.785 338.767 108.444 340.598Z" fill="#08243B"/>
<path opacity="0.5" d="M74.6566 411.489C74.6912 411.523 74.6912 411.523 74.7257 411.558C74.933 411.834 75.1748 412.111 75.3821 412.387C75.4166 412.421 75.4512 412.491 75.5203 412.525C75.7276 412.801 75.9349 413.043 76.1767 413.32C76.2458 413.389 76.2803 413.458 76.3494 413.527C76.5567 413.769 76.764 414.011 77.0058 414.287C77.0749 414.356 77.144 414.425 77.2131 414.494C77.4204 414.736 77.6277 414.978 77.8695 415.22C77.9386 415.289 78.0077 415.393 78.0768 415.462C78.2841 415.703 78.4913 415.945 78.7332 416.153C78.8023 416.222 78.8714 416.325 78.975 416.394C79.1823 416.636 79.4241 416.878 79.6314 417.085C79.7005 417.154 79.7696 417.224 79.8387 417.327C80.0805 417.569 80.2878 417.811 80.5296 418.018C80.5987 418.087 80.6678 418.156 80.7369 418.225C80.9788 418.467 81.2206 418.709 81.497 418.951C81.5315 418.985 81.5315 418.985 81.5661 419.02C82.3952 419.815 83.2589 420.609 84.1226 421.404C84.2262 421.473 84.2953 421.576 84.3989 421.646C84.6062 421.818 84.8135 421.991 85.0208 422.198C85.159 422.336 85.2972 422.44 85.4354 422.578C85.6426 422.751 85.8154 422.889 86.0227 423.062C86.1954 423.2 86.3336 423.338 86.5063 423.477C86.6791 423.615 86.8863 423.787 87.0591 423.926C87.2318 424.064 87.4045 424.202 87.5773 424.34C87.75 424.478 87.9573 424.651 88.13 424.789C88.3028 424.928 88.5101 425.066 88.6828 425.204C88.8555 425.342 89.0628 425.48 89.2355 425.618C89.4428 425.757 89.6156 425.895 89.8229 426.068C89.9956 426.206 90.2029 426.344 90.3756 426.482C90.5829 426.62 90.7902 426.759 90.9629 426.931C91.1357 427.069 91.3429 427.208 91.5157 427.311C91.723 427.45 91.9302 427.622 92.1375 427.76C92.3103 427.899 92.483 428.002 92.6903 428.14C92.8976 428.279 93.1394 428.451 93.3467 428.59C93.5194 428.693 93.6922 428.831 93.8649 428.935C94.1067 429.108 94.3485 429.246 94.5904 429.419C94.7631 429.522 94.9013 429.626 95.074 429.73C95.3504 429.902 95.6268 430.075 95.9032 430.248C96.0414 430.351 96.1796 430.421 96.3177 430.524C96.7323 430.766 97.1469 431.042 97.5614 431.284C125.096 447.798 156.741 446.865 169.212 429.799C169.247 429.73 169.282 429.695 169.316 429.626L177.988 417.984C178.126 417.845 178.229 417.673 178.368 417.534C178.609 417.224 178.851 416.878 179.093 416.533L179.162 416.463C191.219 399.777 179.957 373.867 152.561 357.457C124.197 340.494 90.0992 339.734 76.9367 356.144L76.8331 356.248C76.764 356.351 76.6603 356.455 76.5912 356.558C76.3494 356.869 76.1421 357.18 75.9349 357.491L70.6146 364.919C64.3961 358.217 55.932 348.682 50.439 341.081L38.1401 342.498C46.1897 354.071 59.8704 368.615 64.9834 373.936C60.6304 384.922 64.6033 398.844 74.6566 411.489Z" fill="#08243B"/>
</g>
</g>
<path opacity="0.2" d="M242.763 426.414L126.961 332.134L117.875 333.17L234.541 428.245L242.763 426.414Z" fill="white"/>
<path d="M206.178 407.516L202.205 404.337C205.453 386.649 197.991 366.508 181.373 352.966C164.48 339.181 142.819 336.003 125.994 343.189L122.125 340.08L110.966 354.002C110.621 354.382 110.31 354.762 109.999 355.142C93.6233 375.18 99.0473 406.721 122.09 425.549C145.133 444.378 177.124 443.41 193.499 423.338C193.534 423.269 193.603 423.2 193.638 423.131L206.178 407.516Z" fill="url(#paint6_linear)"/>
<path opacity="0.1" d="M202.206 404.337C204.106 393.87 202.275 382.538 197.024 372.208C200.168 385.855 197.646 399.915 188.871 410.694C172.495 430.732 140.539 431.733 117.461 412.905C110.69 407.378 105.439 400.745 101.812 393.628C104.506 405.374 111.416 416.809 122.091 425.55C145.134 444.378 177.125 443.41 193.5 423.339C193.535 423.269 193.604 423.2 193.638 423.131L206.179 407.481L202.206 404.337Z" fill="#08243B"/>
<path d="M193.084 338.387C216.127 357.215 221.551 388.722 205.176 408.794C188.8 428.832 156.844 429.833 133.766 411.005C110.689 392.177 105.299 360.67 121.675 340.598C138.05 320.526 170.041 319.559 193.084 338.387Z" fill="url(#paint7_linear)"/>
<path d="M148.933 420.091C146.48 419.055 144.062 417.88 141.713 416.498" stroke="#08243B" stroke-width="3" stroke-miterlimit="10" stroke-linecap="round"/>
<path d="M138.5 414.46C136.911 413.389 135.322 412.214 133.802 410.971C125.89 404.51 120.052 396.564 116.459 388.1" stroke="#08243B" stroke-width="3" stroke-miterlimit="10" stroke-linecap="round"/>
<path d="M192.845 397.649C203.745 384.305 199.702 362.97 183.817 349.994C167.931 337.019 146.217 337.318 135.318 350.662C124.419 364.006 128.461 385.342 144.347 398.317C160.233 411.292 181.946 410.993 192.845 397.649Z" fill="#9AA0A6"/>
<path d="M193.214 393.581C203.449 381.05 199.66 361.019 184.749 348.84C169.839 336.662 149.454 336.948 139.219 349.479C128.983 362.01 132.773 382.041 147.684 394.22C162.594 406.399 182.979 406.113 193.214 393.581Z" fill="#08243B"/>
<path d="M186.037 371.31L183.377 368.927C182.237 365.368 179.991 361.913 176.674 359.219C173.945 356.973 170.836 355.557 167.761 354.9L164.963 352.378L157.501 355.799C155.601 356.662 153.873 357.906 152.491 359.599C147.033 366.266 149.037 376.907 156.913 383.367C164.825 389.828 175.638 389.655 181.096 382.953C182.167 381.64 182.927 380.224 183.446 378.669L186.037 371.31Z" fill="url(#paint8_linear)"/>
<path d="M184.29 374.346C188.695 368.953 187.068 360.334 180.654 355.095C174.241 349.857 165.47 349.983 161.065 355.377C156.659 360.77 158.287 369.389 164.7 374.628C171.114 379.866 179.884 379.74 184.29 374.346Z" fill="#606060"/>
<path opacity="0.15" d="M180.648 355.108C174.222 349.856 165.482 349.995 161.06 355.384C160.645 355.902 160.265 356.42 159.954 357.008C164.618 353.035 172.357 353.38 178.161 358.113C183.964 362.846 185.83 370.343 182.893 375.732C183.377 375.318 183.826 374.869 184.275 374.351C188.697 368.927 187.039 360.324 180.648 355.108Z" fill="white"/>
<path d="M107.131 362.812C106.993 362.57 106.786 362.224 106.544 361.81C105.957 363.226 105.991 363.848 107.131 362.812Z" fill="#08243B"/>
<path d="M155.601 320.699C155.221 320.008 157.294 318.177 160.196 316.587C163.098 314.998 165.758 314.273 166.138 314.964C162.787 308.814 158.987 301.905 154.91 294.754C146.653 280.278 135.218 276.133 127.065 275.2C118.946 274.267 112.59 276.305 111.311 276.754C97.1816 281.246 83.4664 294.374 87.1629 317.935C89.3049 331.581 102.951 355.66 106.544 361.81C106.786 362.224 106.993 362.57 107.131 362.812C110.655 359.53 113.799 350.513 113.833 350.409C108.271 340.356 100.325 324.602 98.9781 316.069C95.9034 296.377 109.17 289.986 115.008 288.155L115.25 288.086C115.284 288.086 120.121 286.393 126.098 287.188C133.733 288.19 139.917 292.75 144.442 300.696C148.519 307.743 152.285 314.584 155.601 320.699Z" fill="#9AA0A6"/>
<path d="M160.195 316.587C157.293 318.176 155.255 320.007 155.601 320.698C155.981 321.389 158.641 320.664 161.543 319.075C164.445 317.486 166.483 315.655 166.138 314.964C165.758 314.273 163.097 314.998 160.195 316.587Z" fill="#08243B"/>
<path d="M519.022 304.493H323.979V453.02H519.022V304.493Z" fill="url(#paint9_linear)"/>
<path d="M515.845 307.658H327.155V449.854H515.845V307.658Z" fill="url(#paint10_linear)"/>
<path d="M496.75 443.523C496.679 442.961 496.609 442.398 496.609 441.835C496.609 435.645 501.621 430.651 507.833 430.651C508.398 430.651 508.962 430.721 509.527 430.791V326.686C508.962 326.756 508.398 326.826 507.833 326.826C501.621 326.826 496.609 321.832 496.609 315.642C496.609 315.079 496.679 314.517 496.75 313.954H346.285C346.355 314.517 346.426 315.079 346.426 315.642C346.426 321.832 341.414 326.826 335.202 326.826C334.637 326.826 334.073 326.756 333.508 326.686V430.791C334.073 430.686 334.637 430.651 335.202 430.651C341.379 430.651 346.426 435.645 346.426 441.835C346.426 442.398 346.355 442.961 346.285 443.523H496.75Z" fill="white"/>
<path d="M509.491 317.049C509.491 318.737 508.115 320.109 506.42 320.109C504.726 320.109 503.35 318.737 503.35 317.049C503.35 315.361 504.726 313.989 506.42 313.989C508.115 313.954 509.491 315.325 509.491 317.049Z" fill="white"/>
<path d="M339.683 317.048C339.683 318.736 338.307 320.108 336.613 320.108C334.919 320.108 333.542 318.736 333.542 317.048C333.542 315.36 334.919 313.988 336.613 313.988C338.272 313.953 339.683 315.324 339.683 317.048Z" fill="white"/>
<path d="M339.684 440.463C339.684 442.152 338.308 443.523 336.614 443.523C334.919 443.523 333.543 442.152 333.543 440.463C333.543 438.775 334.919 437.404 336.614 437.404C338.273 437.404 339.684 438.775 339.684 440.463Z" fill="white"/>
<path d="M509.491 440.463C509.491 442.152 508.115 443.523 506.42 443.523C504.726 443.523 503.35 442.152 503.35 440.463C503.35 438.775 504.726 437.404 506.42 437.404C508.115 437.404 509.491 438.775 509.491 440.463Z" fill="#F1EFEC"/>
<path d="M467.985 333.403H374.981V339.206H467.985V333.403Z" fill="#08243B"/>
<path d="M494.174 359.183H348.827V364.987H494.174V359.183Z" fill="#08243B"/>
<path d="M494.174 371.845H348.827V377.613H494.174V371.845Z" fill="#08243B"/>
<path d="M494.174 384.471H348.827V390.275H494.174V384.471Z" fill="#08243B"/>
<path opacity="0.3" d="M468.867 452.597L469.008 453.019H489.691L485.632 440.956L483.55 434.801L488.28 433.922L485.632 429.842L489.939 427.591L486.197 424.461L489.656 421.014L485.138 419.15L487.433 414.859L482.562 414.367L483.479 409.583L478.679 410.568L478.15 405.75L475.82 407.016L473.879 408.071L471.938 403.604L468.514 407.121L465.338 403.393L463.114 407.755L458.984 405.152L458.173 409.97L453.443 408.669L454.078 413.523L449.172 413.698L451.219 418.13L446.596 419.713L449.843 423.37L445.89 426.254L450.09 428.787L447.16 432.691L451.925 433.886L451.819 434.133L450.302 438.388V438.459H450.372L452.949 438.318L452.243 440.499L448.043 453.019H468.726L468.867 452.597Z" fill="#08243B"/>
<path d="M479.455 427.696L472.855 447.287L472.114 449.467L465.407 469.479L459.619 467.545L452.207 465.083L446.807 463.289L455.525 437.368L460.854 421.506L472.114 425.27L479.455 427.696Z" fill="#9AA0A6"/>
<path d="M473.384 426.571L459.619 467.545L452.207 465.083L465.972 424.109L473.384 426.571Z" fill="url(#paint11_linear)"/>
<path d="M497.456 463.289L492.338 464.978L484.22 467.686L478.855 469.479L472.114 449.467L471.867 448.693L464.808 427.696L472.114 425.27L483.408 421.506L488.915 437.861L497.456 463.289Z" fill="url(#paint12_linear)"/>
<path d="M492.337 464.977L484.219 467.686L471.195 428.927L479.172 425.832L492.337 464.977Z" fill="#08243B"/>
<path opacity="0.3" d="M486.337 438.318L487.643 442.89L482.914 442.363L482.808 447.076L478.467 445.176L476.949 449.678L473.349 446.583L472.855 447.287L471.866 448.693L470.596 450.452L468.054 446.442L464.278 449.327L463.078 444.719L458.595 446.372L458.772 441.624L454.042 441.87L455.595 437.404L455.524 437.368L460.854 421.506L472.113 425.27L483.408 421.506L488.914 437.861L486.337 438.318Z" fill="#08243B"/>
<path opacity="0.1" d="M468.161 403.991L468.23 404.025L468.161 403.991Z" fill="#848484"/>
<path opacity="0.1" d="M468.196 404.095L468.23 404.026L468.196 404.095Z" fill="#848484"/>
<path d="M482.808 440.217L478.467 438.318L476.949 442.82L473.349 439.725L470.596 443.594L468.055 439.549L464.278 442.433L463.043 437.861L458.596 439.479L458.772 434.766L454.042 435.012L455.595 430.545L451.007 429.385L453.831 425.551L449.736 423.089L453.584 420.311L450.442 416.758L454.925 415.176L452.948 410.885L457.713 410.709L457.113 405.996L461.702 407.227L462.513 402.549L466.537 405.082L468.69 400.861L471.796 404.449L475.079 401.072L476.985 405.398L481.149 403.112L481.679 407.825L486.338 406.875L485.455 411.553L490.185 412.01L487.961 416.196L492.373 418.024L488.985 421.366L492.656 424.39L488.42 426.606L491.032 430.581L486.338 431.46L487.644 436.032L482.914 435.469L482.808 440.217Z" fill="url(#paint13_linear)"/>
<path d="M488.88 426.712L493.186 424.426L489.444 421.296L492.903 417.849L488.385 415.985L490.68 411.694L485.809 411.237L486.727 406.453L481.926 407.438L481.397 402.585L479.067 403.851L477.126 404.906L475.185 400.439L471.796 403.956L468.62 400.263L466.396 404.589L462.267 401.987L461.42 406.805L456.69 405.539L457.325 410.357L452.455 410.533L454.466 414.965L449.843 416.583L453.09 420.24L449.137 423.124L453.302 425.657L450.407 429.561L455.137 430.757L455.031 431.003L453.513 435.294L453.478 435.364H453.549L458.349 435.118L458.172 439.901V439.971L458.243 439.936L462.761 438.283L464.031 442.996L467.914 440.042L470.491 444.157L473.314 440.182L477.02 443.348L478.573 438.74L483.056 440.71L483.162 435.821L487.997 436.384L486.656 431.706L491.456 430.827L488.88 426.712ZM482.526 439.725L478.291 437.861L476.844 442.222L473.349 439.198L470.667 442.961L468.196 439.057L464.526 441.871L463.326 437.404L458.984 438.987L459.161 434.379L454.537 434.625L455.808 431.038L456.09 430.264L451.607 429.139L454.36 425.411L450.407 423.019L454.149 420.276L451.078 416.829L455.455 415.317L453.549 411.131L458.172 410.955L457.572 406.383L462.055 407.579L462.831 403.042L466.749 405.504L468.832 401.389L471.832 404.906L475.044 401.6L476.879 405.82L479.279 404.484L480.938 403.569L481.432 408.142L485.985 407.227L485.103 411.764L489.727 412.222L487.538 416.301L491.809 418.06L488.527 421.331L492.091 424.285L487.997 426.431L490.538 430.299L485.985 431.143L487.256 435.575L482.668 435.047L482.526 439.725Z" fill="#606060"/>
<path d="M486.056 422.597C486.056 430.792 479.385 437.404 471.196 437.404C462.972 437.404 456.337 430.756 456.337 422.597C456.337 414.402 463.008 407.79 471.196 407.79C479.42 407.755 486.056 414.402 486.056 422.597Z" fill="#08243B"/>
<path d="M479.738 409.513C477.303 407.86 474.338 406.91 471.196 406.91C462.725 406.91 455.843 413.769 455.843 422.21C455.843 425.551 456.902 428.611 458.737 431.108C461.525 434.977 466.078 437.509 471.232 437.509C479.703 437.509 486.585 430.651 486.585 422.21C486.55 416.934 483.868 412.256 479.738 409.513ZM471.196 436.56C466.608 436.56 462.514 434.414 459.866 431.038C457.961 428.611 456.796 425.516 456.796 422.21C456.796 414.296 463.255 407.86 471.196 407.86C474.373 407.86 477.303 408.88 479.703 410.639C483.267 413.241 485.597 417.462 485.597 422.21C485.597 430.123 479.138 436.56 471.196 436.56Z" fill="#9AA0A6"/>
<path d="M471.196 411.905L474.338 418.2L481.326 419.22L476.243 424.144L477.444 431.108L471.196 427.802L464.949 431.108L466.114 424.144L461.066 419.22L468.055 418.2L471.196 411.905Z" fill="url(#paint14_linear)"/>
<defs>
<linearGradient id="paint0_linear" x1="377.09" y1="139.001" x2="329.988" y2="178.936" gradientUnits="userSpaceOnUse">
<stop stop-color="#9AA0A6"/>
</linearGradient>
<linearGradient id="paint1_linear" x1="355.927" y1="149.411" x2="349.476" y2="178.594" gradientUnits="userSpaceOnUse">
<stop offset="0.2368" stop-color="#143A59"/>
</linearGradient>
<linearGradient id="paint2_linear" x1="219.457" y1="63.0977" x2="228.234" y2="84.14" gradientUnits="userSpaceOnUse">
<stop offset="0.1041" stop-color="#5786ED"/>
<stop offset="1" stop-color="#2950AF"/>
</linearGradient>
<linearGradient id="paint3_linear" x1="271.558" y1="273.08" x2="188.287" y2="113.677" gradientUnits="userSpaceOnUse">
<stop offset="0.927083" stop-color="#08243B"/>
<stop offset="1" stop-color="#2950AF"/>
</linearGradient>
<linearGradient id="paint4_linear" x1="183.53" y1="101.298" x2="250.146" y2="237.862" gradientUnits="userSpaceOnUse">
<stop offset="0.0705705" stop-color="#D4492A"/>
</linearGradient>
<linearGradient id="paint5_linear" x1="232.14" y1="301.204" x2="27.7552" y2="480.377" gradientUnits="userSpaceOnUse">
<stop offset="0.583333" stop-color="#08243B"/>
</linearGradient>
<linearGradient id="paint6_linear" x1="164.758" y1="337.381" x2="144.96" y2="433.245" gradientUnits="userSpaceOnUse">
<stop stop-color="#9AA0A6"/>
</linearGradient>
<linearGradient id="paint7_linear" x1="194.491" y1="302.078" x2="130.118" y2="452.59" gradientUnits="userSpaceOnUse">
<stop offset="0.5721" stop-color="#606060"/>
</linearGradient>
<linearGradient id="paint8_linear" x1="193.23" y1="359.694" x2="146.166" y2="380.187" gradientUnits="userSpaceOnUse">
<stop stop-color="#DADADA"/>
</linearGradient>
<linearGradient id="paint9_linear" x1="543.217" y1="297.309" x2="341.878" y2="432.979" gradientUnits="userSpaceOnUse">
<stop offset="0.645833" stop-color="#08243B"/>
</linearGradient>
<linearGradient id="paint10_linear" x1="545.299" y1="311.942" x2="266.483" y2="463.468" gradientUnits="userSpaceOnUse">
<stop offset="0.5721" stop-color="#F1EFEC"/>
</linearGradient>
<linearGradient id="paint11_linear" x1="501.405" y1="432.908" x2="445.095" y2="451.883" gradientUnits="userSpaceOnUse">
<stop stop-color="#08243B"/>
</linearGradient>
<linearGradient id="paint12_linear" x1="503.162" y1="438.121" x2="446.852" y2="457.096" gradientUnits="userSpaceOnUse">
<stop stop-color="#9AA0A6"/>
<stop offset="0.826047" stop-color="#9AA0A6"/>
</linearGradient>
<linearGradient id="paint13_linear" x1="494.239" y1="403.786" x2="453.54" y2="436.406" gradientUnits="userSpaceOnUse">
<stop offset="0.5721" stop-color="#9AA0A6"/>
</linearGradient>
<linearGradient id="paint14_linear" x1="490.785" y1="410.277" x2="462.582" y2="429.638" gradientUnits="userSpaceOnUse">
<stop offset="0.5721" stop-color="#F1EFEC"/>
</linearGradient>
</defs>
</svg>
