<svg width="265" height="486" viewBox="0 0 265 486" fill="none" xmlns="http://www.w3.org/2000/svg">
<path d="M98.572 393.204C98.5952 392.873 98.6315 392.543 98.6315 392.212C98.6315 384.458 98.6018 376.707 98.6315 368.956C98.6579 364.309 95.1191 360.98 90.7088 361C69.9942 361.083 49.2762 361.046 28.5616 361.023C26.8252 361.023 25.4685 361.618 24.5111 363.033C24.3527 363.268 24.1645 363.482 23.9896 363.489C22.6394 363.562 21.8702 364.524 21.0185 365.366C15.9568 370.434 10.8951 375.503 5.83333 380.571C5.09058 381.314 4.33792 382.032 4.22238 383.169C4.17616 383.598 3.82295 383.81 3.49284 384.045C3.01006 384.37 2.61937 384.815 2.35856 385.336C2.09775 385.857 1.97564 386.437 2.00402 387.019C2.00402 387.142 2.00402 387.267 2.00402 387.39C2.00402 417.164 2.00402 446.936 2.00402 476.705C2.01013 478.64 2.78147 480.494 4.14932 481.861C5.51717 483.228 7.37015 483.997 9.30283 484C36.568 484 63.8321 484 91.095 484C95.304 484 98.5159 480.781 98.6282 476.451C98.6612 475.172 98.6282 473.892 98.6282 472.613" stroke="white" stroke-width="3" stroke-linecap="round" stroke-linejoin="round"/>
<path d="M53.7736 384.367L79.9945 384.428C80.9767 384.428 81.9187 384.358 82.6327 383.593C83.0506 383.176 83.2783 382.618 83.2663 382.042C83.2428 380.176 83.2663 378.306 83.2663 376.44C83.2663 374.965 82.4417 374.181 80.8862 374.178C68.0473 374.178 55.2083 374.178 42.3693 374.178C40.9782 374.178 40.1301 374.997 40.1167 376.319C40.1167 378.109 40.2239 379.905 40.0798 381.682C39.9558 383.189 41.0553 384.447 42.9962 384.428C44.1695 384.428 45.3427 384.428 46.5093 384.428" stroke="white" stroke-width="3" stroke-linecap="round" stroke-linejoin="round"/>
<path d="M121.49 427.502C121.733 426.243 122.188 425.033 122.838 423.925C123.212 423.275 123.442 422.553 123.513 421.807C123.583 421.062 123.492 420.31 123.247 419.602C123.001 418.894 122.606 418.246 122.088 417.702C121.57 417.157 120.94 416.729 120.242 416.446C117.657 415.305 116.2 413.451 116.041 410.644C115.862 407.501 112.324 404.973 109.089 405.959C106.838 406.646 104.915 405.982 103.266 404.371C102.724 403.8 102.151 403.26 101.548 402.753C100.141 401.655 96.5819 401.701 94.9697 403.263C94.5492 403.664 94.1321 404.075 93.7282 404.493C93.0504 405.258 92.1589 405.806 91.1668 406.067C90.1748 406.328 89.127 406.29 88.1566 405.959C84.664 404.927 81.2707 407.774 81.1052 411.015C80.976 413.576 79.7213 415.207 77.3808 416.196C75.2323 417.104 73.9213 418.682 73.7657 421.101C73.6793 422.18 73.9514 423.258 74.5403 424.169C76.0168 426.427 75.954 428.643 74.6562 430.951C72.8189 434.219 73.865 437.421 77.2517 438.936C79.5691 439.978 80.9595 441.566 81.1217 444.232C81.2806 446.81 83.0319 448.789 85.7995 449.404C86.3457 449.525 86.8887 449.673 87.3521 449.788C87.5205 450.298 87.5814 450.836 87.5309 451.37C87.5309 456.63 87.5309 461.87 87.5309 467.12C87.5309 468.208 87.6534 469.29 88.6763 469.786C89.6132 470.243 90.6064 469.948 91.5168 469.349C93.2647 468.195 95.0723 467.137 96.8335 466.006C98.0485 465.227 99.1906 465.184 100.439 466.006C102.342 467.248 104.302 468.416 106.255 469.583C108.073 470.671 109.466 469.964 109.721 467.867C109.996 465.615 109.811 463.353 109.837 461.097C109.874 457.81 109.857 454.522 109.837 451.255C109.837 449.726 109.837 449.788 111.337 449.437C113.29 448.976 114.826 448.049 115.641 446.202C115.925 445.496 116.095 444.751 116.144 443.992C116.356 441.619 117.551 439.89 119.762 439.104C120.581 438.812 121.321 438.336 121.924 437.713C122.527 437.09 122.977 436.337 123.238 435.513C123.5 434.689 123.566 433.816 123.432 432.963C123.297 432.109 122.966 431.298 122.464 430.592C121.841 429.678 121.719 428.646 121.47 427.634" stroke="white" stroke-width="3" stroke-linecap="round" stroke-linejoin="round"/>
<path d="M63.4989 418.839H14.4453" stroke="white" stroke-width="3" stroke-linecap="round" stroke-linejoin="round"/>
<path d="M62.035 405.661H12.9814" stroke="white" stroke-width="3" stroke-linecap="round" stroke-linejoin="round"/>
<path d="M63.4989 432.018H14.4453" stroke="white" stroke-width="3" stroke-linecap="round" stroke-linejoin="round"/>
<path d="M63.4989 445.197C62.3891 445.197 61.2794 445.197 60.1696 445.197C46.3255 445.197 32.4804 445.197 18.6341 445.197C17.2378 445.197 15.8416 445.197 14.4453 445.197" stroke="white" stroke-width="3" stroke-linecap="round" stroke-linejoin="round"/>
<path d="M24.5008 363.197C25.1221 364.018 25.4318 365.036 25.3742 366.067C25.3742 370.475 25.2188 374.892 25.4206 379.289C25.5463 382.026 23.6605 384.334 20.5375 384.387C15.8727 384.467 11.208 384.414 6.54655 384.387C5.66984 384.387 4.93209 383.937 4.19434 383.517" stroke="white" stroke-width="3" stroke-linecap="round" stroke-linejoin="round"/>
<path d="M41.5346 464.232H14.4453" stroke="white" stroke-width="3" stroke-linecap="round" stroke-linejoin="round"/>
<path d="M109.624 449.782C107.728 448.425 105.387 448.635 103.644 450.288C102.835 451.054 102.203 452.022 101.209 452.581C99.3349 453.63 96.4765 453.555 94.6155 451.563C93.742 450.63 92.9435 449.551 91.6821 449.161C90.2709 448.727 88.8628 448.621 87.6602 449.782" stroke="white" stroke-width="3" stroke-linecap="round" stroke-linejoin="round"/>
<path d="M98.6423 438.607C104.708 438.607 109.624 433.526 109.624 427.259C109.624 420.991 104.708 415.911 98.6423 415.911C92.577 415.911 87.6602 420.991 87.6602 427.259C87.6602 433.526 92.577 438.607 98.6423 438.607Z" stroke="white" stroke-width="3" stroke-linecap="round" stroke-linejoin="round"/>
<path d="M253.792 282.586C253.792 267.691 253.761 252.795 253.816 237.903C253.822 237.094 253.673 236.292 253.379 235.544C253.085 234.795 252.651 234.115 252.103 233.544C251.554 232.972 250.902 232.519 250.184 232.213C249.467 231.907 248.698 231.752 247.922 231.759C243.119 231.851 238.315 231.784 233.512 231.784" stroke="white" stroke-width="3" stroke-linecap="round" stroke-linejoin="round"/>
<path d="M165.079 231.787C160.093 231.787 155.107 231.862 150.125 231.759C149.31 231.752 148.501 231.911 147.748 232.225C146.995 232.54 146.313 233.005 145.743 233.591C145.174 234.178 144.728 234.874 144.433 235.638C144.137 236.402 143.999 237.218 144.026 238.037C144.058 252.886 144.026 267.738 144.026 282.586" stroke="white" stroke-width="3" stroke-linecap="round" stroke-linejoin="round"/>
<path d="M207.924 215.069C207.924 211.941 207.862 208.813 207.945 205.688C208.005 203.333 206.147 200.745 203.613 200.297C200.507 199.763 197.335 199.763 194.229 200.297C191.695 200.734 189.837 203.333 189.9 205.688C189.98 208.813 189.921 211.941 189.921 215.069" stroke="white" stroke-width="3" stroke-linecap="round" stroke-linejoin="round"/>
<path d="M153.799 197.62C153.799 200.291 153.799 202.962 153.799 205.632C153.799 207.158 154.096 207.479 155.458 207.483C159.417 207.483 163.376 207.483 167.335 207.483" stroke="white" stroke-width="3" stroke-linecap="round" stroke-linejoin="round"/>
<path d="M244.039 197.62C244.039 200.291 244.039 202.962 244.039 205.632C244.039 207.158 243.746 207.479 242.384 207.483C238.425 207.483 234.462 207.483 230.503 207.483" stroke="white" stroke-width="3" stroke-linecap="round" stroke-linejoin="round"/>
<path d="M253.064 220.38H243.288" stroke="white" stroke-width="3" stroke-linecap="round" stroke-linejoin="round"/>
<path d="M153.8 220.38H144.776" stroke="white" stroke-width="3" stroke-linecap="round" stroke-linejoin="round"/>
<path d="M198.92 227.207V234.034" stroke="white" stroke-width="3" stroke-linecap="round" stroke-linejoin="round"/>
<path d="M136.208 297.773C135.237 297.863 135.018 298.5 135.018 299.342C135.018 304.18 134.962 309.024 135.047 313.862C135.092 316.274 137.464 318.857 140.424 318.962C140.642 318.962 140.86 318.962 141.082 318.962C179.624 318.962 218.17 318.974 256.72 319C260.179 319 262.991 315.99 262.836 312.939C262.611 308.545 262.762 304.134 262.783 299.73C262.783 298.08 262.463 297.759 260.802 297.759C246.578 297.773 232.354 297.773 218.13 297.759C216.371 297.759 216.16 297.965 216.153 299.72C216.153 301.289 216.131 302.865 216.153 304.428C216.181 306.081 215.832 306.403 214.171 306.399C205.303 306.383 196.436 306.383 187.568 306.399C186.118 306.399 184.668 306.42 183.218 306.399C182.046 306.375 181.666 306.001 181.645 304.837C181.621 303.134 181.645 301.432 181.645 299.733C181.645 297.986 181.438 297.773 179.671 297.773C165.227 297.773 150.782 297.773 136.338 297.773" stroke="white" stroke-width="3" stroke-linecap="round" stroke-linejoin="round"/>
<path d="M208.977 215.069H188.115C186.192 215.069 184.634 216.631 184.634 218.558V234.338C184.634 236.265 186.192 237.828 188.115 237.828H208.977C210.9 237.828 212.458 236.265 212.458 234.338V218.558C212.458 216.631 210.9 215.069 208.977 215.069Z" stroke="white" stroke-width="3" stroke-linecap="round" stroke-linejoin="round"/>
<path d="M153.05 197.621C155.542 197.621 157.562 195.583 157.562 193.069C157.562 190.555 155.542 188.517 153.05 188.517C150.558 188.517 148.538 190.555 148.538 193.069C148.538 195.583 150.558 197.621 153.05 197.621Z" stroke="white" stroke-width="3" stroke-linecap="round" stroke-linejoin="round"/>
<path d="M139.512 224.172C142.004 224.172 144.024 222.134 144.024 219.621C144.024 217.107 142.004 215.069 139.512 215.069C137.02 215.069 135 217.107 135 219.621C135 222.134 137.02 224.172 139.512 224.172Z" stroke="white" stroke-width="3" stroke-linecap="round" stroke-linejoin="round"/>
<path d="M157.937 260.586C160.637 260.586 162.825 258.548 162.825 256.034C162.825 253.521 160.637 251.483 157.937 251.483C155.237 251.483 153.049 253.521 153.049 256.034C153.049 258.548 155.237 260.586 157.937 260.586Z" stroke="white" stroke-width="3" stroke-linecap="round" stroke-linejoin="round"/>
<path d="M244.416 197.621C247.116 197.621 249.304 195.583 249.304 193.069C249.304 190.555 247.116 188.517 244.416 188.517C241.717 188.517 239.528 190.555 239.528 193.069C239.528 195.583 241.717 197.621 244.416 197.621Z" stroke="white" stroke-width="3" stroke-linecap="round" stroke-linejoin="round"/>
<path d="M258.331 224.172C260.823 224.172 262.843 222.134 262.843 219.621C262.843 217.107 260.823 215.069 258.331 215.069C255.839 215.069 253.819 217.107 253.819 219.621C253.819 222.134 255.839 224.172 258.331 224.172Z" stroke="white" stroke-width="3" stroke-linecap="round" stroke-linejoin="round"/>
<path d="M239.903 260.586C242.187 260.586 244.039 258.548 244.039 256.034C244.039 253.521 242.187 251.483 239.903 251.483C237.618 251.483 235.767 253.521 235.767 256.034C235.767 258.548 237.618 260.586 239.903 260.586Z" stroke="white" stroke-width="3" stroke-linecap="round" stroke-linejoin="round"/>
<path d="M198.923 227.207C200.584 227.207 201.931 226.018 201.931 224.552C201.931 223.085 200.584 221.896 198.923 221.896C197.262 221.896 195.915 223.085 195.915 224.552C195.915 226.018 197.262 227.207 198.923 227.207Z" stroke="white" stroke-width="3" stroke-linecap="round" stroke-linejoin="round"/>
<path d="M156.059 274.241H190.651" stroke="white" stroke-width="3" stroke-linecap="round" stroke-linejoin="round"/>
<path d="M206.441 274.241H241.034" stroke="white" stroke-width="3" stroke-linecap="round" stroke-linejoin="round"/>
<path d="M156.059 287.896H190.651" stroke="white" stroke-width="3" stroke-linecap="round" stroke-linejoin="round"/>
<path d="M206.441 287.896H241.034" stroke="white" stroke-width="3" stroke-linecap="round" stroke-linejoin="round"/>
<path d="M198.92 256.793C194.214 254.081 175.863 242.774 169.919 220.268C168.023 212.987 167.595 205.395 168.66 197.943L195.782 187.617C196.632 187.28 197.529 187.076 198.44 187.013C198.761 186.996 199.082 186.996 199.402 187.013C200.314 187.076 201.211 187.28 202.061 187.617L229.183 197.943C230.248 205.395 229.82 212.987 227.923 220.268C221.976 242.774 203.628 254.081 198.92 256.793Z" stroke="white" stroke-width="3" stroke-linecap="round" stroke-linejoin="round"/>
<path d="M157.561 251.483V244.493C157.56 244.216 157.62 243.941 157.737 243.685C157.854 243.428 158.025 243.195 158.242 242.999C158.458 242.802 158.715 242.647 158.998 242.54C159.281 242.434 159.584 242.379 159.89 242.379H180.873" stroke="white" stroke-width="3" stroke-linecap="round" stroke-linejoin="round"/>
<path d="M240.283 250.724V242.566C240.295 241.926 240.064 241.308 239.641 240.846C239.217 240.384 238.636 240.117 238.024 240.103H217.723" stroke="white" stroke-width="3" stroke-linecap="round" stroke-linejoin="round"/>
<path d="M78.8668 50.6873C78.8668 47.7472 78.9601 44.7999 78.8417 41.8634C78.655 37.2193 76.4615 33.804 72.1462 31.8356C68.0535 29.9637 64.1762 30.4745 60.604 33.0574C57.4125 35.3687 55.9657 38.6054 56.0159 42.5314C56.0518 45.25 56.0159 47.9686 56.0159 50.6873" stroke="white" stroke-width="3" stroke-linecap="round" stroke-linejoin="round"/>
<path d="M13.9494 111.026C11.3107 111.026 8.78002 110.002 6.91414 108.18C5.04825 106.357 4 103.886 4 101.309V19.0612H25.6387" stroke="white" stroke-width="3" stroke-linecap="round" stroke-linejoin="round"/>
<path d="M37.291 19.0612H123.216C124.5 19.0589 125.772 19.3086 126.959 19.7959C128.146 20.2832 129.225 20.9985 130.134 21.9011C131.042 22.8036 131.763 23.8756 132.255 25.0556C132.747 26.2357 133.001 27.5007 133.001 28.7782V101.309C133.001 102.585 132.748 103.848 132.257 105.027C131.766 106.206 131.047 107.277 130.14 108.18C129.233 109.082 128.156 109.798 126.971 110.286C125.786 110.774 124.516 111.026 123.233 111.026H121.182" stroke="white" stroke-width="3" stroke-linecap="round" stroke-linejoin="round"/>
<path d="M120.93 110.61C120.93 116.018 118.784 121.204 114.964 125.028C111.145 128.852 105.964 131 100.562 131H33.9321C28.5309 130.999 23.3514 128.85 19.5325 125.027C15.7137 121.203 13.5684 116.017 13.5684 110.61V110.61C13.5684 105.202 15.7137 100.017 19.5325 96.1928C23.3514 92.369 28.5309 90.2203 33.9321 90.2194H100.562C105.964 90.2194 111.145 92.3676 114.964 96.1916C118.784 100.015 120.93 105.202 120.93 110.61Z" stroke="white" stroke-width="3" stroke-linecap="round" stroke-linejoin="round"/>
<path d="M80.2903 50.687H55.0447C50.9847 50.687 47.6934 53.944 47.6934 57.9618V82.9444C47.6934 86.9622 50.9847 90.2192 55.0447 90.2192H80.2903C84.3504 90.2192 87.6417 86.9622 87.6417 82.9444V57.9618C87.6417 53.944 84.3504 50.687 80.2903 50.687Z" stroke="white" stroke-width="3" stroke-linecap="round" stroke-linejoin="round"/>
<path d="M24.9705 19.0613H4V10.4288C4 5.77413 8.34849 2 13.6941 2H42.271C46.0344 2 49.4724 3.85426 51.1343 6.78931L58.0967 19.0578H32.2896" stroke="white" stroke-width="3" stroke-linecap="round" stroke-linejoin="round"/>
<path d="M73.9118 68.2477C73.9118 64.7521 70.9324 61.9228 67.2571 61.9228C63.5819 61.9228 60.5957 64.7521 60.5957 68.2477C60.6116 69.2522 60.8614 70.2373 61.3233 71.1159C61.7851 71.9946 62.4448 72.7399 63.2441 73.2863C63.2441 73.3967 63.2441 73.5036 63.2441 73.6141C63.2441 76.5788 65.0445 78.984 67.2639 78.984C69.4833 78.984 71.2871 76.5788 71.2871 73.6141C71.2871 73.5036 71.2871 73.3967 71.2871 73.2863C72.0823 72.7373 72.7374 71.9907 73.1951 71.1122C73.6527 70.2337 73.8988 69.25 73.9118 68.2477V68.2477Z" stroke="white" stroke-width="3" stroke-linecap="round" stroke-linejoin="round"/>
<path d="M32.1642 110.25C32.1734 109.175 32.1616 108.137 32.129 107.138C32.0873 105.859 32.039 104.666 31.9841 103.56L31.9571 103.017L32.5013 103.036L33.7593 103.081L34.2625 103.099L34.241 103.602C34.185 104.913 34.1355 106.199 34.096 107.468C34.0934 107.549 34.0909 107.629 34.0884 107.71C34.0613 108.58 34.0345 109.436 34.0125 110.282C35.0809 109.618 36.0755 108.994 36.9963 108.408C38.1394 107.681 39.058 107.085 39.7535 106.62L40.2115 106.313L40.4721 106.799L41.0599 107.894L41.2906 108.324L40.8663 108.566L34.9408 111.932L40.7314 115.408L41.1632 115.667L40.9008 116.097L40.2702 117.13L40.0055 117.564L39.5761 117.292C38.3689 116.529 37.2032 115.759 36.0792 114.984C35.2993 114.446 34.5983 113.977 33.9758 113.578C33.969 114.278 33.9556 115.104 33.9376 116.056C33.9114 117.443 33.9376 118.939 33.9805 120.539L33.9936 121.031L33.5019 121.052L32.452 121.097L31.9047 121.12L31.9312 120.573C31.9861 119.44 32.0355 118.174 32.0795 116.776C32.1101 115.695 32.1308 114.64 32.1385 113.612C31.0841 114.249 30.0982 114.833 29.181 115.363C28.0555 116.014 27.1676 116.568 26.5125 117.025L26.0681 117.335L25.7947 116.867L25.207 115.861L24.9398 115.404L25.4117 115.164C26.5499 114.584 27.6973 113.968 28.8537 113.317C29.7233 112.827 30.5319 112.365 31.2796 111.93C30.1495 111.253 29.1316 110.631 28.226 110.063C27.1381 109.381 26.2527 108.854 25.5674 108.48L25.1025 108.226L25.3828 107.777L26.0102 106.771L26.2847 106.331L26.7144 106.621L29.6295 108.591L32.1642 110.25ZM32.1642 110.25C31.3049 109.704 30.4601 109.151 29.6299 108.591L32.1642 110.25Z" fill="white" stroke="white"/>
<path d="M55.2099 107.138C55.2436 108.142 55.2556 109.183 55.2459 110.263C54.3535 109.712 53.4763 109.153 52.6143 108.588C52.6142 108.588 52.6141 108.588 52.614 108.588L49.6179 106.618L49.1953 106.34L48.9223 106.766L48.2775 107.771L47.9844 108.229L48.4644 108.483C49.1711 108.858 50.081 109.384 51.1968 110.066C52.1243 110.633 53.1691 111.254 54.331 111.929C53.5614 112.364 52.7316 112.825 51.8413 113.314C50.655 113.965 49.4758 114.581 48.3036 115.161L47.8175 115.402L48.0967 115.867L48.7008 116.872L48.9725 117.325L49.4097 117.029C50.0861 116.571 50.9996 116.017 52.1544 115.366C53.103 114.831 54.1248 114.242 55.2198 113.599C55.2119 114.631 55.1905 115.69 55.159 116.775C55.1138 118.174 55.063 119.439 55.0066 120.572L54.9794 121.119L55.5268 121.097L56.6059 121.052L57.0986 121.031L57.085 120.538L57.0812 120.4C57.0383 118.847 56.9985 117.403 57.0408 116.062C57.0712 115.099 57.0808 114.266 57.0838 113.564C57.734 113.967 58.4657 114.441 59.2793 114.987C60.4343 115.763 61.6322 116.532 62.8728 117.296L63.295 117.555L63.5584 117.136L64.2066 116.102L64.4809 115.665L64.035 115.405L58.0826 111.932L64.1641 108.568L64.6012 108.327L64.36 107.889L63.7559 106.794L63.4961 106.323L63.0452 106.616C62.3304 107.082 61.386 107.678 60.2111 108.405C59.2571 108.995 58.2259 109.625 57.1176 110.295C57.1403 109.445 57.1679 108.585 57.1959 107.711C57.1985 107.63 57.2011 107.549 57.2037 107.468C57.2443 106.2 57.2952 104.913 57.3528 103.602L57.375 103.098L56.8706 103.081L55.5776 103.036L55.0332 103.017L55.061 103.561C55.1174 104.667 55.167 105.859 55.2099 107.138Z" fill="white" stroke="white"/>
<path d="M80.8299 110.293C80.8526 109.443 80.8802 108.584 80.9083 107.71C80.9109 107.629 80.9135 107.548 80.9161 107.467C80.9568 106.199 81.0076 104.913 81.0653 103.602L81.0875 103.098L80.5831 103.081L79.289 103.036L78.744 103.017L78.7724 103.562C78.83 104.668 78.8842 105.87 78.9248 107.137C78.9567 108.132 78.9677 109.18 78.9576 110.262C78.0639 109.711 77.1855 109.152 76.3225 108.587C76.3224 108.586 76.3224 108.586 76.3224 108.586L73.3236 106.617L72.9013 106.339L72.6283 106.765L71.983 107.77L71.6878 108.23L72.1721 108.483C72.8777 108.852 73.7872 109.378 74.9034 110.064C75.8328 110.635 76.8827 111.258 78.0525 111.933C77.2845 112.367 76.4549 112.828 75.5637 113.315C74.3739 113.966 73.1934 114.582 72.0222 115.162L71.5361 115.403L71.8156 115.868L72.4202 116.873L72.6923 117.326L73.1294 117.03C73.8037 116.572 74.7176 116.019 75.8756 115.368C76.827 114.833 77.8502 114.244 78.9451 113.601C78.9377 114.632 78.9174 115.69 78.884 116.776C78.8411 118.174 78.7903 119.439 78.7316 120.571L78.7032 121.119L79.2516 121.097L80.3318 121.052L80.829 121.031L80.8107 120.534C80.7521 118.937 80.7376 117.445 80.7668 116.058C80.787 115.1 80.8003 114.269 80.8066 113.568C81.4524 113.97 82.1815 114.444 82.9944 114.989C84.1504 115.764 85.3493 116.533 86.5911 117.297L87.013 117.556L87.2763 117.136L87.9251 116.103L88.1998 115.666L87.7536 115.406L81.7958 111.93L87.8827 108.568L88.3202 108.326L88.0786 107.888L87.474 106.793L87.2139 106.322L86.7631 106.616C86.0503 107.081 85.1055 107.677 83.9274 108.403C82.9705 108.994 81.938 109.624 80.8299 110.293Z" fill="white" stroke="white"/>
<path d="M102.654 107.138C102.686 108.133 102.697 109.181 102.686 110.263C101.794 109.712 100.917 109.153 100.055 108.588C100.055 108.588 100.055 108.588 100.054 108.588L97.0584 106.618L96.6357 106.34L96.3627 106.766L95.718 107.771L95.4248 108.229L95.9048 108.483C96.6115 108.858 97.5214 109.384 98.6372 110.066C99.5647 110.633 100.61 111.254 101.771 111.929C101.002 112.364 100.172 112.825 99.2817 113.314C98.0954 113.965 96.9162 114.581 95.7441 115.161L95.2579 115.402L95.5372 115.867L96.1413 116.872L96.4138 117.326L96.8514 117.028C97.5224 116.571 98.435 116.018 99.5941 115.366C100.546 114.831 101.569 114.243 102.662 113.6C102.655 114.631 102.635 115.689 102.599 116.774C102.554 118.173 102.503 119.439 102.447 120.572L102.42 121.119L102.967 121.097L104.046 121.052L104.544 121.031L104.525 120.534C104.467 118.937 104.452 117.445 104.481 116.057C104.502 115.097 104.515 114.265 104.521 113.562C105.178 113.969 105.914 114.446 106.731 114.988C107.886 115.763 109.083 116.533 110.323 117.296L110.746 117.555L111.009 117.136L111.657 116.102L111.932 115.664L111.485 115.404L105.524 111.931L111.605 108.568L112.042 108.327L111.8 107.889L111.196 106.794L110.936 106.322L110.485 106.617C109.773 107.082 108.829 107.678 107.652 108.405C106.696 108.995 105.665 109.625 104.558 110.294C104.581 109.443 104.608 108.581 104.637 107.705C104.639 107.626 104.642 107.547 104.644 107.468C104.685 106.2 104.736 104.913 104.793 103.602L104.815 103.098L104.311 103.081L103.018 103.036L102.473 103.017L102.501 103.562C102.559 104.668 102.613 105.871 102.654 107.138Z" fill="white" stroke="white"/>
<path d="M133.107 60.9358L138.433 65.4918C173.951 95.8787 196.207 138.928 200.463 185.477V185.477" stroke="white" stroke-width="3"/>
<path d="M121.995 427.633V427.633C162.415 403.381 191.453 363.841 202.431 318V318" stroke="white" stroke-width="3"/>
</svg>
