<svg width="341" height="341" viewBox="0 0 341 341" fill="none" xmlns="http://www.w3.org/2000/svg">
<path d="M288.008 81.6138H52.9912V261.215H288.008V81.6138Z" fill="url(#paint0_linear)"/>
<path d="M284.181 85.4414H56.8193V257.387H284.181V85.4414Z" fill="url(#paint1_linear)"/>
<path d="M261.172 249.732C261.087 249.052 261.002 248.371 261.002 247.691C261.002 240.206 267.041 234.166 274.526 234.166C275.206 234.166 275.887 234.252 276.567 234.337V108.45C275.887 108.535 275.206 108.62 274.526 108.62C267.041 108.62 261.002 102.581 261.002 95.0956C261.002 94.4151 261.087 93.7347 261.172 93.0542H79.8692C79.9543 93.7347 80.0394 94.4151 80.0394 95.0956C80.0394 102.581 74.0002 108.62 66.515 108.62C65.8346 108.62 65.1541 108.535 64.4736 108.45V234.337C65.1541 234.209 65.8346 234.166 66.515 234.166C73.9577 234.166 80.0394 240.206 80.0394 247.691C80.0394 248.371 79.9543 249.052 79.8692 249.732H261.172Z" fill="#F1EFEC"/>
<path d="M276.525 96.7965C276.525 98.838 274.866 100.497 272.825 100.497C270.784 100.497 269.125 98.838 269.125 96.7965C269.125 94.7551 270.784 93.0965 272.825 93.0965C274.866 93.054 276.525 94.7126 276.525 96.7965Z" fill="#F1EFEC"/>
<path d="M71.9167 96.797C71.9167 98.8384 70.2581 100.497 68.2167 100.497C66.1752 100.497 64.5166 98.8384 64.5166 96.797C64.5166 94.7556 66.1752 93.097 68.2167 93.097C70.2155 93.0545 71.9167 94.7131 71.9167 96.797Z" fill="#F1EFEC"/>
<path d="M71.9157 246.032C71.9157 248.074 70.2571 249.732 68.2157 249.732C66.1743 249.732 64.5156 248.074 64.5156 246.032C64.5156 243.991 66.1743 242.332 68.2157 242.332C70.2146 242.332 71.9157 243.991 71.9157 246.032Z" fill="#F1EFEC"/>
<path d="M276.525 246.032C276.525 248.074 274.866 249.732 272.825 249.732C270.784 249.732 269.125 248.074 269.125 246.032C269.125 243.991 270.784 242.332 272.825 242.332C274.866 242.332 276.525 243.991 276.525 246.032Z" fill="#F1EFEC"/>
<path d="M226.51 116.573H114.445V123.59H226.51V116.573Z" fill="#08243B"/>
<path d="M258.067 147.747H82.9316V154.764H258.067V147.747Z" fill="#08243B"/>
<path d="M258.067 163.057H82.9316V170.032H258.067V163.057Z" fill="#08243B"/>
<path d="M258.067 178.325H82.9316V185.343H258.067V178.325Z" fill="#08243B"/>
<path opacity="0.3" d="M227.574 260.705L227.744 261.215H252.667L247.776 246.627L245.267 239.185L250.965 238.122L247.776 233.188L252.964 230.466L248.456 226.681L252.624 222.513L247.18 220.259L249.945 215.071L244.076 214.475L245.181 208.691L239.397 209.882L238.76 204.056L235.953 205.587L233.613 206.862L231.274 201.461L227.149 205.714L223.321 201.206L220.642 206.48L215.666 203.333L214.688 209.159L208.989 207.585L209.755 213.455L203.843 213.667L206.31 219.026L200.738 220.94L204.651 225.363L199.888 228.85L204.949 231.912L201.419 236.633L207.16 238.079L207.033 238.377L205.204 243.523V243.608H205.289L208.394 243.438L207.543 246.075L202.482 261.215H227.404L227.574 260.705Z" fill="#08243B"/>
<path d="M240.333 230.594L232.38 254.283L231.487 256.92L223.406 281.119L216.431 278.78L207.5 275.803L200.993 273.634L211.498 242.29L217.92 223.109L231.487 227.66L240.333 230.594Z" fill="#9AA0A6"/>
<path d="M233.019 229.233L216.432 278.78L207.501 275.802L224.087 226.256L233.019 229.233Z" fill="url(#paint2_linear)"/>
<path d="M262.023 273.634L255.856 275.675L246.075 278.95L239.61 281.119L231.487 256.92L231.189 255.984L222.684 230.594L231.487 227.66L245.097 223.109L251.731 242.885L262.023 273.634Z" fill="url(#paint3_linear)"/>
<path d="M255.856 275.675L246.074 278.95L230.381 232.082L239.992 228.34L255.856 275.675Z" fill="#08243B"/>
<path opacity="0.3" d="M248.626 243.438L250.2 248.967L244.501 248.329L244.373 254.028L239.142 251.731L237.313 257.175L232.975 253.432L232.38 254.283L231.189 255.984L229.658 258.111L226.596 253.262L222.045 256.75L220.599 251.178L215.198 253.177L215.411 247.436L209.712 247.733L211.583 242.332L211.498 242.29L217.92 223.109L231.487 227.66L245.096 223.109L251.731 242.885L248.626 243.438Z" fill="#08243B"/>
<path opacity="0.1" d="M226.724 201.929L226.809 201.972L226.724 201.929Z" fill="#848484"/>
<path opacity="0.1" d="M226.767 202.056L226.809 201.972L226.767 202.056Z" fill="#848484"/>
<path d="M244.373 245.734L239.142 243.438L237.314 248.882L232.976 245.139L229.658 249.817L226.596 244.926L222.046 248.414L220.557 242.885L215.198 244.841L215.411 239.142L209.712 239.44L211.583 234.039L206.054 232.635L209.457 228L204.523 225.023L209.159 221.663L205.374 217.367L210.775 215.453L208.394 210.265L214.135 210.052L213.412 204.353L218.941 205.842L219.919 200.185L224.767 203.248L227.362 198.144L231.104 202.482L235.06 198.399L237.356 203.63L242.375 200.866L243.013 206.565L248.626 205.417L247.563 211.073L253.262 211.626L250.583 216.687L255.899 218.898L251.816 222.939L256.239 226.596L251.136 229.276L254.283 234.081L248.626 235.145L250.2 240.673L244.501 239.993L244.373 245.734Z" fill="url(#paint4_linear)"/>
<path d="M251.689 229.403L256.877 226.639L252.369 222.854L256.537 218.686L251.093 216.432L253.858 211.243L247.989 210.691L249.095 204.907L243.311 206.097L242.673 200.228L239.866 201.759L237.527 203.035L235.187 197.634L231.105 201.887L227.277 197.421L224.598 202.652L219.622 199.505L218.601 205.332L212.902 203.801L213.668 209.627L207.799 209.84L210.223 215.199L204.651 217.155L208.564 221.578L203.801 225.065L208.819 228.128L205.332 232.848L211.031 234.294L210.903 234.592L209.074 239.781L209.032 239.866H209.117L214.901 239.568L214.688 245.352V245.437L214.773 245.394L220.217 243.396L221.748 249.094L226.426 245.522L229.531 250.498L232.933 245.692L237.399 249.52L239.27 243.948L244.671 246.33L244.799 240.418L250.626 241.099L249.009 235.443L254.793 234.379L251.689 229.403ZM244.034 245.139L238.93 242.885L237.186 248.159L232.976 244.501L229.744 249.052L226.767 244.331L222.344 247.734L220.898 242.332L215.666 244.246L215.879 238.675L210.308 238.973L211.839 234.635L212.179 233.699L206.778 232.338L210.095 227.83L205.332 224.938L209.84 221.621L206.14 217.453L211.414 215.624L209.117 210.563L214.688 210.35L213.965 204.821L219.367 206.267L220.302 200.781L225.023 203.758L227.532 198.782L231.147 203.035L235.017 199.037L237.229 204.141L240.121 202.525L242.12 201.419L242.715 206.948L248.201 205.842L247.138 211.328L252.71 211.881L250.073 216.815L255.219 218.941L251.264 222.896L255.559 226.469L250.626 229.063L253.688 233.741L248.201 234.762L249.732 240.121L244.204 239.483L244.034 245.139Z" fill="#606060"/>
<path d="M248.286 224.427C248.286 234.336 240.248 242.332 230.381 242.332C220.472 242.332 212.477 234.294 212.477 224.427C212.477 214.518 220.515 206.522 230.381 206.522C240.291 206.48 248.286 214.518 248.286 224.427Z" fill="#08243B"/>
<path d="M240.673 208.606C237.739 206.607 234.166 205.459 230.381 205.459C220.174 205.459 211.881 213.752 211.881 223.959C211.881 228 213.157 231.7 215.368 234.719C218.728 239.398 224.214 242.46 230.424 242.46C240.631 242.46 248.924 234.166 248.924 223.959C248.881 217.58 245.649 211.923 240.673 208.606ZM230.381 241.311C224.852 241.311 219.919 238.717 216.729 234.634C214.433 231.7 213.029 227.957 213.029 223.959C213.029 214.39 220.812 206.607 230.381 206.607C234.209 206.607 237.739 207.841 240.631 209.967C244.926 213.114 247.733 218.218 247.733 223.959C247.733 233.528 239.95 241.311 230.381 241.311Z" fill="#9AA0A6"/>
<path d="M230.382 211.498L234.167 219.111L242.588 220.344L236.463 226.298L237.909 234.719L230.382 230.721L222.854 234.719L224.257 226.298L218.176 220.344L226.597 219.111L230.382 211.498Z" fill="url(#paint5_linear)"/>
<defs>
<linearGradient id="paint0_linear" x1="317.162" y1="72.9272" x2="74.024" y2="236.184" gradientUnits="userSpaceOnUse">
<stop offset="0.645833" stop-color="#08243B"/>
</linearGradient>
<linearGradient id="paint1_linear" x1="319.671" y1="90.6211" x2="-16.8283" y2="272.85" gradientUnits="userSpaceOnUse">
<stop offset="0.5721" stop-color="#F1EFEC"/>
</linearGradient>
<linearGradient id="paint2_linear" x1="266.782" y1="236.896" x2="198.883" y2="259.695" gradientUnits="userSpaceOnUse">
<stop stop-color="#08243B"/>
</linearGradient>
<linearGradient id="paint3_linear" x1="268.898" y1="243.199" x2="200.999" y2="265.999" gradientUnits="userSpaceOnUse">
<stop stop-color="#9AA0A6"/>
<stop offset="0.826047" stop-color="#9AA0A6"/>
</linearGradient>
<linearGradient id="paint4_linear" x1="258.147" y1="201.681" x2="208.971" y2="240.956" gradientUnits="userSpaceOnUse">
<stop offset="0.5721" stop-color="#9AA0A6"/>
</linearGradient>
<linearGradient id="paint5_linear" x1="253.985" y1="209.53" x2="219.925" y2="232.829" gradientUnits="userSpaceOnUse">
<stop offset="0.5721" stop-color="#F1EFEC"/>
</linearGradient>
</defs>
</svg>
